<svg height="24" viewBox="0 0 24 24" width="24" xmlns="http://www.w3.org/2000/svg"><path d="m15.5 19.9188612-5.52565835-16.57697508c-.15194939-.45584816-.79673391-.45584816-.9486833 0l-2.88603796 8.65811388h-3.63962039c-.27614237 0-.5.2238576-.5.5s.22385763.5.5.5h4c.2152152 0 .40628463-.137715.47434165-.3418861l2.52565835-7.57697507 5.5256584 16.57697507c.1519493.4558481.7967339.4558481.9486832 0l2.886038-8.6581139h3.6396204c.2761424 0 .5-.2238576.5-.5s-.2238576-.5-.5-.5h-4c-.2152152 0-.4062846.137715-.4743416.3418861z"/></svg>