<svg height="24" viewBox="0 0 24 24" width="24" xmlns="http://www.w3.org/2000/svg"><path d="m4.5 17c.27614237 0 .5.2238576.5.5s-.22385763.5-.5.5h-1c-1.38071187 0-2.5-1.1192881-2.5-2.5v-10c0-1.38071187 1.11928813-2.5 2.5-2.5h16c1.3807119 0 2.5 1.11928813 2.5 2.5v10c0 1.3807119-1.1192881 2.5-2.5 2.5h-1c-.2761424 0-.5-.2238576-.5-.5s.2238576-.5.5-.5h1c.8284271 0 1.5-.6715729 1.5-1.5v-10c0-.82842712-.6715729-1.5-1.5-1.5h-16c-.82842712 0-1.5.67157288-1.5 1.5v10c0 .8284271.67157288 1.5 1.5 1.5zm6.6158894-1.8200922c.1998975-.2398771.5683237-.2398771.7682212 0l5 6c.2713863.3256635.0398082.8200922-.3841106.8200922h-10c-.42391882 0-.65549686-.4944287-.38411064-.8200922zm.3841106 1.1011172-3.93247919 4.718975h7.86495839z"/></svg>