<?xml version="1.0" encoding="UTF-8"?>
<svg width="24px" height="24px" viewBox="0 0 24 24" version="1.1" xmlns="http://www.w3.org/2000/svg" xmlns:xlink="http://www.w3.org/1999/xlink">
    <!-- Generator: Sketch 55.2 (78181) - https://sketchapp.com -->
    <title>airplay</title>
    <desc>Created with Sketch.</desc>
    <g id="airplay" stroke="none" stroke-width="1" fill="none" fill-rule="evenodd">
        <path d="M4.5,17 L3.5,17 C2.67157288,17 2,16.3284271 2,15.5 L2,5.5 C2,4.67157288 2.67157288,4 3.5,4 L19.5,4 C20.3284271,4 21,4.67157288 21,5.5 L21,15.5 C21,16.3284271 20.3284271,17 19.5,17 L18.5,17 C18.2238576,17 18,17.2238576 18,17.5 C18,17.7761424 18.2238576,18 18.5,18 L19.5,18 C20.8807119,18 22,16.8807119 22,15.5 L22,5.5 C22,4.11928813 20.8807119,3 19.5,3 L3.5,3 C2.11928813,3 1,4.11928813 1,5.5 L1,15.5 C1,16.8807119 2.11928813,18 3.5,18 L4.5,18 C4.77614237,18 5,17.7761424 5,17.5 C5,17.2238576 4.77614237,17 4.5,17 Z" id="Shape" fill="#000000" fill-rule="nonzero"></path>
        <path d="M11.1158894,15.1799078 C11.3157869,14.9400307 11.6842131,14.9400307 11.8841106,15.1799078 L16.8841106,21.1799078 C17.1554969,21.5055713 16.9239188,22 16.5,22 L6.5,22 C6.07608118,22 5.84450314,21.5055713 6.11588936,21.1799078 L11.1158894,15.1799078 Z M11.5,16.281025 L7.56752081,21 L15.4324792,21 L11.5,16.281025 Z" id="Shape" fill="#000000" fill-rule="nonzero"></path>
    </g>
</svg>