<svg height="24" viewBox="0 0 24 24" width="24" xmlns="http://www.w3.org/2000/svg"><path d="m9.86106629 3.60306446.00143371-.00237846c.4532071-.74714835 1.2636423-1.20343 2.1375-1.20343s1.6842929.45628165 2.1389337 1.20580846l8.4740616 14.14690534c.4441979.7692495.44685 1.7164336.0069668 2.4881586s-1.2562319 1.2520786-2.1499621 1.2618716h-16.94549527c-.88823497-.009793-1.70458361-.4901466-2.14446684-1.2618716-.43988324-.771725-.43723112-1.7189091.0110284-2.4950639zm2.13893371-.20580846c-.5243146 0-1.0105758.27376899-1.2810663.71967954l-8.46593843 14.13309466c-.26651878.4615497-.26811005 1.0298602-.00418011 1.4928952.26392994.4630349.75373912.7512471 1.28118484.7571048h16.9345047c.532941-.0058577 1.0227502-.2940699 1.2866801-.7571048.26393-.463035.2623387-1.0313455-.0001185-1.4859899l-8.4685663-14.1376215c-.2719242-.44828901-.7581854-.722058-1.2825-.722058zm-.5 4.302744c0-.38659932.2238576-.7.5-.7s.5.31340068.5.7v5.6c0 .3865993-.2238576.7-.5.7s-.5-.3134007-.5-.7zm.5 9.8c-.2761424 0-.5-.2238576-.5-.5s.2238576-.5.5-.5.5.2238576.5.5-.2238576.5-.5.5z"/></svg>