<?xml version="1.0" encoding="UTF-8"?>
<svg width="24px" height="24px" viewBox="0 0 24 24" version="1.1" xmlns="http://www.w3.org/2000/svg" xmlns:xlink="http://www.w3.org/1999/xlink">
    <!-- Generator: Sketch 55.2 (78181) - https://sketchapp.com -->
    <title>alert-circle</title>
    <desc>Created with Sketch.</desc>
    <g id="alert-circle" stroke="none" stroke-width="1" fill="none" fill-rule="evenodd">
        <path d="M12,22.5 C17.7989899,22.5 22.5,17.7989899 22.5,12 C22.5,6.20101013 17.7989899,1.5 12,1.5 C6.20101013,1.5 1.5,6.20101013 1.5,12 C1.5,17.7989899 6.20101013,22.5 12,22.5 Z M12,21.5 C6.75329488,21.5 2.5,17.2467051 2.5,12 C2.5,6.75329488 6.75329488,2.5 12,2.5 C17.2467051,2.5 21.5,6.75329488 21.5,12 C21.5,17.2467051 17.2467051,21.5 12,21.5 Z" id="Oval" fill="#000000" fill-rule="nonzero"></path>
        <path d="M11.5,6.2 C11.5,5.81340068 11.7238576,5.5 12,5.5 C12.2761424,5.5 12.5,5.81340068 12.5,6.2 L12.5,11.8 C12.5,12.1865993 12.2761424,12.5 12,12.5 C11.7238576,12.5 11.5,12.1865993 11.5,11.8 L11.5,6.2 Z M12,16 C11.7238576,16 11.5,15.7761424 11.5,15.5 C11.5,15.2238576 11.7238576,15 12,15 C12.2761424,15 12.5,15.2238576 12.5,15.5 C12.5,15.7761424 12.2761424,16 12,16 Z" id="Combined-Shape" fill="#000000" fill-rule="nonzero"></path>
    </g>
</svg>