<svg height="24" viewBox="0 0 24 24" width="24" xmlns="http://www.w3.org/2000/svg"><path d="m7.50644661 1.64644661c.09376819-.09376819.22094515-.14644661.35355339-.14644661h8.28c.1326082 0 .2597852.05267842.3535534.14644661l5.86 5.86c.0937682.09376819.1464466.22094515.1464466.35355339v8.28c0 .1326082-.0526784.2597852-.1464466.3535534l-5.86 5.86c-.0937682.0937682-.2209452.1464466-.3535534.1464466h-8.28c-.13260824 0-.2597852-.0526784-.35355339-.1464466l-5.86-5.86c-.09376819-.0937682-.14644661-.2209452-.14644661-.3535534v-8.28c0-.13260824.05267842-.2597852.14644661-.35355339zm.56066017.85355339-5.56710678 5.56710678v7.86578642l5.56710678 5.5671068h7.86578642l5.5671068-5.5671068v-7.86578642l-5.5671068-5.56710678zm3.43289322 3.7c0-.38659932.2238576-.7.5-.7s.5.31340068.5.7v5.6c0 .3865993-.2238576.7-.5.7s-.5-.3134007-.5-.7zm.5 9.8c-.2761424 0-.5-.2238576-.5-.5s.2238576-.5.5-.5.5.2238576.5.5-.2238576.5-.5.5z"/></svg>