<?xml version="1.0" encoding="UTF-8"?>
<svg width="24px" height="24px" viewBox="0 0 24 24" version="1.1" xmlns="http://www.w3.org/2000/svg" xmlns:xlink="http://www.w3.org/1999/xlink">
    <!-- Generator: Sketch 55.2 (78181) - https://sketchapp.com -->
    <title>alert-triangle</title>
    <desc>Created with Sketch.</desc>
    <g id="alert-triangle" stroke="none" stroke-width="1" fill="none" fill-rule="evenodd">
        <path d="M9.86106629,3.60306446 L1.39106629,17.7430645 C0.94280677,18.5192193 0.940154652,19.4664034 1.38003789,20.2381284 C1.81992112,21.0098534 2.63626976,21.490207 3.52450473,21.5 L20.47,21.5 C21.3637302,21.490207 22.1800789,21.0098534 22.6199621,20.2381284 C23.0598453,19.4664034 23.0571932,18.5192193 22.6129953,17.7499698 L14.1389337,3.60306446 C13.6842929,2.85353765 12.8738577,2.397256 12,2.397256 C11.1261423,2.397256 10.3157071,2.85353765 9.8625,3.600686 L9.86106629,3.60306446 Z M12,3.397256 C12.5243146,3.397256 13.0105758,3.67102499 13.2825,4.119314 L21.7510663,18.2569355 C22.0135235,18.7115799 22.0151148,19.2798904 21.7511848,19.7429254 C21.4872549,20.2059603 20.9974457,20.4941725 20.4645047,20.5000302 L3.53,20.5000302 C3.00255428,20.4941725 2.5127451,20.2059603 2.24881516,19.7429254 C1.98488522,19.2798904 1.98647649,18.7115799 2.25299527,18.2500302 L10.7189337,4.11693554 C10.9894242,3.67102499 11.4756854,3.397256 12,3.397256 Z" id="Shape" fill="#000000" fill-rule="nonzero"></path>
        <path d="M11.5,7.7 C11.5,7.31340068 11.7238576,7 12,7 C12.2761424,7 12.5,7.31340068 12.5,7.7 L12.5,13.3 C12.5,13.6865993 12.2761424,14 12,14 C11.7238576,14 11.5,13.6865993 11.5,13.3 L11.5,7.7 Z M12,17.5 C11.7238576,17.5 11.5,17.2761424 11.5,17 C11.5,16.7238576 11.7238576,16.5 12,16.5 C12.2761424,16.5 12.5,16.7238576 12.5,17 C12.5,17.2761424 12.2761424,17.5 12,17.5 Z" id="Combined-Shape" fill="#000000" fill-rule="nonzero"></path>
    </g>
</svg>