<svg height="24" viewBox="0 0 24 24" width="24" xmlns="http://www.w3.org/2000/svg"><path d="m12 22.5c-5.79898987 0-10.5-4.7010101-10.5-10.5 0-5.79898987 4.70101013-10.5 10.5-10.5 5.7989899 0 10.5 4.70101013 10.5 10.5 0 5.7989899-4.7010101 10.5-10.5 10.5zm0-1c5.2467051 0 9.5-4.2532949 9.5-9.5 0-5.24670512-4.2532949-9.5-9.5-9.5-5.24670512 0-9.5 4.25329488-9.5 9.5 0 5.2467051 4.25329488 9.5 9.5 9.5zm-.5-15.3c0-.38659932.2238576-.7.5-.7s.5.31340068.5.7v5.6c0 .3865993-.2238576.7-.5.7s-.5-.3134007-.5-.7zm.5 9.8c-.2761424 0-.5-.2238576-.5-.5s.2238576-.5.5-.5.5.2238576.5.5-.2238576.5-.5.5z"/></svg>