<?xml version="1.0" encoding="UTF-8"?>
<svg width="24px" height="24px" viewBox="0 0 24 24" version="1.1" xmlns="http://www.w3.org/2000/svg" xmlns:xlink="http://www.w3.org/1999/xlink">
    <!-- Generator: Sketch 55.2 (78181) - https://sketchapp.com -->
    <title>align-left</title>
    <desc>Created with Sketch.</desc>
    <g id="align-left" stroke="none" stroke-width="1" fill="none" fill-rule="evenodd">
        <path d="M17,9.5 L3,9.5 C2.72385763,9.5 2.5,9.72385763 2.5,10 C2.5,10.2761424 2.72385763,10.5 3,10.5 L17,10.5 C17.2761424,10.5 17.5,10.2761424 17.5,10 C17.5,9.72385763 17.2761424,9.5 17,9.5 Z" id="Shape" fill="#000000" fill-rule="nonzero"></path>
        <path d="M21,5.5 L3,5.5 C2.72385763,5.5 2.5,5.72385763 2.5,6 C2.5,6.27614237 2.72385763,6.5 3,6.5 L21,6.5 C21.2761424,6.5 21.5,6.27614237 21.5,6 C21.5,5.72385763 21.2761424,5.5 21,5.5 Z" id="Shape" fill="#000000" fill-rule="nonzero"></path>
        <path d="M21,13.5 L3,13.5 C2.72385763,13.5 2.5,13.7238576 2.5,14 C2.5,14.2761424 2.72385763,14.5 3,14.5 L21,14.5 C21.2761424,14.5 21.5,14.2761424 21.5,14 C21.5,13.7238576 21.2761424,13.5 21,13.5 Z" id="Shape" fill="#000000" fill-rule="nonzero"></path>
        <path d="M17,17.5 L3,17.5 C2.72385763,17.5 2.5,17.7238576 2.5,18 C2.5,18.2761424 2.72385763,18.5 3,18.5 L17,18.5 C17.2761424,18.5 17.5,18.2761424 17.5,18 C17.5,17.7238576 17.2761424,17.5 17,17.5 Z" id="Shape" fill="#000000" fill-rule="nonzero"></path>
    </g>
</svg>