<svg height="24" viewBox="0 0 24 24" width="24" xmlns="http://www.w3.org/2000/svg"><path d="m17 9.5c.2761424 0 .5.22385763.5.5 0 .2761424-.2238576.5-.5.5h-14c-.27614237 0-.5-.2238576-.5-.5 0-.27614237.22385763-.5.5-.5zm4-4c.2761424 0 .5.22385763.5.5s-.2238576.5-.5.5h-18c-.27614237 0-.5-.22385763-.5-.5s.22385763-.5.5-.5zm0 8c.2761424 0 .5.2238576.5.5s-.2238576.5-.5.5h-18c-.27614237 0-.5-.2238576-.5-.5s.22385763-.5.5-.5zm-4 4c.2761424 0 .5.2238576.5.5s-.2238576.5-.5.5h-14c-.27614237 0-.5-.2238576-.5-.5s.22385763-.5.5-.5z"/></svg>