<svg height="24" viewBox="0 0 24 24" width="24" xmlns="http://www.w3.org/2000/svg"><path d="m12.5 8.46455557v13.02251233c4.8487018-.2514205 8.7356474-4.1383661 8.9870679-8.9870679h-2.4870679c-.2761424 0-.5-.2238576-.5-.5s.2238576-.5.5-.5h3c.2761424 0 .5.2238576.5.5 0 5.7989899-4.7010101 10.5-10.5 10.5-5.79898987 0-10.5-4.7010101-10.5-10.5 0-.2761424.22385763-.5.5-.5h3c.27614237 0 .5.2238576.5.5s-.22385763.5-.5.5h-2.48706794c.25142058 4.8487018 4.13836616 8.7356474 8.98706794 8.9870679v-13.02251233c-1.69614707-.24261483-3-1.70131962-3-3.46455557 0-1.93299662 1.5670034-3.5 3.5-3.5s3.5 1.56700338 3.5 3.5c0 1.76323595-1.3038529 3.22194074-3 3.46455557zm-.5-.96455557c1.3807119 0 2.5-1.11928813 2.5-2.5s-1.1192881-2.5-2.5-2.5-2.5 1.11928813-2.5 2.5 1.1192881 2.5 2.5 2.5z"/></svg>