<svg height="24" viewBox="0 0 24 24" width="24" xmlns="http://www.w3.org/2000/svg"><path d="m20.9117617 18.7853386c-1.9149464 2.5586753-4.9699659 4.2146614-8.4117617 4.2146614-.3814296 0-.758109-.0203383-1.1290127-.0599897-.0309165-.0005293-.061947-.0039345-.0926873-.0103241-3.7600431-.4356941-6.91458083-2.8577668-8.38699246-6.1895973-.01423667-.0259582-.02623643-.0533173-.03573986-.0818181-.55052678-1.2751408-.85556768-2.6810827-.85556768-4.1582708 0-2.3123648.74747934-4.45014647 2.01399391-6.18490089.02022766-.03609195.04506264-.06989541.07424441-.1004377 1.91494635-2.55867531 4.96996588-4.21466141 8.41176168-4.21466141.3814296 0 .758109.02033833 1.1290127.05998969.0309165.00052926.061947.00393456.0926873.01032412 3.7600431.43569412 6.9145808 2.85776678 8.3869925 6.1895973.0142366.02595816.0262364.05331732.0357398.08181805.5505268 1.27514083.8555677 2.68108274.8555677 4.15827084 0 2.3123648-.7474793 4.4501465-2.0139939 6.1849009-.0202277.0360919-.0450627.0698954-.0742444.1004377zm-8.6978581 3.2104358c.0950217.0028105.1903938.0042256.2860964.0042256 3.0183961 0 5.7080105-1.4076823 7.4481583-3.6023623l-2.8282287-4.8976645zm-1.0992847-.0960632 2.8294106-4.8997112h-3.7444342c-.0060918.0001114-.0121792.0001111-.0182593 0h-6.05002929c1.39547838 2.589737 3.95795677 4.4576817 6.98331219 4.8997112zm-7.44910762-5.8997112h5.65837742l-1.86937773-3.2372151c-.00502049-.0081449-.00979801-.0164203-.01432937-.0248143l-3.02219821-5.23356272c-.89900823 1.45135616-1.41798339 3.16286752-1.41798339 4.99559212 0 1.2360038.23604337 2.4168768.66551128 3.5zm1.38633037-9.39763768 2.82822877 4.89766448 4.90602598-8.49580116c-.0950217-.0028105-.1903938-.00422564-.2860964-.00422564-3.01839614 0-5.70801045 1.40768231-7.44815835 3.60236232zm8.83353945-3.50207351-2.8294106 4.89971119h3.7444342c.0060918-.0001114.0121792-.00011113.0182593 0h6.0500293c-1.3954784-2.58973698-3.9579568-4.45768172-6.9833122-4.89971119zm7.4491076 5.89971119h-5.6583774l1.8693777 3.2372151c.0050205.008145.0097981.0164204.0143294.0248143l3.0221982 5.2335627c.8990082-1.4513561 1.4179834-3.1628675 1.4179834-4.9955921 0-1.2360038-.2360434-2.4168768-.6655113-3.5zm-4.791938 3.500122-2.0211972-3.500122h-4.0428478l-2.02105638 3.499878 2.02119718 3.500122h4.0428478z"/></svg>