<svg height="24" viewBox="0 0 24 24" width="24" xmlns="http://www.w3.org/2000/svg"><path d="m15.7977937 14.414926c-.798785 1.2535792-2.2011863 2.085074-3.7977937 2.085074-2.48528137 0-4.5-2.0147186-4.5-4.5 0-2.48528137 2.01471863-4.5 4.5-4.5 2.4852814 0 4.5 2.01471863 4.5 4.5v1c0 1.3807119 1.1192881 2.5 2.5 2.5s2.5-1.1192881 2.5-2.5v-.9999685c-.000278-4.41474067-3.0417723-8.24750641-7.3409934-9.25081737-4.29922113-1.00331096-8.7230491 1.08726954-10.67741347 5.04585452-1.95436437 3.95858495-.92416502 8.74183385 2.48650366 11.54491685 3.41066867 2.803083 8.30287711 2.8872083 11.80790321.203046.2192397-.1678946.5330739-.1262712.7009685.0929685s.1262712.5330739-.0929685.7009685c-3.8739762 2.9667057-9.28115396 2.8737252-13.0508404-.2244192-3.76968643-3.0981444-4.90832782-8.3848932-2.74824088-12.76017129 2.16008694-4.37527814 7.04958101-6.68591974 11.80135168-5.5769971 4.7517708 1.10892264 8.1134223 5.34513741 8.1137296 10.22461909v1c0 1.9329966-1.5670034 3.5-3.5 3.5-1.4294396 0-2.6587353-.8569182-3.2022063-2.085074zm-3.7977937 1.085074c1.9329966 0 3.5-1.5670034 3.5-3.5s-1.5670034-3.5-3.5-3.5-3.5 1.5670034-3.5 3.5 1.5670034 3.5 3.5 3.5z"/></svg>