<?xml version="1.0" encoding="UTF-8"?>
<svg width="24px" height="24px" viewBox="0 0 24 24" version="1.1" xmlns="http://www.w3.org/2000/svg" xmlns:xlink="http://www.w3.org/1999/xlink">
    <!-- Generator: Sketch 55.2 (78181) - https://sketchapp.com -->
    <title>award</title>
    <desc>Created with Sketch.</desc>
    <g id="award" stroke="none" stroke-width="1" fill="none" fill-rule="evenodd">
        <path d="M15.8931318,15.1903483 C14.8742249,15.7081323 13.7211971,16 12.5,16 C11.2792594,16 10.1266372,15.7083504 9.10801085,15.1909288 L8.13222184,22.5375717 L12.2427521,20.0712535 C12.4010933,19.9762488 12.5989067,19.9762488 12.7572479,20.0712535 L16.8679409,22.5376693 L15.8931318,15.1903483 Z M16.8271012,14.6266144 L17.9956566,23.4342385 C18.0507241,23.8492927 17.601777,24.1441614 17.2427521,23.9287465 L12.5,21.0830952 L7.75724788,23.9287465 C7.39819452,24.1441785 6.94922157,23.8492469 7.00435285,23.4341676 L8.17407137,14.6274439 C6.2537449,13.2692326 5,11.0310302 5,8.5 C5,4.35786438 8.35786438,1 12.5,1 C16.6421356,1 20,4.35786438 20,8.5 C20,11.030515 18.7467654,13.2683215 16.8271012,14.6266144 Z M16.0802104,13.9259938 C17.8395146,12.7628196 19,10.7669327 19,8.5 C19,4.91014913 16.0898509,2 12.5,2 C8.91014913,2 6,4.91014913 6,8.5 C6,12.0898509 8.91014913,15 12.5,15 C13.7729171,15 14.9603736,14.6340998 15.9629291,14.0017398 C15.997915,13.9714316 16.0372963,13.9458075 16.0802104,13.9259938 Z" id="Combined-Shape" fill="#000000" fill-rule="nonzero"></path>
    </g>
</svg>