<svg height="24" viewBox="0 0 24 24" width="24" xmlns="http://www.w3.org/2000/svg"><path d="m15.8931318 15.1903483c-1.0189069.517784-2.1719347.8096517-3.3931318.8096517-1.2207406 0-2.3733628-.2916496-3.39198915-.8090712l-.97578901 7.3466429 4.11053026-2.4663182c.1583412-.0950047.3561546-.0950047.5144958 0l4.110693 2.4664158zm.9339694-.5637339 1.1685554 8.8076241c.0550675.4150542-.3938796.7099229-.7529045.494508l-4.7427521-2.8456513-4.74275212 2.8456513c-.35905336.215432-.80802631-.0794996-.75289503-.4945789l1.16971852-8.8067237c-1.92032647-1.3582113-3.17407137-3.5964137-3.17407137-6.1274439 0-4.14213562 3.35786438-7.5 7.5-7.5 4.1421356 0 7.5 3.35786438 7.5 7.5 0 2.530515-1.2532346 4.7683215-3.1728988 6.1266144zm-.7468908-.7006206c1.7593042-1.1631742 2.9197896-3.1590611 2.9197896-5.4259938 0-3.58985087-2.9101491-6.5-6.5-6.5-3.58985087 0-6.5 2.91014913-6.5 6.5 0 3.5898509 2.91014913 6.5 6.5 6.5 1.2729171 0 2.4603736-.3659002 3.4629291-.9982602.0349859-.0303082.0743672-.0559323.1172813-.075746z"/></svg>