<svg height="24" viewBox="0 0 24 24" width="24" xmlns="http://www.w3.org/2000/svg"><path d="m10 3.5c0-.27614237.2238576-.5.5-.5h4c.2761424 0 .5.22385763.5.5v18c0 .2761424-.2238576.5-.5.5h-4c-.2761424 0-.5-.2238576-.5-.5zm1 .5v17h3v-17zm7 4.5c0-.27614237.2238576-.5.5-.5h4c.2761424 0 .5.22385763.5.5v13c0 .2761424-.2238576.5-.5.5h-4c-.2761424 0-.5-.2238576-.5-.5zm1 .5v12h3v-12zm-17 4.5c0-.2761424.22385763-.5.5-.5h4c.27614237 0 .5.2238576.5.5v8c0 .2761424-.22385763.5-.5.5h-4c-.27614237 0-.5-.2238576-.5-.5zm1 .5v7h3v-7z"/></svg>