<?xml version="1.0" encoding="UTF-8"?>
<svg width="24px" height="24px" viewBox="0 0 24 24" version="1.1" xmlns="http://www.w3.org/2000/svg" xmlns:xlink="http://www.w3.org/1999/xlink">
    <!-- Generator: Sketch 55.2 (78181) - https://sketchapp.com -->
    <title>battery</title>
    <desc>Created with Sketch.</desc>
    <g id="battery" stroke="none" stroke-width="1" fill="none" fill-rule="evenodd">
        <path d="M4.5,6 L18.5,6 C19.8807119,6 21,7.11928813 21,8.5 L21,16.5 C21,17.8807119 19.8807119,19 18.5,19 L4.5,19 C3.11928813,19 2,17.8807119 2,16.5 L2,8.5 C2,7.11928813 3.11928813,6 4.5,6 Z M4.5,7 C3.67157288,7 3,7.67157288 3,8.5 L3,16.5 C3,17.3284271 3.67157288,18 4.5,18 L18.5,18 C19.3284271,18 20,17.3284271 20,16.5 L20,8.5 C20,7.67157288 19.3284271,7 18.5,7 L4.5,7 Z" id="Rectangle-path" fill="#000000" fill-rule="nonzero"></path>
        <path d="M23,13.5 L23,11.5 C23,11.2238576 22.7761424,11 22.5,11 C22.2238576,11 22,11.2238576 22,11.5 L22,13.5 C22,13.7761424 22.2238576,14 22.5,14 C22.7761424,14 23,13.7761424 23,13.5 Z" id="Shape" fill="#000000" fill-rule="nonzero"></path>
    </g>
</svg>