<svg height="24" viewBox="0 0 24 24" width="24" xmlns="http://www.w3.org/2000/svg"><path d="m6 17.5c.27614237 0 .5.2238576.5.5s-.22385763.5-.5.5h-2c-1.38071187 0-2.5-1.1192881-2.5-2.5v-8c0-1.38071187 1.11928813-2.5 2.5-2.5h3.19c.27614237 0 .5.22385763.5.5s-.22385763.5-.5.5h-3.19c-.82842712 0-1.5.67157288-1.5 1.5v8c0 .8284271.67157288 1.5 1.5 1.5zm10-11c-.2761424 0-.5-.22385763-.5-.5s.2238576-.5.5-.5h2c1.3807119 0 2.5 1.11928813 2.5 2.5v8c0 1.3807119-1.1192881 2.5-2.5 2.5h-3.19c-.2761424 0-.5-.2238576-.5-.5s.2238576-.5.5-.5h3.19c.8284271 0 1.5-.6715729 1.5-1.5v-8c0-.82842712-.6715729-1.5-1.5-1.5zm7.5 6.5c0 .2761424-.2238576.5-.5.5s-.5-.2238576-.5-.5v-2c0-.2761424.2238576-.5.5-.5s.5.2238576.5.5zm-10.4342585-.5h-5.0657415c-.39934769 0-.63754339-.4450727-.41602515-.7773501l4.00000005-6c.1531762-.22976434.4636109-.29185128.6933752-.13867505s.2918513.4636109.138675.69337525l-3.48176655 5.2226499h5.06574145c.3993477 0 .6375434.4450727.4160251.7773501l-4 6c-.1531762.2297643-.46361085.2918513-.6933752.138675-.22976434-.1531762-.29185128-.4636109-.13867505-.6933752z"/></svg>