<svg height="24" viewBox="0 0 24 24" width="24" xmlns="http://www.w3.org/2000/svg"><path d="m21.5 17v1h-20v-1c1.38071184 0 2.5-1.1192882 2.5-2.5v-5c0-4.14213565 3.35786438-7.5 7.5-7.5 4.1421356 0 7.5 3.35786435 7.5 7.5v5c0 1.3807118 1.1192882 2.5 2.5 2.5zm-3.5-2.5v-5c0-3.5898509-2.9101491-6.5-6.5-6.5-3.58985087 0-6.5 2.9101491-6.5 6.5v5c0 .9793441-.40223363 1.8647415-1.05050867 2.5h15.10101737c-.6482751-.6352585-1.0505087-1.5206559-1.0505087-2.5zm-16.5 3.5c-.66666667 0-.66666667-1 0-1h2.44949133c-.63126856.6185935-1.49583882 1-2.44949133 1zm20-1c.6666667 0 .6666667 1 0 1-.9536525 0-1.8182228-.3814065-2.4494913-1zm-8.27 3.9999999c.3853552 0 .6258604.4175536.4325.7508859-.4472472.7710055-1.2711642 1.2455704-2.1625 1.2455704s-1.7152528-.4745649-2.1625-1.2455704c-.19336042-.3333323.04714476-.7508859.4325-.7508859z"/></svg>