<?xml version="1.0" encoding="UTF-8"?>
<svg width="24px" height="24px" viewBox="0 0 24 24" version="1.1" xmlns="http://www.w3.org/2000/svg" xmlns:xlink="http://www.w3.org/1999/xlink">
    <!-- Generator: Sketch 55.2 (78181) - https://sketchapp.com -->
    <title>bell-off</title>
    <desc>Created with Sketch.</desc>
    <g id="bell-off" stroke="none" stroke-width="1" fill="none" fill-rule="evenodd">
        <path d="M16.7928932,17.5 L2,17.5 C1.33333333,17.5 1.33333333,16.5 2,16.5 C3.38071187,16.5 4.5,15.3807119 4.5,14 L4.5,9.00063009 C4.4986427,7.92327673 4.72939429,6.85975501 5.17484215,5.88194893 L0.646446609,1.35355339 C0.451184464,1.15829124 0.451184464,0.841708755 0.646446609,0.646446609 C0.841708755,0.451184464 1.15829124,0.451184464 1.35355339,0.646446609 L6.12547607,5.41836929 C6.13105962,5.42369875 6.13650326,5.42914372 6.14180511,5.43469833 L23.3535534,22.6464466 C23.5488155,22.8417088 23.5488155,23.1582912 23.3535534,23.3535534 C23.1582912,23.5488155 22.8417088,23.5488155 22.6464466,23.3535534 L16.7928932,17.5 Z M5.93810976,6.64521654 C5.64826816,7.39418037 5.49898262,8.1924222 5.5,9 L5.5,14 C5.5,14.9793441 5.09776639,15.8647415 4.44949137,16.5 L15.7928932,16.5 L5.93810976,6.64521654 Z M8.80571435,3.3354589 C8.56521704,3.47116319 8.26024538,3.38621166 8.1245411,3.14571435 C7.98883681,2.90521704 8.07378834,2.60024538 8.31428565,2.4645411 C10.6369867,1.15392151 13.4809593,1.17533613 15.7836606,2.52078419 C18.0863616,3.86623212 19.501362,6.33329766 19.5000019,9 L19.5000019,13 C19.5000019,13.2761424 19.2761433,13.5 19.0000009,13.5 C18.7238585,13.5 18.5000009,13.2761424 18.5000009,13 L18.500001,8.9997448 C18.5011807,6.68838142 17.2748469,4.55025782 15.2791726,3.38420292 C13.2834982,2.21814794 10.8187219,2.1995886 8.80571435,3.3354589 Z M13.2975,20.7491141 C13.4360605,20.5102509 13.7420228,20.4289395 13.9808859,20.5675 C14.2197491,20.7060605 14.3010605,21.0120228 14.1625,21.2508859 C13.7152528,22.0218914 12.8913358,22.4964563 12,22.4964563 C11.1086642,22.4964563 10.2847472,22.0218914 9.8375,21.2508859 C9.69893953,21.0120228 9.78025092,20.7060605 10.0191141,20.5675 C10.2579772,20.4289395 10.5639395,20.5102509 10.7025,20.7491141 C10.9708483,21.2117173 11.4651985,21.4964563 12,21.4964563 C12.5348015,21.4964563 13.0291517,21.2117173 13.2975,20.7491141 Z" id="Combined-Shape" fill="#000000" fill-rule="nonzero"></path>
    </g>
</svg>