<svg height="24" viewBox="0 0 24 24" width="24" xmlns="http://www.w3.org/2000/svg"><path d="m16.7928932 17.5h-14.7928932c-.66666667 0-.66666667-1 0-1 1.38071187 0 2.5-1.1192881 2.5-2.5v-4.99936991c-.0013573-1.07735336.22939429-2.14087508.67484215-3.11868116l-4.52839554-4.52839554c-.19526215-.19526215-.19526215-.51184463 0-.70710678s.51184463-.19526215.70710678 0l4.77192268 4.77192268c.00558355.00532946.01102719.01077443.01632904.01632904l17.21174829 17.21174827c.1952621.1952622.1952621.5118446 0 .7071068-.1952622.1952621-.5118446.1952621-.7071068 0zm-10.85478344-10.85478346c-.2898416.74896383-.43912714 1.54720566-.43810976 2.35478346v5c0 .9793441-.40223361 1.8647415-1.05050863 2.5h11.34340183zm2.86760459-3.30975764c-.24049731.13570429-.54546897.05075276-.68117325-.18974455-.13570429-.24049731-.05075276-.54546897.18974455-.68117325 2.32270105-1.31061959 5.16667365-1.28920497 7.46937495.05624309 2.302701 1.34544793 3.7177014 3.81251347 3.7163413 6.47921581v4c0 .2761424-.2238586.5-.500001.5s-.5-.2238576-.5-.5l.0000001-4.0002552c.0011797-2.31136338-1.2251541-4.44948698-3.2208284-5.61554188-1.9956744-1.16605498-4.4604507-1.18461432-6.47345825-.04874402zm4.49178565 17.4136552c.1385605-.2388632.4445228-.3201746.6833859-.1816141.2388632.1385605.3201746.4445228.1816141.6833859-.4472472.7710055-1.2711642 1.2455704-2.1625 1.2455704s-1.7152528-.4745649-2.1625-1.2455704c-.13856047-.2388631-.05724908-.5448254.1816141-.6833859.2388631-.1385605.5448254-.0572491.6833859.1816141.2683483.4626032.7626985.7473422 1.2975.7473422s1.0291517-.284739 1.2975-.7473422z"/></svg>