<?xml version="1.0" encoding="UTF-8"?>
<svg width="24px" height="24px" viewBox="0 0 24 24" version="1.1" xmlns="http://www.w3.org/2000/svg" xmlns:xlink="http://www.w3.org/1999/xlink">
    <!-- Generator: Sketch 55.2 (78181) - https://sketchapp.com -->
    <title>bell</title>
    <desc>Created with Sketch.</desc>
    <g id="bell" stroke="none" stroke-width="1" fill="none" fill-rule="evenodd">
        <path d="M21.5,17 L21.5,18 L1.5,18 L1.5,17 C2.88071184,17 4,15.8807118 4,14.5 L4,9.5 C4,5.35786435 7.35786438,2 11.5,2 C15.6421356,2 19,5.35786435 19,9.5 L19,14.5 C19,15.8807118 20.1192882,17 21.5,17 Z M18,14.5 L18,9.5 C18,5.9101491 15.0898509,3 11.5,3 C7.91014913,3 5,5.9101491 5,9.5 L5,14.5 C5,15.4793441 4.59776637,16.3647415 3.94949133,17 L19.0505087,17 C18.4022336,16.3647415 18,15.4793441 18,14.5 Z M1.5,18 C0.833333333,18 0.833333333,17 1.5,17 L3.94949133,17 C3.31822277,17.6185935 2.45365251,18 1.5,18 Z M21.5,17 C22.1666667,17 22.1666667,18 21.5,18 C20.5463475,18 19.6817772,17.6185935 19.0505087,17 L21.5,17 Z M13.23,20.9999999 C13.6153552,20.9999999 13.8558604,21.4175535 13.6625,21.7508858 C13.2152528,22.5218913 12.3913358,22.9964562 11.5,22.9964562 C10.6086642,22.9964562 9.7847472,22.5218913 9.3375,21.7508858 C9.14413958,21.4175535 9.38464476,20.9999999 9.77,20.9999999 L13.23,20.9999999 Z" id="Shape" fill="#000000" fill-rule="nonzero"></path>
    </g>
</svg>