<svg height="24" viewBox="0 0 24 24" width="24" xmlns="http://www.w3.org/2000/svg"><path d="m16.7928932 18.0010024-4.2928932 4.2928932v-8.5857864zm-4.2928932-15.29289324 4.2928932 4.29289322-4.2928932 4.29289322zm-6.35355339 14.93933984c-.19526215.1952621-.19526215.5118446 0 .7071068.19526215.1952621.51184463.1952621.70710678 0l4.64644661-4.6464466v9.7928932c0 .4454524.538571.6685358.8535534.3535534l5.5-5.5c.1952621-.1952622.1952621-.5118447 0-.7071068l-5.1464466-5.1464466 5.1464466-5.14644663c.1952621-.19526215.1952621-.51184464 0-.70710678l-5.5-5.5c-.3149824-.31498243-.8535534-.09189904-.8535534.35355339v9.79289322l-4.64644661-4.64644661c-.19526215-.19526215-.51184463-.19526215-.70710678 0-.19526215.19526214-.19526215.51184463 0 .70710678l5.14644659 5.14644663z"/></svg>