<svg height="24" viewBox="0 0 24 24" width="24" xmlns="http://www.w3.org/2000/svg"><path d="m15.9864168 12.2512822c1.7548803.6139031 3.0135832 2.2843175 3.0135832 4.2487178 0 2.4852814-2.0147186 4.5-4.5 4.5h-9c-.27614237 0-.5-.2238576-.5-.5v-8-8c0-.27614237.22385763-.5.5-.5h8c2.4852814 0 4.5 2.01471863 4.5 4.5 0 1.5660582-.7999799 2.9452711-2.0135832 3.7512822zm-2.4864168.7487178h-7.5v7h8.5c1.9329966 0 3.5-1.5670034 3.5-3.5s-1.5670034-3.5-3.5-3.5zm0-1c1.9329966 0 3.5-1.5670034 3.5-3.5 0-1.93299662-1.5670034-3.5-3.5-3.5h-7.5v7z"/></svg>