<?xml version="1.0" encoding="UTF-8"?>
<svg width="24px" height="24px" viewBox="0 0 24 24" version="1.1" xmlns="http://www.w3.org/2000/svg" xmlns:xlink="http://www.w3.org/1999/xlink">
    <!-- Generator: Sketch 55.2 (78181) - https://sketchapp.com -->
    <title>book</title>
    <desc>Created with Sketch.</desc>
    <g id="book" stroke="none" stroke-width="1" fill="none" fill-rule="evenodd">
        <path d="M5,17.7638935 C5.53075649,17.2888536 6.23164556,17 7,17 L20,17 L20,3 L7,3 C5.8954305,3 5,3.8954305 5,5 L5,17.7638935 Z M20,18 L7,18 C5.8954305,18 5,18.8954305 5,20 C5,21.1045695 5.8954305,22 7,22 L20,22 L20,18 Z M7,2 L20.5,2 C20.7761424,2 21,2.22385763 21,2.5 L21,22.5 C21,22.7761424 20.7761424,23 20.5,23 L7,23 C5.34314575,23 4,21.6568542 4,20 L4,5 C4,3.34314575 5.34314575,2 7,2 Z" id="Combined-Shape" fill="#000000" fill-rule="nonzero"></path>
    </g>
</svg>