<svg height="24" viewBox="0 0 24 24" width="24" xmlns="http://www.w3.org/2000/svg"><path d="m12.5 5.43639897c.7481135-1.44717846 2.2585343-2.43639897 4-2.43639897h6c.2761424 0 .5.22385763.5.5v15c0 .2761424-.2238576.5-.5.5h-7c-1.3807119 0-2.5 1.1192881-2.5 2.5 0 .6666667-1 .6666667-1 0 0-1.3807119-1.1192881-2.5-2.5-2.5h-7c-.27614237 0-.5-.2238576-.5-.5v-15c0-.27614237.22385763-.5.5-.5h6c1.7414657 0 3.2518865.98922051 4 2.43639897zm.5 2.06360103v11.5505086c.6352585-.648275 1.5206559-1.0505086 2.5-1.0505086h6.5v-14h-5.5c-1.9329966 0-3.5 1.56700338-3.5 3.5zm-1 11.5505086v-11.5505086c0-1.93299662-1.5670034-3.5-3.5-3.5h-5.5v14h6.5c.9793441 0 1.8647415.4022336 2.5 1.0505086zm.5.6456981c.1413399-.2345668.3094125-.4512055.5-.6456981v2.4494914h-1c0-.6598341.1825901-1.2770219.5-1.8037933.3174099.5267714.5 1.1439592.5 1.8037933 0 .6666667-1 .6666667-1 0v-2.4494914c.1905875.1944926.3586601.4111313.5.6456981z"/></svg>