<svg height="24" viewBox="0 0 24 24" width="24" xmlns="http://www.w3.org/2000/svg"><path d="m12.5 22.1838682c.0564881-.0201988.1120585-.0438927.1663932-.0710818l8.0011069-4.0005517c.5097432-.2532975.8321979-.773292.8325-1.3422347v-9.52973468c-.0000735-.13845566-.0192078-.2739995-.0554778-.40350947l-8.9445223 4.47226115zm-1 .0035495v-10.8784007l-8.94461616-4.47230808c-.03626155.1294474-.05541299.26492201-.05551549.40329108v9.5234476c-.00386109.5702612.31586645 1.093435.82373845 1.3493388l8.0001432 4.0000716c.0574887.0287674.1163644.0536207.17625.0745597zm9.3590057-16.17593757c-.0606978-.04241504-.1250053-.08067149-.1926125-.11426653l-8-4c-.4193677-.20838718-.9134187-.20838718-1.3327864 0l-8.00110687 4.00055172c-.06723712.03341092-.13121594.07146221-.19162715.11365408l8.85912722 4.4295636zm-7.7465057-5.00924541 7.9999999 3.99999996c.8495721.42216251 1.3869966 1.28882003 1.3875001 2.23776532v9.5302653c-.0005035.94868-.537928 1.8153375-1.3863932 2.2369483l-7.9998568 3.9999284c-.7042099.3523869-1.5332901.3523869-2.2373568.0000716l-8.00138109-4.0006932c-.84874245-.4276552-1.38160219-1.2995797-1.37517883-2.2465204v-9.5202974c.00068239-.94867591.53811176-1.81531389 1.38655992-2.2369162l8.0011068-4.00055168c.7007908-.34823144 1.5242092-.34823144 2.225 0z"/></svg>