<svg height="24" viewBox="0 0 24 24" width="24" xmlns="http://www.w3.org/2000/svg"><path d="m20.5 9.5v-3.5c0-.82842712-.6715729-1.5-1.5-1.5h-2.5v1.5c0 .27614237-.2238576.5-.5.5s-.5-.22385763-.5-.5v-1.5h-7v1.5c0 .27614237-.22385763.5-.5.5s-.5-.22385763-.5-.5v-1.5h-2.5c-.82842712 0-1.5.67157288-1.5 1.5v3.5zm0 1h-17v9.5c0 .8284271.67157288 1.5 1.5 1.5h14c.8284271 0 1.5-.6715729 1.5-1.5zm-12-7h7v-1.5c0-.27614237.2238576-.5.5-.5s.5.22385763.5.5v1.5h2.5c1.3807119 0 2.5 1.11928813 2.5 2.5v14c0 1.3807119-1.1192881 2.5-2.5 2.5h-14c-1.38071187 0-2.5-1.1192881-2.5-2.5v-14c0-1.38071187 1.11928813-2.5 2.5-2.5h2.5v-1.5c0-.27614237.22385763-.5.5-.5s.5.22385763.5.5z"/></svg>