<svg height="24" viewBox="0 0 24 24" width="24" xmlns="http://www.w3.org/2000/svg"><path d="m17.2675919 5.5h3.7324081c1.3807119 0 2.5 1.11928813 2.5 2.5v11c0 1.3807119-1.1192881 2.5-2.5 2.5h-18c-1.38071187 0-2.5-1.1192881-2.5-2.5v-11c0-1.38071187 1.11928813-2.5 2.5-2.5h3.73240812l1.85156673-2.7773501c.09273289-.13909933.24884856-.2226499.41602515-.2226499h6c.1671766 0 .3232923.08355057.4160251.2226499zm-8.00000002-2-1.85156673 2.7773501c-.09273289.13909933-.24884856.2226499-.41602515.2226499h-4c-.82842712 0-1.5.67157288-1.5 1.5v11c0 .8284271.67157288 1.5 1.5 1.5h18c.8284271 0 1.5-.6715729 1.5-1.5v-11c0-.82842712-.6715729-1.5-1.5-1.5h-4c-.1671766 0-.3232923-.08355057-.4160251-.2226499l-1.8515668-2.7773501zm2.73240812 14c-2.48528137 0-4.5-2.0147186-4.5-4.5s2.01471863-4.5 4.5-4.5c2.4852814 0 4.5 2.0147186 4.5 4.5s-2.0147186 4.5-4.5 4.5zm0-1c1.9329966 0 3.5-1.5670034 3.5-3.5s-1.5670034-3.5-3.5-3.5-3.5 1.5670034-3.5 3.5 1.5670034 3.5 3.5 3.5z"/></svg>