<svg height="24" viewBox="0 0 24 24" width="24" xmlns="http://www.w3.org/2000/svg"><path d="m10.0664712 9.35936441c.004528.00435913.0089861.00881632.013371.01337098l5.5474224 5.54742241c.0045547.0043849.0090119.008843.013371.013371l7.7129178 7.7129178c.1952621.1952622.1952621.5118446 0 .7071068-.1952622.1952621-.5118446.1952621-.7071068 0l-1.8535534-1.8535534h-17.7928932c-1.38071187 0-2.5-1.1192881-2.5-2.5v-11c0-1.38071187 1.11928813-2.5 2.5-2.5h1.79289322l-4.14644661-4.14644661c-.19526215-.19526215-.19526215-.51184463 0-.70710678s.51184463-.19526215.70710678 0l8.71291701 8.71291705zm9.726422 11.14063559-4.4687883-4.4687884c-1.0552096 1.1733453-2.6642667 1.7195554-4.239393 1.4002155-1.77198553-.3592509-3.15688808-1.7441535-3.51613901-3.516139-.31933988-1.5751263.2268702-3.1841834 1.40021547-4.23939296l-3.17589514-3.17589514h-2.79289322c-.82842712 0-1.5.67157288-1.5 1.5v11c0 .8284271.67157288 1.5 1.5 1.5zm-5.1771909-5.1771909-4.93851135-4.9385114c-.93979862.8198624-1.38048886 2.0896539-1.12855705 3.3322937.27941739 1.3782109 1.35656382 2.4553573 2.7347747 2.7347747 1.2426398.2519318 2.5124313-.1887584 3.3322937-1.128557zm.1167058-11.8228091h-5.7324081c-.27614237 0-.5-.22385763-.5-.5s.22385763-.5.5-.5h6c.1671766 0 .3232923.08355057.4160251.2226499l1.8515668 2.7773501h3.7324081c1.3807119 0 2.5 1.11928813 2.5 2.5v9.34c0 .2761424-.2238576.5-.5.5s-.5-.2238576-.5-.5v-9.34c0-.82842712-.6715729-1.5-1.5-1.5h-4c-.1671766 0-.3232923-.08355057-.4160251-.2226499z"/></svg>