<?xml version="1.0" encoding="UTF-8"?>
<svg width="24px" height="24px" viewBox="0 0 24 24" version="1.1" xmlns="http://www.w3.org/2000/svg" xmlns:xlink="http://www.w3.org/1999/xlink">
    <!-- Generator: Sketch 55.2 (78181) - https://sketchapp.com -->
    <title>camera</title>
    <desc>Created with Sketch.</desc>
    <g id="camera" stroke="none" stroke-width="1" fill="none" fill-rule="evenodd">
        <path d="M17.2675919,5.5 L21,5.5 C22.3807119,5.5 23.5,6.61928813 23.5,8 L23.5,19 C23.5,20.3807119 22.3807119,21.5 21,21.5 L3,21.5 C1.61928813,21.5 0.5,20.3807119 0.5,19 L0.5,8 C0.5,6.61928813 1.61928813,5.5 3,5.5 L6.73240812,5.5 L8.58397485,2.7226499 C8.67670774,2.58355057 8.83282341,2.5 9,2.5 L15,2.5 C15.1671766,2.5 15.3232923,2.58355057 15.4160251,2.7226499 L17.2675919,5.5 Z M9.26759188,3.5 L7.41602515,6.2773501 C7.32329226,6.41644943 7.16717659,6.5 7,6.5 L3,6.5 C2.17157288,6.5 1.5,7.17157288 1.5,8 L1.5,19 C1.5,19.8284271 2.17157288,20.5 3,20.5 L21,20.5 C21.8284271,20.5 22.5,19.8284271 22.5,19 L22.5,8 C22.5,7.17157288 21.8284271,6.5 21,6.5 L17,6.5 C16.8328234,6.5 16.6767077,6.41644943 16.5839749,6.2773501 L14.7324081,3.5 L9.26759188,3.5 Z" id="Shape" fill="#000000" fill-rule="nonzero"></path>
        <path d="M12,17.5 C14.4852814,17.5 16.5,15.4852814 16.5,13 C16.5,10.5147186 14.4852814,8.5 12,8.5 C9.51471863,8.5 7.5,10.5147186 7.5,13 C7.5,15.4852814 9.51471863,17.5 12,17.5 Z M12,16.5 C10.0670034,16.5 8.5,14.9329966 8.5,13 C8.5,11.0670034 10.0670034,9.5 12,9.5 C13.9329966,9.5 15.5,11.0670034 15.5,13 C15.5,14.9329966 13.9329966,16.5 12,16.5 Z" id="Oval" fill="#000000" fill-rule="nonzero"></path>
    </g>
</svg>