<svg height="24" viewBox="0 0 24 24" width="24" xmlns="http://www.w3.org/2000/svg"><path d="m1.90008476 16.5899152c-.27057272-.0551816-.44518167-.3192577-.39-.5898304.05518166-.2705728.31925777-.4451817.58983048-.39 2.16071761.4406652 3.84933475 2.1292824 4.29 4.29.05518167.2705727-.11942728.5346488-.39.5898304-.27057271.0551817-.53464882-.1194272-.58983048-.39-.3605443-1.7678598-1.74214014-3.1494557-3.51-3.51zm.04464599-4.0429793c-.27445014-.0305243-.47219104-.277755-.44166667-.5522052.03052437-.2744501.27775504-.472191.55220517-.4416666 4.41523705.491063 7.90060364 3.9764296 8.39166665 8.3916666.0305244.2744502-.1672165.5216809-.4416666.5522052-.27445018.0305244-.52168085-.1672165-.55220522-.4416666-.43937219-3.9504753-3.55785808-7.0689612-7.50833333-7.5083334zm.55526925-4.5469359c0 .27614237-.22385763.5-.5.5s-.5-.22385763-.5-.5v-2c0-1.38071187 1.11928813-2.5 2.5-2.5h16c1.3807119 0 2.5 1.11928813 2.5 2.5v12c0 1.3807119-1.1192881 2.5-2.5 2.5h-6c-.2761424 0-.5-.2238576-.5-.5s.2238576-.5.5-.5h6c.8284271 0 1.5-.6715729 1.5-1.5v-12c0-.82842712-.6715729-1.5-1.5-1.5h-16c-.82842712 0-1.5.67157288-1.5 1.5z"/></svg>