<svg height="24" viewBox="0 0 24 24" width="24" xmlns="http://www.w3.org/2000/svg"><path d="m21.5 11.07c0-.2761424.2238576-.5.5-.5s.5.2238576.5.5v.9302859c-.0026589 4.6501201-3.0635914 8.7446236-7.52288 10.063096-4.4592887 1.3184724-9.25465686-.4531683-11.78561724-4.3541764-2.53096039-3.901008-2.19459622-9.00209869.82668506-12.53699386 3.02128129-3.53489518 8.00776038-4.66152421 12.25531208-2.76892576.2522363.11238991.3656041.4079778.2532142.66021404s-.4079778.3656041-.660214.2532142c-3.843023-1.71235098-8.35459932-.69301996-11.08813953 2.50521853s-3.0378697 7.81351095-.74795316 11.34299445 6.62858299 5.1323965 10.66317749 3.9394929c4.0345944-1.1929036 6.8040096-4.8974543 6.8064151-9.10442zm-12.14644661-.4235534 2.64644661 2.6464466 10.6464466-10.64644659c.1952622-.19526215.5118446-.19526215.7071068 0 .1952621.19526215.1952621.51184463 0 .70710678l-11 11.00000001c-.1952622.1952621-.5118446.1952621-.7071068 0l-2.99999999-3c-.19526215-.1952622-.19526215-.5118446 0-.7071068.19526215-.1952621.51184463-.1952621.70710678 0z"/></svg>