<?xml version="1.0" encoding="UTF-8"?>
<svg width="24px" height="24px" viewBox="0 0 24 24" version="1.1" xmlns="http://www.w3.org/2000/svg" xmlns:xlink="http://www.w3.org/1999/xlink">
    <!-- Generator: Sketch 55.2 (78181) - https://sketchapp.com -->
    <title>check-square</title>
    <desc>Created with Sketch.</desc>
    <g id="check-square" stroke="none" stroke-width="1" fill="none" fill-rule="evenodd">
        <path d="M8.35355339,10.6464466 C8.15829124,10.4511845 7.84170876,10.4511845 7.64644661,10.6464466 C7.45118446,10.8417088 7.45118446,11.1582912 7.64644661,11.3535534 L10.6464466,14.3535534 C10.8417088,14.5488155 11.1582912,14.5488155 11.3535534,14.3535534 L22.3535534,3.35355339 C22.5488155,3.15829124 22.5488155,2.84170876 22.3535534,2.64644661 C22.1582912,2.45118446 21.8417088,2.45118446 21.6464466,2.64644661 L11,13.2928932 L8.35355339,10.6464466 Z" id="Shape" fill="#000000" fill-rule="nonzero"></path>
        <path d="M19.5,12 L19.5,19 C19.5,19.8284271 18.8284271,20.5 18,20.5 L4,20.5 C3.17157288,20.5 2.5,19.8284271 2.5,19 L2.5,5 C2.5,4.17157288 3.17157288,3.5 4,3.5 L15,3.5 C15.2761424,3.5 15.5,3.27614237 15.5,3 C15.5,2.72385763 15.2761424,2.5 15,2.5 L4,2.5 C2.61928813,2.5 1.5,3.61928813 1.5,5 L1.5,19 C1.5,20.3807119 2.61928813,21.5 4,21.5 L18,21.5 C19.3807119,21.5 20.5,20.3807119 20.5,19 L20.5,12 C20.5,11.7238576 20.2761424,11.5 20,11.5 C19.7238576,11.5 19.5,11.7238576 19.5,12 Z" id="Shape" fill="#000000" fill-rule="nonzero"></path>
    </g>
</svg>