<?xml version="1.0" encoding="UTF-8"?>
<svg width="24px" height="24px" viewBox="0 0 24 24" version="1.1" xmlns="http://www.w3.org/2000/svg" xmlns:xlink="http://www.w3.org/1999/xlink">
    <!-- Generator: Sketch 55.2 (78181) - https://sketchapp.com -->
    <title>check-circle</title>
    <desc>Created with Sketch.</desc>
    <g id="check-circle" stroke="none" stroke-width="1" fill="none" fill-rule="evenodd">
        <path d="M21.5,11.07 L21.5,12 C21.4975945,16.2069657 18.7281793,19.9115164 14.6935849,21.10442 C10.6589904,22.2973236 6.32032395,20.6944106 4.03040741,17.1649271 C1.74049087,13.6354436 2.04482036,9.02017114 4.77836057,5.82193265 C7.51190078,2.62369416 12.0234771,1.60436314 15.8665001,3.31671412 C16.1187363,3.42910402 16.4143242,3.31573616 16.5267141,3.06349992 C16.639104,2.81126368 16.5257362,2.51567579 16.2734999,2.40328588 C12.0259482,0.510687433 7.03946911,1.63731646 4.01818782,5.17221164 C0.996906536,8.70710681 0.660542374,13.8081975 3.19150276,17.7092055 C5.72246314,21.6102136 10.5178313,23.3818543 14.97712,22.0633819 C19.4364086,20.7449095 22.4973411,16.650406 22.5,12.0002859 L22.5,11.07 C22.5,10.7938576 22.2761424,10.57 22,10.57 C21.7238576,10.57 21.5,10.7938576 21.5,11.07 Z" id="Shape" fill="#000000" fill-rule="nonzero"></path>
        <path d="M9.35355339,10.6464466 C9.15829124,10.4511845 8.84170876,10.4511845 8.64644661,10.6464466 C8.45118446,10.8417088 8.45118446,11.1582912 8.64644661,11.3535534 L11.6464466,14.3535534 C11.8417088,14.5488155 12.1582912,14.5488155 12.3535534,14.3535534 L23.3535534,3.35355339 C23.5488155,3.15829124 23.5488155,2.84170876 23.3535534,2.64644661 C23.1582912,2.45118446 22.8417088,2.45118446 22.6464466,2.64644661 L12,13.2928932 L9.35355339,10.6464466 Z" id="Shape" fill="#000000" fill-rule="nonzero"></path>
    </g>
</svg>