<?xml version="1.0" encoding="UTF-8"?>
<svg width="24px" height="24px" viewBox="0 0 24 24" version="1.1" xmlns="http://www.w3.org/2000/svg" xmlns:xlink="http://www.w3.org/1999/xlink">
    <!-- Generator: Sketch 55.2 (78181) - https://sketchapp.com -->
    <title>chevrons-up</title>
    <desc>Created with Sketch.</desc>
    <g id="chevrons-up" stroke="none" stroke-width="1" fill="none" fill-rule="evenodd">
        <path d="M12.5,7.20710678 L17.1464466,11.8535534 C17.3417088,12.0488155 17.6582912,12.0488155 17.8535534,11.8535534 C18.0488155,11.6582912 18.0488155,11.3417088 17.8535534,11.1464466 L12.8535534,6.14644661 C12.6582912,5.95118446 12.3417088,5.95118446 12.1464466,6.14644661 L7.14644661,11.1464466 C6.95118446,11.3417088 6.95118446,11.6582912 7.14644661,11.8535534 C7.34170876,12.0488155 7.65829124,12.0488155 7.85355339,11.8535534 L12.5,7.20710678 Z" id="Shape" fill="#000000" fill-rule="nonzero"></path>
        <path d="M12.5,14.2071068 L17.1464466,18.8535534 C17.3417088,19.0488155 17.6582912,19.0488155 17.8535534,18.8535534 C18.0488155,18.6582912 18.0488155,18.3417088 17.8535534,18.1464466 L12.8535534,13.1464466 C12.6582912,12.9511845 12.3417088,12.9511845 12.1464466,13.1464466 L7.14644661,18.1464466 C6.95118446,18.3417088 6.95118446,18.6582912 7.14644661,18.8535534 C7.34170876,19.0488155 7.65829124,19.0488155 7.85355339,18.8535534 L12.5,14.2071068 Z" id="Shape" fill="#000000" fill-rule="nonzero"></path>
    </g>
</svg>