<?xml version="1.0" encoding="UTF-8"?>
<svg width="24px" height="24px" viewBox="0 0 24 24" version="1.1" xmlns="http://www.w3.org/2000/svg" xmlns:xlink="http://www.w3.org/1999/xlink">
    <!-- Generator: Sketch 55.2 (78181) - https://sketchapp.com -->
    <title>chevrons-left</title>
    <desc>Created with Sketch.</desc>
    <g id="chevrons-left" stroke="none" stroke-width="1" fill="none" fill-rule="evenodd">
        <path d="M7.20710678,12.5 L11.8535534,7.85355339 C12.0488155,7.65829124 12.0488155,7.34170876 11.8535534,7.14644661 C11.6582912,6.95118446 11.3417088,6.95118446 11.1464466,7.14644661 L6.14644661,12.1464466 C5.95118446,12.3417088 5.95118446,12.6582912 6.14644661,12.8535534 L11.1464466,17.8535534 C11.3417088,18.0488155 11.6582912,18.0488155 11.8535534,17.8535534 C12.0488155,17.6582912 12.0488155,17.3417088 11.8535534,17.1464466 L7.20710678,12.5 Z" id="Shape" fill="#000000" fill-rule="nonzero"></path>
        <path d="M14.2071068,12.5 L18.8535534,7.85355339 C19.0488155,7.65829124 19.0488155,7.34170876 18.8535534,7.14644661 C18.6582912,6.95118446 18.3417088,6.95118446 18.1464466,7.14644661 L13.1464466,12.1464466 C12.9511845,12.3417088 12.9511845,12.6582912 13.1464466,12.8535534 L18.1464466,17.8535534 C18.3417088,18.0488155 18.6582912,18.0488155 18.8535534,17.8535534 C19.0488155,17.6582912 19.0488155,17.3417088 18.8535534,17.1464466 L14.2071068,12.5 Z" id="Shape" fill="#000000" fill-rule="nonzero"></path>
    </g>
</svg>