<?xml version="1.0" encoding="UTF-8"?>
<svg width="24px" height="24px" viewBox="0 0 24 24" version="1.1" xmlns="http://www.w3.org/2000/svg" xmlns:xlink="http://www.w3.org/1999/xlink">
    <!-- Generator: Sketch 55.2 (78181) - https://sketchapp.com -->
    <title>chevrons-right</title>
    <desc>Created with Sketch.</desc>
    <g id="chevrons-right" stroke="none" stroke-width="1" fill="none" fill-rule="evenodd">
        <path d="M17.7928932,12.5 L13.1464466,17.1464466 C12.9511845,17.3417088 12.9511845,17.6582912 13.1464466,17.8535534 C13.3417088,18.0488155 13.6582912,18.0488155 13.8535534,17.8535534 L18.8535534,12.8535534 C19.0488155,12.6582912 19.0488155,12.3417088 18.8535534,12.1464466 L13.8535534,7.14644661 C13.6582912,6.95118446 13.3417088,6.95118446 13.1464466,7.14644661 C12.9511845,7.34170876 12.9511845,7.65829124 13.1464466,7.85355339 L17.7928932,12.5 Z" id="Shape" fill="#000000" fill-rule="nonzero"></path>
        <path d="M10.7928932,12.5 L6.14644661,17.1464466 C5.95118446,17.3417088 5.95118446,17.6582912 6.14644661,17.8535534 C6.34170876,18.0488155 6.65829124,18.0488155 6.85355339,17.8535534 L11.8535534,12.8535534 C12.0488155,12.6582912 12.0488155,12.3417088 11.8535534,12.1464466 L6.85355339,7.14644661 C6.65829124,6.95118446 6.34170876,6.95118446 6.14644661,7.14644661 C5.95118446,7.34170876 5.95118446,7.65829124 6.14644661,7.85355339 L10.7928932,12.5 Z" id="Shape" fill="#000000" fill-rule="nonzero"></path>
    </g>
</svg>