<?xml version="1.0" encoding="UTF-8"?>
<svg width="24px" height="24px" viewBox="0 0 24 24" version="1.1" xmlns="http://www.w3.org/2000/svg" xmlns:xlink="http://www.w3.org/1999/xlink">
    <!-- Generator: Sketch 55.2 (78181) - https://sketchapp.com -->
    <title>chevrons-down</title>
    <desc>Created with Sketch.</desc>
    <g id="chevrons-down" stroke="none" stroke-width="1" fill="none" fill-rule="evenodd">
        <path d="M12.5,17.7928932 L7.85355339,13.1464466 C7.65829124,12.9511845 7.34170876,12.9511845 7.14644661,13.1464466 C6.95118446,13.3417088 6.95118446,13.6582912 7.14644661,13.8535534 L12.1464466,18.8535534 C12.3417088,19.0488155 12.6582912,19.0488155 12.8535534,18.8535534 L17.8535534,13.8535534 C18.0488155,13.6582912 18.0488155,13.3417088 17.8535534,13.1464466 C17.6582912,12.9511845 17.3417088,12.9511845 17.1464466,13.1464466 L12.5,17.7928932 Z" id="Shape" fill="#000000" fill-rule="nonzero"></path>
        <path d="M12.5,10.7928932 L7.85355339,6.14644661 C7.65829124,5.95118446 7.34170876,5.95118446 7.14644661,6.14644661 C6.95118446,6.34170876 6.95118446,6.65829124 7.14644661,6.85355339 L12.1464466,11.8535534 C12.3417088,12.0488155 12.6582912,12.0488155 12.8535534,11.8535534 L17.8535534,6.85355339 C18.0488155,6.65829124 18.0488155,6.34170876 17.8535534,6.14644661 C17.6582912,5.95118446 17.3417088,5.95118446 17.1464466,6.14644661 L12.5,10.7928932 Z" id="Shape" fill="#000000" fill-rule="nonzero"></path>
    </g>
</svg>