<svg height="24" viewBox="0 0 24 24" width="24" xmlns="http://www.w3.org/2000/svg"><path d="m17.7928932 12.5-4.6464466-4.64644661c-.1952621-.19526215-.1952621-.51184463 0-.70710678.1952622-.19526215.5118446-.19526215.7071068 0l5 4.99999999c.1952621.1952622.1952621.5118446 0 .7071068l-5 5c-.1952622.1952621-.5118446.1952621-.7071068 0-.1952621-.1952622-.1952621-.5118446 0-.7071068zm-7 0-4.64644659-4.64644661c-.19526215-.19526215-.19526215-.51184463 0-.70710678s.51184463-.19526215.70710678 0l5.00000001 4.99999999c.1952621.1952622.1952621.5118446 0 .7071068l-5.00000001 5c-.19526215.1952621-.51184463.1952621-.70710678 0-.19526215-.1952622-.19526215-.5118446 0-.7071068z"/></svg>