<svg height="24" viewBox="0 0 24 24" width="24" xmlns="http://www.w3.org/2000/svg"><path d="m22.1444323 8.34172916c.5505268 1.27514083.8555677 2.68108274.8555677 4.15827084 0 5.7989899-4.7010101 10.5-10.5 10.5-.3814288 0-.7581073-.0203382-1.1290103-.0599894-.0309168-.0005292-.0619479-.0039345-.0926892-.0103244-5.22341797-.6052621-9.2783005-5.0439399-9.2783005-10.4296862 0-2.3123642.74747891-4.45014525 2.01399283-6.1848994.02022739-.03609176.0450624-.06989549.07424497-.10043849 1.91494632-2.55867571 4.96996609-4.21466211 8.4117622-4.21466211 4.2901379 0 7.9793344 2.57293603 9.6086925 6.25991111.0142366.02595816.0262364.05331732.0357398.08181805zm-9.9309646 13.65403234c.095166.002819.1906834.0042385.2865323.0042385 5.2467051 0 9.5-4.2532949 9.5-9.5 0-1.2360038-.2360434-2.4168768-.6655113-3.5h-6.0058215c1.0194993.82497775 1.6713328 2.0863669 1.6713328 3.5 0 .888071-.2572519 1.7160575-.7013014 2.4135054zm-1.0990198-.0960753 2.9978434-5.1971346c-.500536.1921487-1.0441166.2974484-1.6122913.2974484-1.73625 0-3.24283702-.9833039-3.99325769-2.4234084l-4.08853595-7.07254366c-.89914539 1.45143313-1.41820636 3.16307596-1.41820636 4.99595206 0 4.7760771 3.52447833 8.7289683 8.1144479 9.3996862zm-6.06250122-15.29745634 3.00272408 5.19425474c.33772109-2.15111089 2.19937634-3.7964846 4.44532924-3.7964846h8.3686933c-1.6040767-2.97685487-4.7501195-5-8.3686933-5-3.01833541 0-5.70790223 1.40762567-7.44805332 3.60222986zm10.50877282 7.59672794c.2798632-.5031045.4392805-1.0824142.4392805-1.6989578 0-1.9329966-1.5670034-3.5-3.5-3.5s-3.5 1.5670034-3.5 3.5c0 .5764934.1393787 1.1204331.38627678 1.5999599l.08659802.1498014c.01016438.0175828.0191389.0355268.02694851.0537387.61241089 1.0165781 1.72689169 1.6965 3.00017669 1.6965 1.2361512 0 2.3226258-.640842 2.9453235-1.6084258l.0815655-.1414039c.0103634-.0179662.0216733-.0350459.0338305-.0512125z"/></svg>