<?xml version="1.0" encoding="UTF-8"?>
<svg width="24px" height="24px" viewBox="0 0 24 24" version="1.1" xmlns="http://www.w3.org/2000/svg" xmlns:xlink="http://www.w3.org/1999/xlink">
    <!-- Generator: Sketch 55.2 (78181) - https://sketchapp.com -->
    <title>clipboard</title>
    <desc>Created with Sketch.</desc>
    <g id="clipboard" stroke="none" stroke-width="1" fill="none" fill-rule="evenodd">
        <path d="M17,4 L18.5,4 C19.8807119,4 21,5.11928813 21,6.5 L21,20.5 C21,21.8807119 19.8807119,23 18.5,23 L6.5,23 C5.11928813,23 4,21.8807119 4,20.5 L4,6.5 C4,5.11928813 5.11928813,4 6.5,4 L8,4 L8,3.5 C8,2.67157288 8.67157288,2 9.5,2 L15.5,2 C16.3284271,2 17,2.67157288 17,3.5 L17,4 Z M8,5 L6.5,5 C5.67157288,5 5,5.67157288 5,6.5 L5,20.5 C5,21.3284271 5.67157288,22 6.5,22 L18.5,22 C19.3284271,22 20,21.3284271 20,20.5 L20,6.5 C20,5.67157288 19.3284271,5 18.5,5 L17,5 L17,5.5 C17,6.32842712 16.3284271,7 15.5,7 L9.5,7 C8.67157288,7 8,6.32842712 8,5.5 L8,5 Z M9.5,3 C9.22385763,3 9,3.22385763 9,3.5 L9,5.5 C9,5.77614237 9.22385763,6 9.5,6 L15.5,6 C15.7761424,6 16,5.77614237 16,5.5 L16,3.5 C16,3.22385763 15.7761424,3 15.5,3 L9.5,3 Z" id="Combined-Shape" fill="#000000" fill-rule="nonzero"></path>
    </g>
</svg>