<svg height="24" viewBox="0 0 24 24" width="24" xmlns="http://www.w3.org/2000/svg"><path d="m17 4h1.5c1.3807119 0 2.5 1.11928813 2.5 2.5v14c0 1.3807119-1.1192881 2.5-2.5 2.5h-12c-1.38071187 0-2.5-1.1192881-2.5-2.5v-14c0-1.38071187 1.11928813-2.5 2.5-2.5h1.5v-.5c0-.82842712.67157288-1.5 1.5-1.5h6c.8284271 0 1.5.67157288 1.5 1.5zm-9 1h-1.5c-.82842712 0-1.5.67157288-1.5 1.5v14c0 .8284271.67157288 1.5 1.5 1.5h12c.8284271 0 1.5-.6715729 1.5-1.5v-14c0-.82842712-.6715729-1.5-1.5-1.5h-1.5v.5c0 .82842712-.6715729 1.5-1.5 1.5h-6c-.82842712 0-1.5-.67157288-1.5-1.5zm1.5-2c-.27614237 0-.5.22385763-.5.5v2c0 .27614237.22385763.5.5.5h6c.2761424 0 .5-.22385763.5-.5v-2c0-.27614237-.2238576-.5-.5-.5z"/></svg>