<?xml version="1.0" encoding="UTF-8"?>
<svg width="24px" height="24px" viewBox="0 0 24 24" version="1.1" xmlns="http://www.w3.org/2000/svg" xmlns:xlink="http://www.w3.org/1999/xlink">
    <!-- Generator: Sketch 55.2 (78181) - https://sketchapp.com -->
    <title>clock</title>
    <desc>Created with Sketch.</desc>
    <g id="clock" stroke="none" stroke-width="1" fill="none" fill-rule="evenodd">
        <path d="M12.5,23 C18.2989899,23 23,18.2989899 23,12.5 C23,6.70101013 18.2989899,2 12.5,2 C6.70101013,2 2,6.70101013 2,12.5 C2,18.2989899 6.70101013,23 12.5,23 Z M12.5,22 C7.25329488,22 3,17.7467051 3,12.5 C3,7.25329488 7.25329488,3 12.5,3 C17.7467051,3 22,7.25329488 22,12.5 C22,17.7467051 17.7467051,22 12.5,22 Z" id="Oval" fill="#000000" fill-rule="nonzero"></path>
        <path d="M13,6.5 C13,6.22385763 12.7761424,6 12.5,6 C12.2238576,6 12,6.22385763 12,6.5 L12,12.5 C12,12.6326082 12.0526784,12.7597852 12.1464466,12.8535534 L15.1464466,15.8535534 C15.3417088,16.0488155 15.6582912,16.0488155 15.8535534,15.8535534 C16.0488155,15.6582912 16.0488155,15.3417088 15.8535534,15.1464466 L13,12.2928932 L13,6.5 Z" id="Shape" fill="#000000" fill-rule="nonzero"></path>
    </g>
</svg>