<?xml version="1.0" encoding="UTF-8"?>
<svg width="24px" height="24px" viewBox="0 0 24 24" version="1.1" xmlns="http://www.w3.org/2000/svg" xmlns:xlink="http://www.w3.org/1999/xlink">
    <!-- Generator: Sketch 55.2 (78181) - https://sketchapp.com -->
    <title>cloud-rain</title>
    <desc>Created with Sketch.</desc>
    <g id="cloud-rain" stroke="none" stroke-width="1" fill="none" fill-rule="evenodd">
        <path d="M15.5,13 L15.5,21 C15.5,21.2761424 15.7238576,21.5 16,21.5 C16.2761424,21.5 16.5,21.2761424 16.5,21 L16.5,13 C16.5,12.7238576 16.2761424,12.5 16,12.5 C15.7238576,12.5 15.5,12.7238576 15.5,13 Z" id="Shape" fill="#000000" fill-rule="nonzero"></path>
        <path d="M7.5,13 L7.5,21 C7.5,21.2761424 7.72385763,21.5 8,21.5 C8.27614237,21.5 8.5,21.2761424 8.5,21 L8.5,13 C8.5,12.7238576 8.27614237,12.5 8,12.5 C7.72385763,12.5 7.5,12.7238576 7.5,13 Z" id="Shape" fill="#000000" fill-rule="nonzero"></path>
        <path d="M11.5,15 L11.5,23 C11.5,23.2761424 11.7238576,23.5 12,23.5 C12.2761424,23.5 12.5,23.2761424 12.5,23 L12.5,15 C12.5,14.7238576 12.2761424,14.5 12,14.5 C11.7238576,14.5 11.5,14.7238576 11.5,15 Z" id="Shape" fill="#000000" fill-rule="nonzero"></path>
        <path d="M9.47199004,0.5137334 C5.77915074,0.305787833 2.37572669,2.50973198 1.05472292,5.96447545 C-0.266280854,9.41921892 0.798400834,13.3316501 3.68786825,15.6406069 C3.9035945,15.8129925 4.21822132,15.777858 4.39060693,15.5621317 C4.56299253,15.3464055 4.527858,15.0317787 4.31213175,14.8593931 C1.76260167,12.8220783 0.823176655,9.36993307 1.98876822,6.32163001 C3.15435978,3.27332694 6.157381,1.32867034 9.41576862,1.51215173 C12.6741562,1.69563311 15.4398764,3.96513033 16.2558817,7.12501807 C16.312888,7.34576844 16.5120078,7.5 16.74,7.5 L18,7.5 C20.1282594,7.50250464 21.9640891,8.9964457 22.3991455,11.0803663 C22.834202,13.1642868 21.749439,15.267955 19.7994117,16.1219997 C19.5464651,16.2327815 19.4312178,16.5276417 19.5419997,16.7805883 C19.6527815,17.0335349 19.9476417,17.1487822 20.2005883,17.0380003 C22.5839551,15.994168 23.9097766,13.423018 23.3780409,10.876004 C22.8463052,8.32898996 20.6025134,6.50306199 18.0005883,6.50000035 L17.1181276,6.5000001 C16.0775833,3.1153379 13.0346251,0.714347103 9.47199004,0.5137334 Z" id="Shape" fill="#000000" fill-rule="nonzero"></path>
    </g>
</svg>