<svg height="24" viewBox="0 0 24 24" width="24" xmlns="http://www.w3.org/2000/svg"><path d="m7.56685671 3.12172179c-4.35530073.74179989-7.41619877 4.69644853-7.04233389 9.09862261.37386485 4.4021736 4.05782957 7.7839993 8.47584979 7.7807117h8.99962739c3.0375658 0 5.5-2.4624404 5.5-5.5000069 0-3.0375661-2.4624339-5.49999999-5.5-5.49999999h-.8817915c-1.2467415-4.06032999-5.32472-6.59921226-9.55135179-5.87932742zm10.43314329 6.87932741c2.4852814 0 4.5 2.0147186 4.5 4.5 0 2.4852819-2.0147191 4.5000044-4.5 4.5000044h-9c-3.89862606.0029031-7.14918336-2.981061-7.47906412-6.8653319-.32988077-3.88427125 2.37091162-7.37366711 6.21382402-8.02819642s7.5465526 1.74405613 8.5211172 5.51852407c.0569999.22075915.2561238.37499985.4841229.37499985z"/></svg>