<svg height="24" viewBox="0 0 24 24" width="24" xmlns="http://www.w3.org/2000/svg"><path d="m15.5 13c0-.2761424.2238576-.5.5-.5s.5.2238576.5.5v8c0 .2761424-.2238576.5-.5.5s-.5-.2238576-.5-.5zm-8 0c0-.2761424.22385763-.5.5-.5s.5.2238576.5.5v8c0 .2761424-.22385763.5-.5.5s-.5-.2238576-.5-.5zm4 2c0-.2761424.2238576-.5.5-.5s.5.2238576.5.5v8c0 .2761424-.2238576.5-.5.5s-.5-.2238576-.5-.5zm-2.02800996-14.4862666c3.56263506.2006137 6.60559326 2.6016045 7.64613756 5.9862667l.8824607.00000025c2.6019251.00306164 4.8457169 1.82898961 5.3774526 4.37600365.5317357 2.547014-.7940858 5.118164-3.1774526 6.1619963-.2529466.1107819-.5478068-.0044654-.6585886-.257412-.1107819-.2529466.0044654-.5478068.257412-.6585886 1.9500273-.8540447 3.0347903-2.9577129 2.5997338-5.0416334-.4350564-2.0839206-2.2708861-3.57786166-4.3991455-3.5803663h-1.26c-.2279922 0-.427112-.15423156-.4841183-.37498193-.8160053-3.15988774-3.5817255-5.42938496-6.84011308-5.61286634-3.25838762-.18348139-6.26140884 1.76117521-7.4270004 4.80947828-1.16559156 3.04830306-.22616655 6.50044829 2.32336353 8.53776309.21572625.1723856.25086078.4870124.07847518.7027386-.17238561.2157263-.48701243.2508608-.70273868.0784752-2.88946742-2.3089568-3.9541491-6.22138798-2.63314533-9.67613145s4.72442782-5.65868762 8.41726712-5.45074205z"/></svg>