<svg height="24" viewBox="0 0 24 24" width="24" xmlns="http://www.w3.org/2000/svg"><path d="m9.47199004 3.0135408c-3.6928393-.20794556-7.09626335 1.99599858-8.41726712 5.45074206-1.32100377 3.45474344-.25632209 7.36717464 2.63314533 9.67613144.21572625.1723856.53035307.1372511.70273868-.0784751.1723856-.2157263.13725107-.5303531-.07847518-.7027387-2.54953008-2.0373148-3.48895509-5.48946-2.32336353-8.53776309 1.16559156-3.04830306 4.16861278-4.99295966 7.4270004-4.80947828 3.25838758.18348138 6.02410778 2.4529786 6.84011308 5.61286635.0570063.22075036.2561261.37498192.4841183.37498192h1.26c2.1282594.0025046 3.9640891 1.4964457 4.3991455 3.5803663.4350565 2.0839206-.6497065 4.1875887-2.5997338 5.0416334-.2529466.1107818-.3681939.405642-.257412.6585886.1107818.2529467.405642.3681939.6585886.2574121 2.3833668-1.0438324 3.7091883-3.6149824 3.1774526-6.1619964s-2.7755275-4.372942-5.3774526-4.37600365l-.8824607-.00000024c-1.0405443-3.3846622-4.0835025-5.785653-7.64613756-5.98626671z"/></svg>