<?xml version="1.0" encoding="UTF-8"?>
<svg width="24px" height="24px" viewBox="0 0 24 24" version="1.1" xmlns="http://www.w3.org/2000/svg" xmlns:xlink="http://www.w3.org/1999/xlink">
    <!-- Generator: Sketch 55.2 (78181) - https://sketchapp.com -->
    <title>cloud-drizzle</title>
    <desc>Created with Sketch.</desc>
    <g id="cloud-drizzle" stroke="none" stroke-width="1" fill="none" fill-rule="evenodd">
        <path d="M7.00640297,19.4998074 L7.00640297,21.4998074 C7.00640297,21.7759498 7.23026059,21.9998074 7.50640297,21.9998074 C7.78254534,21.9998074 8.00640297,21.7759498 8.00640297,21.4998074 L8.00640297,19.4998074 C8.00640297,19.223665 7.78254534,18.9998074 7.50640297,18.9998074 C7.23026059,18.9998074 7.00640297,19.223665 7.00640297,19.4998074 Z" id="Shape" fill="#000000" fill-rule="nonzero"></path>
        <path d="M7.00640297,13.4998074 L7.00640297,15.4998074 C7.00640297,15.7759498 7.23026059,15.9998074 7.50640297,15.9998074 C7.78254534,15.9998074 8.00640297,15.7759498 8.00640297,15.4998074 L8.00640297,13.4998074 C8.00640297,13.223665 7.78254534,12.9998074 7.50640297,12.9998074 C7.23026059,12.9998074 7.00640297,13.223665 7.00640297,13.4998074 Z" id="Shape" fill="#000000" fill-rule="nonzero"></path>
        <path d="M15.006403,19.4998074 L15.006403,21.4998074 C15.006403,21.7759498 15.2302606,21.9998074 15.506403,21.9998074 C15.7825453,21.9998074 16.006403,21.7759498 16.006403,21.4998074 L16.006403,19.4998074 C16.006403,19.223665 15.7825453,18.9998074 15.506403,18.9998074 C15.2302606,18.9998074 15.006403,19.223665 15.006403,19.4998074 Z" id="Shape" fill="#000000" fill-rule="nonzero"></path>
        <path d="M15.006403,13.4998074 L15.006403,15.4998074 C15.006403,15.7759498 15.2302606,15.9998074 15.506403,15.9998074 C15.7825453,15.9998074 16.006403,15.7759498 16.006403,15.4998074 L16.006403,13.4998074 C16.006403,13.223665 15.7825453,12.9998074 15.506403,12.9998074 C15.2302606,12.9998074 15.006403,13.223665 15.006403,13.4998074 Z" id="Shape" fill="#000000" fill-rule="nonzero"></path>
        <path d="M11.006403,21.4998074 L11.006403,23.4998074 C11.006403,23.7759498 11.2302606,23.9998074 11.506403,23.9998074 C11.7825453,23.9998074 12.006403,23.7759498 12.006403,23.4998074 L12.006403,21.4998074 C12.006403,21.223665 11.7825453,20.9998074 11.506403,20.9998074 C11.2302606,20.9998074 11.006403,21.223665 11.006403,21.4998074 Z" id="Shape" fill="#000000" fill-rule="nonzero"></path>
        <path d="M11.006403,15.4998074 L11.006403,17.4998074 C11.006403,17.7759498 11.2302606,17.9998074 11.506403,17.9998074 C11.7825453,17.9998074 12.006403,17.7759498 12.006403,17.4998074 L12.006403,15.4998074 C12.006403,15.223665 11.7825453,14.9998074 11.506403,14.9998074 C11.2302606,14.9998074 11.006403,15.223665 11.006403,15.4998074 Z" id="Shape" fill="#000000" fill-rule="nonzero"></path>
        <path d="M8.97839301,1.0135408 C5.28555371,0.805595237 1.88212966,3.00953938 0.561125886,6.46428286 C-0.759877885,9.91902633 0.304803803,13.8314575 3.19427122,16.1404143 C3.40999747,16.3127999 3.72462429,16.2776654 3.8970099,16.0619392 C4.0693955,15.8462129 4.03426097,15.5315861 3.81853472,15.3592005 C1.26900464,13.3218857 0.329579624,9.86974047 1.49517119,6.82143741 C2.66076275,3.77313435 5.66378397,1.82847775 8.92217159,2.01195913 C12.1805592,2.19544051 14.9462794,4.46493773 15.7622847,7.62482548 C15.819291,7.84557584 16.0184108,7.9998074 16.246403,7.9998074 L17.506403,7.9998074 C19.6346624,8.00231204 21.470492,9.49625311 21.9055485,11.5801737 C22.340605,13.6640943 21.255842,15.7677624 19.3058146,16.6218071 C19.052868,16.7325889 18.9376207,17.0274491 19.0484026,17.2803957 C19.1591845,17.5333424 19.4540447,17.6485896 19.7069913,17.5378078 C22.0903581,16.4939754 23.4161795,13.9228254 22.8844438,11.3758114 C22.3527081,8.82879736 20.1089164,7.0028694 17.5069913,6.99980775 L16.6245306,6.99980751 C15.5839862,3.61514531 12.541028,1.21415451 8.97839301,1.0135408 Z" id="Shape" fill="#000000" fill-rule="nonzero"></path>
    </g>
</svg>