<svg height="24" viewBox="0 0 24 24" width="24" xmlns="http://www.w3.org/2000/svg"><path d="m7.00640297 19.4998074c0-.2761424.22385762-.5.5-.5.27614237 0 .5.2238576.5.5v2c0 .2761424-.22385763.5-.5.5-.27614238 0-.5-.2238576-.5-.5zm0-6c0-.2761424.22385762-.5.5-.5.27614237 0 .5.2238576.5.5v2c0 .2761424-.22385763.5-.5.5-.27614238 0-.5-.2238576-.5-.5zm8.00000003 6c0-.2761424.2238576-.5.5-.5.2761423 0 .5.2238576.5.5v2c0 .2761424-.2238577.5-.5.5-.2761424 0-.5-.2238576-.5-.5zm0-6c0-.2761424.2238576-.5.5-.5.2761423 0 .5.2238576.5.5v2c0 .2761424-.2238577.5-.5.5-.2761424 0-.5-.2238576-.5-.5zm-4 8c0-.2761424.2238576-.5.5-.5.2761423 0 .5.2238576.5.5v2c0 .2761424-.2238577.5-.5.5-.2761424 0-.5-.2238576-.5-.5zm0-6c0-.2761424.2238576-.5.5-.5.2761423 0 .5.2238576.5.5v2c0 .2761424-.2238577.5-.5.5-.2761424 0-.5-.2238576-.5-.5zm-2.02800999-14.4862666c3.56263499.20061371 6.60559319 2.60160451 7.64613759 5.98626671l.8824607.00000024c2.6019251.00306165 4.8457168 1.82898961 5.3774525 4.37600365.5317357 2.547014-.7940857 5.118164-3.1774525 6.1619964-.2529466.1107818-.5478068-.0044654-.6585887-.2574121-.1107819-.2529466.0044654-.5478068.257412-.6585886 1.9500274-.8540447 3.0347904-2.9577128 2.5997339-5.0416334-.4350565-2.08392059-2.2708861-3.57786166-4.3991455-3.5803663h-1.26c-.2279922 0-.427112-.15423156-.4841183-.37498192-.8160053-3.15988775-3.5817255-5.42938497-6.84011311-5.61286635-3.25838762-.18348138-6.26140884 1.76117522-7.4270004 4.80947828-1.16559157 3.04830306-.22616655 6.50044829 2.32336353 8.53776309.21572625.1723856.25086078.4870124.07847518.7027387-.17238561.2157262-.48701243.2508607-.70273868.0784751-2.88946742-2.3089568-3.95414911-6.22138797-2.63314533-9.67613144 1.32100377-3.45474348 4.72442782-5.65868762 8.41726712-5.45074206z"/></svg>