<?xml version="1.0" encoding="UTF-8"?>
<svg width="24px" height="24px" viewBox="0 0 24 24" version="1.1" xmlns="http://www.w3.org/2000/svg" xmlns:xlink="http://www.w3.org/1999/xlink">
    <!-- Generator: Sketch 55.2 (78181) - https://sketchapp.com -->
    <title>cloud-lightning</title>
    <desc>Created with Sketch.</desc>
    <g id="cloud-lightning" stroke="none" stroke-width="1" fill="none" fill-rule="evenodd">
        <path d="M8.9942083,0.500677931 C5.11849985,0.500677931 1.73356022,3.12240399 0.764304742,6.87495779 C-0.204950733,10.6275116 1.4869455,14.5605449 4.87786198,16.4374576 C5.11946315,16.5711868 5.42372849,16.4837392 5.55745763,16.242138 C5.69118677,16.0005368 5.6037392,15.6962715 5.36213802,15.5625424 C2.3701529,13.9064429 0.87730328,10.4361194 1.7325287,7.12504251 C2.58775412,3.81396563 5.57446556,1.50067793 8.9942083,1.50067793 C12.4139511,1.50067793 15.4006625,3.81396553 16.255888,7.12504237 C16.3129031,7.34578083 16.5120172,7.5 16.74,7.5 L18,7.5 C20.3123915,7.4976763 22.2499004,9.24756783 22.4822423,11.5477533 C22.7145843,13.8479388 21.166156,15.9499452 18.9005025,16.4099997 C18.6298828,16.4649507 18.4550488,16.7288778 18.5099997,16.9994975 C18.5649507,17.2701172 18.8288778,17.4449512 19.0994975,17.3900003 C21.8686296,16.8277113 23.7611531,14.2585924 23.4771795,11.4472546 C23.193206,8.6359168 20.8251396,6.49716048 17.9994975,6.50000025 L17.1181221,6.50000008 C16.0264724,2.94891407 12.7394867,0.500677931 8.9942083,0.500677931 Z" id="Shape" fill="#000000" fill-rule="nonzero"></path>
        <path d="M14.0657415,17.5 L10.5839749,22.7226499 C10.4307986,22.9524142 10.4928856,23.2628489 10.7226499,23.4160251 C10.9524142,23.5692014 11.2628489,23.5071144 11.4160251,23.2773501 L15.4160251,17.2773501 C15.6375434,16.9450727 15.3993477,16.5 15,16.5 L9.93425855,16.5 L13.4160251,11.2773501 C13.5692014,11.0475858 13.5071144,10.7371511 13.2773501,10.5839749 C13.0475858,10.4307986 12.7371511,10.4928856 12.5839749,10.7226499 L8.58397485,16.7226499 C8.36245661,17.0549273 8.60065231,17.5 9,17.5 L14.0657415,17.5 Z" id="Shape" fill="#000000" fill-rule="nonzero"></path>
    </g>
</svg>