<svg height="24" viewBox="0 0 24 24" width="24" xmlns="http://www.w3.org/2000/svg"><path d="m8.9942083.50067793c3.7452784 0 7.0322641 2.44823614 8.1239138 5.99932215l.8813754.00000017c2.8256421-.00283977 5.1937085 2.13591655 5.477682 4.94725435.2839736 2.8113378-1.6085499 5.3804567-4.377682 5.9427457-.2706197.0549509-.5345468-.1198831-.5894978-.3905028-.0549509-.2706197.1198831-.5345468.3905028-.5894978 2.2656535-.4600545 3.8140818-2.5620609 3.5817398-4.8622464-.2323419-2.30018547-2.1698508-4.050077-4.4822423-4.0477533h-1.26c-.2279828 0-.4270969-.15421917-.484112-.37495763-.8552255-3.31107684-3.8419369-5.62436444-7.2616797-5.62436444-3.41974274 0-6.40645418 2.3132877-7.2616796 5.62436458-.85522542 3.31107689.6376242 6.78140039 3.62960932 8.43749989.24160118.1337291.32904875.4379944.19531961.6795956s-.43799448.3290488-.67959565.1953196c-3.39091648-1.8769127-5.08281271-5.809946-4.11355724-9.56249981.96925548-3.7525538 4.35419511-6.37427986 8.22990356-6.37427986zm5.0715332 16.99932207h-5.0657415c-.39934769 0-.63754339-.4450727-.41602515-.7773501l4.00000005-6c.1531762-.2297643.4636109-.2918513.6933752-.138675.2297643.1531762.2918513.4636109.138675.6933752l-3.48176655 5.2226499h5.06574145c.3993477 0 .6375434.4450727.4160251.7773501l-4 6c-.1531762.2297643-.4636109.2918513-.6933752.138675-.2297643-.1531762-.2918513-.4636109-.138675-.6933752z"/></svg>