<svg height="24" viewBox="0 0 24 24" width="24" xmlns="http://www.w3.org/2000/svg"><path d="m5.34537805 4.63827127c.00544356.00520055.01078278.01053846.01601215.01601215l14.6846951 14.68469508c.0052372.0050132.010369.0101442.0153946.0153946l3.2920735 3.2920735c.1952621.1952622.1952621.5118446 0 .7071068-.1952622.1952621-.5118446.1952621-.7071068 0l-3.0823783-3.0823784c-.5069044.1509712-1.0335601.2282012-1.5640683.228825l-8.99194412-.0000649c-3.90141728.0628669-7.34456693-2.5385891-8.34994695-6.3087641-.94850937-3.5569102.50261751-7.29209249 3.53720318-9.28875211l-3.5488655-3.5488655c-.19526215-.19526215-.19526215-.51184463 0-.70710678s.51184463-.19526215.70710678 0l3.9918245 3.9918245zm-.42600862.98820494c-2.7957197 1.73158136-4.14987108 5.10136139-3.29502556 8.30703209.88710001 3.3266251 3.92517324 5.6220274 7.37565613 5.5664917l8.9994118.0000003c.2459067-.0002892.4909067-.020733.7325778-.0609039zm13.08003787 3.87352414c1.8457889-.00218807 3.5696039.92163685 4.5898862 2.45980645 1.0202822 1.5381695 1.2009733 3.4855631.4811138 5.1851936-.1076957.2542759-.4011317.3731026-.6554077.2654069-.2542759-.1076957-.3731026-.4011317-.2654069-.6554077.588976-1.3906067.4411379-2.9839287-.3936385-4.2424311-.8347764-1.2585023-2.2451706-2.0143591-3.7559542-2.0125685h-1.26c-.2287447 0-.4283205-.155231-.4846195-.3769393-.7843374-3.08876131-3.4349449-5.3445975-6.609375-5.62499998-.27507134-.02429749-.47836371-.26698388-.45406622-.54205522s.26698388-.47836371.54205522-.45406622c3.4672599.3062686 6.3831185 2.69197566 7.3856799 5.99806083z"/></svg>