<?xml version="1.0" encoding="UTF-8"?>
<svg width="24px" height="24px" viewBox="0 0 24 24" version="1.1" xmlns="http://www.w3.org/2000/svg" xmlns:xlink="http://www.w3.org/1999/xlink">
    <!-- Generator: Sketch 55.2 (78181) - https://sketchapp.com -->
    <title>code</title>
    <desc>Created with Sketch.</desc>
    <g id="code" stroke="none" stroke-width="1" fill="none" fill-rule="evenodd">
        <path d="M21.7928932,12.5 L16.1464466,6.85355339 C15.9511845,6.65829124 15.9511845,6.34170876 16.1464466,6.14644661 C16.3417088,5.95118446 16.6582912,5.95118446 16.8535534,6.14644661 L22.8535534,12.1464466 C23.0488155,12.3417088 23.0488155,12.6582912 22.8535534,12.8535534 L16.8535534,18.8535534 C16.6582912,19.0488155 16.3417088,19.0488155 16.1464466,18.8535534 C15.9511845,18.6582912 15.9511845,18.3417088 16.1464466,18.1464466 L21.7928932,12.5 Z M3.20710678,12.5 L8.85355339,18.1464466 C9.04881554,18.3417088 9.04881554,18.6582912 8.85355339,18.8535534 C8.65829124,19.0488155 8.34170876,19.0488155 8.14644661,18.8535534 L2.14644661,12.8535534 C1.95118446,12.6582912 1.95118446,12.3417088 2.14644661,12.1464466 L8.14644661,6.14644661 C8.34170876,5.95118446 8.65829124,5.95118446 8.85355339,6.14644661 C9.04881554,6.34170876 9.04881554,6.65829124 8.85355339,6.85355339 L3.20710678,12.5 Z" id="Combined-Shape" fill="#000000" fill-rule="nonzero"></path>
    </g>
</svg>