<svg height="24" viewBox="0 0 24 24" width="24" xmlns="http://www.w3.org/2000/svg"><path d="m11.0000004 3.42134302-8.60616975 5.59401036 4.10616977 2.87431882 4.49999998-3.14999998zm1 0v5.3183292l4.5 3.14999998 4.1061698-2.87431882zm9 11.61832918v-5.07934442l-3.6281031 2.53967222zm-.3938302.9449744-4.1061698-2.8743188-4.5 3.15v5.3183292zm-13.23427295-3.4846466 4.12810315 2.8896722 4.1281032-2.8896722-4.1281032-2.88967222zm-5.37189683 2.5396722 3.62810317-2.5396722-3.62810317-2.53967222zm.39383023.9449744 8.60616975 5.5940104v-5.3183292l-4.49999998-3.15zm-1.20804944.4042895c-.11678152-.0943232-.18578079-.2370007-.18578079-.3889361v-7c-.00012905-.09915873.02920262-.19932914.09038404-.28673117.04026029-.05751469.09043632-.10396314.14660147-.13865243l9.99052027-6.49383821c.1656989-.10770425.3792895-.10770425.5449884 0l9.9905203 6.49383821c.0561652.03468929.1063412.08113774.1466015.13865243.0305907.04370101.053219.09059412.0681888.13895683.0140944.04474195.0221952.09571469.0221952.14777434v7c0 .0520597-.0081008.1030324-.0234489.1513454-.0137161.0447916-.0363444.0916848-.0669351.1353858-.0402603.0575147-.0904363.1039631-.1466015.1386524l-9.9905203 6.4938382c-.1656989.1077043-.3792895.1077043-.5449884 0l-9.99052027-6.4938382c-.01773578-.0109541-.03487434-.0230809-.05129204-.0363584z"/></svg>