<svg height="24" viewBox="0 0 24 24" width="24" xmlns="http://www.w3.org/2000/svg"><path d="m21.7928932 12.5-5.6464466-5.64644661c-.1952621-.19526215-.1952621-.51184463 0-.70710678.1952622-.19526215.5118446-.19526215.7071068 0l6 5.99999999c.1952621.1952622.1952621.5118446 0 .7071068l-6 6c-.1952622.1952621-.5118446.1952621-.7071068 0-.1952621-.1952622-.1952621-.5118446 0-.7071068zm-18.58578642 0 5.64644661 5.6464466c.19526215.1952622.19526215.5118446 0 .7071068-.19526215.1952621-.51184463.1952621-.70710678 0l-6-6c-.19526215-.1952622-.19526215-.5118446 0-.7071068l6-5.99999999c.19526215-.19526215.51184463-.19526215.70710678 0s.19526215.51184463 0 .70710678z"/></svg>