<svg height="24" viewBox="0 0 24 24" width="24" xmlns="http://www.w3.org/2000/svg"><path d="m11.2001972 21.97821c-.3291827-.0396688-.6520457-.1450232-.9481833-.3160005l-3.28118042-1.8749629c-.16086724-.0092796-.30134347-.0946107-.38601657-.2205812l-3.33473331-1.9055646c-.7727101-.4461238-1.24908481-1.270252-1.25000026-2.1630129v-3.9913417c-.00011098-.0060765-.00011126-.01216 0-.0182478v-3.99092332c.00041869-.40808412.10029581-.80191869.28267858-1.15196198.01092433-.04725841.02896522-.09371389.05451779-.13788695.02871568-.04964116.06465956-.09249592.1057319-.12800353.2074654-.30037204.48159247-.55672882.80900226-.74575626l3.33286699-1.90449271c.08954792-.13373436.23437923-.21158712.38603267-.22058978l3.27916977-1.87380864c.7735027-.44658199 1.7264973-.44658199 2.4980695-.00110887l3.2811011 1.87491756c.1516533.00900286.2964845.08685575.3860322.22059017l3.334797 1.90560099c.3266565.18859494.6003548.44474315.8075625.74507215.040868.03542447.0766401.07813547.1052414.12757892.0254985.04407957.043517.09043192.0544483.1375869.1823594.35012809.2823291.74426639.282748 1.15277488v3.99040797c.0001113.0060903.000111.0121738 0 .0182499v3.991855c-.0009154.892248-.4772901 1.7163762-1.2519305 2.1636087l-3.3328033 1.9044563c-.0846733.1259705-.2251497.2113015-.386017.2205808l-3.2792492 1.873854c-.2969856.1714648-.6204313.2770958-.9499093.3169558-.0835816.0628101-.1874894.1000315-.3000907.1000315-.1125094 0-.2163396-.0371607-.2998861-.0998779zm.7998861-1.0681639c.0864322-.0305399.1707847-.0692311.2519306-.1160797l3.2480694-1.8560371v-4.8398414c0-.1785755.0952389-.3435952.2498612-.4329325l4.2501386-2.4556356v-3.71091902c-.0001083-.10568635-.0113347-.2097798-.0328374-.31084129l-7.9671624 4.60872511zm-1 .0002312v-9.1137927l-7.96720122-4.60874761c-.02148274.10092607-.03269069.20485335-.03279901.31035094v3.71143157l4.25013907 2.4556359c.15462231.0893373.2498612.254357.2498612.4329325v4.8398418l3.24999996 1.8571455c.0804668.0464575.164171.0848601.25.1152021zm8.4447326-14.57556879c-.0601916-.04874074-.1245766-.09310825-.192802-.13249901l-3.3027619-1.88729518-4.1990299 2.42610615c-.154771.08942328-.3455065.08942328-.5002776 0l-4.19903011-2.42610631-3.30083132 1.88618662c-.06888644.03977155-.13384763.08455013-.19453105.13372417l7.94453128 4.59563385zm.5552672 6.02972559-3.4999998 2.0222221v3.9798454l2.7500003-1.5714265c.4636261-.2676743.7494509-.7621512.7499995-1.2969872zm-17.00000003-.0000003v3.1331413c.00054912.5353488.28637395 1.0298257.74806974 1.2963913l2.75193053 1.5725339v-3.9798441zm5.05579894-8.62378604 3.44420129 1.98998299 3.4442025-1.98998365-2.6942025-1.53954647c-.4641016-.26794919-1.0358983-.26794919-1.5019305.00110887z"/></svg>