<svg height="24" viewBox="0 0 24 24" width="24" xmlns="http://www.w3.org/2000/svg"><path d="m17.5000003 9h.9999997c2.4852814 0 4.5 2.0147186 4.5 4.5s-2.0147186 4.5-4.5 4.5h-.5v.5c0 2.4852814-2.0147186 4.5-4.5 4.5h-8c-2.48528137 0-4.5-2.0147186-4.5-4.5v-9c0-.27614237.22385763-.5.5-.5h16zm.4999997 8h.5c1.9329966 0 3.5-1.5670034 3.5-3.5s-1.5670034-3.5-3.5-3.5h-.5zm-16-7v8.5c0 1.9329966 1.56700338 3.5 3.5 3.5h8c1.9329966 0 3.5-1.5670034 3.5-3.5v-8.5zm3-7.5c0-.27614237.22385763-.5.5-.5s.5.22385763.5.5v3c0 .27614237-.22385763.5-.5.5s-.5-.22385763-.5-.5zm4 0c0-.27614237.22385763-.5.5-.5s.5.22385763.5.5v3c0 .27614237-.22385763.5-.5.5s-.5-.22385763-.5-.5zm4 0c0-.27614237.2238576-.5.5-.5s.5.22385763.5.5v3c0 .27614237-.2238576.5-.5.5s-.5-.22385763-.5-.5z"/></svg>