<svg height="24" viewBox="0 0 24 24" width="24" xmlns="http://www.w3.org/2000/svg"><path d="m16 10v5h2.5c1.9329966 0 3.5 1.5670034 3.5 3.5s-1.5670034 3.5-3.5 3.5-3.5-1.5670034-3.5-3.5v-2.5h-5v2.5c0 1.9329966-1.56700338 3.5-3.5 3.5s-3.5-1.5670034-3.5-3.5 1.56700338-3.5 3.5-3.5h2.5v-5h-2.5c-1.93299662 0-3.5-1.56700338-3.5-3.5s1.56700338-3.5 3.5-3.5 3.5 1.56700338 3.5 3.5v2.5h5v-2.5c0-1.93299662 1.5670034-3.5 3.5-3.5s3.5 1.56700338 3.5 3.5-1.5670034 3.5-3.5 3.5zm-1 0h-5v5h5zm-6-1v-2.5c0-1.38071187-1.11928813-2.5-2.5-2.5s-2.5 1.11928813-2.5 2.5 1.11928813 2.5 2.5 2.5zm0 7h-2.5c-1.38071187 0-2.5 1.1192881-2.5 2.5s1.11928813 2.5 2.5 2.5 2.5-1.1192881 2.5-2.5zm7 0v2.5c0 1.3807119 1.1192881 2.5 2.5 2.5s2.5-1.1192881 2.5-2.5-1.1192881-2.5-2.5-2.5zm0-7h2.5c1.3807119 0 2.5-1.11928813 2.5-2.5s-1.1192881-2.5-2.5-2.5-2.5 1.11928813-2.5 2.5z"/></svg>