<svg height="24" viewBox="0 0 24 24" width="24" xmlns="http://www.w3.org/2000/svg"><path d="m11.5 23c-5.79898987 0-10.5-4.7010101-10.5-10.5 0-5.79898987 4.70101013-10.5 10.5-10.5 5.7989899 0 10.5 4.70101013 10.5 10.5 0 5.7989899-4.7010101 10.5-10.5 10.5zm0-1c5.2467051 0 9.5-4.2532949 9.5-9.5 0-5.24670512-4.2532949-9.5-9.5-9.5-5.24670512 0-9.5 4.25329488-9.5 9.5 0 5.2467051 4.25329488 9.5 9.5 9.5zm4.0818861-14.21434165c.390879-.130293.7627486.24157652.6324555.63245553l-2.12 6.36000002c-.0497675.1493025-.1669252.2664602-.3162277.3162277l-6.36000002 2.12c-.39087901.1302931-.76274853-.2415765-.63245553-.6324555l2.12-6.36c.0497675-.1493025.16692527-.26646025.31622777-.31622775zm-5.80660139 2.98962635-1.72471529 5.1741459 5.17414588-1.7247153 1.7247153-5.17414588z"/></svg>