<?xml version="1.0" encoding="UTF-8"?>
<svg width="24px" height="24px" viewBox="0 0 24 24" version="1.1" xmlns="http://www.w3.org/2000/svg" xmlns:xlink="http://www.w3.org/1999/xlink">
    <!-- Generator: Sketch 55.2 (78181) - https://sketchapp.com -->
    <title>compass</title>
    <desc>Created with Sketch.</desc>
    <g id="compass" stroke="none" stroke-width="1" fill="none" fill-rule="evenodd">
        <path d="M11.5,23 C17.2989899,23 22,18.2989899 22,12.5 C22,6.70101013 17.2989899,2 11.5,2 C5.70101013,2 1,6.70101013 1,12.5 C1,18.2989899 5.70101013,23 11.5,23 Z M11.5,22 C6.25329488,22 2,17.7467051 2,12.5 C2,7.25329488 6.25329488,3 11.5,3 C16.7467051,3 21,7.25329488 21,12.5 C21,17.7467051 16.7467051,22 11.5,22 Z" id="Oval" fill="#000000" fill-rule="nonzero"></path>
        <path d="M15.5818861,7.78565835 C15.9727651,7.65536535 16.3446347,8.02723487 16.2143416,8.41811388 L14.0943416,14.7781139 C14.0445741,14.9274164 13.9274164,15.0445741 13.7781139,15.0943416 L7.41811388,17.2143416 C7.02723487,17.3446347 6.65536535,16.9727651 6.78565835,16.5818861 L8.90565835,10.2218861 C8.95542585,10.0725836 9.07258362,9.95542585 9.22188612,9.90565835 L15.5818861,7.78565835 Z M9.77528471,10.7752847 L8.05056942,15.9494306 L13.2247153,14.2247153 L14.9494306,9.05056942 L9.77528471,10.7752847 Z" id="Shape" fill="#000000" fill-rule="nonzero"></path>
    </g>
</svg>