<?xml version="1.0" encoding="UTF-8"?>
<svg width="24px" height="24px" viewBox="0 0 24 24" version="1.1" xmlns="http://www.w3.org/2000/svg" xmlns:xlink="http://www.w3.org/1999/xlink">
    <!-- Generator: Sketch 55.2 (78181) - https://sketchapp.com -->
    <title>copy</title>
    <desc>Created with Sketch.</desc>
    <g id="copy" stroke="none" stroke-width="1" fill="none" fill-rule="evenodd">
        <path d="M11.5,9 L20.5,9 C21.8807119,9 23,10.1192881 23,11.5 L23,20.5 C23,21.8807119 21.8807119,23 20.5,23 L11.5,23 C10.1192881,23 9,21.8807119 9,20.5 L9,11.5 C9,10.1192881 10.1192881,9 11.5,9 Z M11.5,10 C10.6715729,10 10,10.6715729 10,11.5 L10,20.5 C10,21.3284271 10.6715729,22 11.5,22 L20.5,22 C21.3284271,22 22,21.3284271 22,20.5 L22,11.5 C22,10.6715729 21.3284271,10 20.5,10 L11.5,10 Z" id="Rectangle-path" fill="#000000" fill-rule="nonzero"></path>
        <path d="M5.5,15 L4.5,15 C3.67157288,15 3,14.3284271 3,13.5 L3,4.5 C3,3.67157288 3.67157288,3 4.5,3 L13.5,3 C14.3284271,3 15,3.67157288 15,4.5 L15,5.5 C15,5.77614237 15.2238576,6 15.5,6 C15.7761424,6 16,5.77614237 16,5.5 L16,4.5 C16,3.11928813 14.8807119,2 13.5,2 L4.5,2 C3.11928813,2 2,3.11928813 2,4.5 L2,13.5 C2,14.8807119 3.11928813,16 4.5,16 L5.5,16 C5.77614237,16 6,15.7761424 6,15.5 C6,15.2238576 5.77614237,15 5.5,15 Z" id="Shape" fill="#000000" fill-rule="nonzero"></path>
    </g>
</svg>