<svg height="24" viewBox="0 0 24 24" width="24" xmlns="http://www.w3.org/2000/svg"><path d="m15 19.2928932v-10.7928932c0-1.93299662-1.5670034-3.5-3.5-3.5h-7c-.27614237 0-.5-.22385763-.5-.5s.22385763-.5.5-.5h7c2.4852814 0 4.5 2.01471863 4.5 4.5v10.7928932l4.1464466-4.1464466c.1952622-.1952621.5118446-.1952621.7071068 0 .1952621.1952622.1952621.5118446 0 .7071068l-5 5c-.1952622.1952621-.5118446.1952621-.7071068 0l-5-5c-.19526214-.1952622-.19526214-.5118446 0-.7071068.1952622-.1952621.5118446-.1952621.7071068 0z"/></svg>