<svg height="24" viewBox="0 0 24 24" width="24" xmlns="http://www.w3.org/2000/svg"><path d="m5.70710678 16 4.14644661 4.1464466c.19526211.1952622.19526211.5118446 0 .7071068-.19526215.1952621-.51184463.1952621-.70710678 0l-5-5c-.19526215-.1952622-.19526215-.5118446 0-.7071068l5-5c.19526215-.19526214.51184463-.19526214.70710678 0 .19526211.1952622.19526211.5118446 0 .7071068l-4.14644661 4.1464466h10.79289322c1.9329966 0 3.5-1.5670034 3.5-3.5v-7c0-.27614237.2238576-.5.5-.5s.5.22385763.5.5v7c0 2.4852814-2.0147186 4.5-4.5 4.5z"/></svg>