<svg height="24" viewBox="0 0 24 24" width="24" xmlns="http://www.w3.org/2000/svg"><path d="m9 19.2928932v-10.7928932c0-2.48528137 2.0147186-4.5 4.5-4.5h7c.2761424 0 .5.22385763.5.5s-.2238576.5-.5.5h-7c-1.9329966 0-3.5 1.56700338-3.5 3.5v10.7928932l4.1464466-4.1464466c.1952622-.1952621.5118446-.1952621.7071068 0 .1952621.1952622.1952621.5118446 0 .7071068l-5.00000001 5c-.19526215.1952621-.51184463.1952621-.70710678 0l-5-5c-.19526215-.1952622-.19526215-.5118446 0-.7071068.19526215-.1952621.51184463-.1952621.70710678 0z"/></svg>