<svg height="24" viewBox="0 0 24 24" width="24" xmlns="http://www.w3.org/2000/svg"><path d="m19.2928932 16h-10.7928932c-2.48528137 0-4.5-2.0147186-4.5-4.5v-7c0-.27614237.22385763-.5.5-.5s.5.22385763.5.5v7c0 1.9329966 1.56700338 3.5 3.5 3.5h10.7928932l-4.1464466-4.1464466c-.1952621-.1952622-.1952621-.5118446 0-.7071068.1952622-.19526214.5118446-.19526214.7071068 0l5 5c.1952621.1952622.1952621.5118446 0 .7071068l-5 5c-.1952622.1952621-.5118446.1952621-.7071068 0-.1952621-.1952622-.1952621-.5118446 0-.7071068z"/></svg>