<svg height="24" viewBox="0 0 24 24" width="24" xmlns="http://www.w3.org/2000/svg"><path d="m15 5.70710678-4.1464466 4.14644661c-.1952622.19526211-.5118446.19526211-.7071068 0-.19526214-.19526215-.19526214-.51184463 0-.70710678l5-5c.1952622-.19526215.5118446-.19526215.7071068 0l5 5c.1952621.19526215.1952621.51184463 0 .70710678-.1952622.19526211-.5118446.19526211-.7071068 0l-4.1464466-4.14644661v10.79289322c0 2.4852814-2.0147186 4.5-4.5 4.5h-7c-.27614237 0-.5-.2238576-.5-.5s.22385763-.5.5-.5h7c1.9329966 0 3.5-1.5670034 3.5-3.5z"/></svg>