<svg height="24" viewBox="0 0 24 24" width="24" xmlns="http://www.w3.org/2000/svg"><path d="m9 5.70710678-4.14644661 4.14644661c-.19526215.19526211-.51184463.19526211-.70710678 0-.19526215-.19526215-.19526215-.51184463 0-.70710678l5-5c.19526215-.19526215.51184463-.19526215.70710678 0l5.00000001 5c.1952621.19526215.1952621.51184463 0 .70710678-.1952622.19526211-.5118446.19526211-.7071068 0l-4.1464466-4.14644661v10.79289322c0 1.9329966 1.5670034 3.5 3.5 3.5h7c.2761424 0 .5.2238576.5.5s-.2238576.5-.5.5h-7c-2.4852814 0-4.5-2.0147186-4.5-4.5z"/></svg>