<svg height="24" viewBox="0 0 24 24" width="24" xmlns="http://www.w3.org/2000/svg"><path d="m5.70710678 10 4.14644661 4.1464466c.19526211.1952622.19526211.5118446 0 .7071068-.19526215.1952621-.51184463.1952621-.70710678 0l-5-5.00000001c-.19526215-.19526215-.19526215-.51184463 0-.70710678l5-5c.19526215-.19526215.51184463-.19526215.70710678 0 .19526211.19526215.19526211.51184463 0 .70710678l-4.14644661 4.14644661h10.79289322c2.4852814 0 4.5 2.0147186 4.5 4.5v7c0 .2761424-.2238576.5-.5.5s-.5-.2238576-.5-.5v-7c0-1.9329966-1.5670034-3.5-3.5-3.5z"/></svg>