<svg height="24" viewBox="0 0 24 24" width="24" xmlns="http://www.w3.org/2000/svg"><path d="m19.2928932 10h-10.7928932c-1.93299662 0-3.5 1.5670034-3.5 3.5v7c0 .2761424-.22385763.5-.5.5s-.5-.2238576-.5-.5v-7c0-2.4852814 2.01471863-4.5 4.5-4.5h10.7928932l-4.1464466-4.14644661c-.1952621-.19526215-.1952621-.51184463 0-.70710678.1952622-.19526215.5118446-.19526215.7071068 0l5 5c.1952621.19526215.1952621.51184463 0 .70710678l-5 5.00000001c-.1952622.1952621-.5118446.1952621-.7071068 0-.1952621-.1952622-.1952621-.5118446 0-.7071068z"/></svg>