<?xml version="1.0" encoding="UTF-8"?>
<svg width="24px" height="24px" viewBox="0 0 24 24" version="1.1" xmlns="http://www.w3.org/2000/svg" xmlns:xlink="http://www.w3.org/1999/xlink">
    <!-- Generator: Sketch 55.2 (78181) - https://sketchapp.com -->
    <title>cpu</title>
    <desc>Created with Sketch.</desc>
    <g id="cpu" stroke="none" stroke-width="1" fill="none" fill-rule="evenodd">
        <path d="M3.5,13.5 L3.5,9.5 L1,9.5 C0.723857625,9.5 0.5,9.27614237 0.5,9 C0.5,8.72385763 0.723857625,8.5 1,8.5 L3.5,8.5 L3.5,6 C3.5,4.61928813 4.61928813,3.5 6,3.5 L8.5,3.5 L8.5,1 C8.5,0.723857625 8.72385763,0.5 9,0.5 C9.27614237,0.5 9.5,0.723857625 9.5,1 L9.5,3.5 L14.5,3.5 L14.5,1 C14.5,0.723857625 14.7238576,0.5 15,0.5 C15.2761424,0.5 15.5,0.723857625 15.5,1 L15.5,3.5 L18,3.5 C19.3807119,3.5 20.5,4.61928813 20.5,6 L20.5,8.5 L23,8.5 C23.2761424,8.5 23.5,8.72385763 23.5,9 C23.5,9.27614237 23.2761424,9.5 23,9.5 L20.5,9.5 L20.5,13.5 L23,13.5 C23.2761424,13.5 23.5,13.7238576 23.5,14 C23.5,14.2761424 23.2761424,14.5 23,14.5 L20.5,14.5 L20.5,18 C20.5,19.3807119 19.3807119,20.5 18,20.5 L15.5,20.5 L15.5,23 C15.5,23.2761424 15.2761424,23.5 15,23.5 C14.7238576,23.5 14.5,23.2761424 14.5,23 L14.5,20.5 L9.5,20.5 L9.5,23 C9.5,23.2761424 9.27614237,23.5 9,23.5 C8.72385763,23.5 8.5,23.2761424 8.5,23 L8.5,20.5 L6,20.5 C4.61928813,20.5 3.5,19.3807119 3.5,18 L3.5,14.5 L1,14.5 C0.723857625,14.5 0.5,14.2761424 0.5,14 C0.5,13.7238576 0.723857625,13.5 1,13.5 L3.5,13.5 Z M6,4.5 C5.17157288,4.5 4.5,5.17157288 4.5,6 L4.5,18 C4.5,18.8284271 5.17157288,19.5 6,19.5 L18,19.5 C18.8284271,19.5 19.5,18.8284271 19.5,18 L19.5,6 C19.5,5.17157288 18.8284271,4.5 18,4.5 L6,4.5 Z" id="Combined-Shape" fill="#000000" fill-rule="nonzero"></path>
        <path d="M8.5,9 C8.5,8.72385763 8.72385763,8.5 9,8.5 L15,8.5 C15.2761424,8.5 15.5,8.72385763 15.5,9 L15.5,15 C15.5,15.2761424 15.2761424,15.5 15,15.5 L9,15.5 C8.72385763,15.5 8.5,15.2761424 8.5,15 L8.5,9 Z M9.5,9.5 L9.5,14.5 L14.5,14.5 L14.5,9.5 L9.5,9.5 Z" id="Rectangle-path" fill="#000000" fill-rule="nonzero"></path>
    </g>
</svg>