<svg height="24" viewBox="0 0 24 24" width="24" xmlns="http://www.w3.org/2000/svg"><path d="m3.5 13.5v-4h-2.5c-.27614237 0-.5-.22385763-.5-.5s.22385763-.5.5-.5h2.5v-2.5c0-1.38071187 1.11928813-2.5 2.5-2.5h2.5v-2.5c0-.27614237.22385763-.5.5-.5s.5.22385763.5.5v2.5h5v-2.5c0-.27614237.2238576-.5.5-.5s.5.22385763.5.5v2.5h2.5c1.3807119 0 2.5 1.11928813 2.5 2.5v2.5h2.5c.2761424 0 .5.22385763.5.5s-.2238576.5-.5.5h-2.5v4h2.5c.2761424 0 .5.2238576.5.5s-.2238576.5-.5.5h-2.5v3.5c0 1.3807119-1.1192881 2.5-2.5 2.5h-2.5v2.5c0 .2761424-.2238576.5-.5.5s-.5-.2238576-.5-.5v-2.5h-5v2.5c0 .2761424-.22385763.5-.5.5s-.5-.2238576-.5-.5v-2.5h-2.5c-1.38071187 0-2.5-1.1192881-2.5-2.5v-3.5h-2.5c-.27614237 0-.5-.2238576-.5-.5s.22385763-.5.5-.5zm2.5-9c-.82842712 0-1.5.67157288-1.5 1.5v12c0 .8284271.67157288 1.5 1.5 1.5h12c.8284271 0 1.5-.6715729 1.5-1.5v-12c0-.82842712-.6715729-1.5-1.5-1.5zm2.5 4.5c0-.27614237.22385763-.5.5-.5h6c.2761424 0 .5.22385763.5.5v6c0 .2761424-.2238576.5-.5.5h-6c-.27614237 0-.5-.2238576-.5-.5zm1 .5v5h5v-5z"/></svg>