<?xml version="1.0" encoding="UTF-8"?>
<svg width="24px" height="24px" viewBox="0 0 24 24" version="1.1" xmlns="http://www.w3.org/2000/svg" xmlns:xlink="http://www.w3.org/1999/xlink">
    <!-- Generator: Sketch 55.2 (78181) - https://sketchapp.com -->
    <title>credit-card</title>
    <desc>Created with Sketch.</desc>
    <g id="credit-card" stroke="none" stroke-width="1" fill="none" fill-rule="evenodd">
        <path d="M22.5,10 L22.5,6.5 C22.5,5.67157288 21.8284271,5 21,5 L3,5 C2.17157288,5 1.5,5.67157288 1.5,6.5 L1.5,10 L22.5,10 Z M22.5,11 L1.5,11 L1.5,18.5 C1.5,19.3284271 2.17157288,20 3,20 L21,20 C21.8284271,20 22.5,19.3284271 22.5,18.5 L22.5,11 Z M3,4 L21,4 C22.3807119,4 23.5,5.11928813 23.5,6.5 L23.5,18.5 C23.5,19.8807119 22.3807119,21 21,21 L3,21 C1.61928813,21 0.5,19.8807119 0.5,18.5 L0.5,6.5 C0.5,5.11928813 1.61928813,4 3,4 Z" id="Combined-Shape" fill="#000000" fill-rule="nonzero"></path>
    </g>
</svg>