<svg height="24" viewBox="0 0 24 24" width="24" xmlns="http://www.w3.org/2000/svg"><path d="m6.59030637 5.5815389 9.40969323-.0815389c1.3807123 0 2.5 1.11928813 2.5 2.5v9.4999996h4.5000004c.2761424 0 .5.223858.5.5 0 .2761428-.2238576.5-.5.5h-4.5000004v4.5000004c0 .2761424-.2238572.5-.5.5-.276142 0-.5-.2238576-.5-.5v-4.5000004h-9.4999996c-1.38071187 0-2.49998122-1.1192877-2.49998122-2.5043328l.08151307-9.40535463-4.57719868.03966905c-.276132.00239315-.50192125-.21951604-.50433357-.49564805-.00237397-.276132.21953523-.50192125.49566723-.50431439l4.59453261-.03981354.03981934-4.59453841c.00239314-.276132.22818239-.4980412.50431439-.49566723.27613201.00241232.4980412.22820157.49564805.50433357zm-.00866883 1.00010569-.08163754 9.41835501c0 .8284275.67157288 1.5 1.5 1.5h9.4999996v-9.4999996c0-.82842712-.6715725-1.5-1.4956664-1.50001878z"/></svg>