<svg height="24" viewBox="0 0 24 24" width="24" xmlns="http://www.w3.org/2000/svg"><path d="m12 21.9870679v-3.4870679c0-.2761424.2238576-.5.5-.5s.5.2238576.5.5v3.4870679c4.8487018-.2514205 8.7356474-4.1383661 8.9870679-8.9870679h-3.4870679c-.2761424 0-.5-.2238576-.5-.5s.2238576-.5.5-.5h3.4870679c-.2514205-4.84870178-4.1383661-8.73564736-8.9870679-8.98706794v3.48706794c0 .27614237-.2238576.5-.5.5s-.5-.22385763-.5-.5v-3.48706794c-4.84870178.25142058-8.73564736 4.13836616-8.98706794 8.98706794h3.48706794c.27614237 0 .5.2238576.5.5s-.22385763.5-.5.5h-3.48706794c.25142058 4.8487018 4.13836616 8.7356474 8.98706794 8.9870679zm.5 1.0129321c-5.79898987 0-10.5-4.7010101-10.5-10.5 0-5.79898987 4.70101013-10.5 10.5-10.5 5.7989899 0 10.5 4.70101013 10.5 10.5 0 5.7989899-4.7010101 10.5-10.5 10.5z"/></svg>