<?xml version="1.0" encoding="UTF-8"?>
<svg width="24px" height="24px" viewBox="0 0 24 24" version="1.1" xmlns="http://www.w3.org/2000/svg" xmlns:xlink="http://www.w3.org/1999/xlink">
    <!-- Generator: Sketch 55.2 (78181) - https://sketchapp.com -->
    <title>database</title>
    <desc>Created with Sketch.</desc>
    <g id="database" stroke="none" stroke-width="1" fill="none" fill-rule="evenodd">
        <g id="dabase-shape" transform="translate(3.000000, 2.000000)" fill="#000000" fill-rule="nonzero">
            <path d="M9.5,21 C4.78,21 0,19.8 0,17.5 L0,3.5 C0,1.23 4.89,0 9.5,0 C14.11,0 19,1.23 19,3.5 L19,17.5 C19,19.8 14.22,21 9.5,21 Z M1,12.16 L1,17.5 C1,18.5 4.23,20 9.5,20 C14.77,20 18,18.54 18,17.5 L18,12.16 C14.71,14.59 4.29,14.59 1,12.16 Z M1,10.5 C1,11.5 4.23,13 9.5,13 C14.77,13 18,11.54 18,10.5 L18,5.13 C16.33,6.35 12.84,7 9.5,7 C6.16,7 2.67,6.35 1,5.13 L1,10.5 Z M9.5,1 C4.23,1 1,2.46 1,3.5 C1,4.54 4.23,6 9.5,6 C14.77,6 18,4.54 18,3.5 C18,2.46 14.77,1 9.5,1 Z" id="Shape"></path>
        </g>
    </g>
</svg>