<svg height="24" viewBox="0 0 24 24" width="24" xmlns="http://www.w3.org/2000/svg"><path d="m9.5 21c-4.72 0-9.5-1.2-9.5-3.5v-14c0-2.27 4.89-3.5 9.5-3.5s9.5 1.23 9.5 3.5v14c0 2.3-4.78 3.5-9.5 3.5zm-8.5-8.84v5.34c0 1 3.23 2.5 8.5 2.5s8.5-1.46 8.5-2.5v-5.34c-3.29 2.43-13.71 2.43-17 0zm0-1.66c0 1 3.23 2.5 8.5 2.5s8.5-1.46 8.5-2.5v-5.37c-1.67 1.22-5.16 1.87-8.5 1.87s-6.83-.65-8.5-1.87zm8.5-9.5c-5.27 0-8.5 1.46-8.5 2.5s3.23 2.5 8.5 2.5 8.5-1.46 8.5-2.5-3.23-2.5-8.5-2.5z" transform="translate(3 2)"/></svg>