<?xml version="1.0" encoding="UTF-8"?>
<svg width="24px" height="24px" viewBox="0 0 24 24" version="1.1" xmlns="http://www.w3.org/2000/svg" xmlns:xlink="http://www.w3.org/1999/xlink">
    <!-- Generator: Sketch 55.2 (78181) - https://sketchapp.com -->
    <title>disc</title>
    <desc>Created with Sketch.</desc>
    <g id="disc" stroke="none" stroke-width="1" fill="none" fill-rule="evenodd">
        <path d="M11.5,23 C17.2989899,23 22,18.2989899 22,12.5 C22,6.70101013 17.2989899,2 11.5,2 C5.70101013,2 1,6.70101013 1,12.5 C1,18.2989899 5.70101013,23 11.5,23 Z M11.5,22 C6.25329488,22 2,17.7467051 2,12.5 C2,7.25329488 6.25329488,3 11.5,3 C16.7467051,3 21,7.25329488 21,12.5 C21,17.7467051 16.7467051,22 11.5,22 Z" id="Oval" fill="#000000" fill-rule="nonzero"></path>
        <path d="M11.5,16 C13.4329966,16 15,14.4329966 15,12.5 C15,10.5670034 13.4329966,9 11.5,9 C9.56700338,9 8,10.5670034 8,12.5 C8,14.4329966 9.56700338,16 11.5,16 Z M11.5,15 C10.1192881,15 9,13.8807119 9,12.5 C9,11.1192881 10.1192881,10 11.5,10 C12.8807119,10 14,11.1192881 14,12.5 C14,13.8807119 12.8807119,15 11.5,15 Z" id="Oval" fill="#000000" fill-rule="nonzero"></path>
    </g>
</svg>