<svg height="24" viewBox="0 0 24 24" width="24" xmlns="http://www.w3.org/2000/svg"><path d="m13 5h4.5c.2761424 0 .5.22385763.5.5s-.2238576.5-.5.5h-4.5v6h2c2.209139 0 4 1.790861 4 4s-1.790861 4-4 4h-2v3.5c0 .2761424-.2238576.5-.5.5s-.5-.2238576-.5-.5v-3.5h-5.5c-.27614237 0-.5-.2238576-.5-.5s.22385763-.5.5-.5h5.5v-6h-2c-2.209139 0-4-1.790861-4-4s1.790861-4 4-4h2v-3.5c0-.27614237.2238576-.5.5-.5s.5.22385763.5.5zm0 8v6h2c1.6568542 0 3-1.3431458 3-3s-1.3431458-3-3-3zm-1-1v-6h-2c-1.65685425 0-3 1.34314575-3 3 0 1.6568542 1.34314575 3 3 3z"/></svg>