<?xml version="1.0" encoding="UTF-8"?>
<svg width="24px" height="24px" viewBox="0 0 24 24" version="1.1" xmlns="http://www.w3.org/2000/svg" xmlns:xlink="http://www.w3.org/1999/xlink">
    <!-- Generator: Sketch 55.2 (78181) - https://sketchapp.com -->
    <title>dollar-sign</title>
    <desc>Created with Sketch.</desc>
    <g id="dollar-sign" stroke="none" stroke-width="1" fill="none" fill-rule="evenodd">
        <path d="M13,5 L17.5,5 C17.7761424,5 18,5.22385763 18,5.5 C18,5.77614237 17.7761424,6 17.5,6 L13,6 L13,12 L15,12 C17.209139,12 19,13.790861 19,16 C19,18.209139 17.209139,20 15,20 L13,20 L13,23.5 C13,23.7761424 12.7761424,24 12.5,24 C12.2238576,24 12,23.7761424 12,23.5 L12,20 L6.5,20 C6.22385763,20 6,19.7761424 6,19.5 C6,19.2238576 6.22385763,19 6.5,19 L12,19 L12,13 L10,13 C7.790861,13 6,11.209139 6,9 C6,6.790861 7.790861,5 10,5 L12,5 L12,1.5 C12,1.22385763 12.2238576,1 12.5,1 C12.7761424,1 13,1.22385763 13,1.5 L13,5 Z M13,13 L13,19 L15,19 C16.6568542,19 18,17.6568542 18,16 C18,14.3431458 16.6568542,13 15,13 L13,13 Z M12,12 L12,6 L10,6 C8.34314575,6 7,7.34314575 7,9 C7,10.6568542 8.34314575,12 10,12 L12,12 Z" id="Combined-Shape" fill="#000000" fill-rule="nonzero"></path>
    </g>
</svg>