<svg height="24" viewBox="0 0 24 24" width="24" xmlns="http://www.w3.org/2000/svg"><path d="m3 17.5c0-.2761424.22385763-.5.5-.5s.5.2238576.5.5v3c0 .8284271.67157288 1.5 1.5 1.5h14c.8284271 0 1.5-.6715729 1.5-1.5v-3c0-.2761424.2238576-.5.5-.5s.5.2238576.5.5v3c0 1.3807119-1.1192881 2.5-2.5 2.5h-14c-1.38071187 0-2.5-1.1192881-2.5-2.5zm9-2.2071068v-12.7928932c0-.27614237.2238576-.5.5-.5s.5.22385763.5.5v12.7928932l3.1464466-3.1464466c.1952622-.1952621.5118446-.1952621.7071068 0 .1952621.1952622.1952621.5118446 0 .7071068l-4 4c-.1952622.1952621-.5118446.1952621-.7071068 0l-3.99999999-4c-.19526215-.1952622-.19526215-.5118446 0-.7071068.19526215-.1952621.51184463-.1952621.70710678 0z"/></svg>