<?xml version="1.0" encoding="UTF-8"?>
<svg width="24px" height="24px" viewBox="0 0 24 24" version="1.1" xmlns="http://www.w3.org/2000/svg" xmlns:xlink="http://www.w3.org/1999/xlink">
    <!-- Generator: Sketch 55.2 (78181) - https://sketchapp.com -->
    <title>download-cloud</title>
    <desc>Created with Sketch.</desc>
    <g id="download-cloud" stroke="none" stroke-width="1" fill="none" fill-rule="evenodd">
        <path d="M12.5,19.3047853 L15.6464466,16.1583387 C15.8417088,15.9630765 16.1582912,15.9630765 16.3535534,16.1583387 C16.5488155,16.3536008 16.5488155,16.6701833 16.3535534,16.8654455 L12.3535534,20.8654455 C12.1582912,21.0607076 11.8417088,21.0607076 11.6464466,20.8654455 L7.64644661,16.8654455 C7.45118446,16.6701833 7.45118446,16.3536008 7.64644661,16.1583387 C7.84170876,15.9630765 8.15829124,15.9630765 8.35355339,16.1583387 L11.5,19.3047853 L11.5,11.5118921 C11.5,11.2357497 11.7238576,11.0118921 12,11.0118921 C12.2761424,11.0118921 12.5,11.2357497 12.5,11.5118921 L12.5,19.3047853 Z" id="arrow-bottom" fill="#000000" fill-rule="nonzero"></path>
        <path d="M9.96361328,2.05606566 C6.46556234,1.65316887 3.08125496,3.448773 1.45362253,6.57119176 C-0.174009897,9.69361051 0.292053811,13.4963089 2.62556036,16.1332453 C2.80856169,16.3400426 3.12455592,16.3593331 3.33135322,16.1763317 C3.53815052,15.9933304 3.55744097,15.6773362 3.37443964,15.4705389 C1.31546327,13.1438303 0.90423059,9.78850817 2.34037685,7.0334328 C3.77652311,4.27835742 6.76267668,2.69400083 9.84919222,3.049498 C12.9357078,3.40499518 15.4834845,5.62673608 16.2556896,8.63616386 C16.312427,8.85727977 16.5117209,9.01189208 16.74,9.01189208 L18,9.01189208 C19.9633755,9.01035645 21.7008578,10.2814269 22.2937473,12.1527345 C22.8866368,14.0240421 22.1981134,16.0637481 20.5923911,17.1928919 C20.3665066,17.3517339 20.3121578,17.6636164 20.4709998,17.889501 C20.6298419,18.1153855 20.9417243,18.1697342 21.1676089,18.0108922 C23.1301584,16.6308275 23.971687,14.1378535 23.2470442,11.8506998 C22.5224015,9.56354615 20.398812,8.01001554 17.9996089,8.01189223 L17.1187072,8.01189213 C16.1341299,4.79307751 13.3319327,2.44402031 9.96361328,2.05606566 Z" id="Shape" fill="#000000" fill-rule="nonzero"></path>
    </g>
</svg>