<?xml version="1.0" encoding="UTF-8"?>
<svg width="24px" height="24px" viewBox="0 0 24 24" version="1.1" xmlns="http://www.w3.org/2000/svg" xmlns:xlink="http://www.w3.org/1999/xlink">
    <!-- Generator: Sketch 55.2 (78181) - https://sketchapp.com -->
    <title>download</title>
    <desc>Created with Sketch.</desc>
    <g id="download" stroke="none" stroke-width="1" fill="none" fill-rule="evenodd">
        <path d="M3,17.5 L3,20.5 C3,21.8807119 4.11928813,23 5.5,23 L19.5,23 C20.8807119,23 22,21.8807119 22,20.5 L22,17.5 C22,17.2238576 21.7761424,17 21.5,17 C21.2238576,17 21,17.2238576 21,17.5 L21,20.5 C21,21.3284271 20.3284271,22 19.5,22 L5.5,22 C4.67157288,22 4,21.3284271 4,20.5 L4,17.5 C4,17.2238576 3.77614237,17 3.5,17 C3.22385763,17 3,17.2238576 3,17.5 Z" id="Shape" fill="#000000" fill-rule="nonzero"></path>
        <path d="M12,15.2928932 L12,2.5 C12,2.22385763 12.2238576,2 12.5,2 C12.7761424,2 13,2.22385763 13,2.5 L13,15.2928932 L16.1464466,12.1464466 C16.3417088,11.9511845 16.6582912,11.9511845 16.8535534,12.1464466 C17.0488155,12.3417088 17.0488155,12.6582912 16.8535534,12.8535534 L12.8535534,16.8535534 C12.6582912,17.0488155 12.3417088,17.0488155 12.1464466,16.8535534 L8.14644661,12.8535534 C7.95118446,12.6582912 7.95118446,12.3417088 8.14644661,12.1464466 C8.34170876,11.9511845 8.65829124,11.9511845 8.85355339,12.1464466 L12,15.2928932 Z" id="arrow-bottom" fill="#000000" fill-rule="nonzero"></path>
    </g>
</svg>