<svg height="24" viewBox="0 0 24 24" width="24" xmlns="http://www.w3.org/2000/svg"><path d="m12.5 19.3047853 3.1464466-3.1464466c.1952622-.1952622.5118446-.1952622.7071068 0 .1952621.1952621.1952621.5118446 0 .7071068l-4 4c-.1952622.1952621-.5118446.1952621-.7071068 0l-3.99999999-4c-.19526215-.1952622-.19526215-.5118447 0-.7071068.19526215-.1952622.51184463-.1952622.70710678 0l3.14644661 3.1464466v-7.7928932c0-.2761424.2238576-.5.5-.5s.5.2238576.5.5zm-2.53638672-17.24871964c3.36831942.38795465 6.17051662 2.73701185 7.15509392 5.95582647l.8809017.0000001c2.3992031-.00187669 4.5227926 1.55165392 5.2474353 3.83880757.7246428 2.2871537-.1168858 4.7801277-2.0794353 6.1601924-.2258846.158842-.537767.1044933-.6966091-.1213912-.158842-.2258846-.1044932-.5377671.1213913-.6966091 1.6057223-1.1291438 2.2942457-3.1688498 1.7013562-5.0401574s-2.3303718-3.14237805-4.2937473-3.14084242h-1.26c-.2282791 0-.427573-.15461231-.4843104-.37572822-.7722051-3.00942778-3.3199818-5.23116868-6.40649738-5.58666586-3.08651554-.35549717-6.07266911 1.22885942-7.50881537 3.9839348-1.43614626 2.75507537-1.02491358 6.1103975 1.03406279 8.4371061.18300133.2067973.16371088.5227915-.04308642.7057928-.2067973.1830014-.52279153.1637109-.70579286-.0430864-2.33350655-2.6369364-2.79957026-6.43963479-1.17193783-9.56205354 1.62763243-3.12241876 5.01193981-4.91802289 8.50999075-4.5151261z"/></svg>