<svg height="24" viewBox="0 0 24 24" width="24" xmlns="http://www.w3.org/2000/svg"><path d="m11.1413987 2.14675935c.1952114-.19555691.5120351-.19569698.7074193-.00031274l5.6598841 5.65988415c2.4321382 2.43054454 3.1603834 6.08698314 1.8450714 9.26389944-1.3153119 3.1769163-4.4150728 5.2484777-7.8535089 5.2484777s-6.538197-2.0715614-7.85350895-5.2484777c-1.31531196-3.1769163-.58706674-6.8333549 1.84464309-9.26347085zm.3541786 1.06066016-5.2968752 5.30624973c-2.14600429 2.14459806-2.7885736 5.37086746-1.62800422 8.17402886 1.16056937 2.8031615 3.89565251 4.6310098 6.92956672 4.6310098 3.0339142 0 5.7689973-1.8278483 6.9295667-4.6310098 1.1605694-2.8031614.5180001-6.0294308-1.6281201-8.17414471z"/></svg>