<?xml version="1.0" encoding="UTF-8"?>
<svg width="24px" height="24px" viewBox="0 0 24 24" version="1.1" xmlns="http://www.w3.org/2000/svg" xmlns:xlink="http://www.w3.org/1999/xlink">
    <!-- Generator: Sketch 55.2 (78181) - https://sketchapp.com -->
    <title>droplet</title>
    <desc>Created with Sketch.</desc>
    <g id="droplet" stroke="none" stroke-width="1" fill="none" fill-rule="evenodd">
        <path d="M11.1413987,2.14675935 C11.3366101,1.95120244 11.6534338,1.95106237 11.848818,2.14644661 L17.5087021,7.80633076 C19.9408403,10.2368753 20.6690855,13.8933139 19.3537735,17.0702302 C18.0384616,20.2471465 14.9387007,22.3187079 11.5002646,22.3187079 C8.0618285,22.3187079 4.9620676,20.2471465 3.64675565,17.0702302 C2.33144369,13.8933139 3.05968891,10.2368753 5.49139874,7.80675935 L11.1413987,2.14675935 Z M11.4955773,3.20741951 L6.1987021,8.51366924 C4.05269781,10.6582673 3.4101285,13.8845367 4.57069788,16.6876981 C5.73126725,19.4908596 8.46635039,21.3187079 11.5002646,21.3187079 C14.5341788,21.3187079 17.2692619,19.4908596 18.4298313,16.6876981 C19.5904007,13.8845367 18.9478314,10.6582673 16.8017112,8.51355339 L11.4955773,3.20741951 Z" id="Shape" fill="#000000" fill-rule="nonzero"></path>
    </g>
</svg>