<?xml version="1.0" encoding="UTF-8"?>
<svg width="24px" height="24px" viewBox="0 0 24 24" version="1.1" xmlns="http://www.w3.org/2000/svg" xmlns:xlink="http://www.w3.org/1999/xlink">
    <!-- Generator: Sketch 55.2 (78181) - https://sketchapp.com -->
    <title>edit-3</title>
    <desc>Created with Sketch.</desc>
    <g id="edit-3" stroke="none" stroke-width="1" fill="none" fill-rule="evenodd">
        <path d="M14.1464466,2.14644661 C14.3417088,1.95118446 14.6582912,1.95118446 14.8535534,2.14644661 L18.8535534,6.14644661 C19.0488155,6.34170876 19.0488155,6.65829124 18.8535534,6.85355339 L7.85355339,17.8535534 C7.7597852,17.9473216 7.63260824,18 7.5,18 L3.5,18 C3.22385763,18 3,17.7761424 3,17.5 L3,13.5 C3,13.3673918 3.05267842,13.2402148 3.14644661,13.1464466 L14.1464466,2.14644661 Z M14.5,3.20710678 L4,13.7071068 L4,17 L7.29289322,17 L17.7928932,6.5 L14.5,3.20710678 Z" id="Shape" fill="#000000" fill-rule="nonzero"></path>
        <path d="M3.5,23 L21.5,23 C21.7761424,23 22,22.7761424 22,22.5 C22,22.2238576 21.7761424,22 21.5,22 L3.5,22 C3.22385763,22 3,22.2238576 3,22.5 C3,22.7761424 3.22385763,23 3.5,23 Z" id="Shape" fill="#000000" fill-rule="nonzero"></path>
    </g>
</svg>