<svg height="24" viewBox="0 0 24 24" width="24" xmlns="http://www.w3.org/2000/svg"><path d="m20 15.16c0-.2761424.2238576-.5.5-.5s.5.2238576.5.5v5.34c0 1.3807119-1.1192881 2.5-2.5 2.5h-14c-1.38071187 0-2.5-1.1192881-2.5-2.5v-14c0-1.38071187 1.11928813-2.5 2.5-2.5h5.34c.2761424 0 .5.22385763.5.5s-.2238576.5-.5.5h-5.34c-.82842712 0-1.5.67157288-1.5 1.5v14c0 .8284271.67157288 1.5 1.5 1.5h14c.8284271 0 1.5-.6715729 1.5-1.5zm-1.8535534-13.01355339c.1952622-.19526215.5118446-.19526215.7071068 0l4 4c.1952621.19526215.1952621.51184463 0 .70710678l-10 10.00000001c-.0937682.0937682-.2209452.1464466-.3535534.1464466h-4c-.27614237 0-.5-.2238576-.5-.5v-4c0-.1326082.05267842-.2597852.14644661-.3535534zm-9.1464466 10.56066019v3.2928932h3.2928932l9.5-9.5-3.2928932-3.29289322z"/></svg>