<?xml version="1.0" encoding="UTF-8"?>
<svg width="24px" height="24px" viewBox="0 0 24 24" version="1.1" xmlns="http://www.w3.org/2000/svg" xmlns:xlink="http://www.w3.org/1999/xlink">
    <!-- Generator: Sketch 55.2 (78181) - https://sketchapp.com -->
    <title>edit</title>
    <desc>Created with Sketch.</desc>
    <g id="edit" stroke="none" stroke-width="1" fill="none" fill-rule="evenodd">
        <path d="M20,15.16 L20,20.5 C20,21.3284271 19.3284271,22 18.5,22 L4.5,22 C3.67157288,22 3,21.3284271 3,20.5 L3,6.5 C3,5.67157288 3.67157288,5 4.5,5 L9.84,5 C10.1161424,5 10.34,4.77614237 10.34,4.5 C10.34,4.22385763 10.1161424,4 9.84,4 L4.5,4 C3.11928813,4 2,5.11928813 2,6.5 L2,20.5 C2,21.8807119 3.11928813,23 4.5,23 L18.5,23 C19.8807119,23 21,21.8807119 21,20.5 L21,15.16 C21,14.8838576 20.7761424,14.66 20.5,14.66 C20.2238576,14.66 20,14.8838576 20,15.16 Z" id="Shape" fill="#000000" fill-rule="nonzero"></path>
        <path d="M18.1464466,2.14644661 C18.3417088,1.95118446 18.6582912,1.95118446 18.8535534,2.14644661 L22.8535534,6.14644661 C23.0488155,6.34170876 23.0488155,6.65829124 22.8535534,6.85355339 L12.8535534,16.8535534 C12.7597852,16.9473216 12.6326082,17 12.5,17 L8.5,17 C8.22385763,17 8,16.7761424 8,16.5 L8,12.5 C8,12.3673918 8.05267842,12.2402148 8.14644661,12.1464466 L18.1464466,2.14644661 Z M9,12.7071068 L9,16 L12.2928932,16 L21.7928932,6.5 L18.5,3.20710678 L9,12.7071068 Z" id="Shape" fill="#000000" fill-rule="nonzero"></path>
    </g>
</svg>