<svg height="24" viewBox="0 0 24 24" width="24" xmlns="http://www.w3.org/2000/svg"><path d="m14.1464466 2.14644661c.1952622-.19526215.5118446-.19526215.7071068 0l4 4c.1952621.19526215.1952621.51184463 0 .70710678l-11.00000001 11.00000001c-.09376819.0937682-.22094515.1464466-.35355339.1464466h-4c-.27614237 0-.5-.2238576-.5-.5v-4c0-.1326082.05267842-.2597852.14644661-.3535534zm.3535534 1.06066017-10.5 10.50000002v3.2928932h3.29289322l10.49999998-10.5zm-11 19.79289322c-.27614237 0-.5-.2238576-.5-.5s.22385763-.5.5-.5h18c.2761424 0 .5.2238576.5.5s-.2238576.5-.5.5z"/></svg>