<?xml version="1.0" encoding="UTF-8"?>
<svg width="24px" height="24px" viewBox="0 0 24 24" version="1.1" xmlns="http://www.w3.org/2000/svg" xmlns:xlink="http://www.w3.org/1999/xlink">
    <!-- Generator: Sketch 55.2 (78181) - https://sketchapp.com -->
    <title>external-link</title>
    <desc>Created with Sketch.</desc>
    <g id="external-link" stroke="none" stroke-width="1" fill="none" fill-rule="evenodd">
        <path d="M18,13.5 L18,19.5 C18,20.3284271 17.3284271,21 16.5,21 L5.5,21 C4.67157288,21 4,20.3284271 4,19.5 L4,8.5 C4,7.67157288 4.67157288,7 5.5,7 L11.5,7 C11.7761424,7 12,6.77614237 12,6.5 C12,6.22385763 11.7761424,6 11.5,6 L5.5,6 C4.11928813,6 3,7.11928813 3,8.5 L3,19.5 C3,20.8807119 4.11928813,22 5.5,22 L16.5,22 C17.8807119,22 19,20.8807119 19,19.5 L19,13.5 C19,13.2238576 18.7761424,13 18.5,13 C18.2238576,13 18,13.2238576 18,13.5 Z" id="Shape" fill="#000000" fill-rule="nonzero"></path>
        <path d="M20.2928932,4 L15.5,4 C15.2238576,4 15,3.77614237 15,3.5 C15,3.22385763 15.2238576,3 15.5,3 L21.5,3 C21.7761424,3 22,3.22385763 22,3.5 L22,9.5 C22,9.77614237 21.7761424,10 21.5,10 C21.2238576,10 21,9.77614237 21,9.5 L21,4.70710678 L10.8535534,14.8535534 C10.6582912,15.0488155 10.3417088,15.0488155 10.1464466,14.8535534 C9.95118446,14.6582912 9.95118446,14.3417088 10.1464466,14.1464466 L20.2928932,4 Z" id="arrow" fill="#000000" fill-rule="nonzero"></path>
    </g>
</svg>