<svg height="24" viewBox="0 0 24 24" width="24" xmlns="http://www.w3.org/2000/svg"><path d="m17.1696893 17.8767961-3.06406-3.06406c-.8492776.6765543-1.9754809.9267784-3.0465053.6532576-1.24008909-.316697-2.20842069-1.2850286-2.52511767-2.5251177-.27352085-1.0710244-.02329677-2.1972277.65325756-3.04650532l-3.16770042-3.16770043c-1.81081654 1.45384593-3.32279379 3.24566417-4.45151731 5.27635945.01634125.0295972.03410595.0614874.05328848.0955897.14895685.2648121.32683748.5608055.53306005.8801179.59012069.9137352 1.2870734 1.8277716 2.08537391 2.6792921 2.25770253 2.4082161 4.85638262 3.8419706 7.7520577 3.8420374 1.8504336-.0302537 3.6481133-.5962183 5.177863-1.6232707zm1.1179995-.2962141c.0036593.0035487.0072736.0071626.0108414.0108414l5.0550232 5.0550232c.1952621.1952622.1952621.5118446 0 .7071068-.1952622.1952621-.5118446.1952621-.7071068 0l-4.7574268-4.7574268c-1.7240363 1.2045083-3.7719189 1.8693223-5.8890198 1.9038734-3.22115122 0-6.05997113-1.5662455-8.4897686-4.1580294-.84232449-.8984795-1.57505928-1.8594431-2.19587609-2.8207079-.21760556-.3369376-.40593586-.6503192-.5645962-.9323821-.09638066-.1713434-.1621817-.2956918-.19697271-.3652738-.0726558-.1453116-.07018116-.3168645.00663577-.4600199 1.18762604-2.21325146 2.80246935-4.16662004 4.74904415-5.7480138l-4.66201971-4.66201971c-.19526215-.19526215-.19526215-.51184463 0-.70710678s.51184463-.19526215.70710678 0l5.05415992 5.05415991c.0036425.00353293.00724035.00713031.01079209.0107921l3.8130782 3.81307825c.0011678.00115647.0023312.00231983.0034901.00349008l4.2369594 4.23695935c.0011702.0011589.0023336.0023223.00349.0034901l3.8121655 3.8121654zm-8.38694512-6.9727315c-.43107859.594807-.58364154 1.3580203-.39783434 2.0855847.22621213.8857779.91787756 1.5774433 1.80365546 1.8036555.7275644.1858072 1.4907777.0332442 2.0855847-.3978344zm12.47792132 1.2935285c-.1489568-.2648131-.3268375-.5608074-.5330601-.8801208-.5901207-.9137382-1.2870735-1.82777752-2.085374-2.6793008-2.2577026-2.4082236-4.8563825-3.84198258-7.7613881-3.84198392-.668213-.00154646-1.3343135.07458528-1.9848862.22686724-.2688747.0629365-.53786083-.1040094-.60079732-.37288411-.0629365-.26887471.1040094-.53786084.37288411-.60079733.72603911-.16994665 1.46940071-.25490895 2.21395661-.25323517 3.2211516 0 6.0599717 1.56630117 8.4897691 4.15809331.8423245.89848223 1.5750592 1.85944884 2.195876 2.82071658.2176055.3369386.4059358.6503212.5645961.9323849.0963807.1713439.1621817.2956927.1969727.3652749.0725289.1450582.0701962.3162838-.0062574.4593123-.6234264 1.1662995-1.3669161 2.2643236-2.2183784 3.2762162-.1777928.2112921-.4932084.2384486-.7045004.0606558-.2112921-.1777928-.2384486-.4932084-.0606558-.7045004.749678-.8909304 1.4110046-1.8523401 1.974785-2.8706498-.016411-.0297266-.0342602-.0617702-.0535419-.0960489z"/></svg>