<svg height="24" viewBox="0 0 24 24" width="24" xmlns="http://www.w3.org/2000/svg"><path d="m.0527864 12.7236068c-.07038187-.1407637-.07038187-.3064499 0-.4472136.03479101-.069582.10059205-.1939304.19697271-.3652738.15866034-.2820629.34699064-.5954445.5645962-.9323821.62081681-.9612648 1.3535516-1.92222841 2.19587609-2.82070786 2.42979747-2.59178397 5.26861738-4.15802944 8.4897686-4.15802944 3.2211512 0 6.0599711 1.56624547 8.4897686 4.15802944.8423245.89847945 1.5750593 1.85944306 2.1958761 2.82070786.2176055.3369376.4059358.6503192.5645962.9323821.0963807.1713434.1621817.2956918.1969727.3652738.0703819.1407637.0703819.3064499 0 .4472136-.034791.069582-.100592.1939304-.1969727.3652738-.1586604.2820629-.3469907.5954445-.5645962.9323821-.6208168.9612648-1.3535516 1.9222284-2.1958761 2.8207079-2.4297975 2.5917839-5.2686174 4.1580294-8.4897686 4.1580294-3.22115122 0-6.05997113-1.5662455-8.4897686-4.1580294-.84232449-.8984795-1.57505928-1.8594431-2.19587609-2.8207079-.21760556-.3369376-.40593586-.6503192-.5645962-.9323821-.09638066-.1713434-.1621817-.2956918-.19697271-.3652738zm1.06854824-.1249874c.14895685.2648121.32683748.5608055.53306005.8801179.59012069.9137352 1.2870734 1.8277716 2.08537391 2.6792921 2.25770253 2.4082161 4.85638262 3.8419706 7.7602314 3.8419706 2.9038488 0 5.5025289-1.4337545 7.7602314-3.8419706.7983005-.8515205 1.4952532-1.7655569 2.0853739-2.6792921.2062226-.3193124.3841032-.6153058.5330601-.8801179.0198388-.035269.0381611-.0681719.0549606-.0986194-.0167995-.0304475-.0351218-.0633504-.0549606-.0986194-.1489569-.2648121-.3268375-.5608055-.5330601-.8801179-.5901207-.9137352-1.2870734-1.82777159-2.0853739-2.67929214-2.2577025-2.40821603-4.8563826-3.84197056-7.7602314-3.84197056-2.90384878 0-5.50252887 1.43375453-7.7602314 3.84197056-.79830051.85152055-1.49525322 1.76555694-2.08537391 2.67929214-.20622257.3193124-.3841032.6153058-.53306005.8801179-.0198388.035269-.0381611.0681719-.05496068.0986194.01679958.0304475.03512188.0633504.05496068.0986194zm10.37866536 3.4013806c-1.93299662 0-3.5-1.5670034-3.5-3.5s1.56700338-3.5 3.5-3.5c1.9329966 0 3.5 1.5670034 3.5 3.5s-1.5670034 3.5-3.5 3.5zm0-1c1.3807119 0 2.5-1.1192881 2.5-2.5s-1.1192881-2.5-2.5-2.5-2.5 1.1192881-2.5 2.5 1.1192881 2.5 2.5 2.5z"/></svg>