<svg height="24" viewBox="0 0 24 24" width="24" xmlns="http://www.w3.org/2000/svg"><path d="m9 10h-2.5c-.27614237 0-.5.2238576-.5.5v4c0 .2761424.22385763.5.5.5h2.5v7.5c0 .2761424.22385763.5.5.5h4c.2761424 0 .5-.2238576.5-.5v-7.5h2.5c.2294338 0 .4294254-.1561487.4850713-.3787322l1-4c.0788933-.3155734-.1597857-.6212678-.4850713-.6212678h-3.5v-2.5c0-.27614237.2238576-.5.5-.5h3c.2761424 0 .5-.22385763.5-.5v-4c0-.27614237-.2238576-.5-.5-.5h-3c-3.0375661 0-5.5 2.46243388-5.5 5.5zm8-7v3h-2.5c-.8284271 0-1.5.67157288-1.5 1.5v3c0 .2761424.2238576.5.5.5h3.3596118l-.75 3h-2.6096118c-.2761424 0-.5.2238576-.5.5v7.5h-3v-7.5c0-.2761424-.22385763-.5-.5-.5h-2.5v-3h2.5c.27614237 0 .5-.2238576.5-.5v-3c0-2.48528137 2.0147186-4.5 4.5-4.5z"/></svg>