<?xml version="1.0" encoding="UTF-8"?>
<svg width="24px" height="24px" viewBox="0 0 24 24" version="1.1" xmlns="http://www.w3.org/2000/svg" xmlns:xlink="http://www.w3.org/1999/xlink">
    <!-- Generator: Sketch 55.2 (78181) - https://sketchapp.com -->
    <title>fast-forward</title>
    <desc>Created with Sketch.</desc>
    <g id="fast-forward" stroke="none" stroke-width="1" fill="none" fill-rule="evenodd">
        <path d="M13.8069703,18.8956019 L22.8069703,11.8956019 C23.0643432,11.6954229 23.0643432,11.3064286 22.8069703,11.1062497 L13.8069703,4.10624966 C13.4785413,3.85080488 13,4.08485168 13,4.50092577 L13,18.5009258 C13,18.9169999 13.4785413,19.1510467 13.8069703,18.8956019 Z M14,5.52324545 L21.685589,11.5009258 L14,17.4786061 L14,5.52324545 Z" id="Shape" fill="#000000" fill-rule="nonzero"></path>
        <path d="M2.80697031,18.8956019 L11.8069703,11.8956019 C12.0643432,11.6954229 12.0643432,11.3064286 11.8069703,11.1062497 L2.80697031,4.10624966 C2.4785413,3.85080488 2,4.08485168 2,4.50092577 L2,18.5009258 C2,18.9169999 2.4785413,19.1510467 2.80697031,18.8956019 Z M3,17.4786061 L3,5.52324545 L10.685589,11.5009258 L3,17.4786061 Z" id="Shape" fill="#000000" fill-rule="nonzero"></path>
    </g>
</svg>