<svg height="24" viewBox="0 0 24 24" width="24" xmlns="http://www.w3.org/2000/svg"><path d="m16.2835834 15.5h-7.07647662l-3 3h7.08535242zm.9430228-.945821 2.659317-2.6672082.0005234-.0005242c2.1491866-2.14918661 2.1491866-5.63370659 0-7.78289321s-5.6337066-2.14918662-7.7828932 0l-6.6035534 6.60355341v7.0857864l10.1464466-10.14644659c.1952622-.19526215.5118446-.19526215.7071068 0 .1952621.19526215.1952621.51184463 0 .70710678l-6.1464466 6.14644661h6.7928932c.0815719 0 .1585815.0195338.2266062.054179zm-12.7266062 4.2387142v-8.2928932c0-.1326082.05267842-.2597852.14644661-.3535534l6.74999999-6.74999999c2.5397109-2.53971091 6.6573959-2.53971091 9.1971068 0s2.5397109 6.65739589.0005234 9.19658259l-6.74 6.76c-.0938104.0940888-.2212119.1469708-.3540768.1469708h-8.29289322l-2.85355339 2.8535534c-.19526215.1952621-.51184463.1952621-.70710678 0-.19526215-.1952622-.19526215-.5118446 0-.7071068z"/></svg>