<?xml version="1.0" encoding="UTF-8"?>
<svg width="24px" height="24px" viewBox="0 0 24 24" version="1.1" xmlns="http://www.w3.org/2000/svg" xmlns:xlink="http://www.w3.org/1999/xlink">
    <!-- Generator: Sketch 55.2 (78181) - https://sketchapp.com -->
    <title>feather</title>
    <desc>Created with Sketch.</desc>
    <g id="feather" stroke="none" stroke-width="1" fill="none" fill-rule="evenodd">
        <path d="M16.2835834,15.5 L9.20710678,15.5 L6.20710678,18.5 L13.2924592,18.5 L16.2835834,15.5 Z M17.2266062,14.554179 L19.8859232,11.8869708 L19.8864466,11.8864466 C22.0356332,9.73725999 22.0356332,6.25274001 19.8864466,4.10355339 C17.73726,1.95436677 14.25274,1.95436677 12.1035534,4.10355339 L5.5,10.7071068 L5.5,17.7928932 L15.6464466,7.64644661 C15.8417088,7.45118446 16.1582912,7.45118446 16.3535534,7.64644661 C16.5488155,7.84170876 16.5488155,8.15829124 16.3535534,8.35355339 L10.2071068,14.5 L17,14.5 C17.0815719,14.5 17.1585815,14.5195338 17.2266062,14.554179 Z M4.5,18.7928932 L4.5,10.5 C4.5,10.3673918 4.55267842,10.2402148 4.64644661,10.1464466 L11.3964466,3.39644661 C13.9361575,0.8567357 18.0538425,0.8567357 20.5935534,3.39644661 C23.1332643,5.93615752 23.1332643,10.0538425 20.5940768,12.5930292 L13.8540768,19.3530292 C13.7602664,19.447118 13.6328649,19.5 13.5,19.5 L5.20710678,19.5 L2.35355339,22.3535534 C2.15829124,22.5488155 1.84170876,22.5488155 1.64644661,22.3535534 C1.45118446,22.1582912 1.45118446,21.8417088 1.64644661,21.6464466 L4.5,18.7928932 Z" id="Combined-Shape" fill="#000000" fill-rule="nonzero"></path>
    </g>
</svg>