<svg height="24" viewBox="0 0 24 24" width="24" xmlns="http://www.w3.org/2000/svg"><path d="m12 9v.35414425c.1100877-.12485125.2282887-.24318566.3541072-.35414425zm-1 0h-3c-1.65685425 0-3 1.3431458-3 3s1.34314575 3 3 3h3zm-4.93800359-.5c-1.22970877-.68236446-2.06199641-1.99398663-2.06199641-3.5 0-2.209139 1.790861-4 4-4h3.5 3.5c1.4290624 0 2.7495705.76239568 3.4641017 2 .7145312 1.2376043.7145312 2.7623957 0 4-.369845.64059032-.9020404 1.1538651-1.5276063 1.49999889.0212496.01175907.0424188.02372554.0635046.03589944 1.2376043.71453118 2 2.03503927 2 3.46410157 0 1.4290625-.7623957 2.7495706-2 3.4641018s-2.7623957.7145312-4 0c-.3812205-.2200978-.7173517-.4976924-1-.818246v.8541443 3.5c0 2.209139-1.790861 4-4 4s-4-1.790861-4-4c0-1.5060134.83228764-2.8176355 2.06199641-3.5-1.22970877-.6823645-2.06199641-1.9939866-2.06199641-3.5s.83228764-2.81763554 2.06199641-3.5zm1.93800359-.5h3v-6h-3c-1.65685425 0-3 1.34314575-3 3s1.34314575 3 3 3zm0 8c-1.65685425 0-3 1.3431458-3 3s1.34314575 3 3 3 3-1.3431458 3-3v-3zm4-14v6h3c1.0717968 0 2.0621779-.57179676 2.5980763-1.5.5358984-.92820322.5358984-2.07179678 0-3-.5358984-.92820324-1.5262795-1.5-2.5980763-1.5zm0 9.9999999c0 1.0717969.5717967 2.062178 1.5 2.5980764.9282032.5358984 2.0717968.5358984 3 0 .9282033-.5358984 1.5-1.5262795 1.5-2.5980764 0-1.0717967-.5717968-2.06217779-1.5-2.59807617-.9282032-.5358984-2.0717968-.5358984-3 0-.9282032.53589838-1.5 1.52627947-1.5 2.59807617z"/></svg>