<svg height="24" viewBox="0 0 24 24" width="24" xmlns="http://www.w3.org/2000/svg"><path d="m14 3.70710678v5.29289322h5.2928932zm6 6.29289322h-6.5c-.2761424 0-.5-.22385763-.5-.5v-6.5h-6.5c-.82842712 0-1.5.67157288-1.5 1.5v16c0 .8284271.67157288 1.5 1.5 1.5h12c.8284271 0 1.5-.6715729 1.5-1.5zm-6.5-8c.1326082 0 .2597852.05267842.3535534.14644661l7 7c.0937682.09376819.1464466.22094515.1464466.35355339v11c0 1.3807119-1.1192881 2.5-2.5 2.5h-12c-1.38071187 0-2.5-1.1192881-2.5-2.5v-16c0-1.38071187 1.11928813-2.5 2.5-2.5z"/></svg>