<?xml version="1.0" encoding="UTF-8"?>
<svg width="24px" height="24px" viewBox="0 0 24 24" version="1.1" xmlns="http://www.w3.org/2000/svg" xmlns:xlink="http://www.w3.org/1999/xlink">
    <!-- Generator: Sketch 55.2 (78181) - https://sketchapp.com -->
    <title>file</title>
    <desc>Created with Sketch.</desc>
    <g id="file" stroke="none" stroke-width="1" fill="none" fill-rule="evenodd">
        <path d="M14,3.70710678 L14,9 L19.2928932,9 L14,3.70710678 Z M20,10 L13.5,10 C13.2238576,10 13,9.77614237 13,9.5 L13,3 L6.5,3 C5.67157288,3 5,3.67157288 5,4.5 L5,20.5 C5,21.3284271 5.67157288,22 6.5,22 L18.5,22 C19.3284271,22 20,21.3284271 20,20.5 L20,10 Z M13.5,2 C13.6326082,2 13.7597852,2.05267842 13.8535534,2.14644661 L20.8535534,9.14644661 C20.9473216,9.2402148 21,9.36739176 21,9.5 L21,20.5 C21,21.8807119 19.8807119,23 18.5,23 L6.5,23 C5.11928813,23 4,21.8807119 4,20.5 L4,4.5 C4,3.11928813 5.11928813,2 6.5,2 L13.5,2 Z" id="Combined-Shape" fill="#000000" fill-rule="nonzero"></path>
    </g>
</svg>