<svg height="24" viewBox="0 0 24 24" width="24" xmlns="http://www.w3.org/2000/svg"><path d="m22 8h-4v4h4zm0-1v-2.32c0-.92783838-.7521616-1.68-1.68-1.68h-2.32v4zm0 10v-4h-4v4zm0 1h-4v4h2.32c.9278384 0 1.68-.7521616 1.68-1.68zm-19-1h4v-4h-4zm0 1v2.32c0 .9278384.75216162 1.68 1.68 1.68h2.32v-4zm0-10v4h4v-4zm0-1h4v-4h-2.32c-.92783838 0-1.68.75216162-1.68 1.68zm5 5h9v-9h-9zm0 1v9h9v-9zm-3.32-11h15.64c1.4801231 0 2.68 1.19987687 2.68 2.68v15.64c0 1.4801231-1.1998769 2.68-2.68 2.68h-15.64c-1.48012313 0-2.68-1.1998769-2.68-2.68v-15.64c0-1.48012313 1.19987687-2.68 2.68-2.68z"/></svg>