<?xml version="1.0" encoding="UTF-8"?>
<svg width="24px" height="24px" viewBox="0 0 24 24" version="1.1" xmlns="http://www.w3.org/2000/svg" xmlns:xlink="http://www.w3.org/1999/xlink">
    <!-- Generator: Sketch 55.2 (78181) - https://sketchapp.com -->
    <title>filter</title>
    <desc>Created with Sketch.</desc>
    <g id="filter" stroke="none" stroke-width="1" fill="none" fill-rule="evenodd">
        <path d="M9.00096114,12.1430733 L9.00096114,18.5 C9.00096114,18.689386 9.10796232,18.8625176 9.27735434,18.9472136 L13.2773543,20.9472136 C13.6098049,21.1134389 14.0009611,20.871691 14.0009611,20.5 L14.0009611,12.1430733 L21.8827461,2.82286256 C22.1575758,2.49787649 21.9265751,2 21.5009611,2 L1.50096114,2 C1.07534713,2 0.844346505,2.49787649 1.11917616,2.82286256 L9.00096114,12.1430733 Z M20.4233093,3 L13.1191762,11.6371374 C13.042844,11.7274002 13.0009611,11.8417885 13.0009611,11.96 L13.0009611,19.690983 L10.0009611,18.190983 L10.0009611,11.96 C10.0009611,11.8417885 9.95907823,11.7274002 9.88274611,11.6371374 L2.57861297,3 L20.4233093,3 Z" id="Shape" fill="#000000" fill-rule="nonzero"></path>
    </g>
</svg>