<svg height="24" viewBox="0 0 24 24" width="24" xmlns="http://www.w3.org/2000/svg"><path d="m5 15.7419268v6.7580732c0 .2761424-.22385763.5-.5.5s-.5-.2238576-.5-.5v-7c0-.2761424.22385763-.5.5-.5s.5.2238576.5.5v.2419268c-.06967889.0449268-.11793401.083114-.14644661.1116266-.31498243.3149824-.85355339.091899-.85355339-.3535534v-12c0-.13260824.05267842-.2597852.14644661-.35355339.17228845-.17228845.51042094-.39771011 1.04285805-.61068496.84203279-.33681311 1.93624975-.53576165 3.31069534-.53576165 1.33328171 0 2.2538149.2630095 4.1856953 1.03576165 1.8181196.72724785 2.6475864.96423835 3.8143047.96423835 1.2505544 0 2.2188375-.17605146 2.9393047-.46423835.4050628-.16202515.6294304-.31160349.7071419-.38931504.3149824-.31498243.8535534-.09189904.8535534.35355339v12c0 .1326082-.0526784.2597852-.1464466.3535534-.1722885.1722884-.5104209.3977101-1.0428581.6106849-.8420328.3368132-1.9362497.5357617-3.3106953.5357617-1.3332817 0-2.2538149-.2630095-4.1856953-1.0357617-1.8181196-.7272478-2.64758641-.9642383-3.8143047-.9642383-1.25055441 0-2.21883745.1760515-2.93930466.4642383-.25644408.1025777-.44046333.2001665-.56069534.2776885zm0-12.00000003v10.87357573c.06014533-.0266884.12322875-.0533105.18930466-.0797408.84203279-.3368132 1.93624975-.5357617 3.31069534-.5357617 1.33328171 0 2.2538149.2630095 4.1856953 1.0357617 1.8181196.7272478 2.6475864.9642383 3.8143047.9642383 1.2505544 0 2.2188375-.1760515 2.9393047-.4642383.256444-.1025777.4404633-.2001665.5606953-.2776885v-10.87357569c-.0601453.02668841-.1232287.05331047-.1893047.07974084-.8420328.33681311-1.9362497.53576165-3.3106953.53576165-1.3332817 0-2.2538149-.2630095-4.1856953-1.03576165-1.8181196-.72724785-2.64758641-.96423835-3.8143047-.96423835-1.25055441 0-2.21883745.17605146-2.93930466.46423835-.25644408.10257763-.44046333.20016643-.56069534.27768842z"/></svg>