<?xml version="1.0" encoding="UTF-8"?>
<svg width="24px" height="24px" viewBox="0 0 24 24" version="1.1" xmlns="http://www.w3.org/2000/svg" xmlns:xlink="http://www.w3.org/1999/xlink">
    <!-- Generator: Sketch 55.2 (78181) - https://sketchapp.com -->
    <title>folder-plus</title>
    <desc>Created with Sketch.</desc>
    <g id="folder-plus" stroke="none" stroke-width="1" fill="none" fill-rule="evenodd">
        <path d="M13,14 L15.5,14 C15.7761424,14 16,14.2238576 16,14.5 C16,14.7761424 15.7761424,15 15.5,15 L13,15 L13,17.5 C13,17.7761424 12.7761424,18 12.5,18 C12.2238576,18 12,17.7761424 12,17.5 L12,15 L9.5,15 C9.22385763,15 9,14.7761424 9,14.5 C9,14.2238576 9.22385763,14 9.5,14 L12,14 L12,11.5 C12,11.2238576 12.2238576,11 12.5,11 C12.7761424,11 13,11.2238576 13,11.5 L13,14 Z M11.7675919,6 L20.5,6 C21.8807119,6 23,7.11928813 23,8.5 L23,19.5 C23,20.8807119 21.8807119,22 20.5,22 L4.5,22 C3.11928813,22 2,20.8807119 2,19.5 L2,5.5 C2,4.11928813 3.11928813,3 4.5,3 L9.5,3 C9.66717659,3 9.82329226,3.08355057 9.91602515,3.2226499 L11.7675919,6 Z M9.23240812,4 L4.5,4 C3.67157288,4 3,4.67157288 3,5.5 L3,19.5 C3,20.3284271 3.67157288,21 4.5,21 L20.5,21 C21.3284271,21 22,20.3284271 22,19.5 L22,8.5 C22,7.67157288 21.3284271,7 20.5,7 L11.5,7 C11.3328234,7 11.1767077,6.91644943 11.0839749,6.7773501 L9.23240812,4 Z" id="Combined-Shape" fill="#000000" fill-rule="nonzero"></path>
    </g>
</svg>