<svg height="24" viewBox="0 0 24 24" width="24" xmlns="http://www.w3.org/2000/svg"><path d="m13 14h2.5c.2761424 0 .5.2238576.5.5s-.2238576.5-.5.5h-2.5v2.5c0 .2761424-.2238576.5-.5.5s-.5-.2238576-.5-.5v-2.5h-2.5c-.27614237 0-.5-.2238576-.5-.5s.22385763-.5.5-.5h2.5v-2.5c0-.2761424.2238576-.5.5-.5s.5.2238576.5.5zm-1.2324081-8h8.7324081c1.3807119 0 2.5 1.11928813 2.5 2.5v11c0 1.3807119-1.1192881 2.5-2.5 2.5h-16c-1.38071187 0-2.5-1.1192881-2.5-2.5v-14c0-1.38071187 1.11928813-2.5 2.5-2.5h5c.16717659 0 .32329226.08355057.41602515.2226499zm-2.53518378-2h-4.73240812c-.82842712 0-1.5.67157288-1.5 1.5v14c0 .8284271.67157288 1.5 1.5 1.5h16c.8284271 0 1.5-.6715729 1.5-1.5v-11c0-.82842712-.6715729-1.5-1.5-1.5h-9c-.1671766 0-.3232923-.08355057-.4160251-.2226499z"/></svg>