<?xml version="1.0" encoding="UTF-8"?>
<svg width="24px" height="24px" viewBox="0 0 24 24" version="1.1" xmlns="http://www.w3.org/2000/svg" xmlns:xlink="http://www.w3.org/1999/xlink">
    <!-- Generator: Sketch 55.2 (78181) - https://sketchapp.com -->
    <title>framer</title>
    <desc>Created with Sketch.</desc>
    <g id="framer" stroke="none" stroke-width="1" fill="none" fill-rule="evenodd">
        <path d="M17.2938956,15 L11.2938956,9 L5.00100238,9 L5.00100238,15 L11.5010024,15 L17.2938956,15 Z M5.70810916,16 L11.0010024,21.2928932 L11.0010024,16 L5.70810916,16 Z M12.0010024,16 L12.0010024,22.5 C12.0010024,22.9454524 11.4624314,23.1685358 11.147449,22.8535534 L4.14744899,15.8535534 C4.04981791,15.7559223 4.00100238,15.6279612 4.00100238,15.5 L4.00100238,8.5 C4.00100238,8.22385763 4.22486,8 4.50100238,8 L10.2938956,8 L4.14744899,1.85355339 C3.83246656,1.53857096 4.05554995,1 4.50100238,1 L18.5010024,1 C18.7771448,1 19.0010024,1.22385763 19.0010024,1.5 L19.0010024,8.5 C19.0010024,8.77614237 18.7771448,9 18.5010024,9 L12.7081092,9 L18.8545558,15.1464466 C19.1695382,15.461429 18.9464548,16 18.5010024,16 L12.0010024,16 Z M18.0010024,8 L18.0010024,2 L5.70810916,2 L11.7081092,8 L18.0010024,8 Z" id="Shape" fill="#000000" fill-rule="nonzero"></path>
    </g>
</svg>