<svg height="24" viewBox="0 0 24 24" width="24" xmlns="http://www.w3.org/2000/svg"><path d="m17.2938956 15-6-6h-6.29289322v6h6.50000002zm-11.58578644 1 5.29289324 5.2928932v-5.2928932zm6.29289324 0v6.5c0 .4454524-.538571.6685358-.8535534.3535534l-7.00000001-7c-.09763108-.0976311-.14644661-.2255922-.14644661-.3535534v-7c0-.27614237.22385762-.5.5-.5h5.79289322l-6.14644661-6.14644661c-.31498243-.31498243-.09189904-.85355339.35355339-.85355339h14.00000002c.2761424 0 .5.22385763.5.5v7c0 .27614237-.2238576.5-.5.5h-5.7928932l6.1464466 6.1464466c.3149824.3149824.091899.8535534-.3535534.8535534zm6-8v-6h-12.29289324l6.00000004 6z"/></svg>