<svg height="24" viewBox="0 0 24 24" width="24" xmlns="http://www.w3.org/2000/svg"><path d="m19.2361065 7h3.2638935c.2761424 0 .5.22385763.5.5v5c0 .2761424-.2238576.5-.5.5h-1.5v9.5c0 .2761424-.2238576.5-.5.5h-16c-.27614237 0-.5-.2238576-.5-.5v-9.5h-1.5c-.27614237 0-.5-.2238576-.5-.5v-5c0-.27614237.22385763-.5.5-.5h3.26389349c-.47503992-.53075649-.76389349-1.23164556-.76389349-2 0-1.65685425 1.34314575-3 3-3 1.74605284 0 3.0622721 1.05297538 4.000608 2.75904063.1891122.34384051.3550111.7008878.499392 1.06320436.1443809-.36231656.3102798-.71936385.499392-1.06320436.9383359-1.70606525 2.2545552-2.75904063 4.000608-2.75904063 1.6568542 0 3 1.34314575 3 3 0 .76835444-.2888536 1.46924351-.7638935 2zm-2.2361065 0c1.1045695 0 2-.8954305 2-2s-.8954305-2-2-2c-1.3164472 0-2.3439779.82202462-3.124392 2.24095937-.2835748.51559048-.5116886 1.07196562-.6879994 1.62873648-.0142067.04486332-.0276614.08833048-.0403769.13030415zm-4 1v4h9v-4h-5zm-1 0h-4-5v4h9zm-4-1h3.8527683c-.0127155-.04197367-.0261702-.08544083-.0403769-.13030415-.1763108-.55677086-.4044246-1.113146-.6879994-1.62873648-.7804141-1.41893475-1.80794484-2.24095937-3.124392-2.24095937-1.1045695 0-2 .8954305-2 2s.8954305 2 2 2zm5 15h7v-9h-7zm-1 0v-9h-7v9z"/></svg>