<svg height="24" viewBox="0 0 24 24" width="24" xmlns="http://www.w3.org/2000/svg"><path d="m15.0372383 17.9876172c.2479263-1.690106 1.703819-2.9876172 3.4627617-2.9876172 1.9329966 0 3.5 1.5670034 3.5 3.5s-1.5670034 3.5-3.5 3.5c-1.7671276 0-3.2283783-1.3096147-3.4661442-3.0112364-3.5216074-.1701538-6.54008594-2.2578362-8.0338558-5.2414674v7.7527038c0 .2761424-.22385763.5-.5.5s-.5-.2238576-.5-.5v-11.53544443c-1.69614707-.24261483-3-1.70131962-3-3.46455557 0-1.93299662 1.56700338-3.5 3.5-3.5s3.5 1.56700338 3.5 3.5c0 1.75894266-1.29751117 3.21483535-2.98761718 3.46276173.2320978 4.32601297 3.69884248 7.79275767 8.02485548 8.02485547zm3.4627617 3.0123828c1.3807119 0 2.5-1.1192881 2.5-2.5s-1.1192881-2.5-2.5-2.5-2.5 1.1192881-2.5 2.5 1.1192881 2.5 2.5 2.5zm-12-12c1.38071187 0 2.5-1.11928813 2.5-2.5s-1.11928813-2.5-2.5-2.5-2.5 1.11928813-2.5 2.5 1.11928813 2.5 2.5 2.5z"/></svg>