<svg height="24" viewBox="0 0 24 24" width="24" xmlns="http://www.w3.org/2000/svg"><path d="m7 9.96455557v11.53544443c0 .2761424-.22385763.5-.5.5s-.5-.2238576-.5-.5v-11.53544443c-1.69614707-.24261483-3-1.70131962-3-3.46455557 0-1.93299662 1.56700338-3.5 3.5-3.5s3.5 1.56700338 3.5 3.5c0 1.76323595-1.30385293 3.22194074-3 3.46455557zm12 5.07088883c1.6961471.2426149 3 1.7013196 3 3.4645556 0 1.9329966-1.5670034 3.5-3.5 3.5s-3.5-1.5670034-3.5-3.5c0-1.763236 1.3038529-3.2219407 3-3.4645556v-6.5354444c0-.82842712-.6715729-1.5-1.5-1.5h-3c-.2761424 0-.5-.22385763-.5-.5s.2238576-.5.5-.5h3c1.3807119 0 2.5 1.11928813 2.5 2.5zm-.5 5.9645556c1.3807119 0 2.5-1.1192881 2.5-2.5s-1.1192881-2.5-2.5-2.5-2.5 1.1192881-2.5 2.5 1.1192881 2.5 2.5 2.5zm-12-12c1.38071187 0 2.5-1.11928813 2.5-2.5s-1.11928813-2.5-2.5-2.5-2.5 1.11928813-2.5 2.5 1.11928813 2.5 2.5 2.5z"/></svg>