<svg height="24" viewBox="0 0 24 24" width="24" xmlns="http://www.w3.org/2000/svg"><path d="m12 17c-2.48528137 0-4.5-2.0147186-4.5-4.5s2.01471863-4.5 4.5-4.5c2.4852814 0 4.5 2.0147186 4.5 4.5s-2.0147186 4.5-4.5 4.5zm0-1c1.9329966 0 3.5-1.5670034 3.5-3.5s-1.5670034-3.5-3.5-3.5-3.5 1.5670034-3.5 3.5 1.5670034 3.5 3.5 3.5zm-10.95-3c-.27614237 0-.5-.2238576-.5-.5s.22385763-.5.5-.5h5.95c.27614237 0 .5.2238576.5.5s-.22385763.5-.5.5zm15.96 0c-.2761424 0-.5-.2238576-.5-.5s.2238576-.5.5-.5h5.95c.2761424 0 .5.2238576.5.5s-.2238576.5-.5.5z"/></svg>