<svg height="24" viewBox="0 0 24 24" width="24" xmlns="http://www.w3.org/2000/svg"><path d="m9.96614421 18.9887636c-.23776595 1.7016217-1.69901663 3.0112364-3.46614421 3.0112364-1.93299662 0-3.5-1.5670034-3.5-3.5 0-1.763236 1.30385293-3.2219407 3-3.4645556v-11.5354444c0-.27614237.22385763-.5.5-.5s.5.22385763.5.5v11.5354444c1.52871564.2186657 2.73876345 1.4251838 2.96276173 2.9521728 4.32601297-.2320978 7.79275767-3.6988425 8.02485547-8.02485547-1.690106-.24792638-2.9876172-1.70381907-2.9876172-3.46276173 0-1.93299662 1.5670034-3.5 3.5-3.5s3.5 1.56700338 3.5 3.5c0 1.76712758-1.3096147 3.22837826-3.0112364 3.46614421-.2355817 4.87574309-4.1468763 8.78703769-9.02261939 9.02261939zm8.53385579-9.9887636c1.3807119 0 2.5-1.11928813 2.5-2.5s-1.1192881-2.5-2.5-2.5-2.5 1.11928813-2.5 2.5 1.1192881 2.5 2.5 2.5zm-12 12c1.38071187 0 2.5-1.1192881 2.5-2.5s-1.11928813-2.5-2.5-2.5-2.5 1.1192881-2.5 2.5 1.11928813 2.5 2.5 2.5z"/></svg>