<svg height="24" viewBox="0 0 24 24" width="24" xmlns="http://www.w3.org/2000/svg"><path d="m10.0001183 19.5419912v2.9883784c0 .2761423-.22385765.5-.50000002.5-.27614238 0-.5-.2238577-.5-.5l.00075435-2.3479393c-2.3751063.5608784-3.73214494-.0615517-5.05211704-1.6959319-.07914014-.0979908-.37763991-.4769237-.44955696-.5657926-.45401627-.5610344-.75631166-.8142559-1.12034817-.905265-.26789745-.0669744-.4307778-.3384416-.36380343-.6063391.06697436-.2678974.33844161-.4307778.60633906-.3638034.63134065.1578352 1.07512031.5295727 1.65516204 1.2463385.07732713.0955543.37623139.4750007.45017289.5665545 1.13394563 1.4040436 2.15710906 1.8554992 4.27448265 1.2938615l.0001467-.4566037c-.05573274-.792418.1339584-1.574958.53208099-2.2460875-3.92875923-.7032895-6.0333896-2.7714255-6.03338313-7.36636137-.00754033-1.43313547.50310891-2.81701913 1.43188496-3.89944895-.39323919-1.26282808-.32507284-2.62831747.19861892-3.85015618.05855937-.13662639.17487329-.24011357.31738369-.2823836.0342824-.01016851.08062081-.02036625.13908471-.02885269.84044848-.1219968 2.1600655.24596038 4.00249085 1.44787896 2.23830224-.56740255 4.58291164-.56740255 6.82121384 0 1.8424253-1.20191858 3.1620424-1.56987576 4.0024908-1.44787896.0584639.00848644.1048024.01868418.1390848.02885269.1425104.04227003.2588243.14575721.3173836.2823836.5236927 1.22184088.5918584 2.58733297.1986169 3.85016293.9214635 1.07395262 1.4315556 2.44491451 1.431817 3.86681152 0 4.62945165-2.1185205 6.71719265-6.0268663 7.37762445.4006951.6765406.5887024 1.4605187.5268663 2.2323756v3.87c0 .2761423-.2238576.5-.5.5s-.5-.2238577-.5-.5l.00154-3.9092128c.0646245-.8214866-.2269675-1.6311197-.8005341-2.2227596-.2892623-.2983771-.1094113-.7989134.3036046-.8449502 3.9976227-.4455949 5.9953895-2.1254418 5.9953895-6.50298554-.0002331-1.26784826-.487923-2.48707314-1.3621324-3.40533088-.1319366-.13858446-.1732116-.34031337-.1063095-.51958144.3768444-1.00977762.3836402-2.11710294.025043-3.12695734-.6406465.00637974-1.7167669.38042538-3.2781987 1.42709942-.1202316.0805948-.2694894.10513171-.4091947.06726863-2.206341-.59796532-4.5320745-.59796532-6.7384155 0-.1397052.03786308-.28896307.01332617-.40919466-.06726863-1.56143176-1.04667404-2.63755224-1.42071968-3.27819867-1.42709942-.35859726 1.0098544-.35180145 2.11717972.02504302 3.12695734.06690333.17927153.02562538.38100442-.10631663.51958885-.88071749.92505589-1.36892957 2.15530386-1.36220225 3.43523156 0 4.33837485 1.98145864 6.00448255 6.00170529 6.50381255.4093225.0508395.5845117.5474963.2976737.8438972-.5666593.5855511-.857703 1.3843733-.799302 2.2322903v.8587667c.000176.007638.000175.015258 0 .0228549z"/></svg>