<?xml version="1.0" encoding="UTF-8"?>
<svg width="24px" height="24px" viewBox="0 0 24 24" version="1.1" xmlns="http://www.w3.org/2000/svg" xmlns:xlink="http://www.w3.org/1999/xlink">
    <!-- Generator: Sketch 55.2 (78181) - https://sketchapp.com -->
    <title>gitlab</title>
    <desc>Created with Sketch.</desc>
    <g id="gitlab" stroke="none" stroke-width="1" fill="none" fill-rule="evenodd">
        <path d="M22.4271513,15.4127979 L11.7868051,23.1457819 C11.611537,23.2731598 11.3741724,23.2731598 11.1989044,23.1457819 L0.546623677,15.4041145 C0.0794043295,15.0605069 -0.113737564,14.4553289 0.0670241448,13.9077404 L1.28732373,10.1268153 L3.73651574,2.59096029 C3.788356,2.4569184 3.87087844,2.33688576 3.97564542,2.24214076 C4.33084792,1.91769377 4.87486152,1.91769377 5.24034691,2.25180294 C5.35289974,2.36059259 5.43583305,2.49630164 5.47826436,2.63644226 L7.80583316,9.78131536 L15.179613,9.78131536 L17.5165157,2.59096029 C17.568356,2.4569184 17.6508784,2.33688576 17.7556454,2.24214076 C18.1108479,1.91769377 18.6548615,1.91769377 19.0203469,2.25180294 C19.1328997,2.36059259 19.215833,2.49630164 19.2583857,2.63681528 L21.6965627,10.1413129 L22.9729123,13.9215128 C23.1370092,14.484993 22.9152662,15.0890404 22.4271513,15.4127979 Z M11.4928547,22.1232173 L21.8489044,14.5968488 L21.8711305,14.5815941 C21.9972018,14.4999765 22.0547895,14.3453123 22.0191468,14.2213178 L20.7473237,10.4558154 L18.3796539,3.16814175 L16.0183857,10.4358154 C15.9514512,10.6418311 15.7594711,10.7813154 15.5428547,10.7813154 L7.44285472,10.7813154 C7.22638288,10.7813154 7.03449641,10.6420141 6.96744508,10.4361885 L4.59975405,3.1678333 L2.23868529,10.4348903 L1.01765719,14.21804 C0.971531417,14.3577796 1.02053757,14.5113322 1.13680506,14.5968488 L11.4928547,22.1232173 Z" id="Shape" fill="#000000" fill-rule="nonzero"></path>
    </g>
</svg>