<svg height="24" viewBox="0 0 24 24" width="24" xmlns="http://www.w3.org/2000/svg"><path d="m23.4271513 14.4127979-10.6403462 7.732984c-.1752681.1273779-.4126327.1273779-.5879007 0l-10.65228072-7.7416674c-.46721935-.3436076-.66036124-.9487856-.47959954-1.4963741l1.22029959-3.78092512 2.44919201-7.53585499c.05184026-.13404189.1343627-.25407453.23912968-.34881953.3552025-.32444699.8992161-.32444699 1.26470149.00966218.11255283.10878965.19548614.2444987.23791745.38463932l2.3275688 7.1448731h7.37377984l2.3369027-7.19035507c.0518403-.13404189.1343627-.25407453.2391297-.34881953.3552025-.32444699.8992161-.32444699 1.2647015.00966218.1125528.10878965.1954861.2444987.2380388.38501234l2.438177 7.50449766 1.2763496 3.78019986c.1640969.5634802-.0576461 1.1675276-.545761 1.4912851zm-10.9342966 6.7104194 10.3560497-7.5263685.0222261-.0152547c.1260713-.0816176.183659-.2362818.1480163-.3602763l-1.2718231-3.76550236-2.3676698-7.28767369-2.3612682 7.26767369c-.0669345.20601562-.2589146.34549992-.475531.34549992h-8.09999998c-.21647184 0-.40835831-.1393013-.47540964-.3451269l-2.36769103-7.26835516-2.36106876 7.26705701-1.2210281 3.78314969c-.04612577.1397396.00288038.2932922.11914787.3788088z"/></svg>