<svg height="24" viewBox="0 0 24 24" width="24" xmlns="http://www.w3.org/2000/svg"><path d="m11.311431 2.02333526c-5.03684133.34253666-9.04989196 4.41475938-9.2991485 9.47666474h5.50561635c.18106989-3.49129386 1.51538004-6.82468071 3.79353215-9.47666474zm1.3771366-.0000001c2.274198 2.64741389 3.6078279 5.97459719 3.7925801 9.47666484h5.5065698c-.2492566-5.06190583-4.2623079-9.13412884-9.2991499-9.47666484zm9.2991499 10.47666484h-5.5056163c-.1810699 3.4912939-1.5153801 6.8246807-3.7935322 9.4766647 5.0368413-.3425366 9.049892-4.4147593 9.2991485-9.4766647zm-10.6762851 9.4766648c-2.274198-2.6474138-3.60782795-5.9745971-3.79258009-9.4766648h-5.50656981c.24925656 5.0619058 4.26230791 9.1341288 9.2991499 9.4766648zm-2.79308897-10.4766648h6.96232227c-.178073-3.21558243-1.4005383-6.28551774-3.4806669-8.7429833-2.0840282 2.46202289-3.30717376 5.53793224-3.48165537 8.7429833zm6.96331317 1h-6.96232232c.178073 3.2155824 1.40053833 6.2855177 3.48066692 8.7429833 2.0840282-2.4620229 3.3071738-5.5379322 3.4816554-8.7429833zm-3.4816566 10.5c-6.07513225 0-11-4.9248678-11-11 0-6.07513225 4.92486775-11 11-11 6.0751322 0 11 4.92486775 11 11 0 6.0751322-4.9248678 11-11 11z"/></svg>