<svg height="24" viewBox="0 0 24 24" width="24" xmlns="http://www.w3.org/2000/svg"><path d="m22.9425854 12.2671501c.0366621.0695411.0574146.148772.0574146.2328499v6c0 1.3807119-1.1192881 2.5-2.5 2.5h-16c-1.38071187 0-2.5-1.1192881-2.5-2.5v-6c0-.084078.02075248-.1633089.05741466-.2328501l3.44482002-6.87964983c.42216251-.8495721 1.28882003-1.38699659 2.23776532-1.38750007h9.5202653c.94868.00050348 1.8153375.53792797 2.2368184 1.38613368zm-.9425854.7328499h-19v5.4999999c0 .8284272.67157288 1.5 1.5 1.5h16c.8284271 0 1.5-.6715728 1.5-1.5zm-18.6904578-1h18.3809159l-3.0882234-6.16750007c-.2532975-.50974326-.773292-.83219796-1.3422347-.8325h-9.51973468c-.56920798.00030204-1.08920249.32275674-1.34318158.83386639zm2.83690441 4.8535534c-.19526215-.1952622-.19526215-.5118446 0-.7071068.19526215-.1952621.51184463-.1952621.70710678 0 .19526215.1952622.19526215.5118446 0 .7071068-.19526215.1952621-.51184463.1952621-.70710678 0zm3.99999999 0c-.19526214-.1952622-.19526214-.5118446 0-.7071068.1952622-.1952621.5118446-.1952621.7071068 0 .1952621.1952622.1952621.5118446 0 .7071068-.1952622.1952621-.5118446.1952621-.7071068 0z"/></svg>