<?xml version="1.0" encoding="UTF-8"?>
<svg width="24px" height="24px" viewBox="0 0 24 24" version="1.1" xmlns="http://www.w3.org/2000/svg" xmlns:xlink="http://www.w3.org/1999/xlink">
    <!-- Generator: Sketch 55.2 (78181) - https://sketchapp.com -->
    <title>hard-drive</title>
    <desc>Created with Sketch.</desc>
    <g id="hard-drive" stroke="none" stroke-width="1" fill="none" fill-rule="evenodd">
        <path d="M22.9425854,12.2671501 C22.9792475,12.3366912 23,12.4159221 23,12.5 L23,18.5 C23,19.8807119 21.8807119,21 20.5,21 L4.5,21 C3.11928813,21 2,19.8807119 2,18.5 L2,12.5 C2,12.415922 2.02075248,12.3366911 2.05741466,12.2671499 L5.50223468,5.38750007 C5.92439719,4.53792797 6.79105471,4.00050348 7.74,4 L17.2602653,4 C18.2089453,4.00050348 19.0756028,4.53792797 19.4970837,5.38613368 L22.9425854,12.2671501 Z M22,13 L3,13 L3,18.4999999 C3,19.3284271 3.67157288,19.9999999 4.5,19.9999999 L20.5,19.9999999 C21.3284271,19.9999999 22,19.3284271 22,18.4999999 L22,13 Z M3.3095422,12 L21.6904581,12 L18.6022347,5.83249993 C18.3489372,5.32275667 17.8289427,5.00030197 17.26,4.99999993 L7.74026532,4.99999993 C7.17105734,5.00030197 6.65106283,5.32275667 6.39708374,5.83386632 L3.3095422,12 Z M6.14644661,16.8535534 C5.95118446,16.6582912 5.95118446,16.3417088 6.14644661,16.1464466 C6.34170876,15.9511845 6.65829124,15.9511845 6.85355339,16.1464466 C7.04881554,16.3417088 7.04881554,16.6582912 6.85355339,16.8535534 C6.65829124,17.0488155 6.34170876,17.0488155 6.14644661,16.8535534 Z M10.1464466,16.8535534 C9.95118446,16.6582912 9.95118446,16.3417088 10.1464466,16.1464466 C10.3417088,15.9511845 10.6582912,15.9511845 10.8535534,16.1464466 C11.0488155,16.3417088 11.0488155,16.6582912 10.8535534,16.8535534 C10.6582912,17.0488155 10.3417088,17.0488155 10.1464466,16.8535534 Z" id="Combined-Shape" fill="#000000" fill-rule="nonzero"></path>
    </g>
</svg>