<svg height="24" viewBox="0 0 24 24" width="24" xmlns="http://www.w3.org/2000/svg"><path d="m14.6080342 15.0000441h-4.99384614l-.61724619 5.5552158c-.03049483.2744534-.27770422.4722209-.55215763.4417261-.27445342-.0304949-.47222093-.2777043-.44172611-.5521577l.60497603-5.4447842h-4.10803416c-.27614237 0-.5-.2238576-.5-.5s.22385763-.5.5-.5h4.21914527l.55555556-5h-4.77470083c-.27614237 0-.5-.22385763-.5-.5 0-.27614238.22385763-.5.5-.5h4.88581194l.61724616-5.55521577c.0304949-.27445341.2777042-.47222092.5521577-.4417261.2744534.03049482.4722209.27770421.4417261.55215763l-.6049761 5.44478424h4.9938461l.6172462-5.55521577c.0304949-.27445341.2777042-.47222092.5521577-.4417261.2744534.03049482.4722209.27770421.4417261.55215763l-.6049761 5.44478424h4.1080342c.2761424 0 .5.22385762.5.5 0 .27614237-.2238576.5-.5.5h-4.2191453l-.5555555 5h4.7747008c.2761424 0 .5.2238576.5.5s-.2238576.5-.5.5h-4.8858119l-.6172462 5.5552158c-.0304949.2744534-.2777042.4722209-.5521577.4417261-.2744534-.0304949-.4722209-.2777043-.4417261-.5521577zm.1111111-1 .5555555-5h-4.9938461l-.55555553 5z"/></svg>