<svg height="24" viewBox="0 0 24 24" width="24" xmlns="http://www.w3.org/2000/svg"><path d="m3 16.4999999v-3.9999999c0-5.24670516 4.25329488-9.5 9.5-9.5 5.2467051 0 9.5 4.25329484 9.5 9.5v3.9999999 3c0 1.3807118-1.1192881 2.5-2.5 2.5h-1c-1.3807119 0-2.5-1.1192882-2.5-2.5v-3c0-1.3807119 1.1192881-2.5 2.5-2.5h2.5v-1.4999999c0-4.69442041-3.8055796-8.5-8.5-8.5-4.69442037 0-8.5 3.80557959-8.5 8.5v1.4999999h2.5c1.38071187 0 2.5 1.1192881 2.5 2.5v3c0 1.3807118-1.11928813 2.5-2.5 2.5h-1c-1.38071187 0-2.5-1.1192882-2.5-2.5zm18 2.0000001v-3.5000001h-2.5c-.8284271 0-1.5.6715728-1.5 1.5v3c0 .8284271.6715729 1.5 1.5 1.5h1c.8284271 0 1.5-.6715729 1.5-1.5zm-17-3.5000001v3.5000001.9999999c0 .8284271.67157288 1.5 1.5 1.5h1c.82842712 0 1.5-.6715729 1.5-1.5v-3c0-.8284272-.67157288-1.5-1.5-1.5z"/></svg>