<?xml version="1.0" encoding="UTF-8"?>
<svg width="24px" height="24px" viewBox="0 0 24 24" version="1.1" xmlns="http://www.w3.org/2000/svg" xmlns:xlink="http://www.w3.org/1999/xlink">
    <!-- Generator: Sketch 55.2 (78181) - https://sketchapp.com -->
    <title>heart</title>
    <desc>Created with Sketch.</desc>
    <g id="heart" stroke="none" stroke-width="1" fill="none" fill-rule="evenodd">
        <path d="M16.9012907,2.5 C15.3095038,2.5 13.7829535,3.13252773 12.6576543,4.25835522 L11.9512907,4.96471884 L11.2448441,4.25827223 C8.90119425,1.91462246 5.10138717,1.91462249 2.75773737,4.25827229 C0.414087569,6.60192209 0.414087541,10.4017292 2.7577373,12.745379 L11.5977373,21.585379 C11.7929995,21.7806412 12.1095819,21.7806412 12.3048441,21.585379 L21.1448441,12.745379 C22.2705886,11.6201629 22.9031163,10.0936126 22.9031163,8.50182562 C22.9031163,6.9100778 22.2706197,5.38356341 21.1448441,4.25827222 C20.0195529,3.13249664 18.4930385,2.5 16.9012907,2.5 Z M11.9512907,20.5247188 L3.46484409,12.0382722 C1.51171861,10.0851467 1.51171864,6.91850458 3.46484415,4.96537907 C5.41796966,3.01225356 8.58461177,3.01225354 10.5377373,4.96537902 L11.5977373,6.02537901 C11.7929995,6.22064116 12.1095819,6.22064116 12.3048441,6.02537901 L13.3648441,4.96537901 C14.3026763,4.02710644 15.5748016,3.5 16.9012907,3.5 C18.2277798,3.5 19.4999051,4.02710644 20.4376543,4.96529602 C21.3760099,5.90321126 21.9031163,7.17533651 21.9031163,8.50182562 C21.9031163,9.82831474 21.3760099,11.10044 20.4378203,12.0381893 L19.3777373,13.0982722 L11.9512907,20.5247188 Z" id="Shape" fill="#000000" fill-rule="nonzero"></path>
    </g>
</svg>