<svg height="24" viewBox="0 0 24 24" width="24" xmlns="http://www.w3.org/2000/svg"><path d="m16.9012907 2.5c-1.5917869 0-3.1183372.63252773-4.2436364 1.75835522l-.7063636.70636362-.7064466-.70644661c-2.34364985-2.34364977-6.14345693-2.34364974-8.48710673.00000006-2.3436498 2.3436498-2.34364983 6.14345691-.00000007 8.48710671l8.84 8.84c.1952622.1952622.5118446.1952622.7071068 0l8.84-8.84c1.1257445-1.1252161 1.7582722-2.6517664 1.7582722-4.24355338 0-1.59174782-.6324966-3.11826221-1.7582722-4.2435534-1.1252912-1.12577558-2.6518056-1.75827222-4.2435534-1.75827222zm-4.95 18.0247188-8.48644661-8.4864466c-1.95312548-1.9531255-1.95312545-5.11976762.00000006-7.07289313s5.11976762-1.95312553 7.07289315-.00000005l1.06 1.05999999c.1952622.19526215.5118446.19526215.7071068 0l1.06-1.06c.9378322-.93827257 2.2099575-1.46537901 3.5364466-1.46537901s2.5986144.52710644 3.5363636 1.46529602c.9383556.93791524 1.465462 2.21004049 1.465462 3.5365296 0 1.32648912-.5271064 2.59861438-1.465296 3.53636368l-1.060083 1.0600829z"/></svg>