<svg height="24" viewBox="0 0 24 24" width="24" xmlns="http://www.w3.org/2000/svg"><path d="m10.0616672 9.17072103c-.09163604.26049461-.37709435.39738152-.63758897.30574546-.26049461-.09163606-.39738151-.37709438-.30574545-.63758899.56634302-1.60994816 2.21128092-2.57669262 3.89337232-2.28816921 1.6820906.28852326 2.9108364 1.74817979 2.9083022 3.45409101 0 1.0773626-.6603488 1.9578214-1.7226557 2.6660253-.3537599.2358396-.7297393.4363617-1.105532.6033805-.2266513.1007338-.4055149.1688723-.5137059.2049359-.2619717.0873238-.5451316-.0542563-.6324554-.316228s.0542563-.5451316.316228-.6324554c.0793092-.0264364.228571-.083298.4237952-.1700642.3273331-.1454812.6544794-.319959.9569703-.5216194.8126952-.5417962 1.2773516-1.1613374 1.2773521-1.8347185.0018133-1.21904039-.8758628-2.26165295-2.0773564-2.46774105-1.2014939-.20608815-2.3764495.48444361-2.7809803 1.63440658zm2.4383328 9.32927897c-.5522847 0-1-.4477153-1-1s.4477153-1 1-1 1 .4477153 1 1-.4477153 1-1 1zm0 4c-5.79898987 0-10.5-4.7010101-10.5-10.5 0-5.79898987 4.70101013-10.5 10.5-10.5 5.7989899 0 10.5 4.70101013 10.5 10.5 0 5.7989899-4.7010101 10.5-10.5 10.5zm0-1c5.2467051 0 9.5-4.2532949 9.5-9.5 0-5.24670512-4.2532949-9.5-9.5-9.5-5.24670512 0-9.5 4.25329488-9.5 9.5 0 5.2467051 4.25329488 9.5 9.5 9.5z"/></svg>