<?xml version="1.0" encoding="UTF-8"?>
<svg width="24px" height="24px" viewBox="0 0 24 24" version="1.1" xmlns="http://www.w3.org/2000/svg" xmlns:xlink="http://www.w3.org/1999/xlink">
    <!-- Generator: Sketch 55.2 (78181) - https://sketchapp.com -->
    <title>help-circle</title>
    <desc>Created with Sketch.</desc>
    <g id="help-circle" stroke="none" stroke-width="1" fill="none" fill-rule="evenodd">
        <path d="M10.0616672,9.17072103 C10.466198,8.02075806 11.6411536,7.3302263 12.8426475,7.53631445 C14.0441411,7.74240255 14.9218172,8.78501511 14.9200039,10.0040555 C14.9200034,10.6774366 14.455347,11.2969778 13.6426518,11.838774 C13.3401609,12.0404344 13.0130146,12.2149122 12.6856815,12.3603934 C12.4904573,12.4471596 12.3411955,12.5040212 12.2618863,12.5304576 C11.9999146,12.6177814 11.8583345,12.9009413 11.9456583,13.162913 C12.0329821,13.4248847 12.316142,13.5664648 12.5781137,13.479141 C12.6863047,13.4430774 12.8651683,13.3749389 13.0918196,13.2742051 C13.4676123,13.1071863 13.8435917,12.9066642 14.1973516,12.6708246 C15.2596585,11.9626207 15.9200073,11.0821619 15.9200073,10.0047993 C15.9225415,8.29888808 14.6937957,6.83923155 13.0117051,6.55070829 C11.3296137,6.26218488 9.6846758,7.22892934 9.11833278,8.8388775 C9.02669672,9.09937211 9.16358362,9.38483043 9.42407823,9.47646649 C9.68457285,9.56810255 9.97003116,9.43121564 10.0616672,9.17072103 Z" id="Shape" fill="#000000" fill-rule="nonzero"></path>
        <circle id="Oval" fill="#000000" cx="12.5" cy="17.5" r="1"></circle>
        <path d="M12.5,22.5 C18.2989899,22.5 23,17.7989899 23,12 C23,6.20101013 18.2989899,1.5 12.5,1.5 C6.70101013,1.5 2,6.20101013 2,12 C2,17.7989899 6.70101013,22.5 12.5,22.5 Z M12.5,21.5 C7.25329488,21.5 3,17.2467051 3,12 C3,6.75329488 7.25329488,2.5 12.5,2.5 C17.7467051,2.5 22,6.75329488 22,12 C22,17.2467051 17.7467051,21.5 12.5,21.5 Z" id="Oval" fill="#000000" fill-rule="nonzero"></path>
    </g>
</svg>