<svg height="24" viewBox="0 0 24 24" width="24" xmlns="http://www.w3.org/2000/svg"><path d="m22 8.49808793c-.0009154-.89276084-.4772902-1.7168891-1.2500003-2.16301285l-7.0019302-4.00110872c-.7715722-.44547312-1.7245668-.44547312-2.4980695.00110887l-6.99806947 3.99889113c-.77464037.44723247-1.25101508 1.27136073-1.25193053 2.16360872v8.00051282c.00091545.8927609.47729016 1.7168891 1.25000026 2.1630129l7.00193024 4.0011087c.7715722.4454731 1.7245668.4454731 2.4980695-.0011089l6.9980695-3.9988911c.7746403-.4472325 1.2510151-1.2713607 1.2519305-2.1636087zm-1.7499997 9.29698717-6.9980698 3.9988913c-.4660321.269058-1.0378289.269058-1.5019305.0011088l-7.00193053-4.0011088c-.46169579-.2665656-.74752062-.7610425-.74806973-1.2963913v-7.99948717c.00054911-.53483594.28637394-1.02931289.75-1.29698715l6.99806976-3.99889128c.4660321-.26905806 1.0378289-.26905806 1.5019305-.00110887l7.0019305 4.00110887c.4616958.26656554.7475207.76104249.7480692 1.29639128v7.99948712c-.0005485.534836-.2863734 1.0293129-.7499994 1.2969872z"/></svg>