<?xml version="1.0" encoding="UTF-8"?>
<svg width="24px" height="24px" viewBox="0 0 24 24" version="1.1" xmlns="http://www.w3.org/2000/svg" xmlns:xlink="http://www.w3.org/1999/xlink">
    <!-- Generator: Sketch 55.2 (78181) - https://sketchapp.com -->
    <title>hexagon</title>
    <desc>Created with Sketch.</desc>
    <g id="hexagon" stroke="none" stroke-width="1" fill="none" fill-rule="evenodd">
        <path d="M22,8.49808793 C21.9990846,7.60532709 21.5227098,6.78119883 20.7499997,6.33507508 L13.7480695,2.33396636 C12.9764973,1.88849324 12.0235027,1.88849324 11.25,2.33507523 L4.25193053,6.33396636 C3.47729016,6.78119883 3.00091545,7.60532709 3,8.49757508 L3,16.4980879 C3.00091545,17.3908488 3.47729016,18.214977 4.25000026,18.6611008 L11.2519305,22.6622095 C12.0235027,23.1076826 12.9764973,23.1076826 13.75,22.6611006 L20.7480695,18.6622095 C21.5227098,18.214977 21.9990846,17.3908488 22,16.4986008 L22,8.49808793 Z M20.2500003,17.7950751 L13.2519305,21.7939664 C12.7858984,22.0630244 12.2141016,22.0630244 11.75,21.7950752 L4.74806947,17.7939664 C4.28637368,17.5274008 4.00054885,17.0329239 3.99999974,16.4975751 L3.99999974,8.49808793 C4.00054885,7.96325199 4.28637368,7.46877504 4.74999974,7.20110078 L11.7480695,3.2022095 C12.2141016,2.93315144 12.7858984,2.93315144 13.25,3.20110063 L20.2519305,7.2022095 C20.7136263,7.46877504 20.9994512,7.96325199 20.9999997,8.49860078 L20.9999997,16.4980879 C20.9994512,17.0329239 20.7136263,17.5274008 20.2500003,17.7950751 Z" id="Path" fill="#000000" fill-rule="nonzero"></path>
    </g>
</svg>