<svg height="24" viewBox="0 0 24 24" width="24" xmlns="http://www.w3.org/2000/svg"><path d="m15.5 22h3.5c.8284271 0 1.5-.6715729 1.5-1.5v-10.7554581l-8.5-6.61111111-8.5 6.61111111v10.7554581c0 .8284271.67157288 1.5 1.5 1.5h3.5v-9.5c0-.2761424.22385763-.5.5-.5h6c.2761424 0 .5.2238576.5.5zm-1 0v-9h-5v9zm-12-12.5c0-.15429522.07123642-.29994801.19302969-.39467611l9.00000001-7c.1805552-.14043185.4333854-.14043185.6139406 0l9 7c.1217933.0947281.1930297.24038089.1930297.39467611v11c0 1.3807119-1.1192881 2.5-2.5 2.5h-14c-1.38071187 0-2.5-1.1192881-2.5-2.5z"/></svg>