<?xml version="1.0" encoding="UTF-8"?>
<svg width="24px" height="24px" viewBox="0 0 24 24" version="1.1" xmlns="http://www.w3.org/2000/svg" xmlns:xlink="http://www.w3.org/1999/xlink">
    <!-- Generator: Sketch 55.2 (78181) - https://sketchapp.com -->
    <title>home</title>
    <desc>Created with Sketch.</desc>
    <g id="home" stroke="none" stroke-width="1" fill="none" fill-rule="evenodd">
        <path d="M15.5,22 L19,22 C19.8284271,22 20.5,21.3284271 20.5,20.5 L20.5,9.7445419 L12,3.13343079 L3.5,9.7445419 L3.5,20.5 C3.5,21.3284271 4.17157288,22 5,22 L8.5,22 L8.5,12.5 C8.5,12.2238576 8.72385763,12 9,12 L15,12 C15.2761424,12 15.5,12.2238576 15.5,12.5 L15.5,22 Z M14.5,22 L14.5,13 L9.5,13 L9.5,22 L14.5,22 Z M2.5,9.5 C2.5,9.34570478 2.57123642,9.20005199 2.69302969,9.10532389 L11.6930297,2.10532389 C11.8735849,1.96489204 12.1264151,1.96489204 12.3069703,2.10532389 L21.3069703,9.10532389 C21.4287636,9.20005199 21.5,9.34570478 21.5,9.5 L21.5,20.5 C21.5,21.8807119 20.3807119,23 19,23 L5,23 C3.61928813,23 2.5,21.8807119 2.5,20.5 L2.5,9.5 Z" id="Combined-Shape" fill="#000000" fill-rule="nonzero"></path>
    </g>
</svg>