<?xml version="1.0" encoding="UTF-8"?>
<svg width="24px" height="24px" viewBox="0 0 24 24" version="1.1" xmlns="http://www.w3.org/2000/svg" xmlns:xlink="http://www.w3.org/1999/xlink">
    <!-- Generator: Sketch 55.2 (78181) - https://sketchapp.com -->
    <title>image</title>
    <desc>Created with Sketch.</desc>
    <g id="image" stroke="none" stroke-width="1" fill="none" fill-rule="evenodd">
        <path d="M21,14.2928932 L21,5.5 C21,4.67157288 20.3284271,4 19.5,4 L5.5,4 C4.67157288,4 4,4.67157288 4,5.5 L4,19.5 C4,20.2624802 4.56890748,20.8920849 5.30540075,20.9874925 L16.1464466,10.1464466 C16.3417088,9.95118446 16.6582912,9.95118446 16.8535534,10.1464466 L21,14.2928932 Z M21,15.7071068 L16.5,11.2071068 L6.70710678,21 L19.5,21 C20.3284271,21 21,20.3284271 21,19.5 L21,15.7071068 Z M5.5,3 L19.5,3 C20.8807119,3 22,4.11928813 22,5.5 L22,19.5 C22,20.8807119 20.8807119,22 19.5,22 L5.5,22 C4.11928813,22 3,20.8807119 3,19.5 L3,5.5 C3,4.11928813 4.11928813,3 5.5,3 Z" id="frame" fill="#000000" fill-rule="nonzero"></path>
        <path d="M8,10 C9.1045695,10 10,9.1045695 10,8 C10,6.8954305 9.1045695,6 8,6 C6.8954305,6 6,6.8954305 6,8 C6,9.1045695 6.8954305,10 8,10 Z M8,9 C7.44771525,9 7,8.55228475 7,8 C7,7.44771525 7.44771525,7 8,7 C8.55228475,7 9,7.44771525 9,8 C9,8.55228475 8.55228475,9 8,9 Z" id="Oval" fill="#000000" fill-rule="nonzero"></path>
    </g>
</svg>