<svg height="24" viewBox="0 0 24 24" width="24" xmlns="http://www.w3.org/2000/svg"><path d="m21 14.2928932v-8.7928932c0-.82842712-.6715729-1.5-1.5-1.5h-14c-.82842712 0-1.5.67157288-1.5 1.5v14c0 .7624802.56890748 1.3920849 1.30540075 1.4874925l10.84104585-10.8410459c.1952622-.19526214.5118446-.19526214.7071068 0zm0 1.4142136-4.5-4.5-9.79289322 9.7928932h12.79289322c.8284271 0 1.5-.6715729 1.5-1.5zm-15.5-12.7071068h14c1.3807119 0 2.5 1.11928813 2.5 2.5v14c0 1.3807119-1.1192881 2.5-2.5 2.5h-14c-1.38071187 0-2.5-1.1192881-2.5-2.5v-14c0-1.38071187 1.11928813-2.5 2.5-2.5zm2.5 7c-1.1045695 0-2-.8954305-2-2s.8954305-2 2-2 2 .8954305 2 2-.8954305 2-2 2zm0-1c.55228475 0 1-.44771525 1-1s-.44771525-1-1-1-1 .44771525-1 1 .44771525 1 1 1z"/></svg>