<?xml version="1.0" encoding="UTF-8"?>
<svg width="24px" height="24px" viewBox="0 0 24 24" version="1.1" xmlns="http://www.w3.org/2000/svg" xmlns:xlink="http://www.w3.org/1999/xlink">
    <!-- Generator: Sketch 55.2 (78181) - https://sketchapp.com -->
    <title>inbox</title>
    <desc>Created with Sketch.</desc>
    <g id="inbox" stroke="none" stroke-width="1" fill="none" fill-rule="evenodd">
        <path d="M22.45,11.79 C22.448,11.786 22.449,11.781 22.447,11.776 L18.998,4.887 C18.574,4.032 17.717,3.5 16.76,3.5 L7.24,3.5 C6.284,3.5 5.427,4.032 5.003,4.886 L1.553,11.776 C1.551,11.78 1.552,11.785 1.55,11.79 C1.52,11.854 1.5,11.924 1.5,12 L1.5,18 C1.5,19.379 2.622,20.5 4,20.5 L20,20.5 C21.379,20.5 22.5,19.379 22.5,18 L22.5,12 C22.5,11.924 22.48,11.854 22.45,11.79 Z M5.898,5.332 C6.153,4.819 6.667,4.5 7.24,4.5 L16.76,4.5 C17.333,4.5 17.848,4.819 18.103,5.333 L21.19,11.5 L16,11.5 C15.833,11.5 15.677,11.583 15.584,11.723 L13.732,14.5 L10.267,14.5 L8.415,11.723 C8.323,11.583 8.167,11.5 8,11.5 L2.81,11.5 L5.898,5.332 Z M20,19.5 L4,19.5 C3.173,19.5 2.5,18.827 2.5,18 L2.5,12.5 L7.732,12.5 L9.584,15.277 C9.677,15.416 9.833,15.5 10,15.5 L14,15.5 C14.167,15.5 14.323,15.416 14.416,15.277 L16.268,12.5 L21.5,12.5 L21.5,18 C21.5,18.827 20.827,19.5 20,19.5 Z" id="Shape" fill="#000000" fill-rule="nonzero"></path>
    </g>
</svg>