<svg height="24" viewBox="0 0 24 24" width="24" xmlns="http://www.w3.org/2000/svg"><path d="m22.45 11.79c-.002-.004-.001-.009-.003-.014l-3.449-6.889c-.424-.855-1.281-1.387-2.238-1.387h-9.52c-.956 0-1.813.532-2.237 1.386l-3.45 6.89c-.002.004-.001.009-.003.014-.03.064-.05.134-.05.21v6c0 1.379 1.122 2.5 2.5 2.5h16c1.379 0 2.5-1.121 2.5-2.5v-6c0-.076-.02-.146-.05-.21zm-16.552-6.458c.255-.513.769-.832 1.342-.832h9.52c.573 0 1.088.319 1.343.833l3.087 6.167h-5.19c-.167 0-.323.083-.416.223l-1.852 2.777h-3.465l-1.852-2.777c-.092-.14-.248-.223-.415-.223h-5.19zm14.102 14.168h-16c-.827 0-1.5-.673-1.5-1.5v-5.5h5.232l1.852 2.777c.093.139.249.223.416.223h4c.167 0 .323-.084.416-.223l1.852-2.777h5.232v5.5c0 .827-.673 1.5-1.5 1.5z"/></svg>