<svg height="24" viewBox="0 0 24 24" width="24" xmlns="http://www.w3.org/2000/svg"><path d="m7.5 2h10c3.0375661 0 5.5 2.46243388 5.5 5.5v10c0 3.0375661-2.4624339 5.5-5.5 5.5h-10c-3.03756612 0-5.5-2.4624339-5.5-5.5v-10c0-3.03756612 2.46243388-5.5 5.5-5.5zm0 1c-2.48528137 0-4.5 2.01471863-4.5 4.5v10c0 2.4852814 2.01471863 4.5 4.5 4.5h10c2.4852814 0 4.5-2.0147186 4.5-4.5v-10c0-2.48528137-2.0147186-4.5-4.5-4.5zm9.4945917 8.7966583c.2847628 1.920343-.6940959 3.806825-2.4281701 4.679633s-3.8324002.5351589-5.20513603-.8375769c-1.37273582-1.3727358-1.71038489-3.4710618-.8375769-5.205136.87280798-1.73407421 2.75929003-2.71293288 4.67963303-2.42817014 1.9608489.29076925 3.5004808 1.83040114 3.79125 3.79125004zm-.9891834.1466834c-.2261539-1.5251046-1.4236454-2.7225961-2.94875-2.94874996-1.4936002-.22148213-2.960864.53985239-3.63971465 1.88857676-.67885066 1.3487244-.41623471 2.9807557.65144865 4.0484392 1.0676835 1.0676834 2.6997148 1.3302993 4.0484392.6514487 1.3487244-.6788507 2.1100589-2.1461145 1.8885768-3.6397147zm2.4945917-3.9433417c-.5522847 0-1-.44771525-1-1s.4477153-1 1-1 1 .44771525 1 1-.4477153 1-1 1z"/></svg>