<svg height="24" viewBox="0 0 24 24" width="24" xmlns="http://www.w3.org/2000/svg"><path d="m15.8465002 4.00013552-5.625 14.99999998h4.2784998c.2761424 0 .5.2238576.5.5s-.2238576.5-.5.5h-4.988472c-.00771831.0001803-.0154523.0001812-.02320079 0h-3.98832721c-.27614237 0-.5-.2238576-.5-.5s.22385763-.5.5-.5h3.65349977l5.62500003-14.99999998h-4.2784998c-.2761424 0-.5-.22385762-.5-.5 0-.27614237.2238576-.5.5-.5h4.988472c.0077183-.00018026.0154523-.00018113.0232008 0h3.9883272c.2761424 0 .5.22385763.5.5 0 .27614238-.2238576.5-.5.5z"/></svg>