<?xml version="1.0" encoding="UTF-8"?>
<svg width="24px" height="24px" viewBox="0 0 24 24" version="1.1" xmlns="http://www.w3.org/2000/svg" xmlns:xlink="http://www.w3.org/1999/xlink">
    <!-- Generator: Sketch 55.2 (78181) - https://sketchapp.com -->
    <title>italic</title>
    <desc>Created with Sketch.</desc>
    <g id="italic" stroke="none" stroke-width="1" fill="none" fill-rule="evenodd">
        <path d="M19.5,3.00013552 L10.5,3.00013552 C10.2238576,3.00013552 10,3.22399315 10,3.50013552 C10,3.7762779 10.2238576,4.00013552 10.5,4.00013552 L19.5,4.00013552 C19.7761424,4.00013552 20,3.7762779 20,3.50013552 C20,3.22399315 19.7761424,3.00013552 19.5,3.00013552 Z" id="Shape" fill="#000000" fill-rule="nonzero"></path>
        <path d="M14.5,19.0001355 L5.5,19.0001355 C5.22385763,19.0001355 5,19.2239931 5,19.5001355 C5,19.7762779 5.22385763,20.0001355 5.5,20.0001355 L14.5,20.0001355 C14.7761424,20.0001355 15,19.7762779 15,19.5001355 C15,19.2239931 14.7761424,19.0001355 14.5,19.0001355 Z" id="Shape" fill="#000000" fill-rule="nonzero"></path>
        <path d="M15.0318354,3.3245738 L9.03183541,19.3245738 C8.93487535,19.583134 9.06587812,19.87134 9.32443828,19.9683001 C9.58299844,20.0652602 9.87120453,19.9342574 9.96816459,19.6756972 L15.9681646,3.67569724 C16.0651246,3.41713708 15.9341219,3.12893099 15.6755617,3.03197093 C15.4170016,2.93501087 15.1287955,3.06601364 15.0318354,3.3245738 Z" id="Shape" fill="#000000" fill-rule="nonzero"></path>
    </g>
</svg>