<svg height="24" viewBox="0 0 24 24" width="24" xmlns="http://www.w3.org/2000/svg"><path d="m6.94 22.74c-2.61254318.0059397-4.9222679-1.6958049-5.6907291-4.1927799-.76846121-2.4969751.18476803-5.2029162 2.34857829-6.666932s5.03016078-1.3423702 7.06215081.2997119l10-10c.0907333-.09667723.2174141-.15151865.35-.15151865s.2592667.05484142.35.15151865c.0966772.09073333.1515186.21741409.1515186.35s-.0548414.25926667-.1515186.35l-1.79 1.81 2.64 2.64c.0986937.09336473.1531999.22417962.1501334.36-.0030704.13165728-.0568209.25707509-.1501334.35l-3.55 3.45c-.1944218.1905714-.5055782.1905714-.7 0l-2.6-2.6-4 4c1.5445031 1.7504615 1.920498 4.2433063.9610029 6.3714451-.9594952 2.1281387-3.07656443 3.4969576-5.4110029 3.4985549zm0-10.87c-1.99895262 0-3.80088529 1.2046813-4.5649138 3.0518608-.7640285 1.8471795-.33954699 3.9727439 1.07535733 5.384784 1.41490432 1.4120402 3.5413245 1.8322137 5.386952 1.0644437 1.84562747-.7677699 3.04665097-2.57214 3.04261467-4.5710885-.0055252-2.7243806-2.21562401-4.93-4.9400102-4.93zm9.13-3.68 2.25 2.24 2.83-2.75-2.29-2.29z"/></svg>