<svg height="24" viewBox="0 0 24 24" width="24" xmlns="http://www.w3.org/2000/svg"><path d="m11.2765027 2.0527864c.1407638-.07038187.3064499-.07038187.4472136 0l10 5c.3685243.18426214.3685243.71016506 0 .8944272l-10 5c-.1407637.0703819-.3064498.0703819-.4472136 0l-9.99999997-5c-.36852427-.18426214-.36852427-.71016506 0-.8944272zm.2236068 1.00623059-8.88196598 4.44098301 8.88196598 4.440983 8.881966-4.440983zm-9.77639317 13.99376941 9.77639317 4.8881966 9.7763932-4.8881966c.2469893-.1234946.5473258-.0233824.6708204.2236068.1234946.2469893.0233825.5473258-.2236068.6708204l-10 5c-.1407637.0703819-.3064498.0703819-.4472136 0l-9.99999997-5c-.24698925-.1234946-.34710142-.4238311-.2236068-.6708204.12349463-.2469892.42383115-.3471014.6708204-.2236068zm0-5 9.77639317 4.8881966 9.7763932-4.8881966c.2469893-.1234946.5473258-.0233824.6708204.2236068.1234946.2469893.0233825.5473258-.2236068.6708204l-10 5c-.1407637.0703819-.3064498.0703819-.4472136 0l-9.99999997-5c-.24698925-.1234946-.34710142-.4238311-.2236068-.6708204.12349463-.2469892.42383115-.3471014.6708204-.2236068z"/></svg>