<?xml version="1.0" encoding="UTF-8"?>
<svg width="24px" height="24px" viewBox="0 0 24 24" version="1.1" xmlns="http://www.w3.org/2000/svg" xmlns:xlink="http://www.w3.org/1999/xlink">
    <!-- Generator: Sketch 55.2 (78181) - https://sketchapp.com -->
    <title>layers</title>
    <desc>Created with Sketch.</desc>
    <g id="layers" stroke="none" stroke-width="1" fill="none" fill-rule="evenodd">
        <path d="M11.2765027,2.0527864 L1.27650273,7.0527864 C0.907978461,7.23704854 0.907978461,7.76295146 1.27650273,7.9472136 L11.2765027,12.9472136 C11.4172665,13.0175955 11.5829526,13.0175955 11.7237163,12.9472136 L21.7237163,7.9472136 C22.0922406,7.76295146 22.0922406,7.23704854 21.7237163,7.0527864 L11.7237163,2.0527864 C11.5829526,1.98240453 11.4172665,1.98240453 11.2765027,2.0527864 Z M11.5001095,3.05901699 L20.3820755,7.5 L11.5001095,11.940983 L2.61814352,7.5 L11.5001095,3.05901699 Z" id="Shape" fill="#000000" fill-rule="nonzero"></path>
        <path d="M1.72371633,17.0527864 C1.47672708,16.9292918 1.17639056,17.029404 1.05289593,17.2763932 C0.929401308,17.5233825 1.02951348,17.823719 1.27650273,17.9472136 L11.2765027,22.9472136 C11.4172665,23.0175955 11.5829526,23.0175955 11.7237163,22.9472136 L21.7237163,17.9472136 C21.9707056,17.823719 22.0708177,17.5233825 21.9473231,17.2763932 C21.8238285,17.029404 21.523492,16.9292918 21.2765027,17.0527864 L11.5001095,21.940983 L1.72371633,17.0527864 Z" id="Shape" fill="#000000" fill-rule="nonzero"></path>
        <path d="M1.72371633,12.0527864 C1.47672708,11.9292918 1.17639056,12.029404 1.05289593,12.2763932 C0.929401308,12.5233825 1.02951348,12.823719 1.27650273,12.9472136 L11.2765027,17.9472136 C11.4172665,18.0175955 11.5829526,18.0175955 11.7237163,17.9472136 L21.7237163,12.9472136 C21.9707056,12.823719 22.0708177,12.5233825 21.9473231,12.2763932 C21.8238285,12.029404 21.523492,11.9292918 21.2765027,12.0527864 L11.5001095,16.940983 L1.72371633,12.0527864 Z" id="Shape" fill="#000000" fill-rule="nonzero"></path>
    </g>
</svg>