<?xml version="1.0" encoding="UTF-8"?>
<svg width="24px" height="24px" viewBox="0 0 24 24" version="1.1" xmlns="http://www.w3.org/2000/svg" xmlns:xlink="http://www.w3.org/1999/xlink">
    <!-- Generator: Sketch 55.2 (78181) - https://sketchapp.com -->
    <title>layout</title>
    <desc>Created with Sketch.</desc>
    <g id="layout" stroke="none" stroke-width="1" fill="none" fill-rule="evenodd">
        <path d="M21,9 L21,5.5 C21,4.67157288 20.3284271,4 19.5,4 L5.5,4 C4.67157288,4 4,4.67157288 4,5.5 L4,9 L21,9 Z M21,10 L10,10 L10,21 L19.5,21 C20.3284271,21 21,20.3284271 21,19.5 L21,10 Z M9,21 L9,10 L4,10 L4,19.5 C4,20.3284271 4.67157288,21 5.5,21 L9,21 Z M5.5,3 L19.5,3 C20.8807119,3 22,4.11928813 22,5.5 L22,19.5 C22,20.8807119 20.8807119,22 19.5,22 L5.5,22 C4.11928813,22 3,20.8807119 3,19.5 L3,5.5 C3,4.11928813 4.11928813,3 5.5,3 Z" id="Combined-Shape" fill="#000000" fill-rule="nonzero"></path>
    </g>
</svg>