<svg height="24" viewBox="0 0 24 24" width="24" xmlns="http://www.w3.org/2000/svg"><path d="m6.1452918 19.561815c1.68326427 1.5156997 3.9112572 2.438185 6.3547082 2.438185s4.6714439-.9224853 6.3547082-2.438185l-3.5458653-3.5458653c-.7698354.6158139-1.746336.9840503-2.8088429.9840503s-2.0390075-.3682364-2.80884291-.9840503zm-.70710678-.7071068 3.54586529-3.5458653c-.61581388-.7698354-.98405031-1.746336-.98405031-2.8088429s.36823643-2.0390075.98405031-2.80884291l-3.54586529-3.54586529c-1.51569977 1.68326427-2.43818502 3.9112572-2.43818502 6.3547082s.92248525 4.6714439 2.43818502 6.3547082zm10.57776468-9.16355111c.6158139.76983541.9840503 1.74633601.9840503 2.80884291s-.3682364 2.0390075-.9840503 2.8088429l3.5458653 3.5458653c1.5156997-1.6832643 2.438185-3.9112572 2.438185-6.3547082s-.9224853-4.67144393-2.438185-6.3547082l-.3482616.34826159zm-.7071068-.70710678 3.1976037-3.1976037.3482616-.34826159c-1.6832643-1.51569977-3.9112572-2.43818502-6.3547082-2.43818502s-4.67144393.92248525-6.3547082 2.43818502l3.54586529 3.54586529c.76983541-.61581388 1.74633601-.98405031 2.80884291-.98405031s2.0390075.36823643 2.8088429.98405031zm-2.8088429 14.01594969c-5.79898987 0-10.5-4.7010101-10.5-10.5 0-5.79898987 4.70101013-10.5 10.5-10.5 5.7989899 0 10.5 4.70101013 10.5 10.5 0 5.7989899-4.7010101 10.5-10.5 10.5zm0-7c1.9329966 0 3.5-1.5670034 3.5-3.5s-1.5670034-3.5-3.5-3.5-3.5 1.5670034-3.5 3.5 1.5670034 3.5 3.5 3.5z"/></svg>