<?xml version="1.0" encoding="UTF-8"?>
<svg width="24px" height="24px" viewBox="0 0 24 24" version="1.1" xmlns="http://www.w3.org/2000/svg" xmlns:xlink="http://www.w3.org/1999/xlink">
    <!-- Generator: Sketch 55.2 (78181) - https://sketchapp.com -->
    <title>life-buoy</title>
    <desc>Created with Sketch.</desc>
    <g id="life-buoy" stroke="none" stroke-width="1" fill="none" fill-rule="evenodd">
        <path d="M12.5,23 C18.2989899,23 23,18.2989899 23,12.5 C23,6.70101013 18.2989899,2 12.5,2 C6.70101013,2 2,6.70101013 2,12.5 C2,18.2989899 6.70101013,23 12.5,23 Z M12.5,22 C7.25329488,22 3,17.7467051 3,12.5 C3,7.25329488 7.25329488,3 12.5,3 C17.7467051,3 22,7.25329488 22,12.5 C22,17.7467051 17.7467051,22 12.5,22 Z" id="Oval" fill="#000000" fill-rule="nonzero"></path>
        <path d="M12.5,17 C14.9852814,17 17,14.9852814 17,12.5 C17,10.0147186 14.9852814,8 12.5,8 C10.0147186,8 8,10.0147186 8,12.5 C8,14.9852814 10.0147186,17 12.5,17 Z M12.5,16 C10.5670034,16 9,14.4329966 9,12.5 C9,10.5670034 10.5670034,9 12.5,9 C14.4329966,9 16,10.5670034 16,12.5 C16,14.4329966 14.4329966,16 12.5,16 Z" id="Oval" fill="#000000" fill-rule="nonzero"></path>
        <path d="M5.07644661,5.78355339 L9.31644661,10.0235534 C9.51170876,10.2188155 9.82829124,10.2188155 10.0235534,10.0235534 C10.2188155,9.82829124 10.2188155,9.51170876 10.0235534,9.31644661 L5.78355339,5.07644661 C5.58829124,4.88118446 5.27170876,4.88118446 5.07644661,5.07644661 C4.88118446,5.27170876 4.88118446,5.58829124 5.07644661,5.78355339 Z" id="Shape" fill="#000000" fill-rule="nonzero"></path>
        <path d="M14.9764466,15.6835534 L19.2164466,19.9235534 C19.4117088,20.1188155 19.7282912,20.1188155 19.9235534,19.9235534 C20.1188155,19.7282912 20.1188155,19.4117088 19.9235534,19.2164466 L15.6835534,14.9764466 C15.4882912,14.7811845 15.1717088,14.7811845 14.9764466,14.9764466 C14.7811845,15.1717088 14.7811845,15.4882912 14.9764466,15.6835534 Z" id="Shape" fill="#000000" fill-rule="nonzero"></path>
        <path d="M15.6835534,10.0235534 L19.9235534,5.78355339 C20.1188155,5.58829124 20.1188155,5.27170876 19.9235534,5.07644661 C19.7282912,4.88118446 19.4117088,4.88118446 19.2164466,5.07644661 L14.9764466,9.31644661 C14.7811845,9.51170876 14.7811845,9.82829124 14.9764466,10.0235534 C15.1717088,10.2188155 15.4882912,10.2188155 15.6835534,10.0235534 Z" id="Shape" fill="#000000" fill-rule="nonzero"></path>
        <path d="M15.6835534,10.0235534 L19.2135534,6.49355339 C19.4088155,6.29829124 19.4088155,5.98170876 19.2135534,5.78644661 C19.0182912,5.59118446 18.7017088,5.59118446 18.5064466,5.78644661 L14.9764466,9.31644661 C14.7811845,9.51170876 14.7811845,9.82829124 14.9764466,10.0235534 C15.1717088,10.2188155 15.4882912,10.2188155 15.6835534,10.0235534 Z" id="Shape" fill="#000000" fill-rule="nonzero"></path>
        <path d="M5.78355339,19.9235534 L10.0235534,15.6835534 C10.2188155,15.4882912 10.2188155,15.1717088 10.0235534,14.9764466 C9.82829124,14.7811845 9.51170876,14.7811845 9.31644661,14.9764466 L5.07644661,19.2164466 C4.88118446,19.4117088 4.88118446,19.7282912 5.07644661,19.9235534 C5.27170876,20.1188155 5.58829124,20.1188155 5.78355339,19.9235534 Z" id="Shape" fill="#000000" fill-rule="nonzero"></path>
    </g>
</svg>