<svg height="24" viewBox="0 0 24 24" width="24" xmlns="http://www.w3.org/2000/svg"><path d="m14.5 8c-.2761424 0-.5-.22385763-.5-.5s.2238576-.5.5-.5h3c1.4586907 0 2.8576372.57946262 3.8890873 1.6109127s1.6109127 2.4303966 1.6109127 3.8890873c0 3.0375661-2.4624339 5.5-5.5 5.5h-3c-.2761424 0-.5-.2238576-.5-.5s.2238576-.5.5-.5h3c2.4852814 0 4.5-2.0147186 4.5-4.5 0-1.1934742-.4741058-2.3380668-1.3180195-3.18198052-.8439137-.8439137-1.9885063-1.31801948-3.1819805-1.31801948zm-6 9c.27614237 0 .5.2238576.5.5s-.22385763.5-.5.5h-3c-1.45869069 0-2.85763722-.5794626-3.8890873-1.6109127s-1.6109127-2.4303966-1.6109127-3.8890873c0-3.03756612 2.46243388-5.5 5.5-5.5h3c.27614237 0 .5.22385763.5.5s-.22385763.5-.5.5h-3c-2.48528137 0-4.5 2.0147186-4.5 4.5 0 1.1934742.47410578 2.3380668 1.31801948 3.1819805.84391371.8439137 1.98850632 1.3180195 3.18198052 1.3180195zm-1-4c-.27614237 0-.5-.2238576-.5-.5s.22385763-.5.5-.5h8c.2761424 0 .5.2238576.5.5s-.2238576.5-.5.5z"/></svg>