<svg height="24" viewBox="0 0 24 24" width="24" xmlns="http://www.w3.org/2000/svg"><path d="m10.0423906 13.7330495c-.16540334-.2211252-.1202319-.5344684.1008933-.6998718.2211251-.1654034.5344684-.1202319.6998718.1008932.7820599 1.0455237 1.9796645 1.6998304 3.2819849 1.7931 1.3023203.0932697 2.5809443-.3836945 3.5040792-1.3071641l2.9939093-2.9938025c1.7053749-1.76570497 1.6809856-4.57238148-.0548165-6.30818357s-4.5424786-1.76019135-6.3030183-.05987786l-1.72 1.71c-.1958306.19469204-.5124118.19376906-.7071038-.00206153s-.1937691-.51241173.0020615-.70710377l1.7251653-1.71506146c2.1580838-2.08434715 5.5884662-2.05453805 7.7100021.06699784s2.151345 5.55191829.0609071 7.71619965l-2.9999359 2.9999359c-1.1281976 1.1286067-2.6909603 1.7115629-4.2826851 1.5975667s-3.0554638-.9137045-4.0113149-2.1915667zm4.8007651-2.5989786c.1654033.2211252.1202319.5344685-.1008933.6998718-.2211251.1654034-.5344684.120232-.6998718-.1008932-.7820599-1.0455236-1.9796645-1.6998304-3.2819848-1.7931-1.30232036-.09326962-2.58094439.3836945-3.50407926 1.3071641l-2.99390928 2.9938025c-1.70537495 1.765705-1.68098569 4.5723815.05481641 6.3081836 1.73580209 1.7358021 4.5424786 1.7601914 6.30198613.0609071l1.71-1.71c.1952621-.1952621.5118446-.1952621.7071067 0 .1952622.1952622.1952622.5118447 0 .7071068l-1.7161974 1.7160907c-2.15808393 2.0843472-5.58846632 2.0545381-7.71000221-.0669978-2.1215359-2.1215359-2.15134499-5.5519183-.06090713-7.7161997l2.99993592-2.9999359c1.12819762-1.12860671 2.69096032-1.71156286 4.28268512-1.59756665s3.0554638.91370446 4.0113149 2.19156665z"/></svg>