<?xml version="1.0" encoding="UTF-8"?>
<svg width="24px" height="24px" viewBox="0 0 24 24" version="1.1" xmlns="http://www.w3.org/2000/svg" xmlns:xlink="http://www.w3.org/1999/xlink">
    <!-- Generator: Sketch 55.2 (78181) - https://sketchapp.com -->
    <title>link</title>
    <desc>Created with Sketch.</desc>
    <g id="link" stroke="none" stroke-width="1" fill="none" fill-rule="evenodd">
        <path d="M10.0423906,13.7330495 C10.9982417,15.0109117 12.4619807,15.81062 14.0537055,15.9246162 C15.6454303,16.0386124 17.208193,15.4556562 18.3363906,14.3270495 L21.3363265,11.3271136 C23.4267644,9.16283224 23.3969553,5.73244984 21.2754194,3.61091395 C19.1538835,1.48937806 15.7235011,1.45956896 13.5654173,3.54391611 L11.840252,5.25897757 C11.6444214,5.45366961 11.6434985,5.77025075 11.8381905,5.96608134 C12.0328825,6.16191193 12.3494637,6.16283491 12.5452943,5.96814287 L14.2652943,4.25814287 C16.025834,2.55782938 18.8325105,2.58221864 20.5683126,4.31802073 C22.3041147,6.05382282 22.328504,8.86049933 20.6231291,10.6262043 L17.6292198,13.6200068 C16.7060849,14.5434764 15.4274609,15.0204406 14.1251406,14.9271709 C12.8228202,14.8339013 11.6252156,14.1795946 10.8431557,13.1340709 C10.6777523,12.9129458 10.364409,12.8677743 10.1432839,13.0331777 C9.9221587,13.1985811 9.87698726,13.5119243 10.0423906,13.7330495 Z" id="Shape" fill="#000000" fill-rule="nonzero"></path>
        <path d="M14.8431557,11.1340709 C13.8873046,9.85620871 12.4235656,9.05650046 10.8318408,8.94250425 C9.240116,8.82850804 7.6773533,9.41146419 6.54915568,10.5400709 L3.54921976,13.5400068 C1.4587819,15.7042882 1.48859099,19.1346706 3.61012689,21.2562065 C5.73166278,23.3777424 9.16204517,23.4075515 11.3201291,21.3232043 L13.0363265,19.6071136 C13.2315887,19.4118515 13.2315887,19.095269 13.0363265,18.9000068 C12.8410644,18.7047447 12.5244819,18.7047447 12.3292198,18.9000068 L10.6192198,20.6100068 C8.85971227,22.3092911 6.05303576,22.2849018 4.31723367,20.5490997 C2.58143157,18.8132976 2.55704231,16.0066211 4.26241726,14.2409161 L7.25632654,11.2471136 C8.17946141,10.323644 9.45808544,9.84667988 10.7604058,9.9399495 C12.0627261,10.0332191 13.2603307,10.6875259 14.0423906,11.7330495 C14.207794,11.9541747 14.5211373,11.9993461 14.7422624,11.8339427 C14.9633876,11.6685394 15.008559,11.3551961 14.8431557,11.1340709 Z" id="Shape" fill="#000000" fill-rule="nonzero"></path>
    </g>
</svg>