<?xml version="1.0" encoding="UTF-8"?>
<svg width="24px" height="24px" viewBox="0 0 24 24" version="1.1" xmlns="http://www.w3.org/2000/svg" xmlns:xlink="http://www.w3.org/1999/xlink">
    <!-- Generator: Sketch 55.2 (78181) - https://sketchapp.com -->
    <title>list</title>
    <desc>Created with Sketch.</desc>
    <g id="list" stroke="none" stroke-width="1" fill="none" fill-rule="evenodd">
        <path d="M5.5,7 L18.5,7 C18.7761424,7 19,6.77614237 19,6.5 C19,6.22385763 18.7761424,6 18.5,6 L5.5,6 C5.22385763,6 5,6.22385763 5,6.5 C5,6.77614237 5.22385763,7 5.5,7 Z" id="Shape" fill="#000000" fill-rule="nonzero"></path>
        <path d="M5.5,13 L18.5,13 C18.7761424,13 19,12.7761424 19,12.5 C19,12.2238576 18.7761424,12 18.5,12 L5.5,12 C5.22385763,12 5,12.2238576 5,12.5 C5,12.7761424 5.22385763,13 5.5,13 Z" id="Shape" fill="#000000" fill-rule="nonzero"></path>
        <path d="M5.5,19 L18.5,19 C18.7761424,19 19,18.7761424 19,18.5 C19,18.2238576 18.7761424,18 18.5,18 L5.5,18 C5.22385763,18 5,18.2238576 5,18.5 C5,18.7761424 5.22385763,19 5.5,19 Z" id="Shape" fill="#000000" fill-rule="nonzero"></path>
    </g>
</svg>