<svg height="24" viewBox="0 0 24 24" width="24" xmlns="http://www.w3.org/2000/svg"><path d="m12 2.5c0-.27614237.2238576-.5.5-.5s.5.22385763.5.5v4c0 .27614237-.2238576.5-.5.5s-.5-.22385763-.5-.5zm0 16c0-.2761424.2238576-.5.5-.5s.5.2238576.5.5v4c0 .2761424-.2238576.5-.5.5s-.5-.2238576-.5-.5zm-6.92355339-12.71644661c-.19526215-.19526215-.19526215-.51184463 0-.70710678s.51184463-.19526215.70710678 0l2.83 2.83c.19526215.19526215.19526215.51184463 0 .70710678s-.51184463.19526215-.70710678 0zm11.30999999 11.31000001c-.1952621-.1952622-.1952621-.5118446 0-.7071068.1952622-.1952621.5118446-.1952621.7071068 0l2.83 2.83c.1952621.1952622.1952621.5118446 0 .7071068-.1952622.1952621-.5118446.1952621-.7071068 0zm-13.8864466-4.0935534c-.27614237 0-.5-.2238576-.5-.5s.22385763-.5.5-.5h4c.27614237 0 .5.2238576.5.5s-.22385763.5-.5.5zm16 0c-.2761424 0-.5-.2238576-.5-.5s.2238576-.5.5-.5h4c.2761424 0 .5.2238576.5.5s-.2238576.5-.5.5zm-12.71644661 6.9235534c-.19526215.1952621-.51184463.1952621-.70710678 0-.19526215-.1952622-.19526215-.5118446 0-.7071068l2.83-2.83c.19526215-.1952621.51184463-.1952621.70710678 0 .19526215.1952622.19526215.5118446 0 .7071068zm11.31000001-11.31000001c-.1952622.19526215-.5118446.19526215-.7071068 0-.1952621-.19526215-.1952621-.51184463 0-.70710678l2.83-2.83c.1952622-.19526215.5118446-.19526215.7071068 0 .1952621.19526215.1952621.51184463 0 .70710678z"/></svg>