<?xml version="1.0" encoding="UTF-8"?>
<svg width="24px" height="24px" viewBox="0 0 24 24" version="1.1" xmlns="http://www.w3.org/2000/svg" xmlns:xlink="http://www.w3.org/1999/xlink">
    <!-- Generator: Sketch 55.2 (78181) - https://sketchapp.com -->
    <title>loader</title>
    <desc>Created with Sketch.</desc>
    <g id="loader" stroke="none" stroke-width="1" fill="none" fill-rule="evenodd">
        <path d="M12,2.5 L12,6.5 C12,6.77614237 12.2238576,7 12.5,7 C12.7761424,7 13,6.77614237 13,6.5 L13,2.5 C13,2.22385763 12.7761424,2 12.5,2 C12.2238576,2 12,2.22385763 12,2.5 Z" id="Shape" fill="#000000" fill-rule="nonzero"></path>
        <path d="M12,18.5 L12,22.5 C12,22.7761424 12.2238576,23 12.5,23 C12.7761424,23 13,22.7761424 13,22.5 L13,18.5 C13,18.2238576 12.7761424,18 12.5,18 C12.2238576,18 12,18.2238576 12,18.5 Z" id="Shape" fill="#000000" fill-rule="nonzero"></path>
        <path d="M5.07644661,5.78355339 L7.90644661,8.61355339 C8.10170876,8.80881554 8.41829124,8.80881554 8.61355339,8.61355339 C8.80881554,8.41829124 8.80881554,8.10170876 8.61355339,7.90644661 L5.78355339,5.07644661 C5.58829124,4.88118446 5.27170876,4.88118446 5.07644661,5.07644661 C4.88118446,5.27170876 4.88118446,5.58829124 5.07644661,5.78355339 Z" id="Shape" fill="#000000" fill-rule="nonzero"></path>
        <path d="M16.3864466,17.0935534 L19.2164466,19.9235534 C19.4117088,20.1188155 19.7282912,20.1188155 19.9235534,19.9235534 C20.1188155,19.7282912 20.1188155,19.4117088 19.9235534,19.2164466 L17.0935534,16.3864466 C16.8982912,16.1911845 16.5817088,16.1911845 16.3864466,16.3864466 C16.1911845,16.5817088 16.1911845,16.8982912 16.3864466,17.0935534 Z" id="Shape" fill="#000000" fill-rule="nonzero"></path>
        <path d="M2.5,13 L6.5,13 C6.77614237,13 7,12.7761424 7,12.5 C7,12.2238576 6.77614237,12 6.5,12 L2.5,12 C2.22385763,12 2,12.2238576 2,12.5 C2,12.7761424 2.22385763,13 2.5,13 Z" id="Shape" fill="#000000" fill-rule="nonzero"></path>
        <path d="M18.5,13 L22.5,13 C22.7761424,13 23,12.7761424 23,12.5 C23,12.2238576 22.7761424,12 22.5,12 L18.5,12 C18.2238576,12 18,12.2238576 18,12.5 C18,12.7761424 18.2238576,13 18.5,13 Z" id="Shape" fill="#000000" fill-rule="nonzero"></path>
        <path d="M5.78355339,19.9235534 L8.61355339,17.0935534 C8.80881554,16.8982912 8.80881554,16.5817088 8.61355339,16.3864466 C8.41829124,16.1911845 8.10170876,16.1911845 7.90644661,16.3864466 L5.07644661,19.2164466 C4.88118446,19.4117088 4.88118446,19.7282912 5.07644661,19.9235534 C5.27170876,20.1188155 5.58829124,20.1188155 5.78355339,19.9235534 Z" id="Shape" fill="#000000" fill-rule="nonzero"></path>
        <path d="M17.0935534,8.61355339 L19.9235534,5.78355339 C20.1188155,5.58829124 20.1188155,5.27170876 19.9235534,5.07644661 C19.7282912,4.88118446 19.4117088,4.88118446 19.2164466,5.07644661 L16.3864466,7.90644661 C16.1911845,8.10170876 16.1911845,8.41829124 16.3864466,8.61355339 C16.5817088,8.80881554 16.8982912,8.80881554 17.0935534,8.61355339 Z" id="Shape" fill="#000000" fill-rule="nonzero"></path>
    </g>
</svg>