<svg height="24" viewBox="0 0 24 24" width="24" xmlns="http://www.w3.org/2000/svg"><path d="m7 11v-3.5c0-3.03756612 2.46243388-5.5 5.5-5.5 3.0375661 0 5.5 2.46243388 5.5 5.5v3.5h1.5c1.3807119 0 2.5 1.1192881 2.5 2.5v7c0 1.3807119-1.1192881 2.5-2.5 2.5h-14c-1.38071187 0-2.5-1.1192881-2.5-2.5v-7c0-1.3807119 1.11928813-2.5 2.5-2.5zm1 0h9v-3.5c0-2.48528137-2.0147186-4.5-4.5-4.5s-4.5 2.01471863-4.5 4.5zm-2.5 1c-.82842712 0-1.5.6715729-1.5 1.5v7c0 .8284271.67157288 1.5 1.5 1.5h14c.8284271 0 1.5-.6715729 1.5-1.5v-7c0-.8284271-.6715729-1.5-1.5-1.5z"/></svg>