<?xml version="1.0" encoding="UTF-8"?>
<svg width="24px" height="24px" viewBox="0 0 24 24" version="1.1" xmlns="http://www.w3.org/2000/svg" xmlns:xlink="http://www.w3.org/1999/xlink">
    <!-- Generator: Sketch 55.2 (78181) - https://sketchapp.com -->
    <title>log-out</title>
    <desc>Created with Sketch.</desc>
    <g id="log-out" stroke="none" stroke-width="1" fill="none" fill-rule="evenodd">
        <path d="M10.5,22 L5.5,22 C4.67157288,22 4,21.3284271 4,20.5 L4,4.5 C4,3.67157288 4.67157288,3 5.5,3 L10.5,3 C10.7761424,3 11,2.77614237 11,2.5 C11,2.22385763 10.7761424,2 10.5,2 L5.5,2 C4.11928813,2 3,3.11928813 3,4.5 L3,20.5 C3,21.8807119 4.11928813,23 5.5,23 L10.5,23 C10.7761424,23 11,22.7761424 11,22.5 C11,22.2238576 10.7761424,22 10.5,22 Z" id="Shape" fill="#000000" fill-rule="nonzero"></path>
        <path d="M20.2928932,13 L9.5,13 C9.22385763,13 9,12.7761424 9,12.5 C9,12.2238576 9.22385763,12 9.5,12 L20.2928932,12 L17.1464466,8.85355339 C16.9511845,8.65829124 16.9511845,8.34170876 17.1464466,8.14644661 C17.3417088,7.95118446 17.6582912,7.95118446 17.8535534,8.14644661 L21.8535534,12.1464466 C22.0488155,12.3417088 22.0488155,12.6582912 21.8535534,12.8535534 L17.8535534,16.8535534 C17.6582912,17.0488155 17.3417088,17.0488155 17.1464466,16.8535534 C16.9511845,16.6582912 16.9511845,16.3417088 17.1464466,16.1464466 L20.2928932,13 Z" id="Combined-Shape" fill="#000000" fill-rule="nonzero"></path>
    </g>
</svg>