<?xml version="1.0" encoding="UTF-8"?>
<svg width="24px" height="24px" viewBox="0 0 24 24" version="1.1" xmlns="http://www.w3.org/2000/svg" xmlns:xlink="http://www.w3.org/1999/xlink">
    <!-- Generator: Sketch 55.2 (78181) - https://sketchapp.com -->
    <title>log-in</title>
    <desc>Created with Sketch.</desc>
    <g id="log-in" stroke="none" stroke-width="1" fill="none" fill-rule="evenodd">
        <path d="M14.5,23 L19.5,23 C20.8807119,23 22,21.8807119 22,20.5 L22,4.5 C22,3.11928813 20.8807119,2 19.5,2 L14.5,2 C14.2238576,2 14,2.22385763 14,2.5 C14,2.77614237 14.2238576,3 14.5,3 L19.5,3 C20.3284271,3 21,3.67157288 21,4.5 L21,20.5 C21,21.3284271 20.3284271,22 19.5,22 L14.5,22 C14.2238576,22 14,22.2238576 14,22.5 C14,22.7761424 14.2238576,23 14.5,23 Z" id="Shape" fill="#000000" fill-rule="nonzero"></path>
        <path d="M14.2928932,13 L3.5,13 C3.22385763,13 3,12.7761424 3,12.5 C3,12.2238576 3.22385763,12 3.5,12 L14.2928932,12 L11.1464466,8.85355339 C10.9511845,8.65829124 10.9511845,8.34170876 11.1464466,8.14644661 C11.3417088,7.95118446 11.6582912,7.95118446 11.8535534,8.14644661 L15.8535534,12.1464466 C16.0488155,12.3417088 16.0488155,12.6582912 15.8535534,12.8535534 L11.8535534,16.8535534 C11.6582912,17.0488155 11.3417088,17.0488155 11.1464466,16.8535534 C10.9511845,16.6582912 10.9511845,16.3417088 11.1464466,16.1464466 L14.2928932,13 Z" id="Combined-Shape" fill="#000000" fill-rule="nonzero"></path>
    </g>
</svg>