<svg height="24" viewBox="0 0 24 24" width="24" xmlns="http://www.w3.org/2000/svg"><path d="m14.5 23c-.2761424 0-.5-.2238576-.5-.5s.2238576-.5.5-.5h5c.8284271 0 1.5-.6715729 1.5-1.5v-16c0-.82842712-.6715729-1.5-1.5-1.5h-5c-.2761424 0-.5-.22385763-.5-.5s.2238576-.5.5-.5h5c1.3807119 0 2.5 1.11928813 2.5 2.5v16c0 1.3807119-1.1192881 2.5-2.5 2.5zm-.2071068-10h-10.7928932c-.27614237 0-.5-.2238576-.5-.5s.22385763-.5.5-.5h10.7928932l-3.1464466-3.14644661c-.1952621-.19526215-.1952621-.51184463 0-.70710678.1952622-.19526215.5118446-.19526215.7071068 0l4 3.99999999c.1952621.1952622.1952621.5118446 0 .7071068l-4 4c-.1952622.1952621-.5118446.1952621-.7071068 0-.1952621-.1952622-.1952621-.5118446 0-.7071068z"/></svg>