<?xml version="1.0" encoding="UTF-8"?>
<svg width="24px" height="24px" viewBox="0 0 24 24" version="1.1" xmlns="http://www.w3.org/2000/svg" xmlns:xlink="http://www.w3.org/1999/xlink">
    <!-- Generator: Sketch 55.2 (78181) - https://sketchapp.com -->
    <title>mail</title>
    <desc>Created with Sketch.</desc>
    <g id="mail" stroke="none" stroke-width="1" fill="none" fill-rule="evenodd">
        <path d="M3.50004293,4 L19.5000429,4 C20.8761853,4 22.0000429,5.12385763 22.0000429,6.5 L22.0000429,18.5 C22.0000429,19.8761424 20.8761853,21 19.5000429,21 L3.50004293,21 C2.12390056,21 1.00004293,19.8761424 1.00004293,18.5 L1.00004293,6.5 C1.00004293,5.12385763 2.12390056,4 3.50004293,4 Z M3.50004293,5 C2.67618531,5 2.00004293,5.67614237 2.00004293,6.5 L2.00004293,18.5 C2.00004293,19.3238576 2.67618531,20 3.50004293,20 L19.5000429,20 C20.3239006,20 21.0000429,19.3238576 21.0000429,18.5 L21.0000429,6.5 C21.0000429,5.67614237 20.3239006,5 19.5000429,5 L3.50004293,5 Z" id="Shape" fill="#000000" fill-rule="nonzero"></path>
        <path d="M1.7867741,6.09038404 C1.56054946,5.93202679 1.24878422,5.98704418 1.09042697,6.21326883 C0.932069717,6.43949348 0.987087111,6.75125871 1.21331176,6.90961596 L11.2133118,13.909616 C11.3854718,14.030128 11.614614,14.030128 11.7867741,13.909616 L21.7867741,6.90961596 C22.0129988,6.75125871 22.0680161,6.43949348 21.9096589,6.21326883 C21.7513016,5.98704418 21.4395364,5.93202679 21.2133118,6.09038404 L11.5000429,12.8896722 L1.7867741,6.09038404 Z" id="Shape" fill="#000000" fill-rule="nonzero"></path>
    </g>
</svg>