<svg height="24" viewBox="0 0 24 24" width="24" xmlns="http://www.w3.org/2000/svg"><path d="m22.0000307 6.49212501c.0000693.00466853.0000733.00933563.0000122.01399985v11.99387514c0 1.3761424-1.1238576 2.5-2.5 2.5h-15.99999997c-1.37614237 0-2.5-1.1238576-2.5-2.5v-11.99387514c-.00006103-.00466422-.00005703-.00933132.00001227-.01399985.00427768-1.37255232 1.12647127-2.49212501 2.49998773-2.49212501h15.99999997c1.3735165 0 2.4957101 1.11957269 2.4999878 2.49212501zm-1.0203834-.23817582c-.1185608-.70825415-.7394742-1.25394919-1.4796044-1.25394919h-15.99999997c-.74013014 0-1.36104356.54569504-1.47960432 1.25394919l9.47960429 6.63572301zm.0203956 1.20637859-9.2132688 6.44928822c-.1721601.120512-.4013023.120512-.5734623 0l-9.21326887-6.44928822v11.03967222c0 .8238576.67614238 1.5 1.5 1.5h15.99999997c.8238577 0 1.5-.6761424 1.5-1.5z"/></svg>