<svg height="24" viewBox="0 0 24 24" width="24" xmlns="http://www.w3.org/2000/svg"><path d="m22 9.5c0 3.2170523-1.7449508 6.4161287-4.6370237 9.4688723-1.0016628 1.0573107-2.073381 2.0218572-3.1452629 2.8753928-.3754594.2989769-.7244586.5629635-1.0382494.7895901-.1897778.1370618-.3267351.2319174-.4021139.2821699-.1679497.1119665-.3867505.1119665-.5547002 0-.0753788-.0502525-.2123361-.1451081-.4021139-.2821699-.3137908-.2266266-.66279-.4906132-1.0382494-.7895901-1.07188186-.8535356-2.14360015-1.8180821-3.14526294-2.8753928-2.89207287-3.0527436-4.63702366-6.25182-4.63702366-9.4688723 0-5.24670516 4.25329488-9.5 9.5-9.5 5.2467051 0 9.5 4.25329484 9.5 9.5zm-9.4060265 12.323176c.3014436-.2177092.6379913-.4722774 1.0008131-.7611911 1.0374931-.8261519 2.0751499-1.7600429 3.0422371-2.7808572 2.7329271-2.8847564 4.3629763-5.87318 4.3629763-8.7811277 0-4.69442041-3.8055796-8.5-8.5-8.5-4.69442037 0-8.5 3.80557959-8.5 8.5 0 2.9079477 1.63004921 5.8963713 4.36297634 8.7811277.96708721 1.0208143 2.00474396 1.9547053 3.04223706 2.7808572.3628218.2889137.6993695.5434819 1.0008131.7611911.0331404.0239347.0644835.0464432.0939735.0675097.02949-.0210665.0608331-.043575.0939735-.0675097zm-.0939735-8.8231761c-1.9329966 0-3.5-1.5670034-3.5-3.50000003s1.5670034-3.5 3.5-3.5 3.5 1.56700337 3.5 3.5-1.5670034 3.50000003-3.5 3.50000003zm0-1c1.3807119 0 2.5-1.1192882 2.5-2.50000003 0-1.38071188-1.1192881-2.5-2.5-2.5s-2.5 1.11928812-2.5 2.5c0 1.38071183 1.1192881 2.50000003 2.5 2.50000003z"/></svg>