<svg height="24" viewBox="0 0 24 24" width="24" xmlns="http://www.w3.org/2000/svg"><path d="m15 5.80975582-7-3.5v14.88196598l7 3.5zm1-.01885573v14.84824891l6-3.4285714v-14.84824894zm-9-3.42857143-6 3.42857143v14.84824891l6-3.4285714zm.51573466 15.70529444-6.76766519 3.8672373c-.33332838.1904734-.74806947-.0502102-.74806947-.4341216v-15.99999998c0-.17942842.09614303-.34510014.25193053-.43412157l7-4c.14514993-.08294281.32214898-.08785567.47167627-.01309202l7.7606585 3.88032927 6.7676652-3.86723725c.3333284-.19047336.7480695.05021024.7480695.43412157v15.99999998c0 .1794284-.096143.3451002-.2519305.4341216l-7 4c-.14515.0829428-.322149.0878557-.4716763.013092z"/></svg>