<?xml version="1.0" encoding="UTF-8"?>
<svg width="24px" height="24px" viewBox="0 0 24 24" version="1.1" xmlns="http://www.w3.org/2000/svg" xmlns:xlink="http://www.w3.org/1999/xlink">
    <!-- Generator: Sketch 55.2 (78181) - https://sketchapp.com -->
    <title>map</title>
    <desc>Created with Sketch.</desc>
    <g id="map" stroke="none" stroke-width="1" fill="none" fill-rule="evenodd">
        <path d="M7.51573466,18.0676231 L15.2763932,21.9479524 C15.4259205,22.0227161 15.6029195,22.0178032 15.7480695,21.9348604 L22.7480695,17.9348604 C22.903857,17.845839 23,17.6801672 23,17.5007388 L23,1.50073882 C23,1.11682749 22.5852589,0.876143891 22.2519305,1.06661725 L15.4842653,4.9338545 L7.7236068,1.05352523 C7.57407951,0.978761583 7.39708046,0.983674435 7.25193053,1.06661725 L0.251930531,5.06661725 C0.0961430322,5.15563868 0,5.3213104 0,5.50073882 L0,21.5007388 C0,21.8846502 0.414741086,22.1253338 0.748069469,21.9348604 L7.51573466,18.0676231 Z M1,5.79090009 L7.51573466,2.06762315 L15.2763932,5.94795242 C15.4259205,6.02271607 15.6029195,6.01780321 15.7480695,5.9348604 L22,2.36232866 L22,17.2105776 L15.4842653,20.9338545 L7.7236068,17.0535252 C7.57407951,16.9787616 7.39708046,16.9836744 7.25193053,17.0666173 L1,20.639149 L1,5.79090009 Z" id="Shape" fill="#000000" fill-rule="nonzero"></path>
        <path d="M7,1.50073882 L7,17.5007388 C7,17.7768812 7.22385763,18.0007388 7.5,18.0007388 C7.77614237,18.0007388 8,17.7768812 8,17.5007388 L8,1.50073882 C8,1.22459645 7.77614237,1.00073882 7.5,1.00073882 C7.22385763,1.00073882 7,1.22459645 7,1.50073882 Z" id="Shape" fill="#000000" fill-rule="nonzero"></path>
        <path d="M15,5.50073882 L15,21.5007388 C15,21.7768812 15.2238576,22.0007388 15.5,22.0007388 C15.7761424,22.0007388 16,21.7768812 16,21.5007388 L16,5.50073882 C16,5.22459645 15.7761424,5.00073882 15.5,5.00073882 C15.2238576,5.00073882 15,5.22459645 15,5.50073882 Z" id="Shape" fill="#000000" fill-rule="nonzero"></path>
    </g>
</svg>