<?xml version="1.0" encoding="UTF-8"?>
<svg width="24px" height="24px" viewBox="0 0 24 24" version="1.1" xmlns="http://www.w3.org/2000/svg" xmlns:xlink="http://www.w3.org/1999/xlink">
    <!-- Generator: Sketch 55.2 (78181) - https://sketchapp.com -->
    <title>maximize</title>
    <desc>Created with Sketch.</desc>
    <g id="maximize" stroke="none" stroke-width="1" fill="none" fill-rule="evenodd">
        <path d="M8.5,3 C8.77614237,3 9,3.22385763 9,3.5 C9,3.77614237 8.77614237,4 8.5,4 L5.5,4 C4.67157288,4 4,4.67157288 4,5.5 L4,8.5 C4,8.77614237 3.77614237,9 3.5,9 C3.22385763,9 3,8.77614237 3,8.5 L3,5.5 C3,4.11928813 4.11928813,3 5.5,3 L8.5,3 Z M22,8.5 C22,8.77614237 21.7761424,9 21.5,9 C21.2238576,9 21,8.77614237 21,8.5 L21,5.5 C21,4.67157288 20.3284271,4 19.5,4 L16.5,4 C16.2238576,4 16,3.77614237 16,3.5 C16,3.22385763 16.2238576,3 16.5,3 L19.5,3 C20.8807119,3 22,4.11928813 22,5.5 L22,8.5 Z M16.5,22 C16.2238576,22 16,21.7761424 16,21.5 C16,21.2238576 16.2238576,21 16.5,21 L19.5,21 C20.3284271,21 21,20.3284271 21,19.5 L21,16.5 C21,16.2238576 21.2238576,16 21.5,16 C21.7761424,16 22,16.2238576 22,16.5 L22,19.5 C22,20.8807119 20.8807119,22 19.5,22 L16.5,22 Z M3,16.5 C3,16.2238576 3.22385763,16 3.5,16 C3.77614237,16 4,16.2238576 4,16.5 L4,19.5 C4,20.3284271 4.67157288,21 5.5,21 L8.5,21 C8.77614237,21 9,21.2238576 9,21.5 C9,21.7761424 8.77614237,22 8.5,22 L5.5,22 C4.11928813,22 3,20.8807119 3,19.5 L3,16.5 Z" id="Shape" fill="#000000" fill-rule="nonzero"></path>
    </g>
</svg>