<svg height="24" viewBox="0 0 24 24" width="24" xmlns="http://www.w3.org/2000/svg"><path d="m20.2928932 4h-4.7928932c-.2761424 0-.5-.22385763-.5-.5s.2238576-.5.5-.5h6c.2761424 0 .5.22385763.5.5v6c0 .27614237-.2238576.5-.5.5s-.5-.22385763-.5-.5v-4.79289322l-6.1464466 6.14644662c-.1952622.1952621-.5118446.1952621-.7071068 0-.1952621-.1952622-.1952621-.5118446 0-.7071068zm-15.58578642 17h4.79289322c.27614237 0 .5.2238576.5.5s-.22385763.5-.5.5h-6c-.27614237 0-.5-.2238576-.5-.5v-6c0-.2761424.22385763-.5.5-.5s.5.2238576.5.5v4.7928932l6.1464466-6.1464466c.1952622-.1952621.5118446-.1952621.7071068 0 .1952621.1952622.1952621.5118446 0 .7071068z"/></svg>