<svg height="24" viewBox="0 0 24 24" width="24" xmlns="http://www.w3.org/2000/svg"><path d="m3.00086459 10.9999508c.00131883-3.40825498 1.92777058-6.52336846 4.97457328-8.04610551 1.24839274-.6305661 2.62809003-.95734422 4.02542673-.95381704l.5275459.00084692c4.5702768.25216861 8.2195546 3.90144642 8.4725685 8.49926913v.5c.0035288 1.3973366-.3232493 2.7770339-.9528621 4.0235294-1.5236904 3.0487-4.6388039 4.9751517-8.0459487 4.9764689-1.3283036.0034632-2.63954531-.2911035-3.83745863-.8609004l-5.50573114 1.8352438c-.39087901.130293-.76274853-.2415766-.63245553-.6324556l1.83524369-5.505731c-.56979683-1.1979107-.86436367-2.5090993-.860902-3.8363486zm.29056938 8.7096241 4.7513167-1.5837722c.12647293-.0421577.26454459-.0320626.38354056.0280426 1.10782214.5595635 2.33215297.8495366 3.57437987.846299 3.02956-.0011723 5.7985497-1.7135738 7.1538944-4.4254267.559558-1.107811.8495384-2.3321439.8463292-3.5732805l.0007577-.4737468c-.2240877-4.06134213-3.4669917-7.3042461-7.5007878-7.52762843h-.5012929c-1.2411365-.00315692-2.46546947.28682352-3.57517777.84733473-2.70995556 1.35439141-4.42235713 4.12338117-4.42353108 7.1540513-.00323592 1.2411168.28673716 2.4654476.84630072 3.5732697.06010514.118996.07020027.2570677.02804263.3835406z"/></svg>