<svg height="24" viewBox="0 0 24 24" width="24" xmlns="http://www.w3.org/2000/svg"><path d="m7.70710678 17-3.85355339 3.8535534c-.31498243.3149824-.85355339.091899-.85355339-.3535534v-16c0-1.38071187 1.11928813-2.5 2.5-2.5h14c1.3807119 0 2.5 1.11928813 2.5 2.5v10c0 1.3807119-1.1192881 2.5-2.5 2.5zm-3.70710678 2.2928932 3.14644661-3.1464466c.09376819-.0937682.22094515-.1464466.35355339-.1464466h12c.8284271 0 1.5-.6715729 1.5-1.5v-10c0-.82842712-.6715729-1.5-1.5-1.5h-14c-.82842712 0-1.5.67157288-1.5 1.5z"/></svg>