<?xml version="1.0" encoding="UTF-8"?>
<svg width="24px" height="24px" viewBox="0 0 24 24" version="1.1" xmlns="http://www.w3.org/2000/svg" xmlns:xlink="http://www.w3.org/1999/xlink">
    <!-- Generator: Sketch 55.2 (78181) - https://sketchapp.com -->
    <title>message-square</title>
    <desc>Created with Sketch.</desc>
    <g id="message-square" stroke="none" stroke-width="1" fill="none" fill-rule="evenodd">
        <path d="M7.70710678,17 L3.85355339,20.8535534 C3.53857096,21.1685358 3,20.9454524 3,20.5 L3,4.5 C3,3.11928813 4.11928813,2 5.5,2 L19.5,2 C20.8807119,2 22,3.11928813 22,4.5 L22,14.5 C22,15.8807119 20.8807119,17 19.5,17 L7.70710678,17 Z M4,19.2928932 L7.14644661,16.1464466 C7.2402148,16.0526784 7.36739176,16 7.5,16 L19.5,16 C20.3284271,16 21,15.3284271 21,14.5 L21,4.5 C21,3.67157288 20.3284271,3 19.5,3 L5.5,3 C4.67157288,3 4,3.67157288 4,4.5 L4,19.2928932 Z" id="Shape" fill="#000000" fill-rule="nonzero"></path>
    </g>
</svg>