<svg height="24" viewBox="0 0 24 24" width="24" xmlns="http://www.w3.org/2000/svg"><path d="m11.5 22.5v-2.9651245c-.7975351-.0531409-1.59444108-.2345114-2.36016926-.5503743-2.82642607-1.1659007-4.66218555-3.9307896-4.63983074-6.9845012v-2c0-.27614237.22385763-.5.5-.5s.5.22385763.5.5l-.00001338 2.003658c-.01938577 2.6497203 1.57160578 5.0459573 4.02117505 6.0564046.73386083.3027176 1.50076403.4628996 2.26490793.4878853.0648564-.0307471.1373847-.0479479.2139304-.0479479.0764619 0 .1489151.0171631.2137173.0478469 1.4680599-.0486759 2.9010453-.5942539 4.0428016-1.5842212l-2.1620098-2.1620098c-.9784913.7312341-2.282481.9060842-3.4334853.4294964-1.3070467-.541199-2.15977931-1.8160115-2.1610238-3.2311123v-2.79289322l-7.85355339-7.85355339c-.19526215-.19526215-.19526215-.51184463 0-.70710678s.51184463-.19526215.70710678 0l15.84415671 15.84415669c.0550829.0236912.1068034.0577612.1522033.1022405.0479863.0470131.0844907.1013243.1094774.1594402l5.8941626 5.8941626c.1952621.1952622.1952621.5118446 0 .7071068-.1952622.1952621-.5118446.1952621-.7071068 0l-5.6812605-5.6812606c-1.260731 1.1143283-2.8373118 1.7531881-4.4651861 1.8623442v2.965363h3.5c.2761424 0 .5.2238576.5.5s-.2238576.5-.5.5h-8c-.27614237 0-.5-.2238576-.5-.5s.22385763-.5.5-.5zm1.8769888-8.4159044-3.8769888-3.8769888v1.7924534c.00088859 1.0104722.6099833 1.9210525 1.5435881 2.3076233.776279.321428 1.6499806.228014 2.3334007-.2230879zm2.1230145-4.7440956c0 .27614237-.2238594.5-.5000018.5-.2761423 0-.5-.22385763-.5-.5l.0000003-5.340502c.0012895-1.28438327-.9708728-2.36077711-2.2487535-2.48985597-1.2778808-.12907887-2.44566217.73115908-2.70124805 1.98985547-.05495095.27061967-.31887808.4454537-.58949775.39050275s-.4454537-.31887808-.39050275-.58949775c.35782022-1.76217494 1.99271405-2.96650808 3.78174725-2.78579766 1.7890327.18071038 3.1500596 1.6876613 3.1482563 3.48529516zm2.9999967.66c0-.27614237.2238576-.5.5-.5s.5.22385763.5.5v2.0004355c-.0003851.4419-.0398243.8829013-.1178573 1.3178572-.0487627.2718029-.3086325.4526127-.5804354.40385s-.4526127-.3086325-.40385-.5804354c.0676287-.3769617.1018093-.7591629.1021427-1.1417073z"/></svg>