<svg height="24" viewBox="0 0 24 24" width="24" xmlns="http://www.w3.org/2000/svg"><path d="m12.5 1c1.9329966 0 3.5 1.56700338 3.5 3.5v8c0 1.9329966-1.5670034 3.5-3.5 3.5s-3.5-1.5670034-3.5-3.5v-8c0-1.93299662 1.5670034-3.5 3.5-3.5zm0 1c-1.3807119 0-2.5 1.11928813-2.5 2.5v8c0 1.3807119 1.1192881 2.5 2.5 2.5s2.5-1.1192881 2.5-2.5v-8c0-1.38071187-1.1192881-2.5-2.5-2.5zm-.5 21v-3.0164023c-3.90901587-.257293-7-3.5094764-7-7.4835977v-2c0-.2761424.22385763-.5.5-.5s.5.2238576.5.5v2c0 3.5898508 2.91014917 6.5 6.5 6.5 3.5898508 0 6.5-2.9101492 6.5-6.5v-2c0-.2761424.2238576-.5.5-.5s.5.2238576.5.5v2c0 3.9741213-3.0909841 7.2263047-7 7.4835977v3.0164023h3.5c.2761424 0 .5.2238576.5.5s-.2238576.5-.5.5h-8c-.27614237 0-.5-.2238576-.5-.5s.22385763-.5.5-.5z"/></svg>