<?xml version="1.0" encoding="UTF-8"?>
<svg width="24px" height="24px" viewBox="0 0 24 24" version="1.1" xmlns="http://www.w3.org/2000/svg" xmlns:xlink="http://www.w3.org/1999/xlink">
    <!-- Generator: Sketch 55.2 (78181) - https://sketchapp.com -->
    <title>minimize</title>
    <desc>Created with Sketch.</desc>
    <g id="minimize" stroke="none" stroke-width="1" fill="none" fill-rule="evenodd">
        <path d="M8,3.5 C8,3.22385763 8.22385763,3 8.5,3 C8.77614237,3 9,3.22385763 9,3.5 L9,6.5 C9,7.88071187 7.88071187,9 6.5,9 L3.5,9 C3.22385763,9 3,8.77614237 3,8.5 C3,8.22385763 3.22385763,8 3.5,8 L6.5,8 C7.32842712,8 8,7.32842712 8,6.5 L8,3.5 Z M21.5,8 C21.7761424,8 22,8.22385763 22,8.5 C22,8.77614237 21.7761424,9 21.5,9 L18.5,9 C17.1192881,9 16,7.88071187 16,6.5 L16,3.5 C16,3.22385763 16.2238576,3 16.5,3 C16.7761424,3 17,3.22385763 17,3.5 L17,6.5 C17,7.32842712 17.6715729,8 18.5,8 L21.5,8 Z M17,21.5 C17,21.7761424 16.7761424,22 16.5,22 C16.2238576,22 16,21.7761424 16,21.5 L16,18.5 C16,17.1192881 17.1192881,16 18.5,16 L21.5,16 C21.7761424,16 22,16.2238576 22,16.5 C22,16.7761424 21.7761424,17 21.5,17 L18.5,17 C17.6715729,17 17,17.6715729 17,18.5 L17,21.5 Z M3.5,17 C3.22385763,17 3,16.7761424 3,16.5 C3,16.2238576 3.22385763,16 3.5,16 L6.5,16 C7.88071187,16 9,17.1192881 9,18.5 L9,21.5 C9,21.7761424 8.77614237,22 8.5,22 C8.22385763,22 8,21.7761424 8,21.5 L8,18.5 C8,17.6715729 7.32842712,17 6.5,17 L3.5,17 Z" id="Shape" fill="#000000" fill-rule="nonzero"></path>
    </g>
</svg>