<svg height="24" viewBox="0 0 24 24" width="24" xmlns="http://www.w3.org/2000/svg"><path d="m15.7071068 10h4.7928932c.2761424 0 .5.2238576.5.5s-.2238576.5-.5.5h-6c-.2761424 0-.5-.2238576-.5-.5v-6c0-.27614237.2238576-.5.5-.5s.5.22385763.5.5v4.79289322l6.1464466-6.14644661c.1952622-.19526215.5118446-.19526215.7071068 0 .1952621.19526215.1952621.51184463 0 .70710678zm-6.41421358 5h-4.79289322c-.27614237 0-.5-.2238576-.5-.5s.22385763-.5.5-.5h6c.2761424 0 .5.2238576.5.5v6c0 .2761424-.2238576.5-.5.5s-.5-.2238576-.5-.5v-4.7928932l-6.14644661 6.1464466c-.19526215.1952621-.51184463.1952621-.70710678 0-.19526215-.1952622-.19526215-.5118446 0-.7071068z"/></svg>