<?xml version="1.0" encoding="UTF-8"?>
<svg width="24px" height="24px" viewBox="0 0 24 24" version="1.1" xmlns="http://www.w3.org/2000/svg" xmlns:xlink="http://www.w3.org/1999/xlink">
    <!-- Generator: Sketch 55.2 (78181) - https://sketchapp.com -->
    <title>monitor</title>
    <desc>Created with Sketch.</desc>
    <g id="monitor" stroke="none" stroke-width="1" fill="none" fill-rule="evenodd">
        <path d="M13,18 L13,21 L16.5,21 C16.7761424,21 17,21.2238576 17,21.5 C17,21.7761424 16.7761424,22 16.5,22 L8.5,22 C8.22385763,22 8,21.7761424 8,21.5 C8,21.2238576 8.22385763,21 8.5,21 L12,21 L12,18 L4.5,18 C3.11928813,18 2,16.8807119 2,15.5 L2,5.5 C2,4.11928813 3.11928813,3 4.5,3 L20.5,3 C21.8807119,3 23,4.11928813 23,5.5 L23,15.5 C23,16.8807119 21.8807119,18 20.5,18 L13,18 Z M4.5,4 C3.67157288,4 3,4.67157288 3,5.5 L3,15.5 C3,16.3284271 3.67157288,17 4.5,17 L20.5,17 C21.3284271,17 22,16.3284271 22,15.5 L22,5.5 C22,4.67157288 21.3284271,4 20.5,4 L4.5,4 Z" id="Combined-Shape" fill="#000000" fill-rule="nonzero"></path>
    </g>
</svg>