<svg height="24" viewBox="0 0 24 24" width="24" xmlns="http://www.w3.org/2000/svg"><path d="m21.1646852 12.8880805c.3473235-.2567282.8348265.0180187.7950822.4480924-.4619631 4.9989089-4.7336173 8.7755037-9.7514582 8.6213221-5.01784098-.1541816-9.04957122-4.1859118-9.20375282-9.2037528-.1541816-5.01784093 3.62241321-9.28949509 8.62132212-9.75145815.4300737-.03974431.7048206.44775863.4480924.79508218-1.9125211 2.58741944-1.6442618 6.18470653.630873 8.45984127 2.2751347 2.2751348 5.8724218 2.5433941 8.4598413.630873zm-9.1669481.0762338c-2.35432335-2.3543234-2.84617157-5.93566654-1.3308031-8.80308364-3.93976469.86579141-6.78976779 4.43123804-6.66284935 8.56179934.13795195 4.4896472 3.74528954 8.0969848 8.23493675 8.2349367 4.1305613.1269185 7.6960079-2.7230846 8.5617993-6.6628493-2.8674171 1.5153685-6.4487602 1.0235202-8.8030836-1.3308031z"/></svg>