<?xml version="1.0" encoding="UTF-8"?>
<svg width="24px" height="24px" viewBox="0 0 24 24" version="1.1" xmlns="http://www.w3.org/2000/svg" xmlns:xlink="http://www.w3.org/1999/xlink">
    <!-- Generator: Sketch 55.2 (78181) - https://sketchapp.com -->
    <title>moon</title>
    <desc>Created with Sketch.</desc>
    <g id="moon" stroke="none" stroke-width="1" fill="none" fill-rule="evenodd">
        <path d="M21.1646852,12.8880805 C21.5120087,12.6313523 21.9995117,12.9060992 21.9597674,13.3361729 C21.4978043,18.3350818 17.2261501,22.1116766 12.2083092,21.957495 C7.19046822,21.8033134 3.15873798,17.7715832 3.00455638,12.7537422 C2.85037478,7.73590127 6.62696959,3.46424711 11.6258785,3.00228405 C12.0559522,2.96253974 12.3306991,3.45004268 12.0739709,3.79736623 C10.1614498,6.38478567 10.4297091,9.98207276 12.7048439,12.2572075 C14.9799786,14.5323423 18.5772657,14.8006016 21.1646852,12.8880805 Z M11.9977371,12.9643143 C9.64341375,10.6099909 9.15156553,7.02864776 10.666934,4.16123066 C6.72716931,5.02702207 3.87716621,8.5924687 4.00408465,12.72303 C4.1420366,17.2126772 7.74937419,20.8200148 12.2390214,20.9579667 C16.3695827,21.0848852 19.9350293,18.2348821 20.8008207,14.2951174 C17.9334036,15.8104859 14.3520605,15.3186376 11.9977371,12.9643143 Z" id="Shape" fill="#000000" fill-rule="nonzero"></path>
    </g>
</svg>