<svg height="24" viewBox="0 0 24 24" width="24" xmlns="http://www.w3.org/2000/svg"><path d="m3.70710678 12h8.29289322v-8.29289322l-2.14644661 2.14644661c-.19526215.19526215-.51184463.19526215-.70710678 0s-.19526215-.51184463 0-.70710678l2.99999999-3c.1952622-.19526215.5118446-.19526215.7071068 0l3 3c.1952621.19526215.1952621.51184463 0 .70710678-.1952622.19526215-.5118446.19526215-.7071068 0l-2.1464466-2.14644661v8.29289322h8.2928932l-2.1464466-2.14644661c-.1952621-.19526215-.1952621-.51184463 0-.70710678.1952622-.19526215.5118446-.19526215.7071068 0l3 2.99999999c.1952621.1952622.1952621.5118446 0 .7071068l-3 3c-.1952622.1952621-.5118446.1952621-.7071068 0-.1952621-.1952622-.1952621-.5118446 0-.7071068l2.1464466-2.1464466h-8.2928932v8.2928932l2.1464466-2.1464466c.1952622-.1952621.5118446-.1952621.7071068 0 .1952621.1952622.1952621.5118446 0 .7071068l-3 3c-.1952622.1952621-.5118446.1952621-.7071068 0l-2.99999999-3c-.19526215-.1952622-.19526215-.5118446 0-.7071068.19526215-.1952621.51184463-.1952621.70710678 0l2.14644661 2.1464466v-8.2928932h-8.29289322l2.14644661 2.1464466c.19526215.1952622.19526215.5118446 0 .7071068-.19526215.1952621-.51184463.1952621-.70710678 0l-3-3c-.19526215-.1952622-.19526215-.5118446 0-.7071068l3-2.99999999c.19526215-.19526215.51184463-.19526215.70710678 0s.19526215.51184463 0 .70710678z"/></svg>