<svg height="24" viewBox="0 0 24 24" width="24" xmlns="http://www.w3.org/2000/svg"><path d="m9 17.5000003v1.9999997c0 1.3807119-.95938982 2.5-2.14285714 2.5h-1.71428572c-1.18346732 0-2.14285714-1.1192881-2.14285714-2.5s.95938982-2.5 2.14285714-2.5h2.85714286v-11.49989689c0-.24441756.17670652-.45301089.41780051-.49319289l11.99999999-1.99998351c.3047659-.05079389.5821995.18422573.5821995.4931929v11.99990099 1.9999794c0 1.3807119-.9593898 2.5-2.1428571 2.5h-1.7142858c-1.1834673 0-2.1428571-1.1192881-2.1428571-2.5s.9593898-2.5 2.1428571-2.5h2.8571429v-10.90965505l-11 1.83331821v11.57633684zm-1 .4999997h-2.8c-.6627417 0-1.2.6715729-1.2 1.5s.5372583 1.5 1.2 1.5h1.6c.6627417 0 1.2-.6715729 1.2-1.5zm12-2h-2.8c-.6627417 0-1.2.6715729-1.2 1.5s.5372583 1.5 1.2 1.5h1.6c.6627417 0 1.2-.6715729 1.2-1.5z"/></svg>