<svg height="24" viewBox="0 0 24 24" width="24" xmlns="http://www.w3.org/2000/svg"><path d="m8 17v-11.49989689c0-.24441756.17670652-.45301089.41780051-.49319289l11.99999999-1.99998351c.3047659-.05079389.5821995.18422573.5821995.4931929v11.49988039h.5c.2761424 0 .5.2238576.5.5v2c0 1.3807119-1.1192881 2.5-2.5 2.5h-2c-1.3807119 0-2.5-1.1192881-2.5-2.5s1.1192881-2.5 2.5-2.5h2.5v-10.90965505l-11 1.83331821v11.07633684h.5c.27614237 0 .5.2238576.5.5v2c0 1.3807119-1.11928813 2.5-2.5 2.5h-2c-1.38071187 0-2.5-1.1192881-2.5-2.5s1.11928813-2.5 2.5-2.5zm12.4958953-1h-2.9958953c-.8284271 0-1.5.6715729-1.5 1.5s.6715729 1.5 1.5 1.5h2c.8284271 0 1.5-.6715729 1.5-1.5v-1.5h-.4958953c-.0013669.000011-.0027352.0000165-.0041047.0000165s-.0027378-.0000055-.0041047-.0000165zm-11.4958953 2h-3.5c-.82842712 0-1.5.6715729-1.5 1.5s.67157288 1.5 1.5 1.5h2c.82842712 0 1.5-.6715729 1.5-1.5z"/></svg>