<svg height="24" viewBox="0 0 24 24" width="24" xmlns="http://www.w3.org/2000/svg"><path d="m7.72042534 2.13947296c.08930304-.08930304.21042395-.13947296.33671752-.13947296h7.88571424c.1262936 0 .2474145.05016992.3367176.13947296l5.5809523 5.58095238c.0893031.08930304.139473.21042395.139473.33671752v7.88571424c0 .1262936-.0501699.2474145-.139473.3367176l-5.5809523 5.5809523c-.0893031.0893031-.210424.139473-.3367176.139473h-7.88571424c-.12629357 0-.24741448-.0501699-.33671752-.139473l-5.58095238-5.5809523c-.08930304-.0893031-.13947296-.210424-.13947296-.3367176v-7.88571424c0-.12629357.05016992-.24741448.13947296-.33671752zm.55367582.86052704-5.27410116 5.27410116v7.45179764l5.27410116 5.2741012h7.45179764l5.2741012-5.2741012v-7.45179764l-5.2741012-5.27410116z"/></svg>