<?xml version="1.0" encoding="UTF-8"?>
<svg width="24px" height="24px" viewBox="0 0 24 24" version="1.1" xmlns="http://www.w3.org/2000/svg" xmlns:xlink="http://www.w3.org/1999/xlink">
    <!-- Generator: Sketch 55.2 (78181) - https://sketchapp.com -->
    <title>package</title>
    <desc>Created with Sketch.</desc>
    <g id="package" stroke="none" stroke-width="1" fill="none" fill-rule="evenodd">
        <path d="M16.2288114,8.94461128 C16.2255875,8.94626715 16.2223466,8.94788756 16.2190894,8.9494723 L11.5,11.309017 L11.5,22.1838682 C11.5564881,22.1636694 11.6120585,22.1399755 11.6663932,22.1127864 L19.6675001,18.1122347 C20.1772433,17.8589372 20.499698,17.3389427 20.5000001,16.77 L20.5000001,7.24026532 C20.4999266,7.10180966 20.4807923,6.96626582 20.4445223,6.83675585 L16.2288131,8.94461045 Z M7.1230333,3.50249966 L16,7.94098301 L19.8590057,6.01148013 C19.7983079,5.96906509 19.7340004,5.93080864 19.6663932,5.8972136 L11.6663932,1.8972136 C11.2470255,1.68882642 10.7529745,1.68882642 10.3336068,1.8972136 L7.1230333,3.50249966 Z M6.00499907,4.06151653 L2.33249993,5.89776532 C2.26526281,5.93117624 2.20128399,5.96922753 2.14087278,6.0114194 L11,10.440983 L14.881966,8.5 L6.00499907,4.06151653 Z M5.71810627,3.08693068 C5.75535434,3.06156092 5.79575512,3.04142884 5.83807929,3.02694421 L9.8875,1.00223472 C10.5882908,0.654003279 11.4117092,0.654003279 12.1125,1.00223472 L20.1124999,5.00223468 C20.962072,5.42439719 21.4994965,6.29105471 21.5,7.24 L21.5,16.7702653 C21.4994965,17.7189453 20.962072,18.5856028 20.1136068,19.0072136 L12.11375,23.007142 C11.4095401,23.3595289 10.5804599,23.3595289 9.8763932,23.0072136 L1.87501211,19.0065204 C1.02626966,18.5788652 0.493409917,17.7069407 0.499833284,16.76 L0.499833284,7.2397026 C0.500515667,6.29102669 1.03794504,5.42438871 1.8863932,5.0027864 L5.7181062,3.08693073 Z M10.5,22.1874177 L10.5,11.309017 L1.55538384,6.83670892 C1.51912229,6.96615632 1.49997085,7.10163093 1.49986835,7.24 L1.49986835,16.7634476 C1.49600726,17.3337088 1.8157348,17.8568826 2.3236068,18.1127864 L10.32375,22.112858 C10.3812387,22.1416254 10.4401144,22.1664787 10.5,22.1874177 Z" id="Combined-Shape" fill="#000000" fill-rule="nonzero"></path>
    </g>
</svg>