<svg height="24" viewBox="0 0 24 24" width="24" xmlns="http://www.w3.org/2000/svg"><path d="m21.5847832 10.8086709-9.19 9.19c-2.1491866 2.1491867-5.63370662 2.1491867-7.78289324 0-2.14918661-2.1491866-2.14918661-5.6337066 0-7.7828932l9.19000004-9.18999997c1.3677037-1.36770366 3.5851895-1.36770364 4.9528931.00000004 1.3677037 1.36770368 1.3677037 3.58518948.0000001 4.95289318l-9.19980771 9.18980775c-.58641308.586413-1.53686475.586413-2.12308553.0001922-.58622077-.5862207-.58622077-1.5366724 0-2.1228932l8.48979164-8.47979169c.1953771-.19514705.1955637-.51172948.0004166-.70710666-.195147-.19537717-.5117294-.19556373-.7071066-.00041668l-8.49000002 8.48000003c-.97695347.9769533-.97695347 2.56057-.0002084 3.537315.97674507.9767451 2.56036172.9767451 3.53710682 0l9.1998077-9.18980777c1.7584202-1.7584202 1.7584202-4.60907097.0001922-6.36729894-1.7582279-1.75822797-4.6088787-1.75822799-6.3671067-.00000005l-9.19000002 9.18999996c-2.53971091 2.539711-2.53971091 6.6573959 0 9.1971068s6.65739592 2.5397109 9.19710682 0l9.19-9.19c.1952621-.1952621.1952621-.5118446 0-.7071068-.1952622-.1952621-.5118447-.1952621-.7071068 0z"/></svg>