<svg height="24" viewBox="0 0 24 24" width="24" xmlns="http://www.w3.org/2000/svg"><path d="m12.5 23c-5.79898987 0-10.5-4.7010101-10.5-10.5 0-5.79898987 4.70101013-10.5 10.5-10.5 5.7989899 0 10.5 4.70101013 10.5 10.5 0 5.7989899-4.7010101 10.5-10.5 10.5zm0-1c5.2467051 0 9.5-4.2532949 9.5-9.5 0-5.24670512-4.2532949-9.5-9.5-9.5-5.24670512 0-9.5 4.25329488-9.5 9.5 0 5.2467051 4.25329488 9.5 9.5 9.5zm-1.5-6.5c0 .2761424-.2238576.5-.5.5s-.5-.2238576-.5-.5v-6c0-.27614237.2238576-.5.5-.5s.5.22385763.5.5zm4 0c0 .2761424-.2238576.5-.5.5s-.5-.2238576-.5-.5v-6c0-.27614237.2238576-.5.5-.5s.5.22385763.5.5z"/></svg>