<svg height="24" viewBox="0 0 24 24" width="24" xmlns="http://www.w3.org/2000/svg"><path d="m8.41461924 9.12172602-6.01119003-6.01119003 3.0081193 12.46220851 6.92453509 1.384907 4.6215679-4.6215679-1.384907-6.92453509-12.46220851-3.0081193 6.01119003 6.01119003c.39521651-.26175989.86915378-.41419827 1.37869498-.41419827 1.3807118 0 2.5 1.11928813 2.5 2.50000003 0 1.3807118-1.1192882 2.5-2.5 2.5-1.3807119 0-2.50000003-1.1192882-2.50000003-2.5 0-.5095412.15243838-.98347847.41419827-1.37869498zm1.0144677.32881646c-.26516718.27055205-.42866597.64112172-.42866597 1.04987852 0 .8284271.67157287 1.5 1.50000003 1.5.8284271 0 1.5-.6715729 1.5-1.5 0-.82842716-.6715729-1.50000003-1.5-1.50000003-.4087568 0-.77932647.16349879-1.04987852.42866597-.00345675.00366912-.00697946.00729876-.01056812.01088742s-.0072183.00711137-.01088742.01056812zm2.05716006 8.35694562-6.5838841-1.3167768c-.19091242-.0381825-.34230011-.1837122-.38798303-.3729701l-3.5-14.49999996c-.08772969-.36345157.2399098-.69109106.60336137-.60336137l14.49999996 3.5c.1892579.04568292.3347876.19707061.3729701.38798303l1.3167768 6.5838841.3393795-.3393794c.1952621-.1952622.5118446-.1952622.7071068 0l3 3c.1952621.1952621.1952621.5118446 0 .7071068l-7 7c-.1952622.1952621-.5118447.1952621-.7071068 0l-3-3c-.1952622-.1952622-.1952622-.5118447 0-.7071068zm1.3677274.0464863-.6464466.6464466 2.2928932 2.2928932 6.2928932-6.2928932-2.2928932-2.2928932-.6464466.6464466z"/></svg>