<?xml version="1.0" encoding="UTF-8"?>
<svg width="24px" height="24px" viewBox="0 0 24 24" version="1.1" xmlns="http://www.w3.org/2000/svg" xmlns:xlink="http://www.w3.org/1999/xlink">
    <!-- Generator: Sketch 55.2 (78181) - https://sketchapp.com -->
    <title>percent</title>
    <desc>Created with Sketch.</desc>
    <g id="percent" stroke="none" stroke-width="1" fill="none" fill-rule="evenodd">
        <path d="M19.1464466,5.14644661 L5.14644661,19.1464466 C4.95118446,19.3417088 4.95118446,19.6582912 5.14644661,19.8535534 C5.34170876,20.0488155 5.65829124,20.0488155 5.85355339,19.8535534 L19.8535534,5.85355339 C20.0488155,5.65829124 20.0488155,5.34170876 19.8535534,5.14644661 C19.6582912,4.95118446 19.3417088,4.95118446 19.1464466,5.14644661 Z" id="Shape" fill="#000000" fill-rule="nonzero"></path>
        <path d="M7,10 C8.65685425,10 10,8.65685425 10,7 C10,5.34314575 8.65685425,4 7,4 C5.34314575,4 4,5.34314575 4,7 C4,8.65685425 5.34314575,10 7,10 Z M7,9 C5.8954305,9 5,8.1045695 5,7 C5,5.8954305 5.8954305,5 7,5 C8.1045695,5 9,5.8954305 9,7 C9,8.1045695 8.1045695,9 7,9 Z" id="Oval" fill="#000000" fill-rule="nonzero"></path>
        <path d="M18,21 C19.6568542,21 21,19.6568542 21,18 C21,16.3431458 19.6568542,15 18,15 C16.3431458,15 15,16.3431458 15,18 C15,19.6568542 16.3431458,21 18,21 Z M18,20 C16.8954305,20 16,19.1045695 16,18 C16,16.8954305 16.8954305,16 18,16 C19.1045695,16 20,16.8954305 20,18 C20,19.1045695 19.1045695,20 18,20 Z" id="Oval" fill="#000000" fill-rule="nonzero"></path>
    </g>
</svg>