<svg height="24" viewBox="0 0 24 24" width="24" xmlns="http://www.w3.org/2000/svg"><path d="m22.8881215 20.4182837c.0028573.7039314-.29119 1.3764479-.8099027 1.8523311-.5187126.4758831-1.2140174.711029-1.9241044.6467726-3.1549116-.3428069-6.1854263-1.4208695-8.8441495-3.1450673-2.47812503-1.5747038-4.57914244-3.6757212-6.15147923-6.1501571-1.73272083-2.674708-2.81102827-5.71996061-3.14833092-8.89684959-.06315849-.69890959.17034001-1.39218447.64345722-1.91047368.47308235-.51825102 1.14220728-.8138408 1.84451364-.8147216h2.99512814c1.25482237-.01210675 2.3243312.90770766 2.50057905 2.15481631.1216922.92268069.3473743 1.82863316.672319 2.6994483.3434187.91359379.1237688 1.94350784-.5644728 2.63948384l-.99713942.99713942c1.30535732 2.170167 3.12272752 3.987537 5.29289472 5.2928941l.9991218-.9991131c.6939921-.6862688 1.7239062-.9059187 2.6363719-.5629224.8719432.3253671 1.7778957.5510492 2.7050438.6733511 1.2547937.1770207 2.1783095 1.2647438 2.1501538 2.5309605zm-.9999959-2.9979705.0001539-.0124025c.0188925-.7614056-.535828-1.4161048-1.2855326-1.5218903-.9974523-.1315538-1.9768206-.3755246-2.9205517-.7276811-.5481563-.2060512-1.1661047-.0742613-1.5805162.3355273l-1.27 1.27c-.1591565.1591565-.4050387.1923503-.6007006.0810938-2.5817817-1.4680415-4.71945846-3.6057183-6.18750004-6.1875-.11125645-.1956619-.07806264-.4415441.08109386-.6007006l1.26802724-1.26801617c.4117613-.4163953.54355125-1.03434373.33707753-1.58362802-.35173398-.94260307-.59570475-1.92197146-.72663056-2.91482664-.10537373-.74551989-.74710935-1.29743462-1.50492082-1.29014686h-2.99944157c-.421123.00054278-.82264808.17791879-1.10651323.48888665-.28387033.31097352-.42396943.72693845-.38684083 1.13848464.31994985 3.0128997 1.34511251 5.9080659 2.99480252 8.454639 1.49596856 2.3542188 3.4919351 4.3501853 5.8500437 5.848651 2.5313852 1.6415941 5.4125399 2.666524 8.4029535 2.9915393.420648.0380161.8378309-.1030715 1.1490584-.3886014.3112276-.2855299.487656-.6890398.4859375-1.1134281z"/></svg>