<svg height="24" viewBox="0 0 24 24" width="24" xmlns="http://www.w3.org/2000/svg"><path d="m16.2071068 7.5h4.7928932c.2761424 0 .5.22385763.5.5s-.2238576.5-.5.5h-6c-.2761424 0-.5-.22385763-.5-.5v-6c0-.27614237.2238576-.5.5-.5s.5.22385763.5.5v4.79289322l6.1464466-6.14644661c.1952622-.19526215.5118446-.19526215.7071068 0 .1952621.19526215.1952621.51184463 0 .70710678zm5.2928891 12.4179705c.0028572.7039314-.2911901 1.376448-.8099027 1.8523311-.5187126.4758832-1.2140174.7110291-1.9241044.6467726-3.1549116-.3428069-6.1854263-1.4208695-8.84414954-3.1450673-2.478125-1.5747037-4.57914241-3.6757212-6.1514792-6.1501571-1.73272083-2.674708-2.81102827-5.71996059-3.14833092-8.89684958-.06315849-.69890958.17034001-1.39218447.64345722-1.91047368.47308235-.51825101 1.14220728-.8138408 1.84451364-.8147216h2.99512814c1.25482237-.01210675 2.3243312.90770767 2.50057905 2.15481632.12169221.92268068.34737432 1.82863315.67231896 2.6994483.34341876.91359379.12376884 1.94350783-.56447276 2.63948383l-.99713942.99713942c1.30535731 2.17016709 3.12272753 3.98753699 5.29289473 5.29289409l.9991217-.9991131c.6939922-.6862688 1.7239063-.9059187 2.636372-.5629224.8719432.3253671 1.7778957.5510492 2.7050438.6733511 1.2547937.1770207 2.1783095 1.2647439 2.1501538 2.5309605zm-.9999959-2.9979705.0001538-.0124025c.0188926-.7614056-.5358279-1.4161048-1.2855325-1.5218903-.9974523-.1315538-1.9768207-.3755246-2.9205517-.727681-.5481563-.2060513-1.1661047-.0742614-1.5805162.3355272l-1.27 1.27c-.1591565.1591565-.4050387.1923503-.6007007.0810939-2.5817816-1.4680416-4.71945837-3.6057184-6.18749995-6.1875-.11125645-.19566197-.07806264-.44154419.08109386-.60070069l1.26802724-1.26801617c.4117613-.4163953.54355125-1.03434373.33707753-1.58362802-.35173398-.94260307-.59570475-1.92197146-.72663056-2.91482664-.10537373-.74551989-.74710935-1.29743462-1.50492082-1.29014686h-2.99944157c-.421123.00054278-.82264808.1779188-1.10651323.48888665-.28387033.31097353-.42396943.72693846-.38684083 1.13848464.31994985 3.0128997 1.34511251 5.90806589 2.99480252 8.45463909 1.49596856 2.3542187 3.4919351 4.3501853 5.85004371 5.8486509 2.5313852 1.6415941 5.4125399 2.666524 8.4029535 2.9915393.420648.0380161.8378308-.1030715 1.1490584-.3886014.3112276-.2855298.487656-.6890398.4859375-1.1134281z"/></svg>