<svg height="24" viewBox="0 0 24 24" width="24" xmlns="http://www.w3.org/2000/svg"><path d="m7.85912426 16.8479825-6.50557087 6.5055709c-.19526215.1952621-.51184463.1952621-.70710678 0-.19526215-.1952622-.19526215-.5118446 0-.7071068l9.62541179-9.6254118c.0161252-.0227181.0343732-.0443911.054744-.0647439.0202626-.0202448.0418296-.0383882.0644302-.0544302l12.255414-12.25541409c.1952622-.19526215.5118446-.19526215.7071068 0 .1952621.19526215.1952621.51184463 0 .70710678l-11.9557433 11.95574331c.7982762.7483565 1.6736462 1.4101667 2.6114989 1.9742899l.9991214-.9991128c.6939922-.6862688 1.7239063-.9059187 2.636372-.5629224.8719432.3253671 1.7778957.5510492 2.7051734.6733694 1.2425116.1756199 2.162326 1.2451287 2.1501225 2.4950792l-.0000038 2.9980578c.0027344.7039223-.2913267 1.3763956-.8100013 1.8522438-.5187126.4758832-1.2140174.7110291-1.9241044.6467726-3.1549116-.3428069-6.1854263-1.4208695-8.8440022-3.1449737-1.09690206-.6964798-2.12269363-1.4983978-3.06286229-2.394118zm.70732605-.707326c.88823624.8440626 1.85701859 1.6003605 2.89560029 2.2598337 2.5313852 1.6415941 5.4125399 2.666524 8.4029535 2.9915393.420648.0380161.8378308-.1030715 1.1490584-.3886014.3112219-.2855246.4876805-.6890587.4860358-1.1134281l.0000238-3.0048719c.0073367-.7529396-.544578-1.3946752-1.2855008-1.4994209-.9974523-.1315538-1.9768207-.3755246-2.9205517-.727681-.5481563-.2060513-1.1661047-.0742614-1.5805162.3355272l-1.27 1.27c-.1591563.1591563-.4050381.1923502-.6007.0810942-1.1400982-.6482754-2.1983098-1.4298681-3.1524959-2.3278983l-2.12390722 2.1239072zm-2.9569405-3.6027071c.15024939.2316889.08422965.541311-.14745922.6915604s-.54131101.0842297-.6915604-.1474592c-1.72669493-2.6626131-2.80475752-5.69312781-3.14846105-8.85705038-.06315849-.69890958.17034001-1.39218447.64345722-1.91047368.47308235-.51825101 1.14220728-.8138408 1.84451364-.8147216l2.99512814.00012048c1.25482237-.01222723 2.3243312.90758719 2.50057905 2.15469584.12169221.92268068.34737432 1.82863315.67231901 2.6994483.3434187.91359379.1237688 1.94350783-.56447281 2.63948383l-1.27 1.27000001c-.19526215.1952621-.51184463.1952621-.70710678 0-.19526215-.1952622-.19526215-.51184464 0-.70710679l1.26802724-1.26801617c.4117613-.4163953.54355125-1.03434373.33707753-1.58362802-.35173398-.94260307-.59570475-1.92197146-.72663056-2.91482664-.10537373-.74551989-.74710935-1.29743462-1.50492082-1.2900741l-2.99944157-.00000031c-.421123.00047033-.82264808.17784635-1.10651323.4888142-.28387033.31097353-.42396943.72693846-.38697097 1.13727326.32591155 2.99942065 1.35084143 5.88057537 2.99243558 8.41196057z"/></svg>