<svg height="24" viewBox="0 0 24 24" width="24" xmlns="http://www.w3.org/2000/svg"><path d="m14.6964466 6.35355339c-.3489482-.34894826-.0350545-.93880008.4493003-.8443003 2.1977884.42879832 3.9162017 2.14721157 4.345 4.345.0944998.48435481-.495352.79824851-.8443003.44930031zm.0002226-3.99977757c-.3345246-.33410376-.0613638-.90292095.4085372-.85071873 4.4117454.49010947 7.8960047 3.96998606 8.3916666 8.38111111.0527937.4698349-.5156793.7437114-.8502038.4096076zm7.4711532 6.04843113c-.8313025-2.6558006-2.9221383-4.74400647-5.5789831-5.57196554zm.3321735 12.51576355c.0028572.7039314-.2911901 1.376448-.8099027 1.8523311-.5187126.4758832-1.2140174.7110291-1.9241044.6467726-3.1549116-.3428069-6.1854263-1.4208695-8.8441495-3.1450673-2.47812504-1.5747037-4.57914245-3.6757212-6.15147924-6.1501571-1.73272083-2.674708-2.81102827-5.71996059-3.14833092-8.89684958-.06315849-.69890958.17034001-1.39218447.64345722-1.91047368.47308235-.51825101 1.14220728-.8138408 1.84451364-.81462486l2.99512814.00002374c1.25482237-.01222723 2.3243312.90758719 2.50057905 2.15469584.12169221.92268068.34737432 1.82863315.67231901 2.6994483.3434187.91359379.1237688 1.94350783-.56447281 2.63948383l-.99713942.99713941c1.30535733 2.1701671 3.12272753 3.987537 5.29289473 5.2928941l.9991217-.9991131c.6939922-.6862688 1.7239063-.9059187 2.636372-.5629224.8719432.3253671 1.7778957.5510492 2.7050438.6733511 1.2547937.1770207 2.1783095 1.2647439 2.1501538 2.5309605zm-.9999959-2.9979705.0001538-.0124025c.0188926-.7614056-.5358279-1.4161048-1.2855325-1.5218903-.9974523-.1315538-1.9768207-.3755246-2.9205517-.727681-.5481563-.2060513-1.1661047-.0742614-1.5805162.3355272l-1.27 1.27c-.1591565.1591565-.4050387.1923503-.6007007.0810939-2.5817816-1.4680416-4.71945837-3.6057184-6.18749995-6.1875-.11125645-.195662-.07806264-.4415442.08109386-.6007007l1.26802724-1.26801616c.4117613-.4163953.54355125-1.03434373.33707753-1.58362802-.35173398-.94260307-.59570475-1.92197146-.72663056-2.91482664-.10537373-.74551989-.74710935-1.29743462-1.50492082-1.29014686h-2.99944157c-.421123.00054278-.82264808.1779188-1.10651323.48888665-.28387033.31097353-.42396943.72693846-.38684083 1.13848464.31994985 3.0128997 1.34511251 5.90806589 2.99480252 8.45463909 1.49596856 2.3542187 3.4919351 4.3501853 5.85004371 5.8486509 2.5313852 1.6415941 5.4125399 2.666524 8.4029535 2.9915393.420648.0380161.8378308-.1030715 1.1490584-.3886014.3112276-.2855298.487656-.6890398.4859375-1.1134281z"/></svg>