<svg height="24" viewBox="0 0 24 24" width="24" xmlns="http://www.w3.org/2000/svg"><path d="m20.2504362 16.1952664c.1075484-.2543383.4009156-.373335.6552538-.2657866.2543383.1075485.373335.4009156.2657865.6552538-1.8376583 4.3458272-6.3484851 6.9321456-11.0273387 6.3226126-4.67885363-.6095331-8.37651137-4.2652038-9.03943485-8.9367918-.66292347-4.67158796 1.87171496-9.21165505 6.19627358-11.09882076.25309353-.11044582.5478004.00519299.65824622.25828651.11044582.25309353-.005193.54780039-.25828652.65824621-3.9126959 1.70743565-6.2059402 5.81511539-5.60615229 10.04179024.59978791 4.2266748 3.94528777 7.5341864 8.17853626 8.0856687 4.2332485.5514823 8.3144727-1.7885201 9.977116-5.7204589zm1.7505202-3.6952664c0 .2761424-.2238576.5-.5.5h-10c-.2761424 0-.5-.2238576-.5-.5v-10c0-.27614237.2238576-.5.5-.5 2.7847731 0 5.4554892 1.10624682 7.4246212 3.0753788 1.969132 1.96913197 3.0753788 4.63984806 3.0753788 7.4246212zm-10-.5h8.9868456c-.1231008-2.33741372-1.1059446-4.55412779-2.7693312-6.21751442s-3.8801007-2.64623045-6.2175144-2.76933115z"/></svg>