<?xml version="1.0" encoding="UTF-8"?>
<svg width="24px" height="24px" viewBox="0 0 24 24" version="1.1" xmlns="http://www.w3.org/2000/svg" xmlns:xlink="http://www.w3.org/1999/xlink">
    <!-- Generator: Sketch 55.2 (78181) - https://sketchapp.com -->
    <title>pie-chart</title>
    <desc>Created with Sketch.</desc>
    <g id="pie-chart" stroke="none" stroke-width="1" fill="none" fill-rule="evenodd">
        <path d="M20.2504362,16.1952664 C18.5877929,20.1272052 14.5065687,22.4672076 10.2733202,21.9157253 C6.04007171,21.364243 2.69457185,18.0567314 2.09478394,13.8300566 C1.49499603,9.60338175 3.78824033,5.49570201 7.70093623,3.78826636 C7.95402975,3.67782054 8.06966857,3.38311368 7.95922275,3.13002015 C7.84877693,2.87692663 7.55407006,2.76128782 7.30097653,2.87173364 C2.97641791,4.75889935 0.441779476,9.29896644 1.10470295,13.9705544 C1.76762643,18.6421424 5.46528417,22.2978131 10.1441378,22.9073462 C14.8229914,23.5168792 19.3338182,20.9305608 21.1714765,16.5847336 C21.279025,16.3303954 21.1600283,16.0370283 20.90569,15.9294798 C20.6513518,15.8219314 20.3579846,15.9409281 20.2504362,16.1952664 Z" id="Shape" fill="#000000" fill-rule="nonzero"></path>
        <path d="M22.0009564,12.5 C22.0009564,9.71522686 20.8947096,7.04451077 18.9255776,5.0753788 C16.9564456,3.10624682 14.2857295,2 11.5009564,2 C11.224814,2 11.0009564,2.22385763 11.0009564,2.5 L11.0009564,12.5 C11.0009564,12.7761424 11.224814,13 11.5009564,13 L21.5009564,13 C21.7770988,13 22.0009564,12.7761424 22.0009564,12.5 Z M12.0009564,12 L12.0009564,3.01315443 C14.3383701,3.13625513 16.5550842,4.11909895 18.2184708,5.78248558 C19.8818574,7.44587221 20.8647012,9.66258628 20.987802,12 L12.0009564,12 Z" id="Shape" fill="#000000" fill-rule="nonzero"></path>
    </g>
</svg>