<svg height="24" viewBox="0 0 24 24" width="24" xmlns="http://www.w3.org/2000/svg"><path d="m12.5 23c-5.79898987 0-10.5-4.7010101-10.5-10.5 0-5.79898987 4.70101013-10.5 10.5-10.5 5.7989899 0 10.5 4.70101013 10.5 10.5 0 5.7989899-4.7010101 10.5-10.5 10.5zm0-1c5.2467051 0 9.5-4.2532949 9.5-9.5 0-5.24670512-4.2532949-9.5-9.5-9.5-5.24670512 0-9.5 4.25329488-9.5 9.5 0 5.2467051 4.25329488 9.5 9.5 9.5zm-2.5-13.5c0-.39934769.4450727-.63754339.7773501-.41602515l6 4.00000005c.2968665.197911.2968665.6341392 0 .8320502l-6 4c-.3322774.2215183-.7773501-.0166774-.7773501-.4160251zm1 .93425855v6.13148295l4.5986122-3.0657415z"/></svg>