<svg height="24" viewBox="0 0 24 24" width="24" xmlns="http://www.w3.org/2000/svg"><path d="m4.5 3h16c1.3807119 0 2.5 1.11928813 2.5 2.5v6c0 5.7989899-4.7010101 10.5-10.5 10.5-2.78477314 0-5.45548923-1.1062468-7.4246212-3.0753788-1.96913198-1.969132-3.0753788-4.6398481-3.0753788-7.4246212v-6c0-1.38071187 1.11928813-2.5 2.5-2.5zm0 1c-.82842712 0-1.5.67157288-1.5 1.5v6c0 2.5195567 1.00088998 4.9359188 2.78248558 6.7175144 1.78159559 1.7815956 4.19795777 2.7824856 6.71751442 2.7824856 5.2467051 0 9.5-4.2532949 9.5-9.5v-6c0-.82842712-.6715729-1.5-1.5-1.5zm4.35355339 6.1464466 3.64644661 3.6464466 3.6464466-3.6464466c.1952622-.19526214.5118446-.19526214.7071068 0 .1952621.1952622.1952621.5118446 0 .7071068l-4 4c-.1952622.1952621-.5118446.1952621-.7071068 0l-3.99999999-4c-.19526215-.1952622-.19526215-.5118446 0-.7071068.19526215-.19526214.51184463-.19526214.70710678 0z"/></svg>