<?xml version="1.0" encoding="UTF-8"?>
<svg width="24px" height="24px" viewBox="0 0 24 24" version="1.1" xmlns="http://www.w3.org/2000/svg" xmlns:xlink="http://www.w3.org/1999/xlink">
    <!-- Generator: Sketch 55.2 (78181) - https://sketchapp.com -->
    <title>pocket</title>
    <desc>Created with Sketch.</desc>
    <g id="pocket" stroke="none" stroke-width="1" fill="none" fill-rule="evenodd">
        <path d="M4.5,3 L20.5,3 C21.8807119,3 23,4.11928813 23,5.5 L23,11.5 C23,17.2989899 18.2989899,22 12.5,22 C9.71522686,22 7.04451077,20.8937532 5.0753788,18.9246212 C3.10624682,16.9554892 2,14.2847731 2,11.5 L2,5.5 C2,4.11928813 3.11928813,3 4.5,3 Z M4.5,4 C3.67157288,4 3,4.67157288 3,5.5 L3,11.5 C3,14.0195567 4.00088998,16.4359188 5.78248558,18.2175144 C7.56408117,19.99911 9.98044335,21 12.5,21 C17.7467051,21 22,16.7467051 22,11.5 L22,5.5 C22,4.67157288 21.3284271,4 20.5,4 L4.5,4 Z" id="Shape" fill="#000000" fill-rule="nonzero"></path>
        <path d="M8.85355339,10.1464466 C8.65829124,9.95118446 8.34170876,9.95118446 8.14644661,10.1464466 C7.95118446,10.3417088 7.95118446,10.6582912 8.14644661,10.8535534 L12.1464466,14.8535534 C12.3417088,15.0488155 12.6582912,15.0488155 12.8535534,14.8535534 L16.8535534,10.8535534 C17.0488155,10.6582912 17.0488155,10.3417088 16.8535534,10.1464466 C16.6582912,9.95118446 16.3417088,9.95118446 16.1464466,10.1464466 L12.5,13.7928932 L8.85355339,10.1464466 Z" id="Shape" fill="#000000" fill-rule="nonzero"></path>
    </g>
</svg>