<svg height="24" viewBox="0 0 24 24" width="24" xmlns="http://www.w3.org/2000/svg"><path d="m17.5113889 6.49349566c-.1952303-.19529402-.1951786-.51187651.0001154-.70710677.1952941-.19523026.5118765-.19517857.7071068.00011545 3.7090895 3.71030087 3.7084348 9.72480426-.0014623 13.43429756s-9.7244005 3.7094933-13.43429762 0c-3.70989712-3.7094933-3.71055178-9.72399669-.00146229-13.43429756.19523026-.19529402.51181275-.19534571.70710677-.00011545.19529403.19523026.19534571.51181275.00011545.70710677-3.31865902 3.31974288-3.31807326 8.70114064.00130837 12.02016094 3.31938163 3.3190204 8.70077942 3.3190204 12.02016102 0 3.3193817-3.3190203 3.3199674-8.70041806.0013084-12.02016094zm-6.5063889-4.99349566c0-.27614237.2238576-.5.5-.5s.5.22385763.5.5v10c0 .2761424-.2238576.5-.5.5s-.5-.2238576-.5-.5z"/></svg>