<?xml version="1.0" encoding="UTF-8"?>
<svg width="24px" height="24px" viewBox="0 0 24 24" version="1.1" xmlns="http://www.w3.org/2000/svg" xmlns:xlink="http://www.w3.org/1999/xlink">
    <!-- Generator: Sketch 55.2 (78181) - https://sketchapp.com -->
    <title>power</title>
    <desc>Created with Sketch.</desc>
    <g id="power" stroke="none" stroke-width="1" fill="none" fill-rule="evenodd">
        <path d="M17.5113889,6.49349566 C20.8300479,9.81323854 20.8294622,15.1946363 17.5100805,18.5136566 C14.1906989,21.832677 8.80930111,21.832677 5.48991948,18.5136566 C2.17053785,15.1946363 2.16995209,9.81323854 5.48861111,6.49349566 C5.68384137,6.29820164 5.68378969,5.98161915 5.48849566,5.78638889 C5.29320164,5.59115863 4.97661915,5.59121032 4.78138889,5.78650434 C1.0722994,9.49680521 1.07295406,15.5113086 4.78285118,19.2208019 C8.4927483,22.9302952 14.5072517,22.9302952 18.2171488,19.2208019 C21.9270459,15.5113086 21.9277006,9.49680521 18.2186111,5.78650434 C18.0233808,5.59121032 17.7067984,5.59115863 17.5115043,5.78638889 C17.3162103,5.98161915 17.3161586,6.29820164 17.5113889,6.49349566 Z" id="Shape" fill="#000000" fill-rule="nonzero"></path>
        <path d="M11.005,1.5 L11.005,11.5 C11.005,11.7761424 11.2288576,12 11.505,12 C11.7811424,12 12.005,11.7761424 12.005,11.5 L12.005,1.5 C12.005,1.22385763 11.7811424,1 11.505,1 C11.2288576,1 11.005,1.22385763 11.005,1.5 Z" id="Shape" fill="#000000" fill-rule="nonzero"></path>
    </g>
</svg>