<?xml version="1.0" encoding="UTF-8"?>
<svg width="24px" height="24px" viewBox="0 0 24 24" version="1.1" xmlns="http://www.w3.org/2000/svg" xmlns:xlink="http://www.w3.org/1999/xlink">
    <!-- Generator: Sketch 55.2 (78181) - https://sketchapp.com -->
    <title>printer</title>
    <desc>Created with Sketch.</desc>
    <g id="printer" stroke="none" stroke-width="1" fill="none" fill-rule="evenodd">
        <path d="M19,19 L19,22.5 C19,22.7761424 18.7761424,23 18.5,23 L6.5,23 C6.22385763,23 6,22.7761424 6,22.5 L6,19 L4.5,19 C3.11928813,19 2,17.8807119 2,16.5 L2,11.5 C2,10.1192881 3.11928813,9 4.5,9 L6,9 L6,2.5 C6,2.22385763 6.22385763,2 6.5,2 L18.5,2 C18.7761424,2 19,2.22385763 19,2.5 L19,9 L20.5,9 C21.8807119,9 23,10.1192881 23,11.5 L23,16.5 C23,17.8807119 21.8807119,19 20.5,19 L19,19 Z M19,18 L20.5,18 C21.3284271,18 22,17.3284271 22,16.5 L22,11.5 C22,10.6715729 21.3284271,10 20.5,10 L4.5,10 C3.67157288,10 3,10.6715729 3,11.5 L3,16.5 C3,17.3284271 3.67157288,18 4.5,18 L6,18 L6,14.5 C6,14.2238576 6.22385763,14 6.5,14 L18.5,14 C18.7761424,14 19,14.2238576 19,14.5 L19,18 Z M7,9 L18,9 L18,3 L7,3 L7,9 Z M7,15 L7,22 L18,22 L18,15 L7,15 Z" id="Combined-Shape" fill="#000000" fill-rule="nonzero"></path>
    </g>
</svg>