<svg height="24" viewBox="0 0 24 24" width="24" xmlns="http://www.w3.org/2000/svg"><path d="m19 19v3.5c0 .2761424-.2238576.5-.5.5h-12c-.27614237 0-.5-.2238576-.5-.5v-3.5h-1.5c-1.38071187 0-2.5-1.1192881-2.5-2.5v-5c0-1.3807119 1.11928813-2.5 2.5-2.5h1.5v-6.5c0-.27614237.22385763-.5.5-.5h12c.2761424 0 .5.22385763.5.5v6.5h1.5c1.3807119 0 2.5 1.1192881 2.5 2.5v5c0 1.3807119-1.1192881 2.5-2.5 2.5zm0-1h1.5c.8284271 0 1.5-.6715729 1.5-1.5v-5c0-.8284271-.6715729-1.5-1.5-1.5h-16c-.82842712 0-1.5.6715729-1.5 1.5v5c0 .8284271.67157288 1.5 1.5 1.5h1.5v-3.5c0-.2761424.22385763-.5.5-.5h12c.2761424 0 .5.2238576.5.5zm-12-9h11v-6h-11zm0 6v7h11v-7z"/></svg>