<?xml version="1.0" encoding="UTF-8"?>
<svg width="24px" height="24px" viewBox="0 0 24 24" version="1.1" xmlns="http://www.w3.org/2000/svg" xmlns:xlink="http://www.w3.org/1999/xlink">
    <!-- Generator: Sketch 55.2 (78181) - https://sketchapp.com -->
    <title>radio</title>
    <desc>Created with Sketch.</desc>
    <g id="radio" stroke="none" stroke-width="1" fill="none" fill-rule="evenodd">
        <path d="M12.4978645,14.07 C13.8785764,14.07 14.9978645,12.9507119 14.9978645,11.57 C14.9978645,10.1892881 13.8785764,9.07 12.4978645,9.07 C11.1171527,9.07 9.99786454,10.1892881 9.99786454,11.57 C9.99786454,12.9507119 11.1171527,14.07 12.4978645,14.07 Z M12.4978645,13.07 C11.6694374,13.07 10.9978645,12.3984271 10.9978645,11.57 C10.9978645,10.7415729 11.6694374,10.07 12.4978645,10.07 C13.3262917,10.07 13.9978645,10.7415729 13.9978645,11.57 C13.9978645,12.3984271 13.3262917,13.07 12.4978645,13.07 Z" id="Oval" fill="#000000" fill-rule="nonzero"></path>
        <path d="M16.3845079,7.68375 C16.1891371,7.4885965 16.188961,7.17201406 16.3841145,6.97664333 C16.579268,6.7812726 16.8958505,6.7810965 17.0912212,6.97625 C18.311772,8.19544367 18.9975845,9.84983989 18.9975845,11.575 C18.9975845,13.3001601 18.311772,14.9545563 17.0912212,16.17375 C16.8958505,16.3689035 16.579268,16.3687274 16.3841145,16.1733567 C16.188961,15.9779859 16.1891371,15.6614035 16.3845079,15.46625 C17.4172816,14.4346246 17.9975845,13.0347509 17.9975845,11.575 C17.9975845,10.1152491 17.4172816,8.71537541 16.3845079,7.68375 Z M8.61122121,15.45625 C8.80659194,15.6514035 8.80676804,15.9679859 8.61161454,16.1633567 C8.41646104,16.3587274 8.0998786,16.3589035 7.90450787,16.16375 C6.68395709,14.9445563 5.9981446,13.2901601 5.9981446,11.565 C5.9981446,9.83983989 6.68395709,8.18544367 7.90450787,6.96625 C8.0998786,6.7710965 8.41646104,6.7712726 8.61161454,6.96664333 C8.80676804,7.16201406 8.80659194,7.4785965 8.61122121,7.67375 C7.57844747,8.70537541 6.9981446,10.1052491 6.9981446,11.565 C6.9981446,13.0247509 7.57844747,14.4246246 8.61122121,15.45625 Z M19.2142578,4.8535 C19.0190251,4.65820837 19.0190729,4.34162589 19.2143645,4.14639323 C19.4096562,3.95116057 19.7262387,3.95120837 19.9214713,4.1465 C24.0204817,8.24674844 24.0204817,14.8932516 19.9214713,18.9935 C19.7262387,19.1887916 19.4096562,19.1888394 19.2143645,18.9936068 C19.0190729,18.7983741 19.0190251,18.4817916 19.2142578,18.2865 C22.9228862,14.5767514 22.9228862,8.56324859 19.2142578,4.8535 Z M5.78147131,18.2865 C5.97670397,18.4817916 5.97665617,18.7983741 5.78136454,18.9936068 C5.58607291,19.1888394 5.26949042,19.1887916 5.07425776,18.9935 C0.975247412,14.8932516 0.975247412,8.24674844 5.07425776,4.1465 C5.26949042,3.95120837 5.58607291,3.95116057 5.78136454,4.14639323 C5.97665617,4.34162589 5.97670397,4.65820837 5.78147131,4.8535 C2.0728429,8.56324859 2.0728429,14.5767514 5.78147131,18.2865 Z" id="Shape" fill="#000000" fill-rule="nonzero"></path>
    </g>
</svg>