<svg height="24" viewBox="0 0 24 24" width="24" xmlns="http://www.w3.org/2000/svg"><path d="m12.4978645 14.07c-1.3807118 0-2.49999996-1.1192881-2.49999996-2.5s1.11928816-2.5 2.49999996-2.5c1.3807119 0 2.5 1.1192881 2.5 2.5s-1.1192881 2.5-2.5 2.5zm0-1c.8284272 0 1.5-.6715729 1.5-1.5s-.6715728-1.5-1.5-1.5c-.8284271 0-1.5.6715729-1.5 1.5s.6715729 1.5 1.5 1.5zm3.8866434-5.38625c-.1953708-.1951535-.1955469-.51173594-.0003934-.70710667s.511736-.19554683.7071067-.00039333c1.2205508 1.21919367 1.9063633 2.87358989 1.9063633 4.59875 0 1.7251601-.6858125 3.3795563-1.9063633 4.59875-.1953707.1951535-.5119532.1949774-.7071067-.0003933-.1951535-.1953708-.1949774-.5119532.0003934-.7071067 1.0327737-1.0316254 1.6130766-2.4314991 1.6130766-3.89125s-.5803029-2.85962459-1.6130766-3.89125zm-7.77328669 7.7725c.19537073.1951535.19554683.5117359.00039333.7071067-.1951535.1953707-.51173594.1955468-.70710667.0003933-1.22055078-1.2191937-1.90636327-2.8735899-1.90636327-4.59875 0-1.72516011.68581249-3.37955633 1.90636327-4.59875.19537073-.1951535.51195317-.1949774.70710667.00039333s.1949774.51195317-.00039333.70710667c-1.03277374 1.03162541-1.61307661 2.4314991-1.61307661 3.89125s.58030287 2.8596246 1.61307661 3.89125zm10.60303659-10.60275c-.1952327-.19529163-.1951849-.51187411.0001067-.70710677.1952917-.19523266.5118742-.19518486.7071068.00010677 4.0990104 4.10024844 4.0990104 10.7467516 0 14.847-.1952326.1952916-.5118151.1953394-.7071068.0001068-.1952916-.1952327-.1953394-.5118152-.0001067-.7071068 3.7086284-3.7097486 3.7086284-9.72325141 0-13.433zm-13.43278649 13.433c.19523266.1952916.19518486.5118741-.00010677.7071068-.19529163.1952326-.51187412.1951848-.70710678-.0001068-4.09901035-4.1002484-4.09901035-10.74675156 0-14.847.19523266-.19529163.51181515-.19533943.70710678-.00010677s.19533943.51181514.00010677.70710677c-3.70862841 3.70974859-3.70862841 9.7232514 0 13.433z"/></svg>