<svg height="24" viewBox="0 0 24 24" width="24" xmlns="http://www.w3.org/2000/svg"><path d="m23.0000015 9.34199727v-4.84406895c0-.27614237.2238576-.5.5-.5s.5.22385763.5.5v5.99999998c0 .2761424-.2238576.5-.5.5h-6c-.2761424 0-.5-.2238576-.5-.5s.2238576-.49999998.5-.49999998h4.7377957l-3.7314377-3.50653521c-2.0631947-2.06422903-5.0411551-2.92560718-7.8877292-2.28153386-2.84657399.64407331-5.16366033 2.70352264-6.13727076 5.45486719-.09212006.26032385-.37783229.39667996-.63815614.30455991-.26032385-.09212006-.39667997-.3778323-.30455991-.63815614 1.08815284-3.07503215 3.67783756-5.37676964 6.85930261-6.09661628 3.1814651-.71984665 6.5097738.2428701 8.8044437 2.53903786zm-20.99999999 6.31186213v4.8440689c0 .2761424-.22385762.5-.5.5-.27614237 0-.5-.2238576-.5-.5v-6c0-.2761424.22385763-.5.5-.5h6c.27614238 0 .5.2238576.5.5s-.22385762.5-.5.5h-4.73779571l3.73143769 3.5065352c2.06319476 2.0642291 5.04115521 2.9256072 7.88772921 2.2815339s5.1636604-2.7035226 6.1372708-5.4548672c.09212-.2603238.3778323-.39668.6381561-.3045599.2603239.0921201.39668.3778323.3045599.6381561-1.0881528 3.0750322-3.6778375 5.3767697-6.8593026 6.0966163-3.1814651.7198467-6.50977381-.2428701-8.80444368-2.5390378z"/></svg>