<svg height="24" viewBox="0 0 24 24" width="24" xmlns="http://www.w3.org/2000/svg"><path d="m2.76227676 9.99781402h4.73772475c.27614238 0 .5.22385758.5.49999998s-.22385762.5-.5.5h-6c-.27614237 0-.5-.2238576-.5-.5v-5.99999998c0-.27614237.22385763-.5.5-.5.27614238 0 .5.22385763.5.5v4.84413031l3.78635803-3.55759509c2.30592355-2.30707951 5.63423226-3.26979626 8.81569736-2.54994961 3.1814651.71984664 5.7711498 3.02158413 6.8593026 6.09661627.0921201.26032385-.044236.54603609-.3045599.63815615-.2603238.09212005-.5460361-.04423606-.6381561-.30455991-.9736104-2.75134455-3.2906968-4.81079388-6.1372708-5.4548672-2.846574-.64407331-5.82453445.21730483-7.89898289 2.29244561zm19.47544954 4.99999998h-4.7377248c-.2761424 0-.5-.2238576-.5-.5s.2238576-.5.5-.5h6c.2761424 0 .5.2238576.5.5v6c0 .2761424-.2238576.5-.5.5s-.5-.2238576-.5-.5v-4.8441303l-3.786358 3.5575951c-2.3059236 2.3070795-5.6342323 3.2697963-8.8156974 2.5499496-3.18146505-.7198466-5.77114977-3.0215841-6.85930261-6.0966163-.09212006-.2603238.04423606-.546036.30455991-.6381561s.54603608.0442361.63815614.3045599c.97361043 2.7513446 3.29069677 4.8107939 6.13727076 5.4548672 2.8465741.6440733 5.8245345-.2173048 7.8989829-2.2924456z"/></svg>