<svg height="24" viewBox="0 0 24 24" width="24" xmlns="http://www.w3.org/2000/svg"><path d="m20.2928932 5-3.1464466-3.14644661c-.1952621-.19526215-.1952621-.51184463 0-.70710678.1952622-.19526215.5118446-.19526215.7071068 0l4 4c.1952621.19526215.1952621.51184463 0 .70710678l-4 4c-.1952622.19526211-.5118446.19526211-.7071068 0-.1952621-.19526215-.1952621-.51184463 0-.70710678l3.1464466-3.14644661h-12.7928932c-1.93299662 0-3.5 1.56700338-3.5 3.5v2c0 .2761424-.22385763.5-.5.5s-.5-.2238576-.5-.5v-2c0-2.48528137 2.01471863-4.5 4.5-4.5zm-15.58578642 14h12.79289322c1.9329966 0 3.5-1.5670034 3.5-3.5v-2c0-.2761424.2238576-.5.5-.5s.5.2238576.5.5v2c0 2.4852814-2.0147186 4.5-4.5 4.5h-12.79289322l3.14644661 3.1464466c.19526215.1952622.19526215.5118446 0 .7071068-.19526215.1952621-.51184463.1952621-.70710678 0l-4-4c-.19526215-.1952622-.19526215-.5118446 0-.7071068l4-4c.19526215-.1952621.51184463-.1952621.70710678 0 .19526215.1952622.19526215.5118446 0 .7071068z"/></svg>