<svg height="24" viewBox="0 0 24 24" width="24" xmlns="http://www.w3.org/2000/svg"><path d="m12 18.5009258c0 .4160741-.4785413.6501209-.8069703.3946761l-9.00000001-7c-.25737292-.200179-.25737292-.5891733 0-.7893522l9.00000001-7.00000004c.328429-.25544478.8069703-.02139798.8069703.39467611zm-1-12.97768035-7.68558898 5.97768035 7.68558898 5.9776803zm12 12.97768035c0 .4160741-.4785413.6501209-.8069703.3946761l-9-7c-.2573729-.200179-.2573729-.5891733 0-.7893522l9-7.00000004c.328429-.25544478.8069703-.02139798.8069703.39467611zm-1-12.97768035-7.685589 5.97768035 7.685589 5.9776803z"/></svg>