<svg height="24" viewBox="0 0 24 24" width="24" xmlns="http://www.w3.org/2000/svg"><path d="m21.9967112 8.34126831v-4.84235893c0-.27614237.2238577-.5.5-.5.2761424 0 .5.22385763.5.5v6c0 .27614238-.2238576.5-.5.5h-6c-.2761423 0-.5-.22385762-.5-.5 0-.27614237.2238577-.5.5-.5h4.7397733l-3.7234383-3.5065583c-2.6762841-2.67797527-6.8011235-3.26305051-10.11655786-1.43495224s-5.02210341 5.62861057-4.18576692 9.32111506c.83633649 3.6925045 4.01403552 6.3867283 7.79360678 6.6078381 3.7795712.2211099 7.2497497-2.0842045 8.5109402-5.6540009.0919876-.2603707.3776305-.3968721.6380011-.3048845.2603707.0919876.3968722.3776304.3048846.6380011-1.4095659 3.9897725-5.2880007 6.5663003-9.5122274 6.3191775-4.22422665-.2471227-7.77577262-3.258314-8.71050164-7.3852308-.93472902-4.12691683.97272463-8.37454822 4.67821009-10.41771688 3.70548545-2.04316865 8.31560005-1.38926103 11.29585655 1.5932042z"/></svg>