<svg height="24" viewBox="0 0 24 24" width="24" xmlns="http://www.w3.org/2000/svg"><path d="m3.76227524 8.990895h4.73772476c.27614237 0 .5.22385763.5.5 0 .27614238-.22385763.5-.5.5h-6c-.27614237 0-.5-.22385762-.5-.5v-6c0-.27614237.22385763-.5.5-.5s.5.22385763.5.5v4.8441261l3.78674568-3.55797831c2.99443407-2.98937446 7.60495682-3.63804938 11.30799172-1.59097156s5.6058835 6.29641501 4.6670188 10.42213047c-.9388647 4.1257155-4.4931087 7.1332143-8.7173112 7.3763374-4.22420239.2431232-8.10002589-2.3367395-9.50603265-6.3274963-.09176089-.2604507.04498919-.5459746.30543986-.6377354.26045067-.0917609.54597455.0449891.63773544.3054398 1.25800605 3.5706772 4.72584815 5.8789754 8.50539765 5.6614441 3.7795496-.2175312 6.9596626-2.9084512 7.7996995-6.5998809.8400368-3.69142958-.8625119-7.49346811-4.1757537-9.32506406-3.3132417-1.83159594-7.4384463-1.25120259-10.12854281 1.43402519z"/></svg>