<svg height="24" viewBox="0 0 24 24" width="24" xmlns="http://www.w3.org/2000/svg"><path d="m4.5 12c-.27614237 0-.5-.2238576-.5-.5s.22385763-.5.5-.5c5.24670512 0 9.5 4.2532949 9.5 9.5 0 .2761424-.2238576.5-.5.5s-.5-.2238576-.5-.5c0-4.6944204-3.80557963-8.5-8.5-8.5zm0-7c-.27614237 0-.5-.22385763-.5-.5s.22385763-.5.5-.5c9.1126984 0 16.5 7.3873016 16.5 16.5 0 .2761424-.2238576.5-.5.5s-.5-.2238576-.5-.5c0-8.5604136-6.9395864-15.5-15.5-15.5zm1 16c-.82842712 0-1.5-.6715729-1.5-1.5s.67157288-1.5 1.5-1.5 1.5.6715729 1.5 1.5-.67157288 1.5-1.5 1.5zm0-1c.27614237 0 .5-.2238576.5-.5s-.22385763-.5-.5-.5-.5.2238576-.5.5.22385763.5.5.5z"/></svg>