<svg height="24" viewBox="0 0 24 24" width="24" xmlns="http://www.w3.org/2000/svg"><path d="m8 4v4h7.5c.2761424 0 .5.22385763.5.5s-.2238576.5-.5.5h-8c-.27614237 0-.5-.22385763-.5-.5v-4.5h-1.5c-.82842712 0-1.5.67157288-1.5 1.5v14c0 .8284271.67157288 1.5 1.5 1.5h1.5v-7.5c0-.2761424.22385763-.5.5-.5h10c.2761424 0 .5.2238576.5.5v7.5h1.5c.8284271 0 1.5-.6715729 1.5-1.5v-10.79289322l-4.7071068-4.70710678zm9 17v-7h-9v7zm2.5 1h-14c-1.38071187 0-2.5-1.1192881-2.5-2.5v-14c0-1.38071187 1.11928813-2.5 2.5-2.5h11c.1326082 0 .2597852.05267842.3535534.14644661l5 5c.0937682.09376819.1464466.22094515.1464466.35355339v11c0 1.3807119-1.1192881 2.5-2.5 2.5z"/></svg>