<svg height="24" viewBox="0 0 24 24" width="24" xmlns="http://www.w3.org/2000/svg"><path d="m11.7928932 12.5-3.19680765-3.19680767c-.58429027.4376059-1.309918.69680767-2.09608555.69680767-1.93299662 0-3.5-1.56700338-3.5-3.5s1.56700338-3.5 3.5-3.5 3.5 1.56700338 3.5 3.5c0 .78616755-.25920177 1.51179528-.69680767 2.09608555l3.19680767 3.19680765 7.6464466-7.64644659c.1952622-.19526215.5118446-.19526215.7071068 0 .1952621.19526215.1952621.51184463 0 .70710678l-11.55036107 11.55036111c.4376059.5842902.69680767 1.3099179.69680767 2.0960855 0 1.9329966-1.56700338 3.5-3.5 3.5s-3.5-1.5670034-3.5-3.5 1.56700338-3.5 3.5-3.5c.78616755 0 1.51179528.2592018 2.09608555.6968077zm-3.49726873-4.26053382c.43601232-.44999974.70437553-1.06339317.70437553-1.73946618 0-1.38071187-1.11928813-2.5-2.5-2.5s-2.5 1.11928813-2.5 2.5 1.11928813 2.5 2.5 2.5c.67607301 0 1.28946644-.26836321 1.73946618-.70437553.00853604-.00999182.01752952-.01972695.02698043-.02917786s.01918604-.01844439.02917786-.02698043zm-.05615829 8.46490932c-.44999974-.4360123-1.06339317-.7043755-1.73946618-.7043755-1.38071187 0-2.5 1.1192881-2.5 2.5s1.11928813 2.5 2.5 2.5 2.5-1.1192881 2.5-2.5c0-.676073-.26836321-1.2894664-.70437553-1.7394662-.00999182-.008536-.01972695-.0175295-.02917786-.0269804s-.01844439-.019186-.02698043-.0291779zm6.37730052-1.3705023c-.1954388-.1950854-.1957253-.5116677-.0006399-.7071065s.5116677-.1957253.7071065-.0006399l5.53 5.52c.1954388.1950854.1957253.5116677.0006399.7071065s-.5116677.1957253-.7071065.0006399z"/></svg>