<?xml version="1.0" encoding="UTF-8"?>
<svg width="24px" height="24px" viewBox="0 0 24 24" version="1.1" xmlns="http://www.w3.org/2000/svg" xmlns:xlink="http://www.w3.org/1999/xlink">
    <!-- Generator: Sketch 55.2 (78181) - https://sketchapp.com -->
    <title>search</title>
    <desc>Created with Sketch.</desc>
    <g id="search" stroke="none" stroke-width="1" fill="none" fill-rule="evenodd">
        <path d="M16.2923098,16.9994165 C14.8819612,18.2444908 13.0292099,19 11,19 C6.581722,19 3,15.418278 3,11 C3,6.581722 6.581722,3 11,3 C15.418278,3 19,6.581722 19,11 C19,13.0292099 18.2444908,14.8819612 16.9994165,16.2923098 L21.8535534,21.1464466 C22.0488155,21.3417088 22.0488155,21.6582912 21.8535534,21.8535534 C21.6582912,22.0488155 21.3417088,22.0488155 21.1464466,21.8535534 L16.2923098,16.9994165 Z M15.9964036,15.9026502 C17.2357085,14.6397952 18,12.9091525 18,11 C18,7.13400675 14.8659932,4 11,4 C7.13400675,4 4,7.13400675 4,11 C4,14.8659932 7.13400675,18 11,18 C12.9091525,18 14.6397952,17.2357085 15.9026502,15.9964036 C15.9159555,15.9790348 15.9305543,15.9623389 15.9464466,15.9464466 C15.9623389,15.9305543 15.9790348,15.9159555 15.9964036,15.9026502 Z" fill="#000000" fill-rule="nonzero"></path>
    </g>
</svg>