<svg height="24" viewBox="0 0 24 24" width="24" xmlns="http://www.w3.org/2000/svg"><path d="m16.2923098 16.9994165c-1.4103486 1.2450743-3.2630999 2.0005835-5.2923098 2.0005835-4.418278 0-8-3.581722-8-8s3.581722-8 8-8 8 3.581722 8 8c0 2.0292099-.7555092 3.8819612-2.0005835 5.2923098l4.8541369 4.8541368c.1952621.1952622.1952621.5118446 0 .7071068-.1952622.1952621-.5118446.1952621-.7071068 0zm-.2959062-1.0967663c1.2393049-1.262855 2.0035964-2.9934977 2.0035964-4.9026502 0-3.86599325-3.1340068-7-7-7-3.86599325 0-7 3.13400675-7 7 0 3.8659932 3.13400675 7 7 7 1.9091525 0 3.6397952-.7642915 4.9026502-2.0035964.0133053-.0173688.0279041-.0340647.0437964-.049957s.0325882-.0304911.049957-.0437964z"/></svg>