<svg height="24" viewBox="0 0 24 24" width="24" xmlns="http://www.w3.org/2000/svg"><path d="m4.5 2h16c1.3807119 0 2.5 1.11928813 2.5 2.5v4c0 1.38071187-1.1192881 2.5-2.5 2.5h-16c-1.38071187 0-2.5-1.11928813-2.5-2.5v-4c0-1.38071187 1.11928813-2.5 2.5-2.5zm0 1c-.82842712 0-1.5.67157288-1.5 1.5v4c0 .82842712.67157288 1.5 1.5 1.5h16c.8284271 0 1.5-.67157288 1.5-1.5v-4c0-.82842712-.6715729-1.5-1.5-1.5zm0 11h16c1.3807119 0 2.5 1.1192881 2.5 2.5v4c0 1.3807119-1.1192881 2.5-2.5 2.5h-16c-1.38071187 0-2.5-1.1192881-2.5-2.5v-4c0-1.3807119 1.11928813-2.5 2.5-2.5zm0 1c-.82842712 0-1.5.6715729-1.5 1.5v4c0 .8284271.67157288 1.5 1.5 1.5h16c.8284271 0 1.5-.6715729 1.5-1.5v-4c0-.8284271-.6715729-1.5-1.5-1.5z"/></svg>