<?xml version="1.0" encoding="UTF-8"?>
<svg width="24px" height="24px" viewBox="0 0 24 24" version="1.1" xmlns="http://www.w3.org/2000/svg" xmlns:xlink="http://www.w3.org/1999/xlink">
    <!-- Generator: Sketch 55.2 (78181) - https://sketchapp.com -->
    <title>server</title>
    <desc>Created with Sketch.</desc>
    <g id="server" stroke="none" stroke-width="1" fill="none" fill-rule="evenodd">
        <path d="M4.5,2 L20.5,2 C21.8807119,2 23,3.11928813 23,4.5 L23,8.5 C23,9.88071187 21.8807119,11 20.5,11 L4.5,11 C3.11928813,11 2,9.88071187 2,8.5 L2,4.5 C2,3.11928813 3.11928813,2 4.5,2 Z M4.5,3 C3.67157288,3 3,3.67157288 3,4.5 L3,8.5 C3,9.32842712 3.67157288,10 4.5,10 L20.5,10 C21.3284271,10 22,9.32842712 22,8.5 L22,4.5 C22,3.67157288 21.3284271,3 20.5,3 L4.5,3 Z" id="Rectangle-path" fill="#000000" fill-rule="nonzero"></path>
        <path d="M4.5,14 L20.5,14 C21.8807119,14 23,15.1192881 23,16.5 L23,20.5 C23,21.8807119 21.8807119,23 20.5,23 L4.5,23 C3.11928813,23 2,21.8807119 2,20.5 L2,16.5 C2,15.1192881 3.11928813,14 4.5,14 Z M4.5,15 C3.67157288,15 3,15.6715729 3,16.5 L3,20.5 C3,21.3284271 3.67157288,22 4.5,22 L20.5,22 C21.3284271,22 22,21.3284271 22,20.5 L22,16.5 C22,15.6715729 21.3284271,15 20.5,15 L4.5,15 Z" id="Rectangle-path" fill="#000000" fill-rule="nonzero"></path>
    </g>
</svg>