<svg height="24" viewBox="0 0 24 24" width="24" xmlns="http://www.w3.org/2000/svg"><path d="m12.5 16c-1.9329966 0-3.5-1.5670034-3.5-3.5s1.5670034-3.5 3.5-3.5 3.5 1.5670034 3.5 3.5-1.5670034 3.5-3.5 3.5zm0-1c1.3807119 0 2.5-1.1192881 2.5-2.5s-1.1192881-2.5-2.5-2.5-2.5 1.1192881-2.5 2.5 1.1192881 2.5 2.5 2.5zm8.83-5h.17c1.3807119 0 2.5 1.1192881 2.5 2.5s-1.1192881 2.5-2.5 2.5h-.0880058c-.4583572.0018241-.8718615.275668-1.0524243.6969657-.1919558.4350101-.1008754.9373323.2239835 1.2694809l.0598033.0598034c.4694426.4689206.7332166 1.1052269.7332166 1.76875s-.263774 1.2998294-.7328233 1.7683567c-.4689206.4694426-1.1052269.7332166-1.76875.7332166s-1.2998294-.263774-1.7685534-.7330199l-.0560791-.0561221c-.3360695-.3287368-.8383917-.4198172-1.2734018-.2278614-.4212977.1805628-.6951416.5940671-.6969657 1.0504301v.17c0 1.3807119-1.1192881 2.5-2.5 2.5s-2.5-1.1192881-2.5-2.5l.0001367-.0783077c-.0110423-.4720779-.30954389-.8894273-.78201937-1.064261-.43009308-.1898172-.93241531-.0987368-1.26456394.2261221l-.05980339.0598033c-.46892064.4694426-1.10522688.7332166-1.76875.7332166s-1.29982936-.263774-1.76835667-.7328233c-.46944261-.4689206-.73321664-1.1052269-.73321664-1.76875s.26377403-1.2998294.73301992-1.7685534l.0561221-.0560791c.32873682-.3360695.41981723-.8383917.22786138-1.2734018-.18056275-.4212977-.59406706-.6951416-1.05043009-.6969657h-.17c-1.38071187 0-2.5-1.1192881-2.5-2.5s1.11928813-2.5 2.5-2.5l.07830771.0001367c.47207791-.0110423.8894273-.30954389 1.064261-.78201937.18981723-.43009308.09873682-.93241531-.2261221-1.26456394l-.05980328-.05980339c-.46944261-.46892064-.73321664-1.10522688-.73321664-1.76875s.26377403-1.29982936.73282331-1.76835667c.46892064-.46944261 1.10522688-.73321664 1.76875-.73321664s1.29982936.26377403 1.76855339.73301992l.05607909.0561221c.33606954.32873682.83839177.41981723 1.26848485.23l.14715505-.03102892c.38583437-.19324252.63299496-.58805667.63472762-1.02153979v-.17c0-1.38071187 1.1192881-2.5 2.5-2.5s2.5 1.11928813 2.5 2.5v.08800584c.0018241.45835719.275668.8718615.7018827 1.05456287.4300931.18981723.9324153.09873682 1.2645639-.2261221l.0598034-.05980328c.4689206-.46944261 1.1052269-.73321664 1.76875-.73321664s1.2998294.26377403 1.7683567.73282331c.4694426.46892064.7332166 1.10522688.7332166 1.76875s-.263774 1.29982936-.7330199 1.76855339l-.0561221.05607909c-.3287368.33606954-.4198172.83839177-.23 1.26848485l.0310289.14715505c.1932425.38583437.5880567.63299496 1.0215398.63472762zm.08 4h.09c.8284271 0 1.5-.6715729 1.5-1.5s-.6715729-1.5-1.5-1.5h-.1719942c-.8569286-.0034217-1.6300019-.5153908-1.9675757-1.30303428l-.0324482-.15807989c-.3081112-.78499885-.1288459-1.6818472.4684647-2.29243922l.0601967-.06019661c.2816656-.28135239.43993-.66313613.43993-1.06125s-.1582644-.77989761-.4403233-1.06164333c-.2813524-.28166556-.6631361-.43992998-1.06125-.43992998s-.7798976.15826442-1.0614466.4401267l-.0639209.0638779c-.6283039.61459493-1.5674281.78487569-2.3665982.43213862-.7876435-.33757382-1.2996126-1.1106471-1.3030343-1.96956991v-.09c0-.82842712-.6715729-1.5-1.5-1.5s-1.5.67157288-1.5 1.5v.17199416c-.0034217.85692865-.5153908 1.63000193-1.30303428 1.96757575l-.15807989.03244821c-.78499885.30811114-1.6818472.12884584-2.29243922-.46846473l-.06019661-.06019672c-.28135239-.28166556-.66313613-.43992998-1.06125-.43992998s-.77989761.15826442-1.06164333.44032331c-.28166556.28135239-.43992998.66313613-.43992998 1.06125s.15826442.77989761.4401267 1.06144661l.0638779.06392091c.61459493.62830393.78487569 1.56742809.44183676 2.34222302-.30473341.82856016-1.08499531 1.38662826-1.97926805 1.40740946h-.09c-.82842712 0-1.5.6715729-1.5 1.5s.67157288 1.5 1.5 1.5l.17199416.000004c.85692865.0034177 1.63000193.5153868 1.96543713 1.2981133.35487569.8040871.18459493 1.7432113-.4338779 2.3754361l-.06019672.0601966c-.28166556.2813524-.43992998.6631361-.43992998 1.06125s.15826442.7798976.44032331 1.0616433c.28135239.2816656.66313613.43993 1.06125.43993s.77989761-.1582644 1.06144661-.4401267l.06392091-.0638779c.62830393-.6145949 1.56742809-.7848757 2.34222302-.4418368.82856016.3047335 1.38662826 1.0849954 1.40740946 1.9792681v.09c0 .8284271.6715729 1.5 1.5 1.5s1.5-.6715729 1.5-1.5l.000004-.1719942c.0034177-.8569286.5153868-1.6300019 1.2981133-1.9654371.8040871-.3548757 1.7432113-.1845949 2.3754361.4338779l.0601966.0601967c.2813524.2816656.6631361.43993 1.06125.43993s.7798976-.1582644 1.0616433-.4403233c.2816656-.2813524.43993-.6631361.43993-1.06125s-.1582644-.7798976-.4401267-1.0614466l-.0638779-.0639209c-.6139699-.627665-.7845289-1.5655183-.4310811-2.3690616.3381291-.7862476 1.1104855-1.2971528 1.9685124-1.3005709z"/></svg>