<svg height="24" viewBox="0 0 24 24" width="24" xmlns="http://www.w3.org/2000/svg"><path d="m9.24080005 10.323083 6.01399755-3.50963492c-.1643098-.40557091-.2547976-.84894221-.2547976-1.31344808 0-1.93299662 1.5670034-3.5 3.5-3.5s3.5 1.56700338 3.5 3.5-1.5670034 3.5-3.5 3.5c-1.1101585 0-2.0995966-.51686572-2.7408001-1.32308304l-6.01399754 3.50963494c.16430981.4055709.25479764.8489422.25479764 1.3134481 0 .4643994-.09044636.907674-.25468471 1.3131693l6.01686741 3.5061687c.6412868-.8040726 1.6293787-1.319338 2.7378173-1.319338 1.9329966 0 3.5 1.5670034 3.5 3.5s-1.5670034 3.5-3.5 3.5-3.5-1.5670034-3.5-3.5c0-.4661991.0911487-.9111094.2565975-1.3178819l-6.01561048-3.5054362c-.64119809.8063519-1.63072059 1.3233181-2.74098702 1.3233181-1.93299662 0-3.5-1.5670034-3.5-3.5s1.56700338-3.5 3.5-3.5c1.11015852 0 2.09959658.51686572 2.74080005 1.323083zm-.5582898.9567159c-.00859387-.0121134-.01672468-.0247117-.02435376-.0377847-.00756696-.0129664-.01448456-.026133-.0207627-.0394618-.43860671-.721008-1.23176489-1.2025524-2.13739379-1.2025524-1.38071187 0-2.5 1.1192881-2.5 2.5s1.11928813 2.5 2.5 2.5c.90563013 0 1.69878924-.4815457 2.13739558-1.2025553.00623319-.0132333.01309672-.0263068.02060031-.0391836.00767587-.0131724.01586105-.0258635.02451605-.0380631.20220672-.3609033.31748806-.7770879.31748806-1.220198 0-.4431113-.11528198-.8592971-.31748975-1.2202011zm7.68009595-4.48235129c.4386067.72100801 1.2317649 1.20255239 2.1373938 1.20255239 1.3807119 0 2.5-1.11928813 2.5-2.5s-1.1192881-2.5-2.5-2.5-2.5 1.11928813-2.5 2.5c0 .4431113.115282.85929705.3174897 1.22020106.0085939.01211345.0167247.02471174.0243538.03778469.007567.0129665.0144846.02613302.0207627.03946186zm-.0676414 11.52345499c-.1882216.351258-.2949648.7527121-.2949648 1.1790974 0 1.3807119 1.1192881 2.5 2.5 2.5s2.5-1.1192881 2.5-2.5-1.1192881-2.5-2.5-2.5c-.8858362 0-1.6640641.4607259-2.1081308 1.1556247-.0103482.0293783-.0236036.0582082-.0398651.0861142-.0167299.0287099-.0358793.0551337-.0570393.0791637z"/></svg>