<?xml version="1.0" encoding="UTF-8"?>
<svg width="24px" height="24px" viewBox="0 0 24 24" version="1.1" xmlns="http://www.w3.org/2000/svg" xmlns:xlink="http://www.w3.org/1999/xlink">
    <!-- Generator: Sketch 55.2 (78181) - https://sketchapp.com -->
    <title>share</title>
    <desc>Created with Sketch.</desc>
    <g id="share" stroke="none" stroke-width="1" fill="none" fill-rule="evenodd">
        <path d="M4,12.5 L4,20.5 C4,21.8807119 5.11928813,23 6.5,23 L18.5,23 C19.8807119,23 21,21.8807119 21,20.5 L21,12.5 C21,12.2238576 20.7761424,12 20.5,12 C20.2238576,12 20,12.2238576 20,12.5 L20,20.5 C20,21.3284271 19.3284271,22 18.5,22 L6.5,22 C5.67157288,22 5,21.3284271 5,20.5 L5,12.5 C5,12.2238576 4.77614237,12 4.5,12 C4.22385763,12 4,12.2238576 4,12.5 Z" id="Shape" fill="#000000" fill-rule="nonzero"></path>
        <path d="M12,3.70710678 L8.85355339,6.85355339 C8.65829124,7.04881554 8.34170876,7.04881554 8.14644661,6.85355339 C7.95118446,6.65829124 7.95118446,6.34170876 8.14644661,6.14644661 L12.1464466,2.14644661 C12.3417088,1.95118446 12.6582912,1.95118446 12.8535534,2.14644661 L16.8535534,6.14644661 C17.0488155,6.34170876 17.0488155,6.65829124 16.8535534,6.85355339 C16.6582912,7.04881554 16.3417088,7.04881554 16.1464466,6.85355339 L13,3.70710678 L13,15.5 C13,15.7761424 12.7761424,16 12.5,16 C12.2238576,16 12,15.7761424 12,15.5 L12,3.70710678 Z" id="arrow-up" fill="#000000" fill-rule="nonzero"></path>
    </g>
</svg>