<svg height="24" viewBox="0 0 24 24" width="24" xmlns="http://www.w3.org/2000/svg"><path d="m16.9271786 17.6342854-12.32420078-12.32420079-.10297782.03808768v6.65182771c0 2.4527758 1.42712016 4.771846 3.8292523 6.8737117.85327768.7466179 1.7695557 1.4109194 2.6857472 1.9835391.3203879.2002425.6174804.3744987.8834084.5217088.0356466.019733.0689066.0379828.0996893.0547377 1.8335075-.9987884 3.4970312-2.2812333 4.9290813-3.799412zm1.0441419-.3700717c.0017061.0016821.0033976.0033737.0050747.0050747l5.3771582 5.3771582c.1952621.1952622.1952621.5118446 0 .7071068-.1952622.1952621-.5118446.1952621-.7071068 0l-5.0118744-5.0118744c-1.563028 1.6523793-3.3874843 3.0379641-5.4012343 4.1005353-.1425997.0752438-.3127329.0771052-.4569447.0049993-.0685875-.0342938-.1919446-.0990563-.3623011-.1933607-.280947-.1555242-.5932295-.3386899-.9290916-.5486037-.95880845-.5992553-1.91753048-1.2943288-2.8142528-2.0789609-2.59786786-2.2731343-4.1707477-4.8290641-4.1707477-7.6262883v-7c0-.20857101.12945599-.39515368.32464946-.46824376l-3.17820285-3.17820285c-.19526215-.19526215-.19526215-.51184463 0-.70710678s.51184463-.19526215.70710678 0l3.72246106 3.72246106c.0052778.00505013.01045093.01022236.01551617.01551617l12.87978998 12.87978996zm-5.971691-14.7303524-2.98471773 1.1145465c-.25869448.09660111-.54671847-.03480154-.64331957-.29349603-.09660111-.25869448.03480154-.54671847.29349603-.64331957l3.15999997-1.18c.1130276-.0422065.2375046-.04212012.3504735.00024321l8 3c.1951519.07318195.3244383.25974231.3244383.46816459v7.0032936c-.0048027.7274306-.1168287 1.4501793-.3324746 2.1449275-.0818603.26373-.3620166.4111646-.6257465.3293043-.26373-.0818603-.4111646-.3620166-.3293043-.6257465.1865046-.6008634.2833919-1.2259434.2875254-1.8517789v-6.65349977z"/></svg>