<svg height="24" viewBox="0 0 24 24" width="24" xmlns="http://www.w3.org/2000/svg"><path d="m12.7236068 22.9472136c.0685875-.0342938.1919446-.0990563.3623011-.1933607.280947-.1555242.5932295-.3386899.9290916-.5486037.9588085-.5992553 1.9175305-1.2943288 2.8142528-2.0789609 2.5978679-2.2731343 4.1707477-4.8290641 4.1707477-7.6262883v-8c0-.22943382-.1561487-.42942537-.3787322-.48507125l-8-2c-.07962-.019905-.1629156-.019905-.2425356 0l-8.00000001 2c-.2225835.05564588-.37873219.25563743-.37873219.48507125v8c0 2.7972242 1.57287984 5.353154 4.1707477 7.6262883.89672232.7846321 1.8554443 1.4797056 2.8142528 2.0789609.3358621.2099138.6481446.3930795.9290916.5486037.1703565.0943044.2937136.1590669.3623011.1933607.1407637.0703819.3064499.0703819.4472136 0zm-.2236068-1.0124808c-.0313137-.0170377-.0652098-.035633-.1015921-.0557732-.265928-.1472101-.5630205-.3214663-.8834084-.5217088-.9161915-.5726197-1.83246952-1.2369212-2.6857472-1.9835391-2.40213214-2.1018657-3.8292523-4.4209359-3.8292523-6.8737117v-7.6096118l7.5-1.875 7.5 1.875v7.6096118c0 2.4527758-1.4271202 4.771846-3.8292523 6.8737117-.8532777.7466179-1.7695557 1.4109194-2.6857472 1.9835391-.3203879.2002425-.6174804.3744987-.8834084.5217088-.0363823.0201402-.0702784.0387355-.1015921.0557732z"/></svg>