<?xml version="1.0" encoding="UTF-8"?>
<svg width="24px" height="24px" viewBox="0 0 24 24" version="1.1" xmlns="http://www.w3.org/2000/svg" xmlns:xlink="http://www.w3.org/1999/xlink">
    <!-- Generator: Sketch 55.2 (78181) - https://sketchapp.com -->
    <title>shopping-cart</title>
    <desc>Created with Sketch.</desc>
    <g id="shopping-cart" stroke="none" stroke-width="1" fill="none" fill-rule="evenodd">
        <path d="M8,23.5 C9.38071187,23.5 10.5,22.3807119 10.5,21 C10.5,19.6192881 9.38071187,18.5 8,18.5 C6.61928813,18.5 5.5,19.6192881 5.5,21 C5.5,22.3807119 6.61928813,23.5 8,23.5 Z M8,22.5 C7.17157288,22.5 6.5,21.8284271 6.5,21 C6.5,20.1715729 7.17157288,19.5 8,19.5 C8.82842712,19.5 9.5,20.1715729 9.5,21 C9.5,21.8284271 8.82842712,22.5 8,22.5 Z" id="Oval" fill="#000000" fill-rule="nonzero"></path>
        <path d="M20,23.5 C21.3807119,23.5 22.5,22.3807119 22.5,21 C22.5,19.6192881 21.3807119,18.5 20,18.5 C18.6192881,18.5 17.5,19.6192881 17.5,21 C17.5,22.3807119 18.6192881,23.5 20,23.5 Z M20,22.5 C19.1715729,22.5 18.5,21.8284271 18.5,21 C18.5,20.1715729 19.1715729,19.5 20,19.5 C20.8284271,19.5 21.5,20.1715729 21.5,21 C21.5,21.8284271 20.8284271,22.5 20,22.5 Z" id="Oval" fill="#000000" fill-rule="nonzero"></path>
        <path d="M6.2304446,6.5 L22.3899555,6.5 L20.8297321,14.2918296 C20.6880274,15.0052654 20.0560422,15.5140136 19.3295801,15.5000918 L8.75,15.5 C7.98787043,15.5064461 7.3442612,14.9465061 7.24575935,14.195018 L6.2304446,6.5 Z M6.09850018,5.5 L5.72570368,2.67459465 C5.56278487,1.43199541 4.50439903,0.50189877 3.25075707,0.5 L1,0.5 C0.723857625,0.5 0.5,0.723857625 0.5,1 C0.5,1.27614237 0.723857625,1.5 1,1.5 L3.25,1.5 C4.00142811,1.50113834 4.63645961,2.05919633 4.73424293,2.80499943 L6.25429632,14.3254053 C6.41841039,15.5774621 7.49109244,16.5106955 8.75424065,16.499982 L19.32,16.5 C20.5211899,16.5231112 21.5744987,15.6751976 21.8104199,14.4874082 L23.4902679,6.09817044 C23.5522271,5.78874282 23.31557,5.5 23,5.5 L6.09850018,5.5 Z" id="Shape" fill="#000000" fill-rule="nonzero"></path>
    </g>
</svg>