<svg height="24" viewBox="0 0 24 24" width="24" xmlns="http://www.w3.org/2000/svg"><path d="m20.5 6-2.25-3h-11.5l-2.25 3zm.5 1h-17v13.5c0 .8284271.67157288 1.5 1.5 1.5h14c.8284271 0 1.5-.6715729 1.5-1.5zm-14.9-4.8c.09442719-.12590292.24262135-.2.4-.2h12c.1573787 0 .3055728.07409708.4.2l3 4c.0649111.08654809.1.19181489.1.3v14c0 1.3807119-1.1192881 2.5-2.5 2.5h-14c-1.38071187 0-2.5-1.1192881-2.5-2.5v-14c0-.10818511.03508894-.21345191.1-.3zm9.9 8.3c0-.2761424.2238576-.5.5-.5s.5.2238576.5.5c0 2.4852814-2.0147186 4.5-4.5 4.5s-4.5-2.0147186-4.5-4.5c0-.2761424.22385763-.5.5-.5s.5.2238576.5.5c0 1.9329966 1.5670034 3.5 3.5 3.5s3.5-1.5670034 3.5-3.5z"/></svg>