<svg height="24" viewBox="0 0 24 24" width="24" xmlns="http://www.w3.org/2000/svg"><path d="m8 23.5c-1.38071187 0-2.5-1.1192881-2.5-2.5s1.11928813-2.5 2.5-2.5 2.5 1.1192881 2.5 2.5-1.11928813 2.5-2.5 2.5zm0-1c.82842712 0 1.5-.6715729 1.5-1.5s-.67157288-1.5-1.5-1.5-1.5.6715729-1.5 1.5.67157288 1.5 1.5 1.5zm12 1c-1.3807119 0-2.5-1.1192881-2.5-2.5s1.1192881-2.5 2.5-2.5 2.5 1.1192881 2.5 2.5-1.1192881 2.5-2.5 2.5zm0-1c.8284271 0 1.5-.6715729 1.5-1.5s-.6715729-1.5-1.5-1.5-1.5.6715729-1.5 1.5.6715729 1.5 1.5 1.5zm-13.7695554-16 1.01531475 7.695018c.09850185.7514881.74211108 1.3114281 1.50424065 1.304982l10.5795801.0000918c.7264621.0139218 1.3584473-.4948264 1.500152-1.2082622l1.5602234-7.7918296zm-.13194442-1h16.90149982c.31557 0 .5522271.28874282.4902679.59817044l-1.679848 8.38923776c-.2359212 1.1877894-1.28923 2.035703-2.4904199 2.0125918l-10.56575935-.000018c-1.26314821.0107135-2.33583026-.9225199-2.49994433-2.1745767l-1.52005339-11.52040587c-.09778332-.7458031-.73281482-1.30386109-1.48424293-1.30499943h-2.25c-.27614237 0-.5-.22385763-.5-.5s.22385763-.5.5-.5h2.25075707c1.25364196.00189877 2.3120278.93199541 2.47494661 2.17459465z"/></svg>