<svg height="24" viewBox="0 0 24 24" width="24" xmlns="http://www.w3.org/2000/svg"><path d="m19.2928932 4h-3.7928932c-.2761424 0-.5-.22385763-.5-.5s.2238576-.5.5-.5h5c.2761424 0 .5.22385763.5.5v5c0 .27614237-.2238576.5-.5.5s-.5-.22385763-.5-.5v-3.79289322l-16.14644661 16.14644662c-.19526215.1952621-.51184463.1952621-.70710678 0-.19526215-.1952622-.19526215-.5118446 0-.7071068zm.7071068 16.2928932v-3.7928932c0-.2761424.2238576-.5.5-.5s.5.2238576.5.5v5c0 .2761424-.2238576.5-.5.5h-5c-.2761424 0-.5-.2238576-.5-.5s.2238576-.5.5-.5h3.7928932l-5.1464466-5.1464466c-.1952621-.1952622-.1952621-.5118446 0-.7071068.1952622-.1952621.5118446-.1952621.7071068 0zm-16.85355339-15.43933981c-.19526215-.19526215-.19526215-.51184463 0-.70710678s.51184463-.19526215.70710678 0l5 5c.19526215.19526215.19526215.51184463 0 .70710678-.19526215.19526211-.51184463.19526211-.70710678 0z"/></svg>