<svg height="24" viewBox="0 0 24 24" width="24" xmlns="http://www.w3.org/2000/svg"><path d="m14.5 10.5c-1.1061424 0-2-.89385763-2-2v-5c0-1.10614237.8938576-2 2-2s2 .89385763 2 2v5c0 1.10614237-.8938576 2-2 2zm0-1c.5538576 0 1-.44614237 1-1v-5c0-.55385763-.4461424-1-1-1s-1 .44614237-1 1v5c0 .55385763.4461424 1 1 1zm6 1h-1.5c-.2761424 0-.5-.2238576-.5-.5v-1.5c0-1.10614237.8938576-2 2-2s2 .89385763 2 2-.8938576 2-2 2zm-1-1h1c.5538576 0 1-.44614237 1-1s-.4461424-1-1-1-1 .44614237-1 1zm-10 4c1.1061424 0 2 .8938576 2 2v5c0 1.1061424-.8938576 2-2 2-1.10614237 0-2-.8938576-2-2v-5c0-1.1061424.89385763-2 2-2zm0 1c-.55385763 0-1 .4461424-1 1v5c0 .5538576.44614237 1 1 1 .5538576 0 1-.4461424 1-1v-5c0-.5538576-.4461424-1-1-1zm-6-1h1.5c.27614237 0 .5.2238576.5.5v1.5c0 1.1061424-.89385763 2-2 2s-2-.8938576-2-2 .89385763-2 2-2zm1 1h-1c-.55385763 0-1 .4461424-1 1s.44614237 1 1 1 1-.4461424 1-1zm9 0c0-1.1061424.8938576-2 2-2h5c1.1061424 0 2 .8938576 2 2s-.8938576 2-2 2h-5c-1.1061424 0-2-.8938576-2-2zm1 0c0 .5538576.4461424 1 1 1h5c.5538576 0 1-.4461424 1-1s-.4461424-1-1-1h-5c-.5538576 0-1 .4461424-1 1zm1 4c1.1061424 0 2 .8938576 2 2s-.8938576 2-2 2-2-.8938576-2-2v-1.5c0-.2761424.2238576-.5.5-.5zm-1 1v1c0 .5538576.4461424 1 1 1s1-.4461424 1-1-.4461424-1-1-1zm-4-10c0 1.1061424-.89385763 2-2 2h-5c-1.10614237 0-2-.8938576-2-2 0-1.10614237.89385763-2 2-2h5c1.10614237 0 2 .89385763 2 2zm-1 0c0-.55385763-.44614237-1-1-1h-5c-.55385763 0-1 .44614237-1 1 0 .5538576.44614237 1 1 1h5c.55385763 0 1-.4461424 1-1zm-1-4c-1.10614237 0-2-.89385763-2-2s.89385763-2 2-2 2 .89385763 2 2v1.5c0 .27614237-.2238576.5-.5.5zm1-1v-1c0-.55385763-.44614237-1-1-1s-1 .44614237-1 1 .44614237 1 1 1z"/></svg>