<?xml version="1.0" encoding="UTF-8"?>
<svg width="24px" height="24px" viewBox="0 0 24 24" version="1.1" xmlns="http://www.w3.org/2000/svg" xmlns:xlink="http://www.w3.org/1999/xlink">
    <!-- Generator: Sketch 55.2 (78181) - https://sketchapp.com -->
    <title>slack</title>
    <desc>Created with Sketch.</desc>
    <g id="slack" stroke="none" stroke-width="1" fill="none" fill-rule="evenodd">
        <path d="M14.5,10.5 C13.3938576,10.5 12.5,9.60614237 12.5,8.5 L12.5,3.5 C12.5,2.39385763 13.3938576,1.5 14.5,1.5 C15.6061424,1.5 16.5,2.39385763 16.5,3.5 L16.5,8.5 C16.5,9.60614237 15.6061424,10.5 14.5,10.5 Z M14.5,9.5 C15.0538576,9.5 15.5,9.05385763 15.5,8.5 L15.5,3.5 C15.5,2.94614237 15.0538576,2.5 14.5,2.5 C13.9461424,2.5 13.5,2.94614237 13.5,3.5 L13.5,8.5 C13.5,9.05385763 13.9461424,9.5 14.5,9.5 Z M20.5,10.5 L19,10.5 C18.7238576,10.5 18.5,10.2761424 18.5,10 L18.5,8.5 C18.5,7.39385763 19.3938576,6.5 20.5,6.5 C21.6061424,6.5 22.5,7.39385763 22.5,8.5 C22.5,9.60614237 21.6061424,10.5 20.5,10.5 Z M19.5,9.5 L20.5,9.5 C21.0538576,9.5 21.5,9.05385763 21.5,8.5 C21.5,7.94614237 21.0538576,7.5 20.5,7.5 C19.9461424,7.5 19.5,7.94614237 19.5,8.5 L19.5,9.5 Z M9.5,13.5 C10.6061424,13.5 11.5,14.3938576 11.5,15.5 L11.5,20.5 C11.5,21.6061424 10.6061424,22.5 9.5,22.5 C8.39385763,22.5 7.5,21.6061424 7.5,20.5 L7.5,15.5 C7.5,14.3938576 8.39385763,13.5 9.5,13.5 Z M9.5,14.5 C8.94614237,14.5 8.5,14.9461424 8.5,15.5 L8.5,20.5 C8.5,21.0538576 8.94614237,21.5 9.5,21.5 C10.0538576,21.5 10.5,21.0538576 10.5,20.5 L10.5,15.5 C10.5,14.9461424 10.0538576,14.5 9.5,14.5 Z M3.5,13.5 L5,13.5 C5.27614237,13.5 5.5,13.7238576 5.5,14 L5.5,15.5 C5.5,16.6061424 4.60614237,17.5 3.5,17.5 C2.39385763,17.5 1.5,16.6061424 1.5,15.5 C1.5,14.3938576 2.39385763,13.5 3.5,13.5 Z M4.5,14.5 L3.5,14.5 C2.94614237,14.5 2.5,14.9461424 2.5,15.5 C2.5,16.0538576 2.94614237,16.5 3.5,16.5 C4.05385763,16.5 4.5,16.0538576 4.5,15.5 L4.5,14.5 Z M13.5,14.5 C13.5,13.3938576 14.3938576,12.5 15.5,12.5 L20.5,12.5 C21.6061424,12.5 22.5,13.3938576 22.5,14.5 C22.5,15.6061424 21.6061424,16.5 20.5,16.5 L15.5,16.5 C14.3938576,16.5 13.5,15.6061424 13.5,14.5 Z M14.5,14.5 C14.5,15.0538576 14.9461424,15.5 15.5,15.5 L20.5,15.5 C21.0538576,15.5 21.5,15.0538576 21.5,14.5 C21.5,13.9461424 21.0538576,13.5 20.5,13.5 L15.5,13.5 C14.9461424,13.5 14.5,13.9461424 14.5,14.5 Z M15.5,18.5 C16.6061424,18.5 17.5,19.3938576 17.5,20.5 C17.5,21.6061424 16.6061424,22.5 15.5,22.5 C14.3938576,22.5 13.5,21.6061424 13.5,20.5 L13.5,19 C13.5,18.7238576 13.7238576,18.5 14,18.5 L15.5,18.5 Z M14.5,19.5 L14.5,20.5 C14.5,21.0538576 14.9461424,21.5 15.5,21.5 C16.0538576,21.5 16.5,21.0538576 16.5,20.5 C16.5,19.9461424 16.0538576,19.5 15.5,19.5 L14.5,19.5 Z M10.5,9.5 C10.5,10.6061424 9.60614237,11.5 8.5,11.5 L3.5,11.5 C2.39385763,11.5 1.5,10.6061424 1.5,9.5 C1.5,8.39385763 2.39385763,7.5 3.5,7.5 L8.5,7.5 C9.60614237,7.5 10.5,8.39385763 10.5,9.5 Z M9.5,9.5 C9.5,8.94614237 9.05385763,8.5 8.5,8.5 L3.5,8.5 C2.94614237,8.5 2.5,8.94614237 2.5,9.5 C2.5,10.0538576 2.94614237,10.5 3.5,10.5 L8.5,10.5 C9.05385763,10.5 9.5,10.0538576 9.5,9.5 Z M8.5,5.5 C7.39385763,5.5 6.5,4.60614237 6.5,3.5 C6.5,2.39385763 7.39385763,1.5 8.5,1.5 C9.60614237,1.5 10.5,2.39385763 10.5,3.5 L10.5,5 C10.5,5.27614237 10.2761424,5.5 10,5.5 L8.5,5.5 Z M9.5,4.5 L9.5,3.5 C9.5,2.94614237 9.05385763,2.5 8.5,2.5 C7.94614237,2.5 7.5,2.94614237 7.5,3.5 C7.5,4.05385763 7.94614237,4.5 8.5,4.5 L9.5,4.5 Z" id="slack-logo" fill="#000000" fill-rule="nonzero"></path>
    </g>
</svg>