<?xml version="1.0" encoding="UTF-8"?>
<svg width="24px" height="24px" viewBox="0 0 24 24" version="1.1" xmlns="http://www.w3.org/2000/svg" xmlns:xlink="http://www.w3.org/1999/xlink">
    <!-- Generator: Sketch 55.2 (78181) - https://sketchapp.com -->
    <title>slack</title>
    <desc>Created with Sketch.</desc>
    <g id="slack" stroke="none" stroke-width="1" fill="none" fill-rule="evenodd">
        <path d="M8.85586009,1.4412269 C1.03338543,3.796269 -0.903005061,7.35757209 1.4412269,15.1441399 C3.796269,22.9666146 7.35757209,24.9030051 15.1441399,22.5587731 C22.9664687,20.2037749 24.9029328,16.6425607 22.5589042,8.85629564 C20.2112173,1.00690854 16.6656087,-0.909983889 8.85586009,1.4412269 Z M14.8558601,21.6012269 C7.60030706,23.785591 4.59525068,22.151649 2.3987731,14.8558601 C0.214408997,7.60030706 1.84835097,4.59525068 9.14413991,2.3987731 C16.423751,0.20716606 19.4115056,1.82256367 21.6009654,9.14326857 C23.785591,16.3996929 22.151649,19.4047493 14.8558601,21.6012269 Z" id="Shape" fill="#000000" fill-rule="nonzero"></path>
        <path d="M9.81734936,14.8613679 L8.51857167,11.0883824 L6.15274314,11.9027734 C5.89163762,11.9926539 5.60710718,11.8538487 5.51722662,11.5927431 C5.42734606,11.3316376 5.56615133,11.0471072 5.82725686,10.9572266 L8.19308538,10.1428356 L7.37722662,7.77274314 C7.28734606,7.51163762 7.42615133,7.22710718 7.68725686,7.13722662 C7.94836238,7.04734606 8.23289282,7.18615133 8.32277338,7.44725686 L9.13863214,9.81734936 L12.9116176,8.51857167 L12.0972266,6.15274314 C12.0073461,5.89163762 12.1461513,5.60710718 12.4072569,5.51722662 C12.6683624,5.42734606 12.9528928,5.56615133 13.0427734,5.82725686 L13.8571644,8.19308538 L16.2272569,7.37722662 C16.4883624,7.28734606 16.7728928,7.42615133 16.8627734,7.68725686 C16.9526539,7.94836238 16.8138487,8.23289282 16.5527431,8.32277338 L14.1826506,9.13863214 L15.4814283,12.9116176 L17.8472569,12.0972266 C18.1083624,12.0073461 18.3928928,12.1461513 18.4827734,12.4072569 C18.5726539,12.6683624 18.4338487,12.9528928 18.1727431,13.0427734 L15.8069146,13.8571644 L16.6227734,16.2272569 C16.7126539,16.4883624 16.5738487,16.7728928 16.3127431,16.8627734 C16.0516376,16.9526539 15.7671072,16.8138487 15.6772266,16.5527431 L14.8613679,14.1826506 L11.0883824,15.4814283 L11.9027734,17.8472569 C11.9926539,18.1083624 11.8538487,18.3928928 11.5927431,18.4827734 C11.3316376,18.5726539 11.0471072,18.4338487 10.9572266,18.1727431 L10.1428356,15.8069146 L7.77274314,16.6227734 C7.51163762,16.7126539 7.22710718,16.5738487 7.13722662,16.3127431 C7.04734606,16.0516376 7.18615133,15.7671072 7.44725686,15.6772266 L9.81734936,14.8613679 Z M10.7628961,14.5358816 L14.5358816,13.2371039 L13.2371039,9.46411843 L9.46411843,10.7628961 L10.7628961,14.5358816 Z" id="Combined-Shape" fill="#000000" fill-rule="nonzero"></path>
    </g>
</svg>