<svg height="24" viewBox="0 0 24 24" width="24" xmlns="http://www.w3.org/2000/svg"><path d="m4.93818502 5.6452918c-1.51569977 1.68326427-2.43818502 3.91125725-2.43818502 6.3547082 0 5.2467051 4.25329488 9.5 9.5 9.5 2.443451 0 4.6714439-.9224853 6.3547082-2.438185zm.70710678-.70710678 13.4165232 13.41652318c1.5156997-1.6832643 2.438185-3.9112572 2.438185-6.3547082 0-5.24670512-4.2532949-9.5-9.5-9.5-2.44345095 0-4.67144393.92248525-6.3547082 2.43818502zm6.3547082 17.56181498c-5.79898987 0-10.5-4.7010101-10.5-10.5 0-5.79898987 4.70101013-10.5 10.5-10.5 5.7989899 0 10.5 4.70101013 10.5 10.5 0 5.7989899-4.7010101 10.5-10.5 10.5z"/></svg>