<svg height="24" viewBox="0 0 24 24" width="24" xmlns="http://www.w3.org/2000/svg"><path d="m3.5 14.5h-2.5c-.27614237 0-.5-.2238576-.5-.5s.22385763-.5.5-.5h6c.27614237 0 .5.2238576.5.5s-.22385763.5-.5.5h-2.5v6.5c0 .2761424-.22385763.5-.5.5s-.5-.2238576-.5-.5zm1-4.5c0 .2761424-.22385763.5-.5.5s-.5-.2238576-.5-.5v-7c0-.27614237.22385763-.5.5-.5s.5.22385763.5.5zm8 11c0 .2761424-.2238576.5-.5.5s-.5-.2238576-.5-.5v-9c0-.2761424.2238576-.5.5-.5s.5.2238576.5.5zm-1-13.5v-4.5c0-.27614237.2238576-.5.5-.5s.5.22385763.5.5v4.5h2.5c.2761424 0 .5.22385763.5.5s-.2238576.5-.5.5h-6c-.27614237 0-.5-.22385763-.5-.5s.22385763-.5.5-.5zm8 9h-2.5c-.2761424 0-.5-.2238576-.5-.5s.2238576-.5.5-.5h6c.2761424 0 .5.2238576.5.5s-.2238576.5-.5.5h-2.5v4.5c0 .2761424-.2238576.5-.5.5s-.5-.2238576-.5-.5zm1-4.5c0 .2761424-.2238576.5-.5.5s-.5-.2238576-.5-.5v-9c0-.27614237.2238576-.5.5-.5s.5.22385763.5.5z"/></svg>