<svg height="24" viewBox="0 0 24 24" width="24" xmlns="http://www.w3.org/2000/svg"><path d="m12.5 20c-.5522847 0-1-.4477153-1-1s.4477153-1 1-1 1 .4477153 1 1-.4477153 1-1 1zm-5-18h10c1.3807119 0 2.5 1.11928813 2.5 2.5v16c0 1.3807119-1.1192881 2.5-2.5 2.5h-10c-1.38071187 0-2.5-1.1192881-2.5-2.5v-16c0-1.38071187 1.11928813-2.5 2.5-2.5zm0 1c-.82842712 0-1.5.67157288-1.5 1.5v16c0 .8284271.67157288 1.5 1.5 1.5h10c.8284271 0 1.5-.6715729 1.5-1.5v-16c0-.82842712-.6715729-1.5-1.5-1.5z" fill-rule="evenodd"/></svg>