<svg height="24" viewBox="0 0 24 24" width="24" xmlns="http://www.w3.org/2000/svg"><path d="m12.5 23c-5.79898987 0-10.5-4.7010101-10.5-10.5 0-5.79898987 4.70101013-10.5 10.5-10.5 5.7989899 0 10.5 4.70101013 10.5 10.5 0 5.7989899-4.7010101 10.5-10.5 10.5zm0-1c5.2467051 0 9.5-4.2532949 9.5-9.5 0-5.24670512-4.2532949-9.5-9.5-9.5-5.24670512 0-9.5 4.25329488-9.5 9.5 0 5.2467051 4.25329488 9.5 9.5 9.5zm-4.4-7.2c-.16568542-.2209139-.1209139-.5343146.1-.7s.53431458-.1209139.7.1c.03531045.0470806.11427834.14117.2344316.2665473.20500062.2139137.44667955.4287394.72215425.6290847.77967285.5670348 1.66517255.904368 2.64341415.904368s1.8637413-.3373332 2.6434142-.904368c.2754747-.2003453.5171536-.415171.7221542-.6290847.1201533-.1253773.1991211-.2194667.2344316-.2665473.1656854-.2209139.4790861-.2656854.7-.1s.2656854.4790861.1.7c-.2151909.2869212-.6079531.69676-1.1684142 1.104368-.9390771.6829652-2.0223274 1.095632-3.2315858 1.095632s-2.2925087-.4126668-3.23158585-1.095632c-.56046108-.407608-.95322326-.8174468-1.16841415-1.104368zm1.4-4.8c-.27614237 0-.5-.22385763-.5-.5s.22385763-.5.5-.5h.01c.27614237 0 .5.22385763.5.5s-.22385763.5-.5.5zm6 0c-.2761424 0-.5-.22385763-.5-.5s.2238576-.5.5-.5h.01c.2761424 0 .5.22385763.5.5s-.2238576.5-.5.5z"/></svg>