<?xml version="1.0" encoding="UTF-8"?>
<svg width="24px" height="24px" viewBox="0 0 24 24" version="1.1" xmlns="http://www.w3.org/2000/svg" xmlns:xlink="http://www.w3.org/1999/xlink">
    <!-- Generator: Sketch 55.2 (78181) - https://sketchapp.com -->
    <title>speaker</title>
    <desc>Created with Sketch.</desc>
    <g id="speaker" stroke="none" stroke-width="1" fill="none" fill-rule="evenodd">
        <path d="M6.5,2 L18.5,2 C19.8807119,2 21,3.11928813 21,4.5 L21,20.5 C21,21.8807119 19.8807119,23 18.5,23 L6.5,23 C5.11928813,23 4,21.8807119 4,20.5 L4,4.5 C4,3.11928813 5.11928813,2 6.5,2 Z M6.5,3 C5.67157288,3 5,3.67157288 5,4.5 L5,20.5 C5,21.3284271 5.67157288,22 6.5,22 L18.5,22 C19.3284271,22 20,21.3284271 20,20.5 L20,4.5 C20,3.67157288 19.3284271,3 18.5,3 L6.5,3 Z" id="Rectangle-path" fill="#000000" fill-rule="nonzero"></path>
        <path d="M12.5,19 C10.0147186,19 8,16.9852814 8,14.5 C8,12.0147186 10.0147186,10 12.5,10 C14.9852814,10 17,12.0147186 17,14.5 C17,16.9852814 14.9852814,19 12.5,19 Z M12.5,18 C14.4329966,18 16,16.4329966 16,14.5 C16,12.5670034 14.4329966,11 12.5,11 C10.5670034,11 9,12.5670034 9,14.5 C9,16.4329966 10.5670034,18 12.5,18 Z M12.5,7.5 C11.9477153,7.5 11.5,7.05228475 11.5,6.5 C11.5,5.94771525 11.9477153,5.5 12.5,5.5 C13.0522847,5.5 13.5,5.94771525 13.5,6.5 C13.5,7.05228475 13.0522847,7.5 12.5,7.5 Z" id="Combined-Shape" fill="#000000" fill-rule="nonzero"></path>
    </g>
</svg>