<svg height="24" viewBox="0 0 24 24" width="24" xmlns="http://www.w3.org/2000/svg"><path d="m8.07841348 8.30323305 2.97377702-6.02454501c.1834177-.37158405.7132897-.37158405.8967073 0l2.973777 6.02454501 6.6501835.97202392c.4099573.0599214.573349.56384204.2765523.85292213l-4.8116055 4.6865037 1.1355434 6.6207955c.0700592.4084811-.3587152.7199627-.72553.5270585l-5.9472743-3.127612-5.94727439 3.127612c-.36681479.1929042-.79558921-.1185774-.72552995-.5270585l1.13554341-6.6207955-4.8116055-4.6865037c-.29679677-.28908009-.13340505-.79300073.27655229-.85292213zm3.42213072-4.67360588-2.64164636 5.35168479c-.07276987.14742375-.21336247.24965338-.37603957.27343107l-5.90810827.86355857 4.27466057 4.1635193c.11793686.1148706.17176818.2804361.14393791.4427008l-1.00871392 5.881315 5.28318394-2.7783735c.1456915-.0766176.3197599-.0766176.4654513 0l5.283184 2.7783735-1.0087139-5.881315c-.0278303-.1622647.026001-.3278302.1439379-.4427008l4.2746605-4.1635193-5.9081082-.86355857c-.1626771-.02377769-.3032697-.12600732-.3760396-.27343107z"/></svg>