<?xml version="1.0" encoding="UTF-8"?>
<svg width="24px" height="24px" viewBox="0 0 24 24" version="1.1" xmlns="http://www.w3.org/2000/svg" xmlns:xlink="http://www.w3.org/1999/xlink">
    <!-- Generator: Sketch 55.2 (78181) - https://sketchapp.com -->
    <title>star</title>
    <desc>Created with Sketch.</desc>
    <g id="star" stroke="none" stroke-width="1" fill="none" fill-rule="evenodd">
        <path d="M8.07841348,8.30323305 L11.0521905,2.27868804 C11.2356082,1.90710399 11.7654802,1.90710399 11.9488978,2.27868804 L14.9226748,8.30323305 L21.5728583,9.27525697 C21.9828156,9.33517837 22.1462073,9.83909901 21.8494106,10.1281791 L17.0378051,14.8146828 L18.1733485,21.4354783 C18.2434077,21.8439594 17.8146333,22.155441 17.4478185,21.9625368 L11.5005442,18.8349248 L5.55326981,21.9625368 C5.18645502,22.155441 4.7576806,21.8439594 4.82773986,21.4354783 L5.96328327,14.8146828 L1.15167777,10.1281791 C0.854881003,9.83909901 1.01827272,9.33517837 1.42823006,9.27525697 L8.07841348,8.30323305 Z M11.5005442,3.62962717 L8.85889784,8.98131196 C8.78612797,9.12873571 8.64553537,9.23096534 8.48285827,9.25474303 L2.57475,10.1183016 L6.84941057,14.2818209 C6.96734743,14.3966915 7.02117875,14.562257 6.99334848,14.7245217 L5.98463456,20.6058367 L11.2678185,17.8274632 C11.41351,17.7508456 11.5875784,17.7508456 11.7332698,17.8274632 L17.0164538,20.6058367 L16.0077399,14.7245217 C15.9799096,14.562257 16.0337409,14.3966915 16.1516778,14.2818209 L20.4263383,10.1183016 L14.5182301,9.25474303 C14.355553,9.23096534 14.2149604,9.12873571 14.1421905,8.98131196 L11.5005442,3.62962717 Z" id="Shape" fill="#000000" fill-rule="nonzero"></path>
    </g>
</svg>