<svg height="24" viewBox="0 0 24 24" width="24" xmlns="http://www.w3.org/2000/svg"><path d="m12 17.5c-3.03756612 0-5.5-2.4624339-5.5-5.5 0-3.03756612 2.46243388-5.5 5.5-5.5 3.0375661 0 5.5 2.46243388 5.5 5.5 0 3.0375661-2.4624339 5.5-5.5 5.5zm0-1c2.4852814 0 4.5-2.0147186 4.5-4.5 0-2.48528137-2.0147186-4.5-4.5-4.5-2.48528137 0-4.5 2.01471863-4.5 4.5 0 2.4852814 2.01471863 4.5 4.5 4.5zm-.5-15.5c0-.27614237.2238576-.5.5-.5s.5.22385763.5.5v2c0 .27614237-.2238576.5-.5.5s-.5-.22385763-.5-.5zm0 20c0-.2761424.2238576-.5.5-.5s.5.2238576.5.5v2c0 .2761424-.2238576.5-.5.5s-.5-.2238576-.5-.5zm-7.63355339-16.42644661c-.19526215-.19526215-.19526215-.51184463 0-.70710678s.51184463-.19526215.70710678 0l1.42 1.42c.19526215.19526215.19526215.51184463 0 .70710678s-.51184463.19526215-.70710678 0zm14.13999999 14.14000001c-.1952621-.1952622-.1952621-.5118446 0-.7071068.1952622-.1952621.5118446-.1952621.7071068 0l1.42 1.42c.1952621.1952622.1952621.5118446 0 .7071068-.1952622.1952621-.5118446.1952621-.7071068 0zm-17.0064466-6.2135534c-.27614237 0-.5-.2238576-.5-.5s.22385763-.5.5-.5h2c.27614237 0 .5.2238576.5.5s-.22385763.5-.5.5zm20 0c-.2761424 0-.5-.2238576-.5-.5s.2238576-.5.5-.5h2c.2761424 0 .5.2238576.5.5s-.2238576.5-.5.5zm-16.42644661 7.6335534c-.19526215.1952621-.51184463.1952621-.70710678 0-.19526215-.1952622-.19526215-.5118446 0-.7071068l1.42-1.42c.19526215-.1952621.51184463-.1952621.70710678 0 .19526215.1952622.19526215.5118446 0 .7071068zm14.14000001-14.14000001c-.1952622.19526215-.5118446.19526215-.7071068 0-.1952621-.19526215-.1952621-.51184463 0-.70710678l1.42-1.42c.1952622-.19526215.5118446-.19526215.7071068 0 .1952621.19526215.1952621.51184463 0 .70710678z"/></svg>