<?xml version="1.0" encoding="UTF-8"?>
<svg width="24px" height="24px" viewBox="0 0 24 24" version="1.1" xmlns="http://www.w3.org/2000/svg" xmlns:xlink="http://www.w3.org/1999/xlink">
    <!-- Generator: Sketch 55.2 (78181) - https://sketchapp.com -->
    <title>sun</title>
    <desc>Created with Sketch.</desc>
    <g id="sun" stroke="none" stroke-width="1" fill="none" fill-rule="evenodd">
        <path d="M12,17.5 C15.0375661,17.5 17.5,15.0375661 17.5,12 C17.5,8.96243388 15.0375661,6.5 12,6.5 C8.96243388,6.5 6.5,8.96243388 6.5,12 C6.5,15.0375661 8.96243388,17.5 12,17.5 Z M12,16.5 C9.51471863,16.5 7.5,14.4852814 7.5,12 C7.5,9.51471863 9.51471863,7.5 12,7.5 C14.4852814,7.5 16.5,9.51471863 16.5,12 C16.5,14.4852814 14.4852814,16.5 12,16.5 Z" id="Oval" fill="#000000" fill-rule="nonzero"></path>
        <path d="M11.5,1 L11.5,3 C11.5,3.27614237 11.7238576,3.5 12,3.5 C12.2761424,3.5 12.5,3.27614237 12.5,3 L12.5,1 C12.5,0.723857625 12.2761424,0.5 12,0.5 C11.7238576,0.5 11.5,0.723857625 11.5,1 Z" id="Shape" fill="#000000" fill-rule="nonzero"></path>
        <path d="M11.5,21 L11.5,23 C11.5,23.2761424 11.7238576,23.5 12,23.5 C12.2761424,23.5 12.5,23.2761424 12.5,23 L12.5,21 C12.5,20.7238576 12.2761424,20.5 12,20.5 C11.7238576,20.5 11.5,20.7238576 11.5,21 Z" id="Shape" fill="#000000" fill-rule="nonzero"></path>
        <path d="M3.86644661,4.57355339 L5.28644661,5.99355339 C5.48170876,6.18881554 5.79829124,6.18881554 5.99355339,5.99355339 C6.18881554,5.79829124 6.18881554,5.48170876 5.99355339,5.28644661 L4.57355339,3.86644661 C4.37829124,3.67118446 4.06170876,3.67118446 3.86644661,3.86644661 C3.67118446,4.06170876 3.67118446,4.37829124 3.86644661,4.57355339 Z" id="Shape" fill="#000000" fill-rule="nonzero"></path>
        <path d="M18.0064466,18.7135534 L19.4264466,20.1335534 C19.6217088,20.3288155 19.9382912,20.3288155 20.1335534,20.1335534 C20.3288155,19.9382912 20.3288155,19.6217088 20.1335534,19.4264466 L18.7135534,18.0064466 C18.5182912,17.8111845 18.2017088,17.8111845 18.0064466,18.0064466 C17.8111845,18.2017088 17.8111845,18.5182912 18.0064466,18.7135534 Z" id="Shape" fill="#000000" fill-rule="nonzero"></path>
        <path d="M1,12.5 L3,12.5 C3.27614237,12.5 3.5,12.2761424 3.5,12 C3.5,11.7238576 3.27614237,11.5 3,11.5 L1,11.5 C0.723857625,11.5 0.5,11.7238576 0.5,12 C0.5,12.2761424 0.723857625,12.5 1,12.5 Z" id="Shape" fill="#000000" fill-rule="nonzero"></path>
        <path d="M21,12.5 L23,12.5 C23.2761424,12.5 23.5,12.2761424 23.5,12 C23.5,11.7238576 23.2761424,11.5 23,11.5 L21,11.5 C20.7238576,11.5 20.5,11.7238576 20.5,12 C20.5,12.2761424 20.7238576,12.5 21,12.5 Z" id="Shape" fill="#000000" fill-rule="nonzero"></path>
        <path d="M4.57355339,20.1335534 L5.99355339,18.7135534 C6.18881554,18.5182912 6.18881554,18.2017088 5.99355339,18.0064466 C5.79829124,17.8111845 5.48170876,17.8111845 5.28644661,18.0064466 L3.86644661,19.4264466 C3.67118446,19.6217088 3.67118446,19.9382912 3.86644661,20.1335534 C4.06170876,20.3288155 4.37829124,20.3288155 4.57355339,20.1335534 Z" id="Shape" fill="#000000" fill-rule="nonzero"></path>
        <path d="M18.7135534,5.99355339 L20.1335534,4.57355339 C20.3288155,4.37829124 20.3288155,4.06170876 20.1335534,3.86644661 C19.9382912,3.67118446 19.6217088,3.67118446 19.4264466,3.86644661 L18.0064466,5.28644661 C17.8111845,5.48170876 17.8111845,5.79829124 18.0064466,5.99355339 C18.2017088,6.18881554 18.5182912,6.18881554 18.7135534,5.99355339 Z" id="Shape" fill="#000000" fill-rule="nonzero"></path>
    </g>
</svg>