<svg height="24" viewBox="0 0 24 24" width="24" xmlns="http://www.w3.org/2000/svg"><path d="m17.5 18c0 .2761424-.2238576.5-.5.5s-.5-.2238576-.5-.5c0-2.4852814-2.0147186-4.5-4.5-4.5-2.48528137 0-4.5 2.0147186-4.5 4.5 0 .2761424-.22385763.5-.5.5s-.5-.2238576-.5-.5c0-3.0375661 2.46243388-5.5 5.5-5.5 3.0375661 0 5.5 2.4624339 5.5 5.5zm-5-14.79289322v5.79289322c0 .27614237-.2238576.5-.5.5s-.5-.22385763-.5-.5v-5.79289322l-3.14644661 3.14644661c-.19526215.19526215-.51184463.19526215-.70710678 0s-.19526215-.51184463 0-.70710678l3.99999999-4c.1952622-.19526215.5118446-.19526215.7071068 0l4 4c.1952621.19526215.1952621.51184463 0 .70710678-.1952622.19526215-.5118446.19526215-.7071068 0zm-8.63355339 7.36644662c-.19526215-.1952622-.19526215-.5118446 0-.70710679.19526215-.19526215.51184463-.19526215.70710678 0l1.42 1.41999999c.19526215.1952622.19526215.5118446 0 .7071068-.19526215.1952621-.51184463.1952621-.70710678 0zm-2.86644661 7.9264466c-.27614237 0-.5-.2238576-.5-.5s.22385763-.5.5-.5h2c.27614237 0 .5.2238576.5.5s-.22385763.5-.5.5zm20 0c-.2761424 0-.5-.2238576-.5-.5s.2238576-.5.5-.5h2c.2761424 0 .5.2238576.5.5s-.2238576.5-.5.5zm-2.2864466-6.5064466c-.1952622.1952621-.5118446.1952621-.7071068 0-.1952621-.1952622-.1952621-.5118446 0-.7071068l1.42-1.41999999c.1952622-.19526215.5118446-.19526215.7071068 0 .1952621.19526219.1952621.51184459 0 .70710679zm4.2864466 9.5064466c.2761424 0 .5.2238576.5.5s-.2238576.5-.5.5h-22c-.27614237 0-.5-.2238576-.5-.5s.22385763-.5.5-.5z"/></svg>