<?xml version="1.0" encoding="UTF-8"?>
<svg width="24px" height="24px" viewBox="0 0 24 24" version="1.1" xmlns="http://www.w3.org/2000/svg" xmlns:xlink="http://www.w3.org/1999/xlink">
    <!-- Generator: Sketch 55.2 (78181) - https://sketchapp.com -->
    <title>sunset</title>
    <desc>Created with Sketch.</desc>
    <g id="sunset" stroke="none" stroke-width="1" fill="none" fill-rule="evenodd">
        <path d="M17.5,18 C17.5,14.9624339 15.0375661,12.5 12,12.5 C8.96243388,12.5 6.5,14.9624339 6.5,18 C6.5,18.2761424 6.72385763,18.5 7,18.5 C7.27614237,18.5 7.5,18.2761424 7.5,18 C7.5,15.5147186 9.51471863,13.5 12,13.5 C14.4852814,13.5 16.5,15.5147186 16.5,18 C16.5,18.2761424 16.7238576,18.5 17,18.5 C17.2761424,18.5 17.5,18.2761424 17.5,18 Z" id="Shape" fill="#000000" fill-rule="nonzero"></path>
        <path d="M11.5,7.79289322 L11.5,2 C11.5,1.72385763 11.7238576,1.5 12,1.5 C12.2761424,1.5 12.5,1.72385763 12.5,2 L12.5,7.79289322 L15.6464466,4.64644661 C15.8417088,4.45118446 16.1582912,4.45118446 16.3535534,4.64644661 C16.5488155,4.84170876 16.5488155,5.15829124 16.3535534,5.35355339 L12.3535534,9.35355339 C12.1582912,9.54881554 11.8417088,9.54881554 11.6464466,9.35355339 L7.64644661,5.35355339 C7.45118446,5.15829124 7.45118446,4.84170876 7.64644661,4.64644661 C7.84170876,4.45118446 8.15829124,4.45118446 8.35355339,4.64644661 L11.5,7.79289322 Z" id="arrow-up" fill="#000000" fill-rule="nonzero"></path>
        <path d="M3.86644661,10.5735534 L5.28644661,11.9935534 C5.48170876,12.1888155 5.79829124,12.1888155 5.99355339,11.9935534 C6.18881554,11.7982912 6.18881554,11.4817088 5.99355339,11.2864466 L4.57355339,9.86644661 C4.37829124,9.67118446 4.06170876,9.67118446 3.86644661,9.86644661 C3.67118446,10.0617088 3.67118446,10.3782912 3.86644661,10.5735534 Z" id="Shape" fill="#000000" fill-rule="nonzero"></path>
        <path d="M1,18.5 L3,18.5 C3.27614237,18.5 3.5,18.2761424 3.5,18 C3.5,17.7238576 3.27614237,17.5 3,17.5 L1,17.5 C0.723857625,17.5 0.5,17.7238576 0.5,18 C0.5,18.2761424 0.723857625,18.5 1,18.5 Z" id="Shape" fill="#000000" fill-rule="nonzero"></path>
        <path d="M21,18.5 L23,18.5 C23.2761424,18.5 23.5,18.2761424 23.5,18 C23.5,17.7238576 23.2761424,17.5 23,17.5 L21,17.5 C20.7238576,17.5 20.5,17.7238576 20.5,18 C20.5,18.2761424 20.7238576,18.5 21,18.5 Z" id="Shape" fill="#000000" fill-rule="nonzero"></path>
        <path d="M18.7135534,11.9935534 L20.1335534,10.5735534 C20.3288155,10.3782912 20.3288155,10.0617088 20.1335534,9.86644661 C19.9382912,9.67118446 19.6217088,9.67118446 19.4264466,9.86644661 L18.0064466,11.2864466 C17.8111845,11.4817088 17.8111845,11.7982912 18.0064466,11.9935534 C18.2017088,12.1888155 18.5182912,12.1888155 18.7135534,11.9935534 Z" id="Shape" fill="#000000" fill-rule="nonzero"></path>
        <path d="M23,21.5 L1,21.5 C0.723857625,21.5 0.5,21.7238576 0.5,22 C0.5,22.2761424 0.723857625,22.5 1,22.5 L23,22.5 C23.2761424,22.5 23.5,22.2761424 23.5,22 C23.5,21.7238576 23.2761424,21.5 23,21.5 Z" id="Shape" fill="#000000" fill-rule="nonzero"></path>
    </g>
</svg>