<?xml version="1.0" encoding="UTF-8"?>
<svg width="24px" height="24px" viewBox="0 0 24 24" version="1.1" xmlns="http://www.w3.org/2000/svg" xmlns:xlink="http://www.w3.org/1999/xlink">
    <!-- Generator: Sketch 55.2 (78181) - https://sketchapp.com -->
    <title>tablet</title>
    <desc>Created with Sketch.</desc>
    <g id="tablet" stroke="none" stroke-width="1" fill="none" fill-rule="evenodd">
        <path d="M18.5,23 L6.5,23 C5.11928813,23 4,21.8807119 4,20.5 L4,4.5 C4,3.11928813 5.11928813,2 6.5,2 L18.5,2 C19.8807119,2 21,3.11928813 21,4.5 L21,20.5 C21,21.8807119 19.8807119,23 18.5,23 Z M18.5,22 C19.3284271,22 20,21.3284271 20,20.5 L20,4.5 C20,3.67157288 19.3284271,3 18.5,3 L6.5,3 C5.67157288,3 5,3.67157288 5,4.5 L5,20.5 C5,21.3284271 5.67157288,22 6.5,22 L18.5,22 Z M12.5,20 C11.9477153,20 11.5,19.5522847 11.5,19 C11.5,18.4477153 11.9477153,18 12.5,18 C13.0522847,18 13.5,18.4477153 13.5,19 C13.5,19.5522847 13.0522847,20 12.5,20 Z" id="Combined-Shape" fill="#000000" fill-rule="nonzero"></path>
    </g>
</svg>