<svg height="24" viewBox="0 0 24 24" width="24" xmlns="http://www.w3.org/2000/svg"><path d="m7 8c-.55228475 0-1-.44771525-1-1s.44771525-1 1-1 1 .44771525 1 1-.44771525 1-1 1zm14.4446037 6.2625-7.1708537 7.1708567c-.4689206.4694426-1.1052269.7332166-1.76875.7332166s-1.2998294-.263774-1.7683474-.7328141l-8.59000002-8.58c-.09389418-.0937848-.14665258-.22105-.14665258-.3537592v-10c0-.27614237.22385763-.5.5-.5h10c.1326082 0 .2597852.05267842.3535534.14644661l8.5910503 8.59105339c.9693089.9750936.9693089 2.5499064 0 3.525zm-18.4446037-1.9697774 8.44375 8.4339207c.2813524.2816656.6631361.43993 1.06125.43993s.7798976-.1582644 1.0614466-.4401267l7.17-7.17c.5805351-.5840028.5805351-1.5288904 0-2.1128932l-8.4435534-8.4435534h-9.2928932z" fill-rule="evenodd"/></svg>