<?xml version="1.0" encoding="UTF-8"?>
<svg width="24px" height="24px" viewBox="0 0 24 24" version="1.1" xmlns="http://www.w3.org/2000/svg" xmlns:xlink="http://www.w3.org/1999/xlink">
    <!-- Generator: Sketch 55.2 (78181) - https://sketchapp.com -->
    <title>tag</title>
    <desc>Created with Sketch.</desc>
    <g id="tag" stroke="none" stroke-width="1" fill="none" fill-rule="evenodd">
        <path d="M7,8 C6.44771525,8 6,7.55228475 6,7 C6,6.44771525 6.44771525,6 7,6 C7.55228475,6 8,6.44771525 8,7 C8,7.55228475 7.55228475,8 7,8 Z M21.4446037,14.2625 L14.27375,21.4333567 C13.8048294,21.9027993 13.1685231,22.1665733 12.505,22.1665733 C11.8414769,22.1665733 11.2051706,21.9027993 10.7366526,21.4337592 L2.14665258,12.8537592 C2.0527584,12.7599744 2,12.6327092 2,12.5 L2,2.5 C2,2.22385763 2.22385763,2 2.5,2 L12.5,2 C12.6326082,2 12.7597852,2.05267842 12.8535534,2.14644661 L21.4446037,10.7375 C22.4139126,11.7125936 22.4139126,13.2874064 21.4446037,14.2625 Z M3,12.2927226 L11.44375,20.7266433 C11.7251024,21.0083089 12.1068861,21.1665733 12.505,21.1665733 C12.9031139,21.1665733 13.2848976,21.0083089 13.5664466,20.7264466 L20.7364466,13.5564466 C21.3169817,12.9724438 21.3169817,12.0275562 20.7364466,11.4435534 L12.2928932,3 L3,3 L3,12.2927226 Z" id="Combined-Shape" fill="#000000"></path>
    </g>
</svg>