<svg height="24" viewBox="0 0 24 24" width="24" xmlns="http://www.w3.org/2000/svg"><path d="m12.5 23c-5.79898987 0-10.5-4.7010101-10.5-10.5 0-5.79898987 4.70101013-10.5 10.5-10.5 5.7989899 0 10.5 4.70101013 10.5 10.5 0 5.7989899-4.7010101 10.5-10.5 10.5zm0-1c5.2467051 0 9.5-4.2532949 9.5-9.5 0-5.24670512-4.2532949-9.5-9.5-9.5-5.24670512 0-9.5 4.25329488-9.5 9.5 0 5.2467051 4.25329488 9.5 9.5 9.5zm0-3c-3.58985087 0-6.5-2.9101491-6.5-6.5 0-3.58985087 2.91014913-6.5 6.5-6.5 3.5898509 0 6.5 2.91014913 6.5 6.5 0 3.5898509-2.9101491 6.5-6.5 6.5zm0-1c3.0375661 0 5.5-2.4624339 5.5-5.5 0-3.03756612-2.4624339-5.5-5.5-5.5-3.03756612 0-5.5 2.46243388-5.5 5.5 0 3.0375661 2.46243388 5.5 5.5 5.5zm0-3c-1.3807119 0-2.5-1.1192881-2.5-2.5s1.1192881-2.5 2.5-2.5 2.5 1.1192881 2.5 2.5-1.1192881 2.5-2.5 2.5zm0-1c.8284271 0 1.5-.6715729 1.5-1.5s-.6715729-1.5-1.5-1.5-1.5.6715729-1.5 1.5.6715729 1.5 1.5 1.5z"/></svg>