<?xml version="1.0" encoding="UTF-8"?>
<svg width="24px" height="24px" viewBox="0 0 24 24" version="1.1" xmlns="http://www.w3.org/2000/svg" xmlns:xlink="http://www.w3.org/1999/xlink">
    <!-- Generator: Sketch 55.2 (78181) - https://sketchapp.com -->
    <title>target</title>
    <desc>Created with Sketch.</desc>
    <g id="target" stroke="none" stroke-width="1" fill="none" fill-rule="evenodd">
        <path d="M12.5,23 C18.2989899,23 23,18.2989899 23,12.5 C23,6.70101013 18.2989899,2 12.5,2 C6.70101013,2 2,6.70101013 2,12.5 C2,18.2989899 6.70101013,23 12.5,23 Z M12.5,22 C7.25329488,22 3,17.7467051 3,12.5 C3,7.25329488 7.25329488,3 12.5,3 C17.7467051,3 22,7.25329488 22,12.5 C22,17.7467051 17.7467051,22 12.5,22 Z" id="Oval" fill="#000000" fill-rule="nonzero"></path>
        <path d="M12.5,19 C16.0898509,19 19,16.0898509 19,12.5 C19,8.91014913 16.0898509,6 12.5,6 C8.91014913,6 6,8.91014913 6,12.5 C6,16.0898509 8.91014913,19 12.5,19 Z M12.5,18 C9.46243388,18 7,15.5375661 7,12.5 C7,9.46243388 9.46243388,7 12.5,7 C15.5375661,7 18,9.46243388 18,12.5 C18,15.5375661 15.5375661,18 12.5,18 Z" id="Oval" fill="#000000" fill-rule="nonzero"></path>
        <path d="M12.5,15 C13.8807119,15 15,13.8807119 15,12.5 C15,11.1192881 13.8807119,10 12.5,10 C11.1192881,10 10,11.1192881 10,12.5 C10,13.8807119 11.1192881,15 12.5,15 Z M12.5,14 C11.6715729,14 11,13.3284271 11,12.5 C11,11.6715729 11.6715729,11 12.5,11 C13.3284271,11 14,11.6715729 14,12.5 C14,13.3284271 13.3284271,14 12.5,14 Z" id="Oval" fill="#000000" fill-rule="nonzero"></path>
    </g>
</svg>