<svg height="24" viewBox="0 0 24 24" width="24" xmlns="http://www.w3.org/2000/svg"><path d="m9.79289322 11.5-5.64644661-5.64644661c-.19526215-.19526215-.19526215-.51184463 0-.70710678s.51184463-.19526215.70710678 0l6.00000001 5.99999999c.1952621.1952622.1952621.5118446 0 .7071068l-6.00000001 6c-.19526215.1952621-.51184463.1952621-.70710678 0-.19526215-.1952622-.19526215-.5118446 0-.7071068zm2.70710678 8.5c-.2761424 0-.5-.2238576-.5-.5s.2238576-.5.5-.5h8c.2761424 0 .5.2238576.5.5s-.2238576.5-.5.5z"/></svg>