<?xml version="1.0" encoding="UTF-8"?>
<svg width="24px" height="24px" viewBox="0 0 24 24" version="1.1" xmlns="http://www.w3.org/2000/svg" xmlns:xlink="http://www.w3.org/1999/xlink">
    <!-- Generator: Sketch 55.2 (78181) - https://sketchapp.com -->
    <title>thermometer</title>
    <desc>Created with Sketch.</desc>
    <g id="thermometer" stroke="none" stroke-width="1" fill="none" fill-rule="evenodd">
        <path d="M15.0003877,4 C15.0003877,2.34314575 13.6572419,1 12.0003877,1 C10.3435334,1 9.00038768,2.34314575 9.00038768,4 L9.00038768,15.0015874 C7.3263712,16.2561413 6.6028448,18.4327499 7.21567319,20.4530385 C7.85497335,22.5605957 9.79800218,24.0016574 12.0003877,24.0016574 C14.2027732,24.0016574 16.145802,22.5605957 16.7851022,20.4530385 C17.3979306,18.4327499 16.6744042,16.2561413 15.0003877,15.0015874 L15.0003877,4 Z M14.0003877,15.26 C14.0003877,15.4269944 14.0837575,15.582965 14.2226099,15.6757397 C15.6876005,16.6545777 16.3395994,18.4767166 15.8281593,20.1627623 C15.3167191,21.848808 13.7622961,23.0016574 12.0003877,23.0016574 C10.2384793,23.0016574 8.68405622,21.848808 8.17261609,20.1627623 C7.66117596,18.4767166 8.31317488,16.6545777 9.77816546,15.6757397 C9.91701789,15.582965 10.0003877,15.4269944 10.0003877,15.26 L10.0003877,4 C10.0003877,2.8954305 10.8958182,2 12.0003877,2 C13.1049572,2 14.0003877,2.8954305 14.0003877,4 L14.0003877,15.26 Z" id="Shape" fill="#000000" fill-rule="nonzero"></path>
    </g>
</svg>