<svg height="24" viewBox="0 0 24 24" width="24" xmlns="http://www.w3.org/2000/svg"><path d="m15.0003877 4c0-1.65685425-1.3431458-3-3-3-1.6568543 0-3.00000002 1.34314575-3.00000002 3v11.0015874c-1.67401648 1.2545539-2.39754288 3.4311625-1.78471449 5.4514511.63930016 2.1075572 2.58232899 3.5486189 4.78471451 3.5486189 2.2023855 0 4.1454143-1.4410617 4.7847145-3.5486189.6128284-2.0202886-.110698-4.1968972-1.7847145-5.4514511zm-1 11.26c0 .1669944.0833698.322965.2222222.4157397 1.4649906.978838 2.1169895 2.8009769 1.6055494 4.4870226-.5114402 1.6860457-2.0658632 2.8388951-3.8277716 2.8388951s-3.31633148-1.1528494-3.82777161-2.8388951.14055879-3.5081846 1.60554937-4.4870226c.13885243-.0927747.22222224-.2487453.22222224-.4157397v-11.26c0-1.1045695.8954305-2 2-2s2 .8954305 2 2z"/></svg>