<svg height="24" viewBox="0 0 24 24" width="24" xmlns="http://www.w3.org/2000/svg"><path d="m7.17506346 10 3.86803074-8.70306923c.0802507-.18056401.2593114-.29693077.4569058-.29693077 1.9329966 0 3.5 1.56700338 3.5 3.5v3.5l5.1543381.00003206c.7334397-.00830581 1.4335248.30589984 1.9148232.85939292.4812983.55349308.6952469 1.29042622.5850626 2.01635602l-1.3798761 8.9991871c-.1869177 1.2325566-1.2533366 2.1390611-2.4943478 2.1253192h-11.28c-.00384382 0-.00767751 0-.01150061-.0002873h-2.98849939c-1.38071187 0-2.5-1.1192881-2.5-2.5v-7c0-1.3807119 1.11928813-2.5 2.5-2.5zm-.17506346 1h-2.5c-.82842712 0-1.5.6715729-1.5 1.5v7c0 .8284271.67157288 1.5 1.5 1.5h2.5zm1 10.0002559h10.7855872c.7480201.0082641 1.3879117-.5356728 1.5001889-1.2760369l1.3798858-8.9992511c.066042-.4351085-.0623272-.87726835-.3511062-1.2093642s-.7088301-.52061924-1.1545557-.5156037h-5.66c-.2761424 0-.5-.22385763-.5-.5v-4c0-1.27362681-.9524017-2.32480829-2.1838626-2.48020192l-3.8161374 8.58630912z"/></svg>