<svg height="24" viewBox="0 0 24 24" width="24" xmlns="http://www.w3.org/2000/svg"><path d="m17.5075373 13.0003677-3.8680307 8.7030692c-.0802507.1805641-.2593115.2969308-.4569058.2969308-1.9329966 0-3.50000002-1.5670034-3.50000002-3.5v-3.5000028l-5.15433813-.0000292c-.73343963.0083058-1.43352481-.3058999-1.91482314-.859393s-.69524689-1.2904262-.58506261-2.016356l1.37987604-8.99918704c.18691771-1.23255661 1.25333663-2.13906115 2.49434784-2.12516161h11.28000002c.0038488 0 .0076875.00004349.0115156.00013l2.6496431.00007783c1.4250588-.02520248 2.6432803 1.02048121 2.8388413 2.49992183l-.0045122 7.06702139c-.1910488 1.4124192-1.4092703 2.4581029-2.8254878 2.4329786zm.1750635-.9999854 2.1788412.0000636c.9179204.0162336 1.7026112-.6573206 1.8211588-1.5000782l.0045122-6.9329786c-.1230598-.90977893-.9077506-1.58333319-1.8345122-1.56702139h-2.17zm-1-10.00027051h-10.78558718c-.74802014-.0082641-1.38791177.53567287-1.50018896 1.27603692l-1.37988575 8.99925109c-.06604201.4351085.06232712.8772684.35110612 1.2093642.288779.3320959.70883011.5206193 1.15455575.5156037h5.66000002c.2761424 0 .5.2238576.5.5v4c0 1.2736268.9524017 2.3248083 2.1838626 2.4802019l3.8161374-8.5863091z"/></svg>