<?xml version="1.0" encoding="UTF-8"?>
<svg width="24px" height="24px" viewBox="0 0 24 24" version="1.1" xmlns="http://www.w3.org/2000/svg" xmlns:xlink="http://www.w3.org/1999/xlink">
    <!-- Generator: Sketch 55.2 (78181) - https://sketchapp.com -->
    <title>toggle-right</title>
    <desc>Created with Sketch.</desc>
    <g id="toggle-right" stroke="none" stroke-width="1" fill="none" fill-rule="evenodd">
        <path d="M8.5,5 L16.5,5 C20.6421356,5 24,8.35786438 24,12.5 C24,16.6421356 20.6421356,20 16.5,20 L8.5,20 C4.35786438,20 1,16.6421356 1,12.5 C1,8.35786438 4.35786438,5 8.5,5 Z M8.5,6 C4.91014913,6 2,8.91014913 2,12.5 C2,16.0898509 4.91014913,19 8.5,19 L16.5,19 C20.0898509,19 23,16.0898509 23,12.5 C23,8.91014913 20.0898509,6 16.5,6 L8.5,6 Z" id="Rectangle-path" fill="#000000" fill-rule="nonzero"></path>
        <path d="M16.5,16 C18.4329966,16 20,14.4329966 20,12.5 C20,10.5670034 18.4329966,9 16.5,9 C14.5670034,9 13,10.5670034 13,12.5 C13,14.4329966 14.5670034,16 16.5,16 Z M16.5,15 C15.1192881,15 14,13.8807119 14,12.5 C14,11.1192881 15.1192881,10 16.5,10 C17.8807119,10 19,11.1192881 19,12.5 C19,13.8807119 17.8807119,15 16.5,15 Z" id="Oval" fill="#000000" fill-rule="nonzero"></path>
    </g>
</svg>