<svg height="24" viewBox="0 0 24 24" width="24" xmlns="http://www.w3.org/2000/svg"><path d="m8 6v-1.5c0-1.38071187 1.11928813-2.5 2.5-2.5h4c1.3807119 0 2.5 1.11928813 2.5 2.5v1.5h4.5c.2761424 0 .5.22385763.5.5s-.2238576.5-.5.5h-1.5v13.5c0 1.3807119-1.1192881 2.5-2.5 2.5h-10c-1.38071187 0-2.5-1.1192881-2.5-2.5v-13.5h-1.5c-.27614237 0-.5-.22385763-.5-.5s.22385763-.5.5-.5zm1 0h7v-1.5c0-.82842712-.6715729-1.5-1.5-1.5h-4c-.82842712 0-1.5.67157288-1.5 1.5zm10 1h-13v13.5c0 .8284271.67157288 1.5 1.5 1.5h10c.8284271 0 1.5-.6715729 1.5-1.5zm-9 4.5c0-.2761424.2238576-.5.5-.5s.5.2238576.5.5v6c0 .2761424-.2238576.5-.5.5s-.5-.2238576-.5-.5zm4 0c0-.2761424.2238576-.5.5-.5s.5.2238576.5.5v6c0 .2761424-.2238576.5-.5.5s-.5-.2238576-.5-.5z"/></svg>