<?xml version="1.0" encoding="UTF-8"?>
<svg width="24px" height="24px" viewBox="0 0 24 24" version="1.1" xmlns="http://www.w3.org/2000/svg" xmlns:xlink="http://www.w3.org/1999/xlink">
    <!-- Generator: Sketch 55.2 (78181) - https://sketchapp.com -->
    <title>trash</title>
    <desc>Created with Sketch.</desc>
    <g id="trash" stroke="none" stroke-width="1" fill="none" fill-rule="evenodd">
        <path d="M8,6 L8,4.5 C8,3.11928813 9.11928813,2 10.5,2 L14.5,2 C15.8807119,2 17,3.11928813 17,4.5 L17,6 L21.5,6 C21.7761424,6 22,6.22385763 22,6.5 C22,6.77614237 21.7761424,7 21.5,7 L20,7 L20,20.5 C20,21.8807119 18.8807119,23 17.5,23 L7.5,23 C6.11928813,23 5,21.8807119 5,20.5 L5,7 L3.5,7 C3.22385763,7 3,6.77614237 3,6.5 C3,6.22385763 3.22385763,6 3.5,6 L8,6 Z M9,6 L16,6 L16,4.5 C16,3.67157288 15.3284271,3 14.5,3 L10.5,3 C9.67157288,3 9,3.67157288 9,4.5 L9,6 Z M19,7 L6,7 L6,20.5 C6,21.3284271 6.67157288,22 7.5,22 L17.5,22 C18.3284271,22 19,21.3284271 19,20.5 L19,7 Z" id="Combined-Shape" fill="#000000" fill-rule="nonzero"></path>
    </g>
</svg>