<?xml version="1.0" encoding="UTF-8"?>
<svg width="24px" height="24px" viewBox="0 0 24 24" version="1.1" xmlns="http://www.w3.org/2000/svg" xmlns:xlink="http://www.w3.org/1999/xlink">
    <!-- Generator: Sketch 55.2 (78181) - https://sketchapp.com -->
    <title>trello</title>
    <desc>Created with Sketch.</desc>
    <g id="trello" stroke="none" stroke-width="1" fill="none" fill-rule="evenodd">
        <path d="M5.5,3 L19.5,3 C20.8807119,3 22,4.11928813 22,5.5 L22,19.5 C22,20.8807119 20.8807119,22 19.5,22 L5.5,22 C4.11928813,22 3,20.8807119 3,19.5 L3,5.5 C3,4.11928813 4.11928813,3 5.5,3 Z M5.5,4 C4.67157288,4 4,4.67157288 4,5.5 L4,19.5 C4,20.3284271 4.67157288,21 5.5,21 L19.5,21 C20.3284271,21 21,20.3284271 21,19.5 L21,5.5 C21,4.67157288 20.3284271,4 19.5,4 L5.5,4 Z M7,7.5 C7,7.22385763 7.22385763,7 7.5,7 L10.5,7 C10.7761424,7 11,7.22385763 11,7.5 L11,16.5 C11,16.7761424 10.7761424,17 10.5,17 L7.5,17 C7.22385763,17 7,16.7761424 7,16.5 L7,7.5 Z M8,8 L8,16 L10,16 L10,8 L8,8 Z M14,7.5 C14,7.22385763 14.2238576,7 14.5,7 L17.5,7 C17.7761424,7 18,7.22385763 18,7.5 L18,12.5 C18,12.7761424 17.7761424,13 17.5,13 L14.5,13 C14.2238576,13 14,12.7761424 14,12.5 L14,7.5 Z M15,8 L15,12 L17,12 L17,8 L15,8 Z" id="Combined-Shape" fill="#000000" fill-rule="nonzero"></path>
    </g>
</svg>