<svg height="24" viewBox="0 0 24 24" width="24" xmlns="http://www.w3.org/2000/svg"><path d="m22.5 17.2928932v-4.7928932c0-.2761424.2238576-.5.5-.5s.5.2238576.5.5v6c0 .2761424-.2238576.5-.5.5h-6c-.2761424 0-.5-.2238576-.5-.5s.2238576-.5.5-.5h4.7928932l-8.2928932-8.29289322-4.64644661 4.64644662c-.19526215.1952621-.51184463.1952621-.70710678 0l-7.5-7.50000001c-.19526215-.19526215-.19526215-.51184463 0-.70710678s.51184463-.19526215.70710678 0l7.14644661 7.14644659 4.6464466-4.64644659c.1952622-.19526215.5118446-.19526215.7071068 0z"/></svg>