<svg height="24" viewBox="0 0 24 24" width="24" xmlns="http://www.w3.org/2000/svg"><path d="m21.7928932 7h-4.7928932c-.2761424 0-.5-.22385763-.5-.5s.2238576-.5.5-.5h6c.2761424 0 .5.22385763.5.5v6c0 .2761424-.2238576.5-.5.5s-.5-.2238576-.5-.5v-4.79289322l-8.6464466 8.64644662c-.1952622.1952621-.5118446.1952621-.7071068 0l-4.6464466-4.6464466-7.14644661 7.1464466c-.19526215.1952621-.51184463.1952621-.70710678 0-.19526215-.1952622-.19526215-.5118446 0-.7071068l7.5-7.5c.19526215-.1952621.51184463-.1952621.70710678 0l4.64644661 4.6464466z"/></svg>