<svg height="24" viewBox="0 0 24 24" width="24" xmlns="http://www.w3.org/2000/svg"><path d="m9.80858749 3.20580846-8.47 14.14000004c-.44825952.7761548-.45091164 1.7233389-.0110284 2.4950639.43988323.771725 1.25623187 1.2520786 2.14446685 1.2618716h16.94549526c.8937302-.009793 1.7100789-.4901466 2.1499621-1.2618716s.4372311-1.7189091-.0069668-2.4881586l-8.4740616-14.14690534c-.4546408-.7495268-1.265076-1.20580846-2.1389337-1.20580846s-1.6842929.45628166-2.1375 1.20343001zm2.13893371-.20580846c.5243146 0 1.0105758.27376899 1.2825.722058l8.4685663 14.1376215c.2624572.4546444.2640485 1.0229549.0001185 1.4859899-.2639299.4630349-.7537391.7512471-1.2866801.7571048h-16.9345047c-.52744572-.0058577-1.0172549-.2940699-1.28118484-.7571048-.26392994-.463035-.26233867-1.0313455.00418011-1.4928952l8.46593843-14.13309466c.2704905-.44591055.7567517-.71967954 1.2810663-.71967954z"/></svg>