<svg height="24" viewBox="0 0 24 24" width="24" xmlns="http://www.w3.org/2000/svg"><path d="m21.2361065 17c.4750399.5307565.7638935 1.2316456.7638935 2 0 1.6568542-1.3431458 3-3 3s-3-1.3431458-3-3c0-.7683544.2888536-1.4692435.7638935-2h-.2638935-8.26389349c.47503992.5307565.76389349 1.2316456.76389349 2 0 1.6568542-1.34314575 3-3 3s-3-1.3431458-3-3c0-.7683544.28885357-1.4692435.76389349-2h-2.26389349c-.27614237 0-.5-.2238576-.5-.5v-13c0-.27614237.22385763-.5.5-.5h15c.2761424 0 .5.22385763.5.5v4.5h3.5c.1326082 0 .2597852.05267842.3535534.14644661l3 2.99999999c.0937682.0937682.1464466.2209452.1464466.3535534v5c0 .2761424-.2238576.5-.5.5zm-4.2361065-8v7h6v-4.2928932l-2.7071068-2.7071068zm-1-.5v-4.5h-14v12h14zm-10 12.5c1.1045695 0 2-.8954305 2-2s-.8954305-2-2-2-2 .8954305-2 2 .8954305 2 2 2zm13 0c1.1045695 0 2-.8954305 2-2s-.8954305-2-2-2-2 .8954305-2 2 .8954305 2 2 2z"/></svg>