<svg height="24" viewBox="0 0 24 24" width="24" xmlns="http://www.w3.org/2000/svg"><path d="m11.2928932 7-4.14644659-4.14644661c-.19526215-.19526215-.19526215-.51184463 0-.70710678s.51184463-.19526215.70710678 0l4.64644661 4.64644661 4.6464466-4.64644661c.1952622-.19526215.5118446-.19526215.7071068 0 .1952621.19526215.1952621.51184463 0 .70710678l-4.1464466 4.14644661h6.7928932c1.3807119 0 2.5 1.11928813 2.5 2.5v11c0 1.3807119-1.1192881 2.5-2.5 2.5h-16c-1.38071187 0-2.5-1.1192881-2.5-2.5v-11c0-1.38071187 1.11928813-2.5 2.5-2.5zm-6.7928932 1c-.82842712 0-1.5.67157288-1.5 1.5v11c0 .8284271.67157288 1.5 1.5 1.5h16c.8284271 0 1.5-.6715729 1.5-1.5v-11c0-.82842712-.6715729-1.5-1.5-1.5z"/></svg>