<svg height="24" viewBox="0 0 24 24" width="24" xmlns="http://www.w3.org/2000/svg"><path d="m15.2047906 3.32760838c-1.9523029.74515376-3.2317546 2.62989292-3.2037424 4.71937989l-.0000223.49444798c-3.22020015-.07056152-6.22865922-1.66685736-8.09084435-4.31850595-.22334718-.31803403-.70824836-.27084406-.86608403.08428621-.03205867.072132-.08467439.20123949-.1509043.38174845-.10859552.29597602-.21678178.63198983-.31756738 1.0025251-.57304217 2.10677271-.67314824 4.32166864.00713165 6.41228484.73376436 2.2549832 2.32032427 4.1212298 4.88315396 5.4620244-1.80282461 1.024116-3.86154353 1.5277547-5.94503583 1.4448815-.52619509-.02093-.72303479.6809386-.2626938.9366836 9.71624608 5.3979145 20.74282148-.4710692 20.74282148-11.93707865-.0007308-.2216461-.0160411-.44206597-.0457932-.66042021.9898908-1.04031425 1.6910888-2.32308365 2.0315946-3.72127075.1093148-.44886943-.3964844-.79318383-.7740046-.52689067-.8294899.58510121-1.7397114 1.04528915-2.7015145 1.36636009-1.3799112-1.38808925-3.4585801-1.84576689-5.306495-1.14045583zm5.8651263 3.49667402c-.1188327.11719152-.1713572.28594815-.140022.44987858.0464867.24319503.0702926.49018102.0711111.73777778-.0000025 9.98761924-8.9136709 15.37729704-17.48825507 11.90831444 1.8792888-.2417938 3.68578542-.9215442 5.26906732-1.9962732.32448793-.2202618.28063585-.7113193-.07774573-.8706-2.79921115-1.2440939-4.44899775-3.0420649-5.17039194-5.2590324-.61109065-1.8779859-.51946351-3.90528117.00688701-5.84039338.03916568-.1439915.07947392-.28211886.12041287-.41394253 2.17385996 2.60209344 5.42964385 4.0888728 8.85298344 4.00010605.2710027-.00702707.4870394-.22873812.4870394-.49983199v-1c-.0224322-1.67661381 1.0001015-3.18289129 2.5603756-3.77841578 1.5602742-.59552448 3.3263899-.15361701 4.4223473 1.10653468.1290609.14839651.3331282.20735201.5214435.15064621.7175278-.21606301 1.4108824-.50200624 2.0703037-.85307402-.3638418.80214932-.8730132 1.53449874-1.5055565 2.15830556z"/></svg>