<?xml version="1.0" encoding="UTF-8"?>
<svg width="24px" height="24px" viewBox="0 0 24 24" version="1.1" xmlns="http://www.w3.org/2000/svg" xmlns:xlink="http://www.w3.org/1999/xlink">
    <!-- Generator: Sketch 55.2 (78181) - https://sketchapp.com -->
    <title>type</title>
    <desc>Created with Sketch.</desc>
    <g id="type" stroke="none" stroke-width="1" fill="none" fill-rule="evenodd">
        <path d="M13,5 L13,20 L15.5,20 C15.7761424,20 16,20.2238576 16,20.5 C16,20.7761424 15.7761424,21 15.5,21 L9.5,21 C9.22385763,21 9,20.7761424 9,20.5 C9,20.2238576 9.22385763,20 9.5,20 L12,20 L12,5 L5,5 L5,7.5 C5,7.77614237 4.77614237,8 4.5,8 C4.22385763,8 4,7.77614237 4,7.5 L4,4.5 C4,4.22385763 4.22385763,4 4.5,4 L20.5,4 C20.7761424,4 21,4.22385763 21,4.5 L21,7.5 C21,7.77614237 20.7761424,8 20.5,8 C20.2238576,8 20,7.77614237 20,7.5 L20,5 L13,5 Z" id="Combined-Shape" fill="#000000" fill-rule="nonzero"></path>
    </g>
</svg>