<svg height="24" viewBox="0 0 24 24" width="24" xmlns="http://www.w3.org/2000/svg"><path d="m15 22.5c-1.93 0-3.5-1.57-3.5-3.5v-6.5h-10.5c-.141 0-.275-.06-.37-.164s-.141-.244-.127-.384c.525-5.501 4.899-9.875 10.4-10.4 6.336-.603 11.99 4.061 12.595 10.4.013.14-.033.279-.128.384-.095.104-.229.164-.37.164h-10.5v6.5c0 1.379 1.121 2.5 2.5 2.5s2.5-1.121 2.5-2.5c0-.276.224-.5.5-.5s.5.224.5.5c0 1.93-1.57 3.5-3.5 3.5zm-3-11h10.436c-.815-5.509-5.826-9.487-11.438-8.953-4.841.463-8.727 4.188-9.434 8.953z"/></svg>