<svg height="24" viewBox="0 0 24 24" width="24" xmlns="http://www.w3.org/2000/svg"><path d="m6.99999487 10.0053395v-3.499498c-.00283413-2.82564223 2.13592248-5.19370807 4.94725973-5.47768153 2.8113378-.28397352 5.3804567 1.60854998 5.9427457 4.37768203.0549509.27061967-.1198831.53454681-.3905028.58949776s-.5345468-.11988309-.5894978-.39050275c-.4600545-2.2656535-2.5620609-3.81408182-4.8622464-3.58173985-2.30018517.23234193-4.05007726 2.1698507-4.04775843 4.48224234v3.5h11.50000513c1.3807119 0 2.5 1.1192881 2.5 2.5v7c0 1.3807119-1.1192881 2.5-2.5 2.5h-14c-1.38071187 0-2.5-1.1192881-2.5-2.5v-7c0-1.3807119 1.11928813-2.5 2.5-2.5zm-1.49999487 1c-.82842712 0-1.5.6715729-1.5 1.5v7c0 .8284271.67157288 1.5 1.5 1.5h14c.8284271 0 1.5-.6715729 1.5-1.5v-7c0-.8284271-.6715729-1.5-1.5-1.5z"/></svg>