<?xml version="1.0" encoding="UTF-8"?>
<svg width="24px" height="24px" viewBox="0 0 24 24" version="1.1" xmlns="http://www.w3.org/2000/svg" xmlns:xlink="http://www.w3.org/1999/xlink">
    <!-- Generator: Sketch 55.2 (78181) - https://sketchapp.com -->
    <title>upload</title>
    <desc>Created with Sketch.</desc>
    <g id="upload" stroke="none" stroke-width="1" fill="none" fill-rule="evenodd">
        <path d="M3,17.5 L3,20.5 C3,21.8807119 4.11928813,23 5.5,23 L19.5,23 C20.8807119,23 22,21.8807119 22,20.5 L22,17.5 C22,17.2238576 21.7761424,17 21.5,17 C21.2238576,17 21,17.2238576 21,17.5 L21,20.5 C21,21.3284271 20.3284271,22 19.5,22 L5.5,22 C4.67157288,22 4,21.3284271 4,20.5 L4,17.5 C4,17.2238576 3.77614237,17 3.5,17 C3.22385763,17 3,17.2238576 3,17.5 Z" id="Shape" fill="#000000" fill-rule="nonzero"></path>
        <path d="M13,3.70710678 L13,16.5 C13,16.7761424 12.7761424,17 12.5,17 C12.2238576,17 12,16.7761424 12,16.5 L12,3.70710678 L8.85355339,6.85355339 C8.65829124,7.04881554 8.34170876,7.04881554 8.14644661,6.85355339 C7.95118446,6.65829124 7.95118446,6.34170876 8.14644661,6.14644661 L12.1464466,2.14644661 C12.3417088,1.95118446 12.6582912,1.95118446 12.8535534,2.14644661 L16.8535534,6.14644661 C17.0488155,6.34170876 17.0488155,6.65829124 16.8535534,6.85355339 C16.6582912,7.04881554 16.3417088,7.04881554 16.1464466,6.85355339 L13,3.70710678 Z" id="arrow-up" fill="#000000" fill-rule="nonzero"></path>
    </g>
</svg>