<svg height="24" viewBox="0 0 24 24" width="24" xmlns="http://www.w3.org/2000/svg"><path d="m12.5 13.7048858v7.7928932c0 .2761424-.2238576.5-.5.5s-.5-.2238576-.5-.5v-7.7928932l-3.14644661 3.1464466c-.19526215.1952621-.51184463.1952621-.70710678 0s-.19526215-.5118446 0-.7071068l3.99999999-4c.1952622-.1952621.5118446-.1952621.7071068 0l4 4c.1952621.1952622.1952621.5118447 0 .7071068-.1952622.1952621-.5118446.1952621-.7071068 0zm-2.54107555-10.64977814c3.36636165.38436766 6.16958365 2.72774521 7.15908335 5.94267139l.8823223.00000007c2.5136966.00165962 4.7063952 1.70733158 5.3264279 4.14335968s-.4904013 4.9824335-2.6974279 6.1856403c-.242453.1321784-.5461518.0427831-.6783302-.19967-.1321784-.242453-.0427831-.5461518.19967-.6783302 1.805749-.984442 2.7142859-3.0678646 2.2069864-5.0609784-.5072995-1.9931139-2.3013256-3.38866372-4.3576563-3.39002149h-1.26c-.2279401 0-.4270282-.15416244-.4840832-.37484637-.7771114-3.00579866-3.3258457-5.22208525-6.41043424-5.57428035-3.08458852-.3521951-6.06731662 1.23251488-7.50199126 3.98577411-1.43467465 2.7532592-1.02468803 6.1058528 1.03117547 8.4322562.18285948.2069228.16335235.5229037-.0435704.7057632-.20692274.1828595-.52290367.1633523-.70576314-.0435704-2.32997864-2.6365906-2.79463014-6.4361966-1.16866554-9.55655709 1.6259646-3.12036046 5.00638977-4.9163651 8.50225676-4.51721065z"/></svg>