<?xml version="1.0" encoding="UTF-8"?>
<svg width="24px" height="24px" viewBox="0 0 24 24" version="1.1" xmlns="http://www.w3.org/2000/svg" xmlns:xlink="http://www.w3.org/1999/xlink">
    <!-- Generator: Sketch 55.2 (78181) - https://sketchapp.com -->
    <title>upload-cloud</title>
    <desc>Created with Sketch.</desc>
    <g id="upload-cloud" stroke="none" stroke-width="1" fill="none" fill-rule="evenodd">
        <path d="M12.5,13.7048858 L12.5,21.497779 C12.5,21.7739214 12.2761424,21.997779 12,21.997779 C11.7238576,21.997779 11.5,21.7739214 11.5,21.497779 L11.5,13.7048858 L8.35355339,16.8513324 C8.15829124,17.0465945 7.84170876,17.0465945 7.64644661,16.8513324 C7.45118446,16.6560703 7.45118446,16.3394878 7.64644661,16.1442256 L11.6464466,12.1442256 C11.8417088,11.9489635 12.1582912,11.9489635 12.3535534,12.1442256 L16.3535534,16.1442256 C16.5488155,16.3394878 16.5488155,16.6560703 16.3535534,16.8513324 C16.1582912,17.0465945 15.8417088,17.0465945 15.6464466,16.8513324 L12.5,13.7048858 Z" id="arrow-up" fill="#000000" fill-rule="nonzero"></path>
        <path d="M9.95892445,3.05510766 C6.46305746,2.65595321 3.08263229,4.45195785 1.45666769,7.57231831 C-0.169296913,10.6926788 0.295354593,14.4922848 2.62533323,17.1288754 C2.8081927,17.3357981 3.12417363,17.3553053 3.33109637,17.1724458 C3.53801912,16.9895863 3.55752625,16.6736054 3.37466677,16.4666826 C1.31880327,14.1402792 0.908816651,10.7876856 2.3434913,8.0344264 C3.77816594,5.28116717 6.76089404,3.69645719 9.84548256,4.04865229 C12.9300711,4.40084739 15.4788054,6.61713398 16.2559168,9.62293264 C16.3129718,9.84361657 16.5120599,9.99777901 16.74,9.99777901 L18,9.99777901 C20.0563307,9.99913678 21.8503568,11.3946866 22.3576563,13.3878005 C22.8649558,15.3809143 21.9564189,17.4643369 20.1506699,18.4487789 C19.9082168,18.5809573 19.8188215,18.8846561 19.9509999,19.1271091 C20.0831783,19.3695622 20.3868771,19.4589575 20.6293301,19.3267791 C22.8363567,18.1235723 23.9467907,15.5771669 23.326758,13.1411388 C22.7067253,10.7051107 20.5140267,8.99943874 18.0003301,8.99777912 L17.1180078,8.99777905 C16.1285081,5.78285287 13.3252861,3.43947532 9.95892445,3.05510766 Z" id="Shape" fill="#000000" fill-rule="nonzero"></path>
    </g>
</svg>