<?xml version="1.0" encoding="UTF-8"?>
<svg width="24px" height="24px" viewBox="0 0 24 24" version="1.1" xmlns="http://www.w3.org/2000/svg" xmlns:xlink="http://www.w3.org/1999/xlink">
    <!-- Generator: Sketch 55.2 (78181) - https://sketchapp.com -->
    <title>user-x</title>
    <desc>Created with Sketch.</desc>
    <g id="user-x" stroke="none" stroke-width="1" fill="none" fill-rule="evenodd">
        <path d="M17,21.5 L17,19.5 C17,17.0147186 14.9852814,15 12.5,15 L5.5,15 C3.01471863,15 1,17.0147186 1,19.5 L1,21.5 C1,21.7761424 1.22385763,22 1.5,22 C1.77614237,22 2,21.7761424 2,21.5 L2,19.5 C2,17.5670034 3.56700338,16 5.5,16 L12.5,16 C14.4329966,16 16,17.5670034 16,19.5 L16,21.5 C16,21.7761424 16.2238576,22 16.5,22 C16.7761424,22 17,21.7761424 17,21.5 Z" id="Shape" fill="#000000" fill-rule="nonzero"></path>
        <path d="M9,12 C11.4852814,12 13.5,9.98528137 13.5,7.5 C13.5,5.01471863 11.4852814,3 9,3 C6.51471863,3 4.5,5.01471863 4.5,7.5 C4.5,9.98528137 6.51471863,12 9,12 Z M9,11 C7.06700338,11 5.5,9.43299662 5.5,7.5 C5.5,5.56700338 7.06700338,4 9,4 C10.9329966,4 12.5,5.56700338 12.5,7.5 C12.5,9.43299662 10.9329966,11 9,11 Z" id="Oval" fill="#000000" fill-rule="nonzero"></path>
        <path d="M21,10.2928932 L23.1464466,8.14644661 C23.3417088,7.95118446 23.6582912,7.95118446 23.8535534,8.14644661 C24.0488155,8.34170876 24.0488155,8.65829124 23.8535534,8.85355339 L21.7071068,11 L23.8535534,13.1464466 C24.0488155,13.3417088 24.0488155,13.6582912 23.8535534,13.8535534 C23.6582912,14.0488155 23.3417088,14.0488155 23.1464466,13.8535534 L21,11.7071068 L18.8535534,13.8535534 C18.6582912,14.0488155 18.3417088,14.0488155 18.1464466,13.8535534 C17.9511845,13.6582912 17.9511845,13.3417088 18.1464466,13.1464466 L20.2928932,11 L18.1464466,8.85355339 C17.9511845,8.65829124 17.9511845,8.34170876 18.1464466,8.14644661 C18.3417088,7.95118446 18.6582912,7.95118446 18.8535534,8.14644661 L21,10.2928932 Z" id="Combined-Shape" fill="#000000" fill-rule="nonzero"></path>
    </g>
</svg>