<?xml version="1.0" encoding="UTF-8"?>
<svg width="24px" height="24px" viewBox="0 0 24 24" version="1.1" xmlns="http://www.w3.org/2000/svg" xmlns:xlink="http://www.w3.org/1999/xlink">
    <!-- Generator: Sketch 55.2 (78181) - https://sketchapp.com -->
    <title>user-plus</title>
    <desc>Created with Sketch.</desc>
    <g id="user-plus" stroke="none" stroke-width="1" fill="none" fill-rule="evenodd">
        <path d="M17,21.5 L17,19.5 C17,17.0147186 14.9852814,15 12.5,15 L5.5,15 C3.01471863,15 1,17.0147186 1,19.5 L1,21.5 C1,21.7761424 1.22385763,22 1.5,22 C1.77614237,22 2,21.7761424 2,21.5 L2,19.5 C2,17.5670034 3.56700338,16 5.5,16 L12.5,16 C14.4329966,16 16,17.5670034 16,19.5 L16,21.5 C16,21.7761424 16.2238576,22 16.5,22 C16.7761424,22 17,21.7761424 17,21.5 Z" id="Shape" fill="#000000" fill-rule="nonzero"></path>
        <path d="M9,12 C11.4852814,12 13.5,9.98528137 13.5,7.5 C13.5,5.01471863 11.4852814,3 9,3 C6.51471863,3 4.5,5.01471863 4.5,7.5 C4.5,9.98528137 6.51471863,12 9,12 Z M9,11 C7.06700338,11 5.5,9.43299662 5.5,7.5 C5.5,5.56700338 7.06700338,4 9,4 C10.9329966,4 12.5,5.56700338 12.5,7.5 C12.5,9.43299662 10.9329966,11 9,11 Z" id="Oval" fill="#000000" fill-rule="nonzero"></path>
        <path d="M20,8.5 L20,14.5 C20,14.7761424 20.2238576,15 20.5,15 C20.7761424,15 21,14.7761424 21,14.5 L21,8.5 C21,8.22385763 20.7761424,8 20.5,8 C20.2238576,8 20,8.22385763 20,8.5 Z" id="Shape" fill="#000000" fill-rule="nonzero"></path>
        <path d="M23.5,11 L17.5,11 C17.2238576,11 17,11.2238576 17,11.5 C17,11.7761424 17.2238576,12 17.5,12 L23.5,12 C23.7761424,12 24,11.7761424 24,11.5 C24,11.2238576 23.7761424,11 23.5,11 Z" id="Shape" fill="#000000" fill-rule="nonzero"></path>
    </g>
</svg>