<?xml version="1.0" encoding="UTF-8"?>
<svg width="24px" height="24px" viewBox="0 0 24 24" version="1.1" xmlns="http://www.w3.org/2000/svg" xmlns:xlink="http://www.w3.org/1999/xlink">
    <!-- Generator: Sketch 55.2 (78181) - https://sketchapp.com -->
    <title>users</title>
    <desc>Created with Sketch.</desc>
    <g id="users" stroke="none" stroke-width="1" fill="none" fill-rule="evenodd">
        <path d="M18,21.5 L18,19.5 C18,17.0147186 15.9852814,15 13.5,15 L5.5,15 C3.01471863,15 1,17.0147186 1,19.5 L1,21.5 C1,21.7761424 1.22385763,22 1.5,22 C1.77614237,22 2,21.7761424 2,21.5 L2,19.5 C2,17.5670034 3.56700338,16 5.5,16 L13.5,16 C15.4329966,16 17,17.5670034 17,19.5 L17,21.5 C17,21.7761424 17.2238576,22 17.5,22 C17.7761424,22 18,21.7761424 18,21.5 Z" id="Shape" fill="#000000" fill-rule="nonzero"></path>
        <path d="M9.5,12 C11.9852814,12 14,9.98528137 14,7.5 C14,5.01471863 11.9852814,3 9.5,3 C7.01471863,3 5,5.01471863 5,7.5 C5,9.98528137 7.01471863,12 9.5,12 Z M9.5,11 C7.56700338,11 6,9.43299662 6,7.5 C6,5.56700338 7.56700338,4 9.5,4 C11.4329966,4 13,5.56700338 13,7.5 C13,9.43299662 11.4329966,11 9.5,11 Z" id="Oval" fill="#000000" fill-rule="nonzero"></path>
        <path d="M24,21.5 L24,19.5 C23.9984702,17.4488845 22.6106235,15.6585623 20.6249999,15.145877 C20.3576261,15.0768415 20.0849126,15.2376264 20.015877,15.5050001 C19.9468415,15.7723739 20.1076264,16.0450874 20.3750001,16.114123 C21.9193741,16.5128781 22.9988104,17.905351 23.0000001,19.500373 L23,21.5 C23,21.7761424 23.2238576,22 23.5,22 C23.7761424,22 24,21.7761424 24,21.5 Z" id="Shape" fill="#000000" fill-rule="nonzero"></path>
        <path d="M16.3759804,4.114375 C17.9246559,4.51089856 19.0078433,5.90636725 19.0078433,7.505 C19.0078433,9.10363275 17.9246559,10.4991014 16.3759804,10.895625 C16.1084675,10.9641191 15.9471309,11.2365067 16.015625,11.5040196 C16.0841191,11.7715325 16.3565067,11.9328691 16.6240196,11.864375 C18.6151738,11.354559 20.0078433,9.56038496 20.0078433,7.505 C20.0078433,5.44961504 18.6151738,3.65544101 16.6240196,3.145625 C16.3565067,3.07713087 16.0841191,3.23846748 16.015625,3.50598041 C15.9471309,3.77349333 16.1084675,4.04588087 16.3759804,4.114375 Z" id="Shape" fill="#000000" fill-rule="nonzero"></path>
    </g>
</svg>