<?xml version="1.0" encoding="UTF-8"?>
<svg width="24px" height="24px" viewBox="0 0 24 24" version="1.1" xmlns="http://www.w3.org/2000/svg" xmlns:xlink="http://www.w3.org/1999/xlink">
    <!-- Generator: Sketch 55.2 (78181) - https://sketchapp.com -->
    <title>user</title>
    <desc>Created with Sketch.</desc>
    <g id="user" stroke="none" stroke-width="1" fill="none" fill-rule="evenodd">
        <path d="M21,21.5 L21,19.5 C21,17.0147186 18.9852814,15 16.5,15 L8.5,15 C6.01471863,15 4,17.0147186 4,19.5 L4,21.5 C4,21.7761424 4.22385763,22 4.5,22 C4.77614237,22 5,21.7761424 5,21.5 L5,19.5 C5,17.5670034 6.56700338,16 8.5,16 L16.5,16 C18.4329966,16 20,17.5670034 20,19.5 L20,21.5 C20,21.7761424 20.2238576,22 20.5,22 C20.7761424,22 21,21.7761424 21,21.5 Z" id="Shape" fill="#000000" fill-rule="nonzero"></path>
        <path d="M12.5,12 C14.9852814,12 17,9.98528137 17,7.5 C17,5.01471863 14.9852814,3 12.5,3 C10.0147186,3 8,5.01471863 8,7.5 C8,9.98528137 10.0147186,12 12.5,12 Z M12.5,11 C10.5670034,11 9,9.43299662 9,7.5 C9,5.56700338 10.5670034,4 12.5,4 C14.4329966,4 16,5.56700338 16,7.5 C16,9.43299662 14.4329966,11 12.5,11 Z" id="Oval" fill="#000000" fill-rule="nonzero"></path>
    </g>
</svg>