<svg height="24" viewBox="0 0 24 24" width="24" xmlns="http://www.w3.org/2000/svg"><path d="m18 21.5c0 .2761424-.2238576.5-.5.5s-.5-.2238576-.5-.5v-2c0-1.9329966-1.5670034-3.5-3.5-3.5h-8c-1.93299662 0-3.5 1.5670034-3.5 3.5v2c0 .2761424-.22385763.5-.5.5s-.5-.2238576-.5-.5v-2c0-2.4852814 2.01471863-4.5 4.5-4.5h8c2.4852814 0 4.5 2.0147186 4.5 4.5zm-8.5-9.5c-2.48528137 0-4.5-2.01471863-4.5-4.5s2.01471863-4.5 4.5-4.5c2.4852814 0 4.5 2.01471863 4.5 4.5s-2.0147186 4.5-4.5 4.5zm0-1c1.9329966 0 3.5-1.56700338 3.5-3.5s-1.5670034-3.5-3.5-3.5c-1.93299662 0-3.5 1.56700338-3.5 3.5s1.56700338 3.5 3.5 3.5zm14.5 10.5c0 .2761424-.2238576.5-.5.5s-.5-.2238576-.5-.5l.0000001-1.999627c-.0011897-1.595022-1.080626-2.9874949-2.625-3.38625-.2673737-.0690356-.4281586-.3417491-.3591231-.6091229.0690356-.2673737.3417491-.4281586.6091229-.3591231 1.9856236.5126853 3.3734703 2.3030075 3.3750001 4.354123zm-7.6240196-17.385625c-.2675129-.06849413-.4288495-.34088167-.3603554-.60839459.0684941-.26751293.3408817-.42884954.6083946-.36035541 1.9911542.50981601 3.3838237 2.30399004 3.3838237 4.359375s-1.3926695 3.849559-3.3838237 4.359375c-.2675129.0684941-.5399005-.0928425-.6083946-.3603554s.0928425-.5399005.3603554-.6083946c1.5486755-.3965236 2.6318629-1.79199225 2.6318629-3.390625s-1.0831874-2.99410144-2.6318629-3.390625z"/></svg>