<?xml version="1.0" encoding="UTF-8"?>
<svg width="24px" height="24px" viewBox="0 0 24 24" version="1.1" xmlns="http://www.w3.org/2000/svg" xmlns:xlink="http://www.w3.org/1999/xlink">
    <!-- Generator: Sketch 55.2 (78181) - https://sketchapp.com -->
    <title>user-check</title>
    <desc>Created with Sketch.</desc>
    <g id="user-check" stroke="none" stroke-width="1" fill="none" fill-rule="evenodd">
        <path d="M17,21.5 L17,19.5 C17,17.0147186 14.9852814,15 12.5,15 L5.5,15 C3.01471863,15 1,17.0147186 1,19.5 L1,21.5 C1,21.7761424 1.22385763,22 1.5,22 C1.77614237,22 2,21.7761424 2,21.5 L2,19.5 C2,17.5670034 3.56700338,16 5.5,16 L12.5,16 C14.4329966,16 16,17.5670034 16,19.5 L16,21.5 C16,21.7761424 16.2238576,22 16.5,22 C16.7761424,22 17,21.7761424 17,21.5 Z" id="Shape" fill="#000000" fill-rule="nonzero"></path>
        <path d="M9,12 C11.4852814,12 13.5,9.98528137 13.5,7.5 C13.5,5.01471863 11.4852814,3 9,3 C6.51471863,3 4.5,5.01471863 4.5,7.5 C4.5,9.98528137 6.51471863,12 9,12 Z M9,11 C7.06700338,11 5.5,9.43299662 5.5,7.5 C5.5,5.56700338 7.06700338,4 9,4 C10.9329966,4 12.5,5.56700338 12.5,7.5 C12.5,9.43299662 10.9329966,11 9,11 Z" id="Oval" fill="#000000" fill-rule="nonzero"></path>
        <path d="M17.8535534,11.1464466 C17.6582912,10.9511845 17.3417088,10.9511845 17.1464466,11.1464466 C16.9511845,11.3417088 16.9511845,11.6582912 17.1464466,11.8535534 L19.1464466,13.8535534 C19.3417088,14.0488155 19.6582912,14.0488155 19.8535534,13.8535534 L23.8535534,9.85355339 C24.0488155,9.65829124 24.0488155,9.34170876 23.8535534,9.14644661 C23.6582912,8.95118446 23.3417088,8.95118446 23.1464466,9.14644661 L19.5,12.7928932 L17.8535534,11.1464466 Z" id="Shape" fill="#000000" fill-rule="nonzero"></path>
    </g>
</svg>