<svg height="24" viewBox="0 0 24 24" width="24" xmlns="http://www.w3.org/2000/svg"><path d="m16.5 11.5284053 6.2093809-4.43527204c.3309342-.23638159.7906191.00018046.7906191.40686674v10c0 .4066863-.4596849.6432483-.7906191.4068667l-6.2093809-4.435272v4.0284053c0 1.3807119-1.1192881 2.5-2.5 2.5h-11c-1.38071187 0-2.5-1.1192881-2.5-2.5v-10c0-1.38071187 1.11928813-2.5 2.5-2.5h11c1.3807119 0 2.5 1.11928813 2.5 2.5zm6 5v-8.05681064l-5.6397675 4.02840534zm-19.5-10.5284053c-.82842712 0-1.5.67157288-1.5 1.5v10c0 .8284271.67157288 1.5 1.5 1.5h11c.8284271 0 1.5-.6715729 1.5-1.5v-10c0-.82842712-.6715729-1.5-1.5-1.5z"/></svg>