<svg height="24" viewBox="0 0 24 24" width="24" xmlns="http://www.w3.org/2000/svg"><path d="m16.4921734 17.1992802c-.1015429 1.2875425-1.178538 2.3007198-2.4921734 2.3007198h-11c-1.38071187 0-2.5-1.1192881-2.5-2.5v-10c0-1.38071187 1.11928813-2.5 2.5-2.5h.79289322l-3.14644661-3.14644661c-.19526215-.19526215-.19526215-.51184463 0-.70710678s.51184463-.19526215.70710678 0l22.00000001 21.99999999c.1952621.1952622.1952621.5118446 0 .7071068-.1952622.1952621-.5118446.1952621-.7071068 0zm-11.69928018-11.6992802h-1.79289322c-.82842712 0-1.5.67157288-1.5 1.5v10c0 .8284271.67157288 1.5 1.5 1.5h11c.8284271 0 1.5-.6715729 1.5-1.5v-.7928932zm17.70710678 2.47875886-5.206959 3.76636694c-.1989557.1439114-.4729657.1220563-.6465944-.0515724l-1-1c-.0937682-.0937682-.1464466-.2209452-.1464466-.3535534v-3.34c0-.82842712-.6715729-1.5-1.5-1.5h-3.34c-.2761424 0-.5-.22385763-.5-.5s.2238576-.5.5-.5h3.34c1.3807119 0 2.5 1.11928813 2.5 2.5v3.1328932l.5522328.5522329 5.6547262-4.09025195c.3306246-.23915181.793041-.00292589.793041.40512585v10c0 .2761424-.2238576.5-.5.5s-.5-.2238576-.5-.5z"/></svg>