<svg height="24" viewBox="0 0 24 24" width="24" xmlns="http://www.w3.org/2000/svg"><path d="m8.50048745 16c-.83574403.6279105-1.87466266 1-3.00048745 1-2.76142375 0-5-2.2385763-5-5 0-2.76142375 2.23857625-5 5-5s5 2.23857625 5 5c0 1.635599-.7853431 3.0877712-1.99951255 4h6.99902505c-1.2141694-.9122288-1.9995125-2.364401-1.9995125-4 0-2.76142375 2.2385763-5 5-5s5 2.23857625 5 5c0 2.7614237-2.2385763 5-5 5h-13c-.27614237 0-.5-.2238576-.5-.5s.22385763-.5.5-.5zm-3.00048745 0c2.209139 0 4-1.790861 4-4s-1.790861-4-4-4-4 1.790861-4 4 1.790861 4 4 4zm13 0c2.209139 0 4-1.790861 4-4s-1.790861-4-4-4-4 1.790861-4 4 1.790861 4 4 4z"/></svg>