<?xml version="1.0" encoding="UTF-8"?>
<svg width="24px" height="24px" viewBox="0 0 24 24" version="1.1" xmlns="http://www.w3.org/2000/svg" xmlns:xlink="http://www.w3.org/1999/xlink">
    <!-- Generator: Sketch 55.2 (78181) - https://sketchapp.com -->
    <title>voicemail</title>
    <desc>Created with Sketch.</desc>
    <g id="voicemail" stroke="none" stroke-width="1" fill="none" fill-rule="evenodd">
        <path d="M8.50048745,16 C7.66474342,16.6279105 6.62582479,17 5.5,17 C2.73857625,17 0.5,14.7614237 0.5,12 C0.5,9.23857625 2.73857625,7 5.5,7 C8.26142375,7 10.5,9.23857625 10.5,12 C10.5,13.635599 9.7146569,15.0877712 8.50048745,16 L15.4995125,16 C14.2853431,15.0877712 13.5,13.635599 13.5,12 C13.5,9.23857625 15.7385763,7 18.5,7 C21.2614237,7 23.5,9.23857625 23.5,12 C23.5,14.7614237 21.2614237,17 18.5,17 L5.5,17 C5.22385763,17 5,16.7761424 5,16.5 C5,16.2238576 5.22385763,16 5.5,16 L8.50048745,16 Z M5.5,16 C7.709139,16 9.5,14.209139 9.5,12 C9.5,9.790861 7.709139,8 5.5,8 C3.290861,8 1.5,9.790861 1.5,12 C1.5,14.209139 3.290861,16 5.5,16 Z M18.5,16 C20.709139,16 22.5,14.209139 22.5,12 C22.5,9.790861 20.709139,8 18.5,8 C16.290861,8 14.5,9.790861 14.5,12 C14.5,14.209139 16.290861,16 18.5,16 Z" id="Combined-Shape" fill="#000000" fill-rule="nonzero"></path>
    </g>
</svg>