<?xml version="1.0" encoding="UTF-8"?>
<svg width="24px" height="24px" viewBox="0 0 24 24" version="1.1" xmlns="http://www.w3.org/2000/svg" xmlns:xlink="http://www.w3.org/1999/xlink">
    <!-- Generator: Sketch 55.2 (78181) - https://sketchapp.com -->
    <title>volume-x</title>
    <desc>Created with Sketch.</desc>
    <g id="volume-x" stroke="none" stroke-width="1" fill="none" fill-rule="evenodd">
        <path d="M5.82460947,8.5 L2,8.5 C1.72385763,8.5 1.5,8.72385763 1.5,9 L1.5,15 C1.5,15.2761424 1.72385763,15.5 2,15.5 L5.82460947,15.5 L10.6876525,19.3904344 C11.0150341,19.6523397 11.5,19.4192531 11.5,19 L11.5,5 C11.5,4.5807469 11.0150341,4.34766026 10.6876525,4.6095656 L5.82460947,8.5 Z M10.5,6.04031242 L10.5,17.9596876 L6.31234752,14.6095656 C6.223691,14.5386404 6.11353575,14.5 6,14.5 L2.5,14.5 L2.5,9.5 L6,9.5 C6.11353575,9.5 6.223691,9.46135962 6.31234752,9.3904344 L10.5,6.04031242 Z" id="Path" fill="#000000" fill-rule="nonzero"></path>
        <path d="M22.6464466,8.64644661 L16.6464466,14.6464466 C16.4511845,14.8417088 16.4511845,15.1582912 16.6464466,15.3535534 C16.8417088,15.5488155 17.1582912,15.5488155 17.3535534,15.3535534 L23.3535534,9.35355339 C23.5488155,9.15829124 23.5488155,8.84170876 23.3535534,8.64644661 C23.1582912,8.45118446 22.8417088,8.45118446 22.6464466,8.64644661 Z" id="Path" fill="#000000" fill-rule="nonzero"></path>
        <path d="M16.6464466,9.35355339 L22.6464466,15.3535534 C22.8417088,15.5488155 23.1582912,15.5488155 23.3535534,15.3535534 C23.5488155,15.1582912 23.5488155,14.8417088 23.3535534,14.6464466 L17.3535534,8.64644661 C17.1582912,8.45118446 16.8417088,8.45118446 16.6464466,8.64644661 C16.4511845,8.84170876 16.4511845,9.15829124 16.6464466,9.35355339 Z" id="Path" fill="#000000" fill-rule="nonzero"></path>
    </g>
</svg>