<?xml version="1.0" encoding="UTF-8"?>
<svg width="24px" height="24px" viewBox="0 0 24 24" version="1.1" xmlns="http://www.w3.org/2000/svg" xmlns:xlink="http://www.w3.org/1999/xlink">
    <!-- Generator: Sketch 55.2 (78181) - https://sketchapp.com -->
    <title>volume-1</title>
    <desc>Created with Sketch.</desc>
    <g id="volume-1" stroke="none" stroke-width="1" fill="none" fill-rule="evenodd">
        <path d="M8.32460947,8.00093865 L4.5,8.00093865 C4.22385763,8.00093865 4,8.22479628 4,8.50093865 L4,14.5009387 C4,14.777081 4.22385763,15.0009387 4.5,15.0009387 L8.32460947,15.0009387 L13.1876525,18.8913731 C13.5150341,19.1532784 14,18.9201918 14,18.5009387 L14,4.50093865 C14,4.08168555 13.5150341,3.84859891 13.1876525,4.11050425 L8.32460947,8.00093865 Z M13,5.54125107 L13,17.4606262 L8.81234752,14.1105042 C8.723691,14.039579 8.61353575,14.0009387 8.5,14.0009387 L5,14.0009387 L5,9.00093865 L8.5,9.00093865 C8.61353575,9.00093865 8.723691,8.96229827 8.81234752,8.89137306 L13,5.54125107 Z" id="Shape" fill="#000000" fill-rule="nonzero"></path>
        <path d="M17.6863932,8.31443865 C19.4431119,10.071688 19.4431119,12.9201893 17.6863932,14.6774387 C17.4911606,14.8727303 17.4912084,15.1893128 17.6865,15.3845454 C17.8817916,15.5797781 18.1983741,15.5797303 18.3936068,15.3844387 C20.5407074,13.2366895 20.5407074,9.75518783 18.3936068,7.60743865 C18.1983741,7.41214702 17.8817916,7.41209922 17.6865,7.60733188 C17.4912084,7.80256454 17.4911606,8.11914702 17.6863932,8.31443865 Z" id="Shape" fill="#000000" fill-rule="nonzero"></path>
    </g>
</svg>