<svg height="24" viewBox="0 0 24 24" width="24" xmlns="http://www.w3.org/2000/svg"><path d="m5.82460947 8.5 4.86304303-3.8904344c.3273816-.26190534.8123475-.0288187.8123475.3904344v14c0 .4192531-.4849659.6523397-.8123475.3904344l-4.86304303-3.8904344h-3.82460947c-.27614237 0-.5-.2238576-.5-.5v-6c0-.27614237.22385763-.5.5-.5zm4.67539053-2.45968758-4.18765248 3.35012198c-.08865652.07092522-.19881177.1095656-.31234752.1095656h-3.5v5h3.5c.11353575 0 .223691.0386404.31234752.1095656l4.18765248 3.350122zm8.2163932-.75681242c-.1952326-.19529163-.1951848-.51187411.0001068-.70710677s.5118741-.19518486.7071068.00010677c4.0990103 4.10024844 4.0990103 10.7467516 0 14.847-.1952327.1952916-.5118152.1953394-.7071068.0001068-.1952916-.1952327-.1953394-.5118152-.0001068-.7071068 3.7086284-3.7097486 3.7086284-9.72325141 0-13.433zm-3.53 3.53c-.1952326-.19529163-.1951848-.51187411.0001068-.70710677s.5118741-.19518486.7071068.00010677c2.1471006 2.1477492 2.1471006 5.6292508 0 7.777-.1952327.1952916-.5118152.1953394-.7071068.0001068-.1952916-.1952327-.1953394-.5118152-.0001068-.7071068 1.7567187-1.7572493 1.7567187-4.6057507 0-6.363z"/></svg>