<?xml version="1.0" encoding="UTF-8"?>
<svg width="24px" height="24px" viewBox="0 0 24 24" version="1.1" xmlns="http://www.w3.org/2000/svg" xmlns:xlink="http://www.w3.org/1999/xlink">
    <!-- Generator: Sketch 55.2 (78181) - https://sketchapp.com -->
    <title>volume</title>
    <desc>Created with Sketch.</desc>
    <g id="volume" stroke="none" stroke-width="1" fill="none" fill-rule="evenodd">
        <path d="M11.3246095,8.00093865 L7.5,8.00093865 C7.22385763,8.00093865 7,8.22479628 7,8.50093865 L7,14.5009387 C7,14.777081 7.22385763,15.0009387 7.5,15.0009387 L11.3246095,15.0009387 L16.1876525,18.8913731 C16.5150341,19.1532784 17,18.9201918 17,18.5009387 L17,4.50093865 C17,4.08168555 16.5150341,3.84859891 16.1876525,4.11050425 L11.3246095,8.00093865 Z M16,17.4606262 L11.8123475,14.1105042 C11.723691,14.039579 11.6135357,14.0009387 11.5,14.0009387 L8,14.0009387 L8,9.00093865 L11.5,9.00093865 C11.6135357,9.00093865 11.723691,8.96229827 11.8123475,8.89137306 L16,5.54125107 L16,17.4606262 Z" id="path" fill="#000000" fill-rule="nonzero"></path>
    </g>
</svg>