<svg height="24" viewBox="0 0 24 24" width="24" xmlns="http://www.w3.org/2000/svg"><path d="m20.7071068 12 2.6464466 2.6464466c.1952621.1952622.1952621.5118446 0 .7071068-.1952622.1952621-.5118446.1952621-.7071068 0l-2.6464466-2.6464466-2.6464466 2.6464466c-.1952622.1952621-.5118446.1952621-.7071068 0-.1952621-.1952622-.1952621-.5118446 0-.7071068l2.6464466-2.6464466-2.6464466-2.64644661c-.1952621-.19526215-.1952621-.51184463 0-.70710678.1952622-.19526215.5118446-.19526215.7071068 0l2.6464466 2.64644659 2.6464466-2.64644659c.1952622-.19526215.5118446-.19526215.7071068 0 .1952621.19526215.1952621.51184463 0 .70710678zm-14.88249733-3.5 4.86304303-3.8904344c.3273816-.26190534.8123475-.0288187.8123475.3904344v14c0 .4192531-.4849659.6523397-.8123475.3904344l-4.86304303-3.8904344h-3.82460947c-.27614237 0-.5-.2238576-.5-.5v-6c0-.27614237.22385763-.5.5-.5zm4.67539053-2.45968758-4.18765248 3.35012198c-.08865652.07092522-.19881177.1095656-.31234752.1095656h-3.5v5h3.5c.11353575 0 .223691.0386404.31234752.1095656l4.18765248 3.350122z"/></svg>