<?xml version="1.0" encoding="UTF-8"?>
<svg width="24px" height="24px" viewBox="0 0 24 24" version="1.1" xmlns="http://www.w3.org/2000/svg" xmlns:xlink="http://www.w3.org/1999/xlink">
    <!-- Generator: Sketch 55.2 (78181) - https://sketchapp.com -->
    <title>volume-2</title>
    <desc>Created with Sketch.</desc>
    <g id="volume-2" stroke="none" stroke-width="1" fill="none" fill-rule="evenodd">
        <path d="M5.82460947,8.5 L2,8.5 C1.72385763,8.5 1.5,8.72385763 1.5,9 L1.5,15 C1.5,15.2761424 1.72385763,15.5 2,15.5 L5.82460947,15.5 L10.6876525,19.3904344 C11.0150341,19.6523397 11.5,19.4192531 11.5,19 L11.5,5 C11.5,4.5807469 11.0150341,4.34766026 10.6876525,4.6095656 L5.82460947,8.5 Z M10.5,6.04031242 L10.5,17.9596876 L6.31234752,14.6095656 C6.223691,14.5386404 6.11353575,14.5 6,14.5 L2.5,14.5 L2.5,9.5 L6,9.5 C6.11353575,9.5 6.223691,9.46135962 6.31234752,9.3904344 L10.5,6.04031242 Z" id="Path" fill="#000000" fill-rule="nonzero"></path>
        <path d="M18.7163932,5.2835 C18.5211606,5.08820837 18.5212084,4.77162589 18.7165,4.57639323 C18.9117916,4.38116057 19.2283741,4.38120837 19.4236068,4.5765 C23.5226171,8.67674844 23.5226171,15.3232516 19.4236068,19.4235 C19.2283741,19.6187916 18.9117916,19.6188394 18.7165,19.4236068 C18.5212084,19.2283741 18.5211606,18.9117916 18.7163932,18.7165 C22.4250216,15.0067514 22.4250216,8.99324859 18.7163932,5.2835 Z M15.1863932,8.8135 C14.9911606,8.61820837 14.9912084,8.30162589 15.1865,8.10639323 C15.3817916,7.91116057 15.6983741,7.91120837 15.8936068,8.1065 C18.0407074,10.2542492 18.0407074,13.7357508 15.8936068,15.8835 C15.6983741,16.0787916 15.3817916,16.0788394 15.1865,15.8836068 C14.9912084,15.6883741 14.9911606,15.3717916 15.1863932,15.1765 C16.9431119,13.4192507 16.9431119,10.5707493 15.1863932,8.8135 Z" id="Shape" fill="#000000" fill-rule="nonzero"></path>
    </g>
</svg>