<svg height="24" viewBox="0 0 24 24" width="24" xmlns="http://www.w3.org/2000/svg"><path d="m8.32460947 8.00093865 4.86304303-3.8904344c.3273816-.26190534.8123475-.0288187.8123475.3904344v14.00000005c0 .4192531-.4849659.6523397-.8123475.3904344l-4.86304303-3.8904344h-3.82460947c-.27614237 0-.5-.2238577-.5-.5v-6.00000005c0-.27614237.22385763-.5.5-.5zm4.67539053-2.45968758-4.18765248 3.35012199c-.08865652.07092521-.19881177.10956559-.31234752.10956559h-3.5v5.00000005h3.5c.11353575 0 .223691.0386403.31234752.1095655l4.18765248 3.350122zm4.6863932 2.77318758c-.1952326-.19529163-.1951848-.51187411.0001068-.70710677s.5118741-.19518486.7071068.00010677c2.1471006 2.14774918 2.1471006 5.62925085 0 7.77700005-.1952327.1952916-.5118152.1953394-.7071068.0001067-.1952916-.1952326-.1953394-.5118151-.0001068-.7071067 1.7567187-1.7572494 1.7567187-4.6057507 0-6.36300005z"/></svg>