<svg height="24" viewBox="0 0 24 24" width="24" xmlns="http://www.w3.org/2000/svg"><path d="m16.4119438 18.4002165c-1.1389433.6976336-2.4784799 1.0997835-3.9119438 1.0997835-1.4379109 0-2.7813109-.404649-3.92253799-1.1062848l.25050924 2.7412889c.07005441.7752949.72155337 1.3681628 1.50202875 1.3650126l4.3320207.0000041c.7784547.0031461 1.4299536-.5897218 1.5000541-1.3655231zm1.0773055-.8003466-.331278 3.625126c-.1167571 1.2921546-1.2025804 2.2802601-2.4979713 2.2750416h-4.3279793c-1.29741165.0052185-2.38323494-.982887-2.49994594-2.2745352l-.33221303-3.6353598c-1.53429314-1.3732975-2.49986173-3.3689597-2.49986173-5.5901425 0-2.22643282.97013844-4.22627766 2.51075067-5.59986989l.33127843-3.62512989c.1163349-1.28737075 1.19487261-2.27377841 2.4879709-2.27503366h4.3479793c1.2974116-.00522257 2.3832349.98288296 2.4999459 2.27453113l.3331058 3.64512856c1.527969 1.37298379 2.488969 3.36445199 2.488969 5.58037375 0 2.2264328-.9701384 4.2262777-2.5107507 5.5998699zm-1.0561149-11.98705815-.2511057-2.74781587c-.0700544-.77529489-.7215533-1.36816275-1.5020287-1.36501263l-4.349521-.00000023c-.77557936.00074301-1.42270696.59259215-1.49255376 1.36551929l-.24986905 2.73428123c1.13894326-.6976336 2.47847991-1.09978354 3.91194381-1.09978354 1.4423637 0 2.7896303.40715905 3.9331344 1.11281175zm-8.16150614 1.45034614c-1.39056536 1.1921238-2.27162826 2.96159131-2.27162826 4.93684211 0 3.5898509 2.91014913 6.5 6.5 6.5 1.5777815 0 3.0242646-.5621551 4.1500827-1.4970986.0237777-.0246249.0500223-.046768.078289-.0660593 1.3905654-1.1921238 2.2716283-2.9615913 2.2716283-4.9368421 0-3.58985087-2.9101491-6.5-6.5-6.5-1.5777815 0-3.02426455.56215506-4.15008275 1.4970986-.02377762.02462485-.05002221.04676804-.07828899.06605929zm4.72837174 1.93684211v2.7928932l1.3535534 1.3535534c.1952621.1952622.1952621.5118446 0 .7071068-.1952622.1952621-.5118446.1952621-.7071068 0l-1.5-1.5c-.0937682-.0937682-.1464466-.2209452-.1464466-.3535534v-3c0-.27614237.2238576-.5.5-.5s.5.22385763.5.5z"/></svg>