<?xml version="1.0" encoding="UTF-8"?>
<svg width="24px" height="24px" viewBox="0 0 24 24" version="1.1" xmlns="http://www.w3.org/2000/svg" xmlns:xlink="http://www.w3.org/1999/xlink">
    <!-- Generator: Sketch 55.2 (78181) - https://sketchapp.com -->
    <title>wifi</title>
    <desc>Created with Sketch.</desc>
    <g id="wifi" stroke="none" stroke-width="1" fill="none" fill-rule="evenodd">
        <path d="M5.40000613,12.4315377 C9.29320725,9.18878647 14.946805,9.18878647 18.8400061,12.4315377 C19.052187,12.6082689 19.3674625,12.5795312 19.5441936,12.3673503 C19.7209247,12.1551694 19.692187,11.839894 19.4800061,11.6631628 C15.2160239,8.1115781 9.02398831,8.1115781 4.76000613,11.6631628 C4.54782526,11.839894 4.51908756,12.1551694 4.69581868,12.3673503 C4.8725498,12.5795312 5.18782526,12.6082689 5.40000613,12.4315377 Z" id="Path" fill="#000000" fill-rule="nonzero"></path>
        <path d="M1.83063113,8.8724331 C7.68815576,3.70918897 16.4718565,3.70918897 22.3293811,8.8724331 C22.5365336,9.05503224 22.8524898,9.0351278 23.0350889,8.82797529 C23.2176881,8.62082278 23.1977836,8.30486663 22.9906311,8.12226749 C16.7552017,2.62591084 7.40481058,2.62591084 1.16938113,8.12226749 C0.962228618,8.30486663 0.942324181,8.62082278 1.12492333,8.82797529 C1.30752247,9.0351278 1.62347862,9.05503224 1.83063113,8.8724331 Z" id="Path" fill="#000000" fill-rule="nonzero"></path>
        <path d="M8.89958946,16.0149549 C10.807014,14.659822 13.3629983,14.659822 15.2704228,16.0149549 C15.4955366,16.1748873 15.8076783,16.1220474 15.9676107,15.8969336 C16.1275432,15.6718198 16.0747033,15.3596782 15.8495895,15.1997457 C13.5953605,13.5982251 10.5746518,13.5982251 8.3204228,15.1997457 C8.095309,15.3596782 8.04246909,15.6718198 8.20240155,15.8969336 C8.36233401,16.1220474 8.67447567,16.1748873 8.89958946,16.0149549 Z" id="Path" fill="#000000" fill-rule="nonzero"></path>
        <path d="M11.7264527,19.8509037 C11.9217149,20.0461658 12.2382974,20.0461658 12.4335595,19.8509037 C12.6288217,19.6556415 12.6288217,19.339059 12.4335595,19.1437969 C12.2382974,18.9485348 11.9217149,18.9485348 11.7264527,19.1437969 C11.5311906,19.339059 11.5311906,19.6556415 11.7264527,19.8509037 Z" id="Path" fill="#000000" fill-rule="nonzero"></path>
    </g>
</svg>