<svg height="24" viewBox="0 0 24 24" width="24" xmlns="http://www.w3.org/2000/svg"><path d="m5.40000613 12.4315377c-.21218087.1767312-.52745633.1479935-.70418745-.0641874s-.14799342-.5274563.06418745-.7041875c4.26398218-3.5515847 10.45601777-3.5515847 14.71999997 0 .2121809.1767312.2409186.4920066.0641875.7041875s-.4920066.2409186-.7041875.0641874c-3.8932011-3.24275123-9.54679885-3.24275123-13.43999997 0zm-3.569375-3.5591046c-.20715251.18259914-.52310866.1626947-.7057078-.04445781-.18259915-.20715251-.16269471-.52310866.0444578-.7057078 6.23542945-5.49635665 15.58582057-5.49635665 21.82124997 0 .2071525.18259914.227057.49855529.0444578.7057078-.1825991.20715251-.4985553.22705695-.7057078.04445781-5.8575246-5.16324413-14.64122534-5.16324413-20.49874997 0zm7.06895833 7.1425218c-.22511379.1599324-.53725545.1070925-.69718791-.1180213s-.10709255-.5372554.11802125-.6971879c2.254229-1.6015206 5.2749377-1.6015206 7.5291667 0 .2251138.1599325.2779537.4720741.1180212.6971879-.1599324.2251138-.4720741.2779537-.6971879.1180213-1.9074245-1.3551329-4.4634088-1.3551329-6.37083334 0zm2.82686324 3.8359488c-.1952621-.1952622-.1952621-.5118447 0-.7071068.1952622-.1952621.5118447-.1952621.7071068 0 .1952622.1952621.1952622.5118446 0 .7071068-.1952621.1952621-.5118446.1952621-.7071068 0z"/></svg>