<svg height="24" viewBox="0 0 24 24" width="24" xmlns="http://www.w3.org/2000/svg"><path d="m16.292983 17.0000897c-.1699246.1364794-.4161008.1499896-.6025663.0175149-1.9074246-1.3551329-4.4634088-1.3551329-6.37083337 0-.22511379.1599324-.53725545.1070925-.69718791-.1180213s-.10709255-.5372554.11802125-.6971879c1.75091123-1.2439377 3.96423843-1.5216805 5.92164343-.8332285l-4.1682799-4.1682799c-1.71908109.3396344-3.32655204 1.1068821-4.67306178 2.2327009-.21184975.1771279-.52717845.1489803-.70430634-.0628695-.17712789-.2118497-.14898026-.5271784.0628695-.7043063 1.30674398-1.0925706 2.83777926-1.876956 4.47942163-2.3006021l-3.15769013-3.15769014c-1.55209508.65042299-2.98787518 1.55099692-4.24987127 2.66650676-.20690057.18288458-.52288385.16341578-.70576843-.04348481-.18288457-.20690057-.16341576-.52288385.04348481-.70576843 1.24201895-1.09785153 2.64210602-2.00020457 4.15195172-2.67745669l-4.5943633-4.5943633c-.19526215-.19526215-.19526215-.51184463 0-.70710678s.51184463-.19526215.70710678 0l5.11223112 5.11223112c.00540619.00516717.01070506.01046503.01589126.01589126l3.97762723 3.97762721c.0457968.0324888.0861564.0726444.1189874.1189874l12.775263 12.775263c.1952621.1952622.1952621.5118446 0 .7071068-.1952622.1952621-.5118446.1952621-.7071068 0zm.7077212-4.9907465c-.2481654-.1211137-.3511612-.4204736-.2300474-.668639.1211137-.2481654.4204736-.3511612.668639-.2300474.8565368.418021 1.6574775.9414428 2.3842048 1.5580987.2105555.1786644.2364083.4941895.0577439.7047451-.1786644.2105555-.4941895.2364083-.7047451.0577439-.6632021-.5627524-1.3941305-1.0404205-2.1757952-1.4219013zm-5.7505455-5.96095853c-.2752503.02217903-.5163643-.18297572-.5385434-.45822598-.022179-.27525025.1829758-.51636433.458226-.53854336 4.4640396-.35970206 8.8825296 1.11064636 12.2409375 4.0734375.2070776.18268409.2268525.49864837.0441684.70572598-.1826841.20707759-.4986484.22685249-.705726.04416836-3.154868-2.78322804-7.3055708-4.16446443-11.4990625-3.8265625zm.8962879 14.80516873c-.1952621-.1952622-.1952621-.5118446 0-.7071068.1952622-.1952621.5118446-.1952621.7071068 0 .1952621.1952622.1952621.5118446 0 .7071068-.1952622.1952621-.5118446.1952621-.7071068 0z"/></svg>