<svg height="24" viewBox="0 0 24 24" width="24" xmlns="http://www.w3.org/2000/svg"><path d="m10.1417446 4.73102801c-.21075487.23500385-.55347138.23612931-.76547873.0025138-.21200736-.23361551-.21302269-.61350655-.00226781-.84851039.86527744-.96483427 2.20796044-1.16345505 3.27121114-.48390466 1.0632508.67955039 1.5808551 2.0671277 1.261052 3.38058844-.3198013 1.31345395-1.3969328 2.22393834-2.6219871 2.2182848h-9.74299651c-.29893936 0-.54127759-.26865114-.54127759-.60001651 0-.33136538.24233823-.59999009.54127759-.59999009l9.74525851.00000524c.7363995.00341117 1.3826848-.54288495 1.5745664-1.33096036.1918819-.78807644-.1186807-1.62062282-.7566312-2.02835306-.6379504-.40773023-1.4435602-.28855776-1.9627267.29034279zm2.3027683 15.38393979c-.2075423-.235004-.2065425-.6148954.0022332-.8485111s.5462681-.2324903.7538105.0025138c.5112527.578901 1.3045824.6980736 1.9328085.290343s.9340547-1.2402777.7450978-2.0283548c-.1889567-.7880761-.8253906-1.3343727-1.5527926-1.3309563h-12.79264349c-.29438258 0-.53302681-.2686249-.53302681-.5999906 0-.3313656.23864423-.6000118.53302681-.6000118h12.79041609c1.208608-.0056587 2.2693206.9048264 2.5842472 2.2182815.3149283 1.3134619-.1947861 2.7010404-1.2418296 3.3805914s-2.3692597.48093-3.2213476-.4839051zm5.931742-13.00290274c-.2048602.26001682-.5365842.25948232-.7409262-.00119383-.2043421-.26067616-.203922-.68278122.0009382-.94279804 1.0064736-1.27745681 2.5614424-1.53642518 3.7923817-.63159267s1.831454 2.74824257 1.4645831 4.49585518c-.3668709 1.7476127-1.6098091 2.9644268-3.0323139 2.9676643h-18.33700342c-.28934992 0-.52391438-.2984736-.52391438-.6666594 0-.3681859.23456446-.6666594.52391438-.6666594l18.33606602.000001c.9477117-.0021576 1.7763371-.813367 2.0209177-1.97844211.2445806-1.16507509-.1557625-2.39401513-.9763887-2.99723681-.8206262-.60322167-1.8572721-.43057609-2.5282545.42106178z"/></svg>