<svg height="24" viewBox="0 0 24 24" width="24" xmlns="http://www.w3.org/2000/svg"><path d="m13.2071068 12.5 2.6464466 2.6464466c.1952621.1952622.1952621.5118446 0 .7071068-.1952622.1952621-.5118446.1952621-.7071068 0l-2.6464466-2.6464466-2.64644661 2.6464466c-.19526215.1952621-.51184463.1952621-.70710678 0-.19526215-.1952622-.19526215-.5118446 0-.7071068l2.64644659-2.6464466-2.64644659-2.64644661c-.19526215-.19526215-.19526215-.51184463 0-.70710678s.51184463-.19526215.70710678 0l2.64644661 2.64644659 2.6464466-2.64644659c.1952622-.19526215.5118446-.19526215.7071068 0 .1952621.19526215.1952621.51184463 0 .70710678zm-5.20066019-10.35355339c.09376819-.09376819.22094515-.14644661.35355339-.14644661h8.28c.1326082 0 .2597852.05267842.3535534.14644661l5.86 5.86c.0937682.09376819.1464466.22094515.1464466.35355339v8.28c0 .1326082-.0526784.2597852-.1464466.3535534l-5.86 5.86c-.0937682.0937682-.2209452.1464466-.3535534.1464466h-8.28c-.13260824 0-.2597852-.0526784-.35355339-.1464466l-5.86-5.86c-.09376819-.0937682-.14644661-.2209452-.14644661-.3535534v-8.28c0-.13260824.05267842-.2597852.14644661-.35355339zm.56066017.85355339-5.56710678 5.56710678v7.86578642l5.56710678 5.5671068h7.86578642l5.5671068-5.5671068v-7.86578642l-5.5671068-5.56710678z"/></svg>