<svg height="24" viewBox="0 0 24 24" width="24" xmlns="http://www.w3.org/2000/svg"><path d="m12.652714 12 5.2121045 5.2121046c.180242.1802419.180242.4724719 0 .6527139s-.472472.180242-.6527139 0l-5.2121046-5.2121045-5.21210456 5.2121045c-.18024198.180242-.47247197.180242-.65271395 0-.18024199-.180242-.18024199-.472472 0-.6527139l5.21210451-5.2121046-5.21210451-5.21210456c-.18024199-.18024198-.18024199-.47247197 0-.65271395.18024198-.18024199.47247197-.18024199.65271395 0l5.21210456 5.21210451 5.2121046-5.21210451c.1802419-.18024199.4724719-.18024199.6527139 0 .180242.18024198.180242.47247197 0 .65271395z"/></svg>