<svg height="24" viewBox="0 0 24 24" width="24" xmlns="http://www.w3.org/2000/svg"><path d="m23.5256123 6.79859654.0070218.0326463c.3227019 1.78902058.4793452 3.60404046.4679377 5.41696036.0064352 1.7906848-.1501884 3.5782365-.4749595 5.3732003-.2852764 1.1397511-1.1583848 2.0398628-2.2958564 2.3616206-.708775.1895561-2.1742523.3127341-4.2170306.3907805-.98759.0377318-2.0447163.0619649-3.1017015.075426-.3698341.00471-.7132845.0077381-1.0215974.0094208-.1852275.001011-.3177658.0013486-.3888514.0013486s-.2036238-.0003376-.3888514-.0013486c-.3083129-.0016827-.6517633-.0047108-1.0215974-.0094208-1.0569851-.0134611-2.11411146-.0376942-3.10170146-.075426-2.04277827-.0780464-3.50825556-.2012244-4.21980824-.3915319-1.10666509-.3028036-1.97466582-1.1618559-2.30010058-2.3135155-.32270184-1.7890206-.4793452-3.6040405-.46793479-5.4162867-.00891518-1.8042711.14771826-3.60555556.47495658-5.41387396.28527648-1.13975118 1.1583848-2.03986285 2.29585645-2.36162066.70877502-.18955611 2.17425231-.31273411 4.21703058-.39078045.98759-.03773184 2.04471636-.06196497 3.10170146-.07542602.3698341-.00470996.7132845-.00773808 1.0215974-.00942085.1852276-.00101098.3177658-.00134856.3888514-.00134856.071009 0 .2034685.00030805.3886141.0012307.3082112.00153593.6515568.0042999 1.0212811.00859902 1.0566444.01228656 2.1134177.03440507 3.1005973.06884157 2.0394147.07114237 3.5032578.18348381 4.225624.36021302 1.130536.31984938 2.0036444 1.21996105 2.2889208 2.35971223zm-.5250274 5.44826406c.0109907-1.7504144-.1393051-3.49810691-.4489751-5.22092127-.2022893-.78493762-.8062968-1.40390782-1.5696429-1.62021089-.6114686-.14931212-2.043544-.25921557-4.0057619-.32766503-.9785347-.03413494-2.0278838-.05609806-3.0773619-.06830129-.3674186-.00427231-.7085627-.00701855-1.0146373-.00854384-.1834257-.00091408-.3142315-.00121828-.3836308-.00121828-.0693225 0-.2000496.00033297-.3833935.00133366-.3059728.00167-.6470122.00467686-1.014321.00935466-1.0491372.01336111-2.09813334.03740786-3.07625763.07477806-1.95885439.07483995-3.38929547.19507304-3.98991139.35564931-.78586043.22233433-1.39277719.84802171-1.58405359 1.60762066-.30935811 1.71545972-.46068193 3.45568375-.45207272 5.20440305-.01102724 1.7562339.14030618 3.5097276.44088924 5.1899117.21844558.7670447.82181195 1.3641908 1.58830149 1.5739248.6075515.1624847 2.03799258.2827178 3.99684697.3575577.97812429.0373702 2.02712043.061417 3.07625763.0747781.3673088.0046778.7083482.0076846 1.014321.0093546.1833439.0010007.314071.0013337.3833935.0013337.0693226 0 .2000497-.000333.3833935-.0013337.3059729-.00167.6470122-.0046768 1.014321-.0093546 1.0491373-.0133611 2.0981334-.0374079 3.0762577-.0747781 1.9588544-.0748399 3.3892955-.195073 3.9899114-.3556493.7858604-.2223343 1.3927772-.8480217 1.5840507-1.6076047.3069717-1.7025424.458286-3.4294991.4520756-5.164419zm-12.5028364 3.7077717c-.3333227.1895592-.74717347-.0511786-.74717347-.4346323v-6.54c0-.3834537.41385077-.62419152.74717347-.43463232l5.75 3.27000002c.337102.1917084.337102.6775562 0 .8692646zm.2528265-1.2941789 4.2385648-2.4104534-4.2385648-2.41045335z"/></svg>