<svg height="24" viewBox="0 0 24 24" width="24" xmlns="http://www.w3.org/2000/svg"><path d="m7.32357648 8.03068326-6.67712987-6.67712987c-.19526215-.19526215-.19526215-.51184463 0-.70710678s.51184463-.19526215.70710678 0l6.99639176 6.99639176c.00271546.00265489.00539198.00533161.0080324.0080324l7.99197055 7.99197053c.0027125.002652.005389.0053287.0080295.0080295l6.9955758 6.9955758c.1952621.1952622.1952621.5118446 0 .7071068-.1952622.1952621-.5118446.1952621-.7071068 0l-6.6128474-6.6128474-4.6494886 5.5793862c-.3196264.3835518-.9421767.1133075-.8802495-.3821096l.9297478-7.4379826h-8.4336089c-.42391882 0-.65549686-.4944287-.38411064-.8200922zm.7100227.7100227-3.96607837 4.75929404h7.93247919c.300749 0 .5334423.2635908.4961389.5620174l-.7884692 6.307754 3.6159068-4.3390881zm3.88021382-2.05233761.3798251-3.0579139-1.3393118 1.60937876c-.176639.21225756-.4919019.24113211-.7041595.06449311s-.2411321-.49190196-.0644931-.70415953l2.43-2.92c.3193506-.38374646.942052-.11397352.8805133.38146486l-.59 4.75c-.0340382.27403651-.2837821.46859357-.5578186.43455535-.2740366-.03403822-.4685936-.28378213-.4345554-.55781865zm6.2724009 5.90115045 1.7448559-2.0895188h-4.2710698c-.2761424 0-.5-.2238576-.5-.5 0-.27614237.2238576-.5.5-.5h5.34c.424156 0 .6556542.49491082.3837861.8204812l-2.43 2.91c-.1769968.2119592-.4923081.2403018-.7042673.0633049-.2119592-.1769968-.2403018-.4923081-.0633049-.7042673z"/></svg>