<?xml version="1.0" encoding="UTF-8"?>
<svg width="24px" height="24px" viewBox="0 0 24 24" version="1.1" xmlns="http://www.w3.org/2000/svg" xmlns:xlink="http://www.w3.org/1999/xlink">
    <!-- Generator: Sketch 55.2 (78181) - https://sketchapp.com -->
    <title>zap</title>
    <desc>Created with Sketch.</desc>
    <g id="zap" stroke="none" stroke-width="1" fill="none" fill-rule="evenodd">
        <path d="M10.9345645,14.0016191 L10.0048166,21.4396017 C9.94288951,21.9350188 10.5654398,22.2052631 10.8850662,21.8217113 L20.8850662,9.8217113 C21.1564524,9.49604784 20.9248744,9.0016191 20.5009556,9.0016191 L12.0673467,9.0016191 L12.9970945,1.56363646 C13.0590216,1.06821941 12.4364714,0.797975138 12.1168449,1.1815269 L2.11684494,13.1815269 C1.84545872,13.5071904 2.07703675,14.0016191 2.50095558,14.0016191 L10.9345645,14.0016191 Z M11.0048166,9.43960173 C10.9675133,9.7380283 11.2002066,10.0016191 11.5009556,10.0016191 L19.4334348,10.0016191 L11.2086253,19.8713905 L11.9970945,13.5636365 C12.0343978,13.2652099 11.8017046,13.0016191 11.5009556,13.0016191 L3.56847638,13.0016191 L11.7932859,3.13184768 L11.0048166,9.43960173 Z" id="Path" fill="#000000" fill-rule="nonzero"></path>
    </g>
</svg>