<?xml version="1.0" encoding="UTF-8"?>
<svg width="24px" height="24px" viewBox="0 0 24 24" version="1.1" xmlns="http://www.w3.org/2000/svg" xmlns:xlink="http://www.w3.org/1999/xlink">
    <!-- Generator: Sketch 55.2 (78181) - https://sketchapp.com -->
    <title>zoom-out</title>
    <desc>Created with Sketch.</desc>
    <g id="zoom-out" stroke="none" stroke-width="1" fill="none" fill-rule="evenodd">
        <path d="M11.5,20 C16.1944204,20 20,16.1944204 20,11.5 C20,6.80557963 16.1944204,3 11.5,3 C6.80557963,3 3,6.80557963 3,11.5 C3,16.1944204 6.80557963,20 11.5,20 Z M11.5,19 C7.35786438,19 4,15.6421356 4,11.5 C4,7.35786438 7.35786438,4 11.5,4 C15.6421356,4 19,7.35786438 19,11.5 C19,15.6421356 15.6421356,19 11.5,19 Z" id="Oval" fill="#000000" fill-rule="nonzero"></path>
        <path d="M21.8535534,21.1464466 L17.5035534,16.7964466 C17.3082912,16.6011845 16.9917088,16.6011845 16.7964466,16.7964466 C16.6011845,16.9917088 16.6011845,17.3082912 16.7964466,17.5035534 L21.1464466,21.8535534 C21.3417088,22.0488155 21.6582912,22.0488155 21.8535534,21.8535534 C22.0488155,21.6582912 22.0488155,21.3417088 21.8535534,21.1464466 Z" id="Path" fill="#000000" fill-rule="nonzero"></path>
        <path d="M8.5,12 L14.5,12 C14.7761424,12 15,11.7761424 15,11.5 C15,11.2238576 14.7761424,11 14.5,11 L8.5,11 C8.22385763,11 8,11.2238576 8,11.5 C8,11.7761424 8.22385763,12 8.5,12 Z" id="Path" fill="#000000" fill-rule="nonzero"></path>
    </g>
</svg>