<svg height="24" viewBox="0 0 24 24" width="24" xmlns="http://www.w3.org/2000/svg"><path d="m12 11h2.5c.2761424 0 .5.2238576.5.5s-.2238576.5-.5.5h-2.5v2.5c0 .2761424-.2238576.5-.5.5s-.5-.2238576-.5-.5v-2.5h-2.5c-.27614237 0-.5-.2238576-.5-.5s.22385763-.5.5-.5h2.5v-2.5c0-.27614237.2238576-.5.5-.5s.5.22385763.5.5zm5.1465109 6.8536177c-1.5013772 1.33525-3.479219 2.1463823-5.6465109 2.1463823-4.69442037 0-8.5-3.8055796-8.5-8.5 0-4.69442037 3.80557963-8.5 8.5-8.5 4.6944204 0 8.5 3.80557963 8.5 8.5 0 2.1672919-.8111323 4.1451337-2.1463823 5.6465109l3.9999357 3.9999357c.1952621.1952622.1952621.5118446 0 .7071068-.1952622.1952621-.5118446.1952621-.7071068 0zm-.2761792-1.1182004c1.3177878-1.3515322 2.1296683-3.1986623 2.1296683-5.2354173 0-4.14213562-3.3578644-7.5-7.5-7.5-4.14213562 0-7.5 3.35786438-7.5 7.5 0 4.1421356 3.35786438 7.5 7.5 7.5 2.036755 0 3.8838851-.8118805 5.2354173-2.1296683.0176178-.0260549.0379609-.0508167.0610293-.0738851s.0478302-.0434115.0738851-.0610293z"/></svg>