<!-- Generated by IcoMoon.io -->
<svg version="1.1" xmlns="http://www.w3.org/2000/svg" width="32" height="32" viewBox="0 0 32 32">
<title>activity</title>
<path d="M20.364 26.791l-8.037-24.112c-0.221-0.663-1.159-0.663-1.38 0l-4.198 12.594h-5.294c-0.402 0-0.727 0.326-0.727 0.727s0.326 0.727 0.727 0.727h5.818c0.313 0 0.591-0.2 0.69-0.497l3.674-11.021 8.037 24.112c0.221 0.663 1.159 0.663 1.38 0l4.198-12.594h5.294c0.402 0 0.727-0.326 0.727-0.727s-0.326-0.727-0.727-0.727h-5.818c-0.313 0-0.591 0.2-0.69 0.497l-3.674 11.021z"></path>
</svg>
