<!-- Generated by IcoMoon.io -->
<svg version="1.1" xmlns="http://www.w3.org/2000/svg" width="32" height="32" viewBox="0 0 32 32">
<title>alert-triangle</title>
<path d="M12.889 3.786l-12.32 20.567c-0.652 1.129-0.656 2.507-0.016 3.629s1.827 1.821 3.119 1.835h24.648c1.3-0.014 2.487-0.713 3.127-1.835s0.636-2.5-0.010-3.619l-12.326-20.577c-0.661-1.090-1.84-1.754-3.111-1.754s-2.45 0.664-3.109 1.75l-0.002 0.003zM16 3.487c0.763 0 1.47 0.398 1.865 1.050l12.318 20.564c0.382 0.661 0.384 1.488 0 2.161s-1.096 1.093-1.872 1.101h-24.632c-0.767-0.009-1.48-0.428-1.864-1.101s-0.382-1.5 0.006-2.171l12.314-20.557c0.393-0.649 1.101-1.047 1.863-1.047z"></path>
<path d="M15.273 11.636v5.818c0 0.402 0.326 0.727 0.727 0.727s0.727-0.326 0.727-0.727v-5.818c0-0.402-0.326-0.727-0.727-0.727s-0.727 0.326-0.727 0.727z"></path>
<path d="M15.486 23.787c0.284 0.284 0.744 0.284 1.029 0s0.284-0.744 0-1.029c-0.284-0.284-0.745-0.284-1.029 0s-0.284 0.744 0 1.029z"></path>
</svg>
