<!-- Generated by IcoMoon.io -->
<svg version="1.1" xmlns="http://www.w3.org/2000/svg" width="32" height="32" viewBox="0 0 32 32">
<title>align-center</title>
<path d="M25.6 12h-19.2c-0.442 0-0.8 0.358-0.8 0.8s0.358 0.8 0.8 0.8h19.2c0.442 0 0.8-0.358 0.8-0.8s-0.358-0.8-0.8-0.8z"></path>
<path d="M30.4 5.6h-28.8c-0.442 0-0.8 0.358-0.8 0.8s0.358 0.8 0.8 0.8h28.8c0.442 0 0.8-0.358 0.8-0.8s-0.358-0.8-0.8-0.8z"></path>
<path d="M30.4 18.4h-28.8c-0.442 0-0.8 0.358-0.8 0.8s0.358 0.8 0.8 0.8h28.8c0.442 0 0.8-0.358 0.8-0.8s-0.358-0.8-0.8-0.8z"></path>
<path d="M25.6 24.8h-19.2c-0.442 0-0.8 0.358-0.8 0.8s0.358 0.8 0.8 0.8h19.2c0.442 0 0.8-0.358 0.8-0.8s-0.358-0.8-0.8-0.8z"></path>
</svg>
