<!-- Generated by IcoMoon.io -->
<svg version="1.1" xmlns="http://www.w3.org/2000/svg" width="32" height="32" viewBox="0 0 32 32">
<title>aperture</title>
<path d="M16 31.273c8.435 0 15.273-6.838 15.273-15.273s-6.838-15.273-15.273-15.273c-8.435 0-15.273 6.838-15.273 15.273s6.838 15.273 15.273 15.273zM16 29.818c-7.632 0-13.818-6.187-13.818-13.818s6.187-13.818 13.818-13.818c7.632 0 13.818 6.187 13.818 13.818s-6.187 13.818-13.818 13.818z"></path>
<path d="M18.73 10.546l8.349 14.458c0.201 0.348 0.646 0.467 0.994 0.266s0.467-0.646 0.266-0.994l-8.349-14.458c-0.201-0.348-0.646-0.467-0.994-0.266s-0.467 0.646-0.266 0.994z"></path>
<path d="M12.64 10.909h16.698c0.402 0 0.727-0.326 0.727-0.727s-0.326-0.727-0.727-0.727h-16.698c-0.402 0-0.727 0.326-0.727 0.727s0.326 0.727 0.727 0.727z"></path>
<path d="M9.91 16.364l8.349-14.458c0.201-0.348 0.082-0.793-0.266-0.994s-0.793-0.082-0.994 0.266l-8.349 14.458c-0.201 0.348-0.082 0.793 0.266 0.993s0.793 0.082 0.994-0.266z"></path>
<path d="M13.27 21.454l-8.349-14.458c-0.201-0.348-0.646-0.467-0.994-0.266s-0.467 0.646-0.266 0.994l8.349 14.458c0.201 0.348 0.646 0.467 0.994 0.266s0.467-0.646 0.266-0.994z"></path>
<path d="M19.36 21.091h-16.698c-0.402 0-0.727 0.326-0.727 0.727s0.326 0.727 0.727 0.727h16.698c0.402 0 0.727-0.326 0.727-0.727s-0.326-0.727-0.727-0.727z"></path>
<path d="M22.090 15.636l-8.349 14.458c-0.201 0.348-0.082 0.793 0.266 0.994s0.793 0.082 0.994-0.266l8.349-14.458c0.201-0.348 0.082-0.793-0.266-0.994s-0.793-0.082-0.994 0.266z"></path>
</svg>
