<!-- Generated by IcoMoon.io -->
<svg version="1.1" xmlns="http://www.w3.org/2000/svg" width="32" height="32" viewBox="0 0 32 32">
<title>archive</title>
<path d="M27.333 27.333h-22.667v-16.667c0-0.368-0.298-0.667-0.667-0.667s-0.667 0.298-0.667 0.667v17.333c0 0.368 0.298 0.667 0.667 0.667h24c0.368 0 0.667-0.298 0.667-0.667v-17.333c0-0.368-0.298-0.667-0.667-0.667s-0.667 0.298-0.667 0.667v16.667z"></path>
<path d="M0.667 4c0-0.368 0.298-0.667 0.667-0.667h29.333c0.368 0 0.667 0.298 0.667 0.667v6.667c0 0.368-0.298 0.667-0.667 0.667h-29.333c-0.368 0-0.667-0.298-0.667-0.667v-6.667zM2 4.667v5.333h28v-5.333h-28z"></path>
<path d="M13.333 16.667h5.333c0.368 0 0.667-0.298 0.667-0.667s-0.298-0.667-0.667-0.667h-5.333c-0.368 0-0.667 0.298-0.667 0.667s0.298 0.667 0.667 0.667z"></path>
</svg>
