<!-- Generated by IcoMoon.io -->
<svg version="1.1" xmlns="http://www.w3.org/2000/svg" width="32" height="32" viewBox="0 0 32 32">
<title>arrow-left</title>
<path d="M29.3 15.050h-26.6c-0.525 0-0.95 0.425-0.95 0.95s0.425 0.95 0.95 0.95h26.6c0.525 0 0.95-0.425 0.95-0.95s-0.425-0.95-0.95-0.95z"></path>
<path d="M4.043 16l12.628-12.628c0.371-0.371 0.371-0.973 0-1.344s-0.973-0.371-1.344 0l-13.3 13.3c-0.371 0.371-0.371 0.972 0 1.344l13.3 13.3c0.371 0.371 0.972 0.371 1.344 0s0.371-0.973 0-1.344l-12.628-12.628z"></path>
</svg>
