<!-- Generated by IcoMoon.io -->
<svg version="1.1" xmlns="http://www.w3.org/2000/svg" width="32" height="32" viewBox="0 0 32 32">
<title>arrow-down-left</title>
<path d="M26.701 3.671l-23.030 23.030c-0.45 0.45-0.45 1.179 0 1.628s1.179 0.45 1.628 0l23.030-23.030c0.45-0.45 0.45-1.179 0-1.628s-1.179-0.45-1.628 0z"></path>
<path d="M5.636 26.364v-21.879c0-0.636-0.515-1.152-1.152-1.152s-1.152 0.515-1.152 1.152v23.030c0 0.636 0.515 1.152 1.152 1.152h23.030c0.636 0 1.152-0.515 1.152-1.152s-0.515-1.152-1.152-1.152h-21.879z"></path>
</svg>
