<!-- Generated by IcoMoon.io -->
<svg version="1.1" xmlns="http://www.w3.org/2000/svg" width="32" height="32" viewBox="0 0 32 32">
<title>arrow-down-right</title>
<path d="M3.671 5.299l23.030 23.030c0.45 0.45 1.179 0.45 1.628 0s0.45-1.179 0-1.628l-23.030-23.030c-0.45-0.45-1.179-0.45-1.628 0s-0.45 1.179 0 1.628z"></path>
<path d="M26.364 26.364h-21.879c-0.636 0-1.152 0.515-1.152 1.152s0.515 1.152 1.152 1.152h23.030c0.636 0 1.152-0.515 1.152-1.152v-23.030c0-0.636-0.515-1.152-1.152-1.152s-1.152 0.515-1.152 1.152v21.879z"></path>
</svg>
