<!-- Generated by IcoMoon.io -->
<svg version="1.1" xmlns="http://www.w3.org/2000/svg" width="32" height="32" viewBox="0 0 32 32">
<title>arrow-up-right</title>
<path d="M5.299 28.329l23.030-23.030c0.45-0.45 0.45-1.179 0-1.628s-1.179-0.45-1.628 0l-23.030 23.030c-0.45 0.45-0.45 1.179 0 1.628s1.179 0.45 1.628 0z"></path>
<path d="M26.364 5.636v21.879c0 0.636 0.515 1.152 1.152 1.152s1.152-0.515 1.152-1.152v-23.030c0-0.636-0.515-1.152-1.152-1.152h-23.030c-0.636 0-1.152 0.515-1.152 1.152s0.515 1.152 1.152 1.152h21.879z"></path>
</svg>
