<!-- Generated by IcoMoon.io -->
<svg version="1.1" xmlns="http://www.w3.org/2000/svg" width="32" height="32" viewBox="0 0 32 32">
<title>arrow-up-circle</title>
<path d="M16 31.273c8.435 0 15.273-6.838 15.273-15.273s-6.838-15.273-15.273-15.273c-8.435 0-15.273 6.838-15.273 15.273s6.838 15.273 15.273 15.273zM16 29.818c-7.632 0-13.818-6.187-13.818-13.818s6.187-13.818 13.818-13.818c7.632 0 13.818 6.187 13.818 13.818s-6.187 13.818-13.818 13.818z"></path>
<path d="M21.304 16.514c0.284 0.284 0.744 0.284 1.029 0s0.284-0.745 0-1.029l-5.818-5.818c-0.284-0.284-0.745-0.284-1.029 0l-5.818 5.818c-0.284 0.284-0.284 0.744 0 1.029s0.745 0.284 1.029 0l5.304-5.304 5.304 5.304z"></path>
<path d="M16.727 21.818v-11.636c0-0.402-0.326-0.727-0.727-0.727s-0.727 0.326-0.727 0.727v11.636c0 0.402 0.326 0.727 0.727 0.727s0.727-0.326 0.727-0.727z"></path>
</svg>
