<!-- Generated by IcoMoon.io -->
<svg version="1.1" xmlns="http://www.w3.org/2000/svg" width="32" height="32" viewBox="0 0 32 32">
<title>at-sign</title>
<path d="M16 22.545c3.615 0 6.545-2.93 6.545-6.545s-2.93-6.545-6.545-6.545c-3.615 0-6.545 2.931-6.545 6.545s2.931 6.545 6.545 6.545zM16 21.091c-2.812 0-5.091-2.279-5.091-5.091s2.279-5.091 5.091-5.091c2.812 0 5.091 2.279 5.091 5.091s-2.279 5.091-5.091 5.091z"></path>
<path d="M21.091 10.182v7.273c0 2.812 2.279 5.091 5.091 5.091s5.091-2.279 5.091-5.091v-1.455c-0-7.097-4.89-13.259-11.802-14.872s-14.024 1.748-17.166 8.112c-3.142 6.364-1.486 14.054 3.997 18.56s13.348 4.642 18.983 0.326c0.319-0.244 0.379-0.701 0.135-1.020s-0.701-0.379-1.020-0.135c-5.098 3.904-12.214 3.782-17.175-0.295s-6.459-11.035-3.617-16.793c2.843-5.758 9.277-8.799 15.531-7.339s10.677 7.034 10.678 13.456v1.454c0 2.008-1.628 3.636-3.636 3.636s-3.636-1.628-3.636-3.636v-7.273c0-0.402-0.326-0.727-0.727-0.727s-0.727 0.326-0.727 0.727z"></path>
</svg>
