<!-- Generated by IcoMoon.io -->
<svg version="1.1" xmlns="http://www.w3.org/2000/svg" width="21" height="32" viewBox="0 0 21 32">
<title>award</title>
<path d="M10.667 20.667c5.523 0 10-4.477 10-10s-4.477-10-10-10c-5.523 0-10 4.477-10 10s4.477 10 10 10zM10.667 19.333c-4.786 0-8.667-3.88-8.667-8.667s3.88-8.667 8.667-8.667c4.786 0 8.667 3.88 8.667 8.667s-3.88 8.667-8.667 8.667z"></path>
<path d="M16.99 31.238c0.479 0.287 1.077-0.106 1.004-0.659l-1.613-12.16c-0.048-0.365-0.384-0.622-0.749-0.573s-0.622 0.384-0.573 0.749l1.431 10.789-5.481-3.289c-0.211-0.127-0.475-0.127-0.686 0l-5.481 3.288 1.431-10.776c0.048-0.365-0.208-0.7-0.573-0.749s-0.7 0.208-0.749 0.573l-1.613 12.147c-0.074 0.553 0.525 0.947 1.004 0.659l6.324-3.794 6.324 3.794z"></path>
</svg>
