<!-- Generated by IcoMoon.io -->
<svg version="1.1" xmlns="http://www.w3.org/2000/svg" width="32" height="32" viewBox="0 0 32 32">
<title>bar-chart</title>
<path d="M16.889 30.222v-17.778c0-0.491-0.398-0.889-0.889-0.889s-0.889 0.398-0.889 0.889v17.778c0 0.491 0.398 0.889 0.889 0.889s0.889-0.398 0.889-0.889z"></path>
<path d="M27.556 30.222v-28.444c0-0.491-0.398-0.889-0.889-0.889s-0.889 0.398-0.889 0.889v28.444c0 0.491 0.398 0.889 0.889 0.889s0.889-0.398 0.889-0.889z"></path>
<path d="M6.222 30.222v-7.111c0-0.491-0.398-0.889-0.889-0.889s-0.889 0.398-0.889 0.889v7.111c0 0.491 0.398 0.889 0.889 0.889s0.889-0.398 0.889-0.889z"></path>
</svg>
