<!-- Generated by IcoMoon.io -->
<svg version="1.1" xmlns="http://www.w3.org/2000/svg" width="32" height="32" viewBox="0 0 32 32">
<title>battery-charging</title>
<path d="M6.667 23.333c0.368 0 0.667 0.298 0.667 0.667s-0.298 0.667-0.667 0.667h-2.667c-1.841 0-3.333-1.492-3.333-3.333v-10.667c0-1.841 1.492-3.333 3.333-3.333h4.253c0.368 0 0.667 0.298 0.667 0.667s-0.298 0.667-0.667 0.667h-4.253c-1.105 0-2 0.895-2 2v10.667c0 1.105 0.895 2 2 2h2.667zM20 8.667c-0.368 0-0.667-0.298-0.667-0.667s0.298-0.667 0.667-0.667h2.667c1.841 0 3.333 1.492 3.333 3.333v10.667c0 1.841-1.492 3.333-3.333 3.333h-4.253c-0.368 0-0.667-0.298-0.667-0.667s0.298-0.667 0.667-0.667h4.253c1.105 0 2-0.895 2-2v-10.667c0-1.105-0.895-2-2-2h-2.667z"></path>
<path d="M31.333 17.333v-2.667c0-0.368-0.298-0.667-0.667-0.667s-0.667 0.298-0.667 0.667v2.667c0 0.368 0.298 0.667 0.667 0.667s0.667-0.298 0.667-0.667z"></path>
<path d="M16.088 16.667l-4.642 6.964c-0.204 0.306-0.121 0.72 0.185 0.924s0.72 0.121 0.925-0.185l5.333-8c0.295-0.443-0.022-1.036-0.555-1.036h-6.754l4.642-6.964c0.204-0.306 0.121-0.72-0.185-0.925s-0.72-0.121-0.925 0.185l-5.333 8c-0.295 0.443 0.022 1.036 0.555 1.036h6.754z"></path>
</svg>
