<!-- Generated by IcoMoon.io -->
<svg version="1.1" xmlns="http://www.w3.org/2000/svg" width="32" height="32" viewBox="0 0 32 32">
<title>battery</title>
<path d="M4 7.333h18.667c1.841 0 3.333 1.492 3.333 3.333v10.667c0 1.841-1.492 3.333-3.333 3.333h-18.667c-1.841 0-3.333-1.492-3.333-3.333v-10.667c0-1.841 1.492-3.333 3.333-3.333zM4 8.667c-1.105 0-2 0.895-2 2v10.667c0 1.105 0.895 2 2 2h18.667c1.105 0 2-0.895 2-2v-10.667c0-1.105-0.895-2-2-2h-18.667z"></path>
<path d="M31.333 17.333v-2.667c0-0.368-0.298-0.667-0.667-0.667s-0.667 0.298-0.667 0.667v2.667c0 0.368 0.298 0.667 0.667 0.667s0.667-0.298 0.667-0.667z"></path>
</svg>
