<!-- Generated by IcoMoon.io -->
<svg version="1.1" xmlns="http://www.w3.org/2000/svg" width="32" height="32" viewBox="0 0 32 32">
<title>bell</title>
<path d="M24 10.182c0 4.573 0.847 8.102 2.271 10.712 0.359 0.658 0.721 1.205 1.068 1.652h-22.678c0.347-0.447 0.71-0.994 1.068-1.652 1.424-2.61 2.271-6.139 2.271-10.712 0-4.418 3.582-8 8-8s8 3.582 8 8zM25.455 10.182c0-5.222-4.233-9.455-9.455-9.455s-9.455 4.233-9.455 9.455c0 4.336-0.789 7.625-2.093 10.015-0.447 0.819-0.921 1.467-1.389 1.962-0.268 0.283-0.465 0.447-0.557 0.509-0.599 0.399-0.316 1.332 0.403 1.332h26.182c0.72 0 1.002-0.933 0.403-1.332-0.092-0.061-0.289-0.225-0.557-0.509-0.469-0.495-0.943-1.143-1.389-1.962-1.304-2.39-2.093-5.679-2.093-10.015z"></path>
<path d="M17.887 28.726c-0.39 0.673-1.109 1.087-1.887 1.087s-1.497-0.414-1.887-1.087c-0.202-0.347-0.647-0.466-0.994-0.264s-0.466 0.647-0.264 0.994c0.651 1.121 1.849 1.812 3.145 1.812s2.495-0.69 3.145-1.812c0.202-0.347 0.083-0.792-0.264-0.994s-0.792-0.083-0.994 0.264z"></path>
</svg>
