<!-- Generated by IcoMoon.io -->
<svg version="1.1" xmlns="http://www.w3.org/2000/svg" width="32" height="32" viewBox="0 0 32 32">
<title>bell-off</title>
<path d="M17.73 27.666c-0.358 0.617-1.017 0.996-1.73 0.996s-1.372-0.38-1.73-0.996c-0.185-0.318-0.593-0.427-0.911-0.242s-0.427 0.593-0.242 0.911c0.596 1.028 1.695 1.661 2.883 1.661s2.287-0.633 2.883-1.661c0.185-0.318 0.076-0.726-0.242-0.911s-0.726-0.076-0.911 0.242z"></path>
<path d="M25.483 17.158c-0.577-2.111-0.851-4.293-0.817-6.48 0.006-0.368-0.288-0.671-0.656-0.677s-0.671 0.288-0.677 0.656c-0.037 2.314 0.254 4.621 0.863 6.853 0.097 0.355 0.464 0.564 0.819 0.467s0.564-0.464 0.467-0.819z"></path>
<path d="M6.585 20.486c1.305-2.393 2.081-5.627 2.081-9.819-0.002-0.721 0.105-1.436 0.317-2.124 0.108-0.352-0.089-0.725-0.441-0.833s-0.725 0.089-0.833 0.441c-0.251 0.816-0.378 1.664-0.376 2.518 0 3.973-0.724 6.988-1.919 9.179-0.41 0.751-0.844 1.345-1.274 1.798-0.246 0.26-0.426 0.41-0.511 0.466-0.549 0.366-0.29 1.221 0.37 1.221h18.667c0.368 0 0.667-0.298 0.667-0.667s-0.298-0.667-0.667-0.667h-17.061c0.318-0.409 0.65-0.911 0.979-1.514z"></path>
<path d="M24.667 10.668c0.005-3.199-1.753-6.141-4.573-7.652s-6.243-1.346-8.904 0.43c-0.306 0.204-0.389 0.618-0.185 0.925s0.618 0.389 0.925 0.185c2.252-1.502 5.148-1.642 7.534-0.363s3.873 3.768 3.869 6.475c-0.001 0.368 0.297 0.667 0.666 0.668s0.667-0.297 0.668-0.666z"></path>
<path d="M0.862 1.805l29.333 29.333c0.26 0.26 0.682 0.26 0.943 0s0.26-0.682 0-0.943l-29.333-29.333c-0.26-0.26-0.682-0.26-0.943 0s-0.26 0.682 0 0.943z"></path>
</svg>
