<!-- Generated by IcoMoon.io -->
<svg version="1.1" xmlns="http://www.w3.org/2000/svg" width="16" height="32" viewBox="0 0 16 32">
<title>bluetooth</title>
<path d="M14.078 22.975l-5.444 5.444v-10.888l5.444 5.444zM8.634 3.581l5.444 5.444-5.444 5.444v-10.888zM0.577 22.526c-0.248 0.248-0.248 0.649 0 0.897s0.649 0.248 0.897 0l5.892-5.892v12.419c0 0.565 0.683 0.848 1.082 0.448l6.975-6.975c0.248-0.248 0.248-0.649 0-0.897l-6.526-6.526 6.526-6.526c0.248-0.248 0.248-0.649 0-0.897l-6.975-6.975c-0.399-0.399-1.082-0.117-1.082 0.448v12.419l-5.892-5.892c-0.248-0.248-0.649-0.248-0.897 0s-0.248 0.649 0 0.897l6.526 6.526-6.526 6.526z"></path>
</svg>
