<!-- Generated by IcoMoon.io -->
<svg version="1.1" xmlns="http://www.w3.org/2000/svg" width="32" height="32" viewBox="0 0 32 32">
<title>bold</title>
<path d="M4.791 3.189c0-0.442 0.358-0.801 0.801-0.801h12.811c3.98 0 7.206 3.226 7.206 7.206s-3.226 7.206-7.206 7.206h-12.811c-0.442 0-0.801-0.358-0.801-0.801v-12.811zM6.392 3.99v11.209h12.010c3.095 0 5.605-2.509 5.605-5.605s-2.509-5.605-5.605-5.605h-12.010z"></path>
<path d="M4.791 16c0-0.442 0.358-0.801 0.801-0.801h14.412c3.98 0 7.206 3.226 7.206 7.206s-3.226 7.206-7.206 7.206h-14.412c-0.442 0-0.801-0.358-0.801-0.801v-12.811zM6.392 16.801v11.209h13.611c3.095 0 5.605-2.509 5.605-5.605s-2.509-5.605-5.605-5.605h-13.611z"></path>
</svg>
