<!-- Generated by IcoMoon.io -->
<svg version="1.1" xmlns="http://www.w3.org/2000/svg" width="32" height="32" viewBox="0 0 32 32">
<title>book</title>
<path d="M5.091 26.909c0-1.607 1.302-2.909 2.909-2.909h19.636c0.402 0 0.727-0.326 0.727-0.727s-0.326-0.727-0.727-0.727h-19.636c-2.41 0-4.364 1.954-4.364 4.364 0 0.402 0.326 0.727 0.727 0.727s0.727-0.326 0.727-0.727z"></path>
<path d="M8 0.727h19.636c0.402 0 0.727 0.326 0.727 0.727v29.091c0 0.402-0.326 0.727-0.727 0.727h-19.636c-2.41 0-4.364-1.954-4.364-4.364v-21.818c0-2.41 1.954-4.364 4.364-4.364zM26.909 2.182h-18.909c-1.607 0-2.909 1.302-2.909 2.909v21.818c0 1.607 1.302 2.909 2.909 2.909h18.909v-27.636z"></path>
</svg>
