<!-- Generated by IcoMoon.io -->
<svg version="1.1" xmlns="http://www.w3.org/2000/svg" width="32" height="32" viewBox="0 0 32 32">
<title>book-open</title>
<path d="M0.727 2.909c0-0.402 0.326-0.727 0.727-0.727h8.727c3.615 0 6.545 2.93 6.545 6.545v20.364h-1.455c0-2.008-1.628-3.636-3.636-3.636h-10.182c-0.402 0-0.727-0.326-0.727-0.727v-21.818zM2.182 3.636v20.364h9.455c1.425 0 2.712 0.585 3.636 1.528v-16.801c0-2.812-2.279-5.091-5.091-5.091h-8zM16.727 29.091c0 0.97-1.455 0.97-1.455 0v-3.563c0.9 0.918 1.455 2.176 1.455 3.563z"></path>
<path d="M30.545 2.182h-8.727c-3.615 0-6.545 2.93-6.545 6.545v20.364h1.455c0-2.008 1.628-3.636 3.636-3.636h10.182c0.402 0 0.727-0.326 0.727-0.727v-21.818c0-0.402-0.326-0.727-0.727-0.727zM29.818 3.636v20.364h-9.455c-1.425 0-2.712 0.585-3.636 1.528v-16.801c0-2.812 2.279-5.091 5.091-5.091h8zM15.273 29.091c0 0.97 1.455 0.97 1.455 0v-3.563c-0.9 0.918-1.455 2.176-1.455 3.563z"></path>
</svg>
