<!-- Generated by IcoMoon.io -->
<svg version="1.1" xmlns="http://www.w3.org/2000/svg" width="32" height="32" viewBox="0 0 32 32">
<title>box</title>
<path d="M29.818 10.182c-0.001-1.299-0.694-2.497-1.818-3.146l-10.185-5.82c-1.122-0.648-2.508-0.648-3.634 0.002l-10.179 5.817c-1.127 0.651-1.82 1.849-1.821 3.147v11.637c0.001 1.299 0.694 2.497 1.818 3.146l10.185 5.82c1.122 0.648 2.508 0.648 3.634-0.002l10.179-5.817c1.127-0.651 1.82-1.849 1.821-3.147v-11.637zM27.273 23.705l-10.179 5.817c-0.678 0.391-1.51 0.391-2.185 0.002l-10.185-5.82c-0.672-0.388-1.087-1.107-1.088-1.886v-11.636c0.001-0.778 0.417-1.497 1.091-1.887l10.179-5.817c0.678-0.391 1.51-0.391 2.185-0.002l10.185 5.82c0.672 0.388 1.087 1.107 1.088 1.886v11.636c-0.001 0.778-0.417 1.497-1.091 1.887z"></path>
<path d="M16 15.174l-12.334-7.135c-0.348-0.201-0.793-0.082-0.994 0.265s-0.082 0.793 0.265 0.994l12.698 7.345c0.225 0.13 0.503 0.13 0.728 0l12.698-7.345c0.348-0.201 0.466-0.646 0.265-0.994s-0.646-0.466-0.994-0.265l-12.334 7.135z"></path>
<path d="M16.727 30.662v-14.662c0-0.402-0.326-0.727-0.727-0.727s-0.727 0.326-0.727 0.727v14.662c0 0.402 0.326 0.727 0.727 0.727s0.727-0.326 0.727-0.727z"></path>
</svg>
