<!-- Generated by IcoMoon.io -->
<svg version="1.1" xmlns="http://www.w3.org/2000/svg" width="32" height="32" viewBox="0 0 32 32">
<title>briefcase</title>
<path d="M4.364 8h23.273c2.008 0 3.636 1.628 3.636 3.636v14.545c0 2.008-1.628 3.636-3.636 3.636h-23.273c-2.008 0-3.636-1.628-3.636-3.636v-14.545c0-2.008 1.628-3.636 3.636-3.636zM4.364 9.455c-1.205 0-2.182 0.977-2.182 2.182v14.545c0 1.205 0.977 2.182 2.182 2.182h23.273c1.205 0 2.182-0.977 2.182-2.182v-14.545c0-1.205-0.977-2.182-2.182-2.182h-23.273z"></path>
<path d="M22.545 29.091v-23.273c0-2.008-1.628-3.636-3.636-3.636h-5.818c-2.008 0-3.636 1.628-3.636 3.636v23.273c0 0.402 0.326 0.727 0.727 0.727s0.727-0.326 0.727-0.727v-23.273c0-1.205 0.977-2.182 2.182-2.182h5.818c1.205 0 2.182 0.977 2.182 2.182v23.273c0 0.402 0.326 0.727 0.727 0.727s0.727-0.326 0.727-0.727z"></path>
</svg>
