<!-- Generated by IcoMoon.io -->
<svg version="1.1" xmlns="http://www.w3.org/2000/svg" width="32" height="32" viewBox="0 0 32 32">
<title>calendar</title>
<path d="M5.818 3.636h20.364c2.008 0 3.636 1.628 3.636 3.636v20.364c0 2.008-1.628 3.636-3.636 3.636h-20.364c-2.008 0-3.636-1.628-3.636-3.636v-20.364c0-2.008 1.628-3.636 3.636-3.636zM5.818 5.091c-1.205 0-2.182 0.977-2.182 2.182v20.364c0 1.205 0.977 2.182 2.182 2.182h20.364c1.205 0 2.182-0.977 2.182-2.182v-20.364c0-1.205-0.977-2.182-2.182-2.182h-20.364z"></path>
<path d="M21.091 1.455v5.818c0 0.402 0.326 0.727 0.727 0.727s0.727-0.326 0.727-0.727v-5.818c0-0.402-0.326-0.727-0.727-0.727s-0.727 0.326-0.727 0.727z"></path>
<path d="M9.455 1.455v5.818c0 0.402 0.326 0.727 0.727 0.727s0.727-0.326 0.727-0.727v-5.818c0-0.402-0.326-0.727-0.727-0.727s-0.727 0.326-0.727 0.727z"></path>
<path d="M2.909 13.818h26.182c0.402 0 0.727-0.326 0.727-0.727s-0.326-0.727-0.727-0.727h-26.182c-0.402 0-0.727 0.326-0.727 0.727s0.326 0.727 0.727 0.727z"></path>
</svg>
