<!-- Generated by IcoMoon.io -->
<svg version="1.1" xmlns="http://www.w3.org/2000/svg" width="32" height="32" viewBox="0 0 32 32">
<title>camera</title>
<path d="M23.023 7.333h4.977c1.841 0 3.333 1.492 3.333 3.333v14.667c0 1.841-1.492 3.333-3.333 3.333h-24c-1.841 0-3.333-1.492-3.333-3.333v-14.667c0-1.841 1.492-3.333 3.333-3.333h4.977l2.469-3.703c0.124-0.185 0.332-0.297 0.555-0.297h8c0.223 0 0.431 0.111 0.555 0.297l2.469 3.703zM12.357 4.667l-2.469 3.703c-0.124 0.185-0.332 0.297-0.555 0.297h-5.333c-1.105 0-2 0.895-2 2v14.667c0 1.105 0.895 2 2 2h24c1.105 0 2-0.895 2-2v-14.667c0-1.105-0.895-2-2-2h-5.333c-0.223 0-0.431-0.111-0.555-0.297l-2.469-3.703h-7.286z"></path>
<path d="M16 23.333c3.314 0 6-2.686 6-6s-2.686-6-6-6c-3.314 0-6 2.686-6 6s2.686 6 6 6zM16 22c-2.577 0-4.667-2.089-4.667-4.667s2.089-4.667 4.667-4.667c2.577 0 4.667 2.089 4.667 4.667s-2.089 4.667-4.667 4.667z"></path>
</svg>
