<!-- Generated by IcoMoon.io -->
<svg version="1.1" xmlns="http://www.w3.org/2000/svg" width="32" height="32" viewBox="0 0 32 32">
<title>camera-off</title>
<path d="M0.862 1.805l29.333 29.333c0.26 0.26 0.682 0.26 0.943 0s0.26-0.682 0-0.943l-29.333-29.333c-0.26-0.26-0.682-0.26-0.943 0s-0.26 0.682 0 0.943z"></path>
<path d="M28 27.333c0.368 0 0.667 0.298 0.667 0.667s-0.298 0.667-0.667 0.667h-24c-1.841 0-3.333-1.492-3.333-3.333v-14.667c0-1.841 1.492-3.333 3.333-3.333h4c0.368 0 0.667 0.298 0.667 0.667s-0.298 0.667-0.667 0.667h-4c-1.105 0-2 0.895-2 2v14.667c0 1.105 0.895 2 2 2h24zM19.643 4.667h-7.643c-0.368 0-0.667-0.298-0.667-0.667s0.298-0.667 0.667-0.667h8c0.223 0 0.431 0.111 0.555 0.297l2.469 3.703h4.977c1.841 0 3.333 1.492 3.333 3.333v12.453c0 0.368-0.298 0.667-0.667 0.667s-0.667-0.298-0.667-0.667v-12.453c0-1.105-0.895-2-2-2h-5.333c-0.223 0-0.431-0.111-0.555-0.297l-2.469-3.703zM19.823 19.997c0.208-0.304 0.623-0.382 0.927-0.174s0.382 0.623 0.174 0.927c-1.361 1.99-3.781 2.971-6.144 2.492s-4.209-2.326-4.688-4.688c-0.479-2.363 0.503-4.783 2.492-6.144 0.304-0.208 0.719-0.13 0.927 0.174s0.13 0.719-0.174 0.927c-1.547 1.059-2.311 2.941-1.938 4.779s1.809 3.274 3.646 3.646c1.838 0.373 3.72-0.391 4.779-1.938z"></path>
</svg>
