<!-- Generated by IcoMoon.io -->
<svg version="1.1" xmlns="http://www.w3.org/2000/svg" width="32" height="32" viewBox="0 0 32 32">
<title>check-square</title>
<path d="M11.205 13.937c-0.298-0.298-0.78-0.298-1.078 0s-0.298 0.78 0 1.078l4.571 4.571c0.298 0.298 0.78 0.298 1.078 0l15.238-15.238c0.298-0.298 0.298-0.78 0-1.077s-0.78-0.298-1.078 0l-14.699 14.699-4.033-4.033z"></path>
<path d="M28.19 16v10.667c0 1.262-1.023 2.286-2.286 2.286h-21.333c-1.262 0-2.286-1.023-2.286-2.286v-21.333c0-1.262 1.023-2.286 2.286-2.286h16.762c0.421 0 0.762-0.341 0.762-0.762s-0.341-0.762-0.762-0.762h-16.762c-2.104 0-3.81 1.706-3.81 3.81v21.333c0 2.104 1.706 3.81 3.81 3.81h21.333c2.104 0 3.81-1.706 3.81-3.81v-10.667c0-0.421-0.341-0.762-0.762-0.762s-0.762 0.341-0.762 0.762z"></path>
</svg>
