<!-- Generated by IcoMoon.io -->
<svg version="1.1" xmlns="http://www.w3.org/2000/svg" width="32" height="32" viewBox="0 0 32 32">
<title>check-circle</title>
<path d="M29.818 14.662v1.338c-0.003 6.119-4.032 11.508-9.9 13.243s-12.179-0.596-15.51-5.73c-3.331-5.134-2.888-11.847 1.088-16.499s10.538-6.135 16.128-3.644c0.367 0.163 0.797-0.001 0.96-0.368s-0.001-0.797-0.368-0.96c-6.178-2.753-13.431-1.114-17.826 4.028s-4.884 12.561-1.202 18.236c3.681 5.674 10.656 8.251 17.143 6.333s10.938-7.873 10.942-14.637v-1.339c0-0.402-0.326-0.727-0.727-0.727s-0.727 0.326-0.727 0.727z"></path>
<path d="M12.151 14.046c-0.284-0.284-0.745-0.284-1.029 0s-0.284 0.745 0 1.029l4.364 4.364c0.284 0.284 0.745 0.284 1.029-0l14.545-14.56c0.284-0.284 0.284-0.745-0-1.029s-0.745-0.284-1.029 0.001l-14.031 14.045-3.849-3.849z"></path>
</svg>
