<!-- Generated by IcoMoon.io -->
<svg version="1.1" xmlns="http://www.w3.org/2000/svg" width="32" height="32" viewBox="0 0 32 32">
<title>chevrons-left</title>
<path d="M3.902 16l10.62-10.62c0.446-0.446 0.446-1.17 0-1.616s-1.17-0.446-1.616 0l-11.429 11.429c-0.446 0.446-0.446 1.17 0 1.616l11.429 11.429c0.446 0.446 1.17 0.446 1.616 0s0.446-1.17 0-1.616l-10.62-10.62z"></path>
<path d="M19.902 16l10.62-10.62c0.446-0.446 0.446-1.17 0-1.616s-1.17-0.446-1.616 0l-11.429 11.429c-0.446 0.446-0.446 1.17 0 1.616l11.429 11.429c0.446 0.446 1.17 0.446 1.616 0s0.446-1.17 0-1.616l-10.62-10.62z"></path>
</svg>
