<!-- Generated by IcoMoon.io -->
<svg version="1.1" xmlns="http://www.w3.org/2000/svg" width="32" height="32" viewBox="0 0 32 32">
<title>chevrons-up</title>
<path d="M16 3.902l10.62 10.62c0.446 0.446 1.17 0.446 1.616 0s0.446-1.17 0-1.616l-11.429-11.429c-0.446-0.446-1.17-0.446-1.616 0l-11.429 11.429c-0.446 0.446-0.446 1.17 0 1.616s1.17 0.446 1.616 0l10.62-10.62z"></path>
<path d="M16 19.902l10.62 10.62c0.446 0.446 1.17 0.446 1.616 0s0.446-1.17 0-1.616l-11.429-11.429c-0.446-0.446-1.17-0.446-1.616 0l-11.429 11.429c-0.446 0.446-0.446 1.17 0 1.616s1.17 0.446 1.616 0l10.62-10.62z"></path>
</svg>
