<!-- Generated by IcoMoon.io -->
<svg version="1.1" xmlns="http://www.w3.org/2000/svg" width="32" height="32" viewBox="0 0 32 32">
<title>chrome</title>
<path d="M16 31.273c8.435 0 15.273-6.838 15.273-15.273s-6.838-15.273-15.273-15.273c-8.435 0-15.273 6.838-15.273 15.273s6.838 15.273 15.273 15.273zM16 29.818c-7.632 0-13.818-6.187-13.818-13.818s6.187-13.818 13.818-13.818c7.632 0 13.818 6.187 13.818 13.818s-6.187 13.818-13.818 13.818z"></path>
<path d="M16 22.545c3.615 0 6.545-2.93 6.545-6.545s-2.93-6.545-6.545-6.545c-3.615 0-6.545 2.931-6.545 6.545s2.931 6.545 6.545 6.545zM16 21.091c-2.812 0-5.091-2.279-5.091-5.091s2.279-5.091 5.091-5.091c2.812 0 5.091 2.279 5.091 5.091s-2.279 5.091-5.091 5.091z"></path>
<path d="M29.338 9.455h-13.338c-0.402 0-0.727 0.326-0.727 0.727s0.326 0.727 0.727 0.727h13.338c0.402 0 0.727-0.326 0.727-0.727s-0.326-0.727-0.727-0.727z"></path>
<path d="M3.661 7.724l6.676 11.549c0.201 0.348 0.646 0.467 0.994 0.266s0.467-0.646 0.266-0.994l-6.676-11.549c-0.201-0.348-0.646-0.467-0.994-0.266s-0.467 0.646-0.266 0.994z"></path>
<path d="M15.001 30.822l6.662-11.549c0.201-0.348 0.081-0.793-0.267-0.993s-0.793-0.081-0.993 0.267l-6.662 11.549c-0.201 0.348-0.081 0.793 0.267 0.993s0.793 0.081 0.993-0.267z"></path>
</svg>
