<!-- Generated by IcoMoon.io -->
<svg version="1.1" xmlns="http://www.w3.org/2000/svg" width="32" height="32" viewBox="0 0 32 32">
<title>clipboard</title>
<path d="M21.818 5.091h2.909c1.205 0 2.182 0.977 2.182 2.182v20.364c0 1.205-0.977 2.182-2.182 2.182h-17.455c-1.205 0-2.182-0.977-2.182-2.182v-20.364c0-1.205 0.977-2.182 2.182-2.182h2.909c0.402 0 0.727-0.326 0.727-0.727s-0.326-0.727-0.727-0.727h-2.909c-2.008 0-3.636 1.628-3.636 3.636v20.364c0 2.008 1.628 3.636 3.636 3.636h17.455c2.008 0 3.636-1.628 3.636-3.636v-20.364c0-2.008-1.628-3.636-3.636-3.636h-2.909c-0.402 0-0.727 0.326-0.727 0.727s0.326 0.727 0.727 0.727z"></path>
<path d="M11.636 0.727h8.727c1.205 0 2.182 0.977 2.182 2.182v2.909c0 1.205-0.977 2.182-2.182 2.182h-8.727c-1.205 0-2.182-0.977-2.182-2.182v-2.909c0-1.205 0.977-2.182 2.182-2.182zM11.636 2.182c-0.402 0-0.727 0.326-0.727 0.727v2.909c0 0.402 0.326 0.727 0.727 0.727h8.727c0.402 0 0.727-0.326 0.727-0.727v-2.909c0-0.402-0.326-0.727-0.727-0.727h-8.727z"></path>
</svg>
