<!-- Generated by IcoMoon.io -->
<svg version="1.1" xmlns="http://www.w3.org/2000/svg" width="32" height="32" viewBox="0 0 32 32">
<title>clock</title>
<path d="M16 31.273c8.435 0 15.273-6.838 15.273-15.273s-6.838-15.273-15.273-15.273c-8.435 0-15.273 6.838-15.273 15.273s6.838 15.273 15.273 15.273zM16 29.818c-7.632 0-13.818-6.187-13.818-13.818s6.187-13.818 13.818-13.818c7.632 0 13.818 6.187 13.818 13.818s-6.187 13.818-13.818 13.818z"></path>
<path d="M16.727 7.273c0-0.402-0.326-0.727-0.727-0.727s-0.727 0.326-0.727 0.727v8.727c0 0.275 0.156 0.527 0.402 0.651l5.818 2.909c0.359 0.18 0.796 0.034 0.976-0.325s0.034-0.796-0.325-0.976l-5.416-2.708v-8.278z"></path>
</svg>
