<!-- Generated by IcoMoon.io -->
<svg version="1.1" xmlns="http://www.w3.org/2000/svg" width="32" height="32" viewBox="0 0 32 32">
<title>cloud-off</title>
<path d="M23.999 12.667c2.461-0.003 4.759 1.229 6.12 3.28s1.601 4.647 0.642 6.914c-0.144 0.339-0.535 0.497-0.874 0.354s-0.497-0.535-0.354-0.874c0.785-1.854 0.588-3.979-0.525-5.657s-2.994-2.686-5.008-2.683h-1.68c-0.305 0-0.571-0.207-0.646-0.503-1.046-4.118-4.58-7.126-8.813-7.5-0.367-0.032-0.638-0.356-0.605-0.723s0.356-0.638 0.723-0.605c4.623 0.408 8.511 3.589 9.848 7.997h1.173zM6.344 6.083c0.322-0.178 0.728-0.061 0.906 0.261s0.061 0.728-0.261 0.906c-4.017 2.221-6.006 6.892-4.823 11.328s5.234 7.496 9.834 7.422h11.999c0.696-0.001 1.386-0.123 2.040-0.36 0.346-0.126 0.729 0.053 0.854 0.399s-0.053 0.729-0.399 0.854c-0.799 0.29-1.643 0.439-2.494 0.44l-11.989-0c-5.202 0.084-9.793-3.385-11.133-8.412s0.914-10.321 5.467-12.838z"></path>
<path d="M0.862 1.805l29.333 29.333c0.26 0.26 0.682 0.26 0.943 0s0.26-0.682 0-0.943l-29.333-29.333c-0.26-0.26-0.682-0.26-0.943 0s-0.26 0.682 0 0.943z"></path>
</svg>
