<!-- Generated by IcoMoon.io -->
<svg version="1.1" xmlns="http://www.w3.org/2000/svg" width="32" height="32" viewBox="0 0 32 32">
<title>cloud-snow</title>
<path d="M12.629 2.018c-4.924-0.277-9.462 2.661-11.223 7.268s-0.342 9.823 3.511 12.902c0.288 0.23 0.707 0.183 0.937-0.105s0.183-0.707-0.105-0.937c-3.399-2.716-4.652-7.319-3.098-11.384s5.558-6.657 9.903-6.413c4.345 0.245 8.032 3.271 9.12 7.484 0.076 0.294 0.341 0.5 0.645 0.5h1.68c2.838 0.003 5.285 1.995 5.866 4.774s-0.866 5.583-3.466 6.722c-0.337 0.148-0.491 0.541-0.343 0.878s0.541 0.491 0.878 0.343c3.178-1.392 4.946-4.82 4.237-8.216s-3.701-5.831-7.17-5.835h-1.177c-1.387-4.513-5.445-7.714-10.195-7.982z"></path>
<path d="M10.195 21.805c0.26 0.26 0.682 0.26 0.943 0s0.26-0.682 0-0.943c-0.26-0.26-0.682-0.26-0.943 0s-0.26 0.682 0 0.943z"></path>
<path d="M10.195 27.138c0.26 0.26 0.682 0.26 0.943 0s0.26-0.682 0-0.943c-0.26-0.26-0.682-0.26-0.943 0s-0.26 0.682 0 0.943z"></path>
<path d="M15.529 24.471c0.26 0.26 0.682 0.26 0.943 0s0.26-0.682 0-0.943c-0.26-0.26-0.682-0.26-0.943 0s-0.26 0.682 0 0.943z"></path>
<path d="M15.529 29.805c0.26 0.26 0.682 0.26 0.943 0s0.26-0.682 0-0.943c-0.26-0.26-0.682-0.26-0.943 0s-0.26 0.682 0 0.943z"></path>
<path d="M20.862 21.805c0.26 0.26 0.682 0.26 0.943 0s0.26-0.682 0-0.943c-0.26-0.26-0.682-0.26-0.943 0s-0.26 0.682 0 0.943z"></path>
<path d="M20.862 27.138c0.26 0.26 0.682 0.26 0.943 0s0.26-0.682 0-0.943c-0.26-0.26-0.682-0.26-0.943 0s-0.26 0.682 0 0.943z"></path>
</svg>
