<!-- Generated by IcoMoon.io -->
<svg version="1.1" xmlns="http://www.w3.org/2000/svg" width="32" height="32" viewBox="0 0 32 32">
<title>cloud</title>
<path d="M10.089 4.828c-5.807 0.989-9.888 6.262-9.39 12.132s5.41 10.379 11.301 10.374h11.999c4.050 0 7.333-3.283 7.333-7.333s-3.283-7.333-7.333-7.333h-1.176c-1.662-5.414-7.1-8.799-12.735-7.839zM30 20c0 3.314-2.686 6-6 6h-12c-5.198 0.004-9.532-3.975-9.972-9.154s3.161-9.832 8.285-10.704c5.124-0.873 10.062 2.325 11.361 7.358 0.076 0.294 0.341 0.5 0.645 0.5h1.68c3.314 0 6 2.686 6 6z"></path>
</svg>
