<!-- Generated by IcoMoon.io -->
<svg version="1.1" xmlns="http://www.w3.org/2000/svg" width="32" height="32" viewBox="0 0 32 32">
<title>cloud-lightning</title>
<path d="M11.992 0.668c-5.168 0-9.681 3.496-10.973 8.499s0.964 10.247 5.485 12.75c0.322 0.178 0.728 0.062 0.906-0.26s0.062-0.728-0.26-0.906c-3.989-2.208-5.98-6.835-4.839-11.25s5.123-7.499 9.682-7.499c4.56 0 8.542 3.084 9.682 7.499 0.076 0.294 0.341 0.5 0.645 0.5h1.68c3.083-0.003 5.667 2.33 5.976 5.397s-1.755 5.87-4.776 6.483c-0.361 0.073-0.594 0.425-0.521 0.786s0.425 0.594 0.786 0.521c3.692-0.75 6.216-4.175 5.837-7.924s-3.536-6.6-7.304-6.596h-1.175c-1.456-4.735-5.838-7.999-10.832-7.999z"></path>
<path d="M18.754 23.333l-4.642 6.964c-0.204 0.306-0.121 0.72 0.185 0.924s0.72 0.121 0.925-0.185l5.333-8c0.295-0.443-0.022-1.036-0.555-1.036h-6.754l4.642-6.964c0.204-0.306 0.121-0.72-0.185-0.925s-0.72-0.121-0.924 0.185l-5.333 8c-0.295 0.443 0.022 1.036 0.555 1.036h6.754z"></path>
</svg>
