<!-- Generated by IcoMoon.io -->
<svg version="1.1" xmlns="http://www.w3.org/2000/svg" width="32" height="32" viewBox="0 0 32 32">
<title>code</title>
<path d="M29.517 16l-8.213 8.213c-0.284 0.284-0.284 0.744 0 1.029s0.744 0.284 1.029 0l8.727-8.727c0.284-0.284 0.284-0.745 0-1.029l-8.727-8.727c-0.284-0.284-0.744-0.284-1.029 0s-0.284 0.745 0 1.029l8.213 8.213z"></path>
<path d="M2.483 16l8.213-8.213c0.284-0.284 0.284-0.745 0-1.029s-0.745-0.284-1.029 0l-8.727 8.727c-0.284 0.284-0.284 0.745 0 1.029l8.727 8.727c0.284 0.284 0.745 0.284 1.029 0s0.284-0.744 0-1.029l-8.213-8.213z"></path>
</svg>
