<!-- Generated by IcoMoon.io -->
<svg version="1.1" xmlns="http://www.w3.org/2000/svg" width="32" height="32" viewBox="0 0 32 32">
<title>codepen</title>
<path d="M15.604 0.845c0.241-0.157 0.552-0.157 0.793 0l14.545 9.455c0.206 0.134 0.331 0.364 0.331 0.61v10.182c0 0.246-0.125 0.476-0.331 0.61l-14.545 9.455c-0.241 0.157-0.552 0.157-0.793 0l-14.545-9.455c-0.206-0.134-0.331-0.364-0.331-0.61v-10.182c0-0.246 0.125-0.476 0.331-0.61l14.545-9.455zM16 2.322l-13.818 8.982v9.392l13.818 8.982 13.818-8.982v-9.392l-13.818-8.982z"></path>
<path d="M16.727 30.545v-9.455c0-0.402-0.326-0.727-0.727-0.727s-0.727 0.326-0.727 0.727v9.455c0 0.402 0.326 0.727 0.727 0.727s0.727-0.326 0.727-0.727z"></path>
<path d="M1.872 10.313c-0.329-0.23-0.783-0.15-1.013 0.179s-0.15 0.783 0.179 1.013l14.545 10.182c0.25 0.175 0.584 0.175 0.834 0l14.545-10.182c0.329-0.23 0.409-0.684 0.179-1.013s-0.684-0.409-1.013-0.179l-14.128 9.89-14.128-9.89z"></path>
<path d="M30.128 21.687c0.329 0.23 0.783 0.15 1.013-0.179s0.15-0.783-0.179-1.013l-14.545-10.182c-0.25-0.175-0.584-0.175-0.834 0l-14.545 10.182c-0.329 0.23-0.409 0.684-0.179 1.013s0.684 0.409 1.013 0.179l14.128-9.89 14.128 9.89z"></path>
<path d="M15.273 1.455v9.455c0 0.402 0.326 0.727 0.727 0.727s0.727-0.326 0.727-0.727v-9.455c0-0.402-0.326-0.727-0.727-0.727s-0.727 0.326-0.727 0.727z"></path>
</svg>
