<!-- Generated by IcoMoon.io -->
<svg version="1.1" xmlns="http://www.w3.org/2000/svg" width="32" height="32" viewBox="0 0 32 32">
<title>coffee</title>
<path d="M23.652 12.522h1.391c2.689 0 4.87 2.18 4.87 4.87s-2.18 4.87-4.87 4.87h-1.391c-0.384 0-0.696 0.311-0.696 0.696s0.311 0.696 0.696 0.696h1.391c3.458 0 6.261-2.803 6.261-6.261s-2.803-6.261-6.261-6.261h-1.391c-0.384 0-0.696 0.311-0.696 0.696s0.311 0.696 0.696 0.696z"></path>
<path d="M0.696 11.826c0-0.384 0.311-0.696 0.696-0.696h22.261c0.384 0 0.696 0.311 0.696 0.696v12.522c0 3.458-2.803 6.261-6.261 6.261h-11.13c-3.458 0-6.261-2.803-6.261-6.261v-12.522zM2.087 12.522v11.826c0 2.689 2.18 4.87 4.87 4.87h11.13c2.689 0 4.87-2.18 4.87-4.87v-11.826h-20.87z"></path>
<path d="M6.261 2.087v4.174c0 0.384 0.311 0.696 0.696 0.696s0.696-0.311 0.696-0.696v-4.174c0-0.384-0.311-0.696-0.696-0.696s-0.696 0.311-0.696 0.696z"></path>
<path d="M11.826 2.087v4.174c0 0.384 0.311 0.696 0.696 0.696s0.696-0.311 0.696-0.696v-4.174c0-0.384-0.311-0.696-0.696-0.696s-0.696 0.311-0.696 0.696z"></path>
<path d="M17.391 2.087v4.174c0 0.384 0.311 0.696 0.696 0.696s0.696-0.311 0.696-0.696v-4.174c0-0.384-0.311-0.696-0.696-0.696s-0.696 0.311-0.696 0.696z"></path>
</svg>
