<!-- Generated by IcoMoon.io -->
<svg version="1.1" xmlns="http://www.w3.org/2000/svg" width="32" height="32" viewBox="0 0 32 32">
<title>command</title>
<path d="M21.6 12v8h4c3.093 0 5.6 2.507 5.6 5.6s-2.507 5.6-5.6 5.6c-3.093 0-5.6-2.507-5.6-5.6v-4h-8v4c0 3.093-2.507 5.6-5.6 5.6s-5.6-2.507-5.6-5.6c0-3.093 2.507-5.6 5.6-5.6h4v-8h-4c-3.093 0-5.6-2.507-5.6-5.6s2.507-5.6 5.6-5.6c3.093 0 5.6 2.507 5.6 5.6v4h8v-4c0-3.093 2.507-5.6 5.6-5.6s5.6 2.507 5.6 5.6c0 3.093-2.507 5.6-5.6 5.6h-4zM20 12h-8v8h8v-8zM10.4 10.4v-4c0-2.209-1.791-4-4-4s-4 1.791-4 4c0 2.209 1.791 4 4 4h4zM10.4 21.6h-4c-2.209 0-4 1.791-4 4s1.791 4 4 4c2.209 0 4-1.791 4-4v-4zM21.6 21.6v4c0 2.209 1.791 4 4 4s4-1.791 4-4c0-2.209-1.791-4-4-4h-4zM21.6 10.4h4c2.209 0 4-1.791 4-4s-1.791-4-4-4c-2.209 0-4 1.791-4 4v4z"></path>
</svg>
