<!-- Generated by IcoMoon.io -->
<svg version="1.1" xmlns="http://www.w3.org/2000/svg" width="32" height="32" viewBox="0 0 32 32">
<title>compass</title>
<path d="M16 31.273c8.435 0 15.273-6.838 15.273-15.273s-6.838-15.273-15.273-15.273c-8.435 0-15.273 6.838-15.273 15.273s6.838 15.273 15.273 15.273zM16 29.818c-7.632 0-13.818-6.187-13.818-13.818s6.187-13.818 13.818-13.818c7.632 0 13.818 6.187 13.818 13.818s-6.187 13.818-13.818 13.818z"></path>
<path d="M21.937 9.143c0.569-0.19 1.109 0.351 0.92 0.92l-3.084 9.251c-0.072 0.217-0.243 0.388-0.46 0.46l-9.251 3.084c-0.569 0.19-1.109-0.351-0.92-0.92l3.084-9.251c0.072-0.217 0.243-0.388 0.46-0.46l9.251-3.084zM13.491 13.491l-2.509 7.526 7.526-2.509 2.509-7.526-7.526 2.509z"></path>
</svg>
