<!-- Generated by IcoMoon.io -->
<svg version="1.1" xmlns="http://www.w3.org/2000/svg" width="32" height="32" viewBox="0 0 32 32">
<title>copy</title>
<path d="M14.545 10.909h13.091c2.008 0 3.636 1.628 3.636 3.636v13.091c0 2.008-1.628 3.636-3.636 3.636h-13.091c-2.008 0-3.636-1.628-3.636-3.636v-13.091c0-2.008 1.628-3.636 3.636-3.636zM14.545 12.364c-1.205 0-2.182 0.977-2.182 2.182v13.091c0 1.205 0.977 2.182 2.182 2.182h13.091c1.205 0 2.182-0.977 2.182-2.182v-13.091c0-1.205-0.977-2.182-2.182-2.182h-13.091z"></path>
<path d="M5.818 19.636h-1.455c-1.205 0-2.182-0.977-2.182-2.182v-13.091c0-1.205 0.977-2.182 2.182-2.182h13.091c1.205 0 2.182 0.977 2.182 2.182v1.455c0 0.402 0.326 0.727 0.727 0.727s0.727-0.326 0.727-0.727v-1.455c0-2.008-1.628-3.636-3.636-3.636h-13.091c-2.008 0-3.636 1.628-3.636 3.636v13.091c0 2.008 1.628 3.636 3.636 3.636h1.455c0.402 0 0.727-0.326 0.727-0.727s-0.326-0.727-0.727-0.727z"></path>
</svg>
