<!-- Generated by IcoMoon.io -->
<svg version="1.1" xmlns="http://www.w3.org/2000/svg" width="32" height="32" viewBox="0 0 32 32">
<title>corner-up-right</title>
<path d="M20.705 18.927c-0.347 0.347-0.347 0.91 0 1.257s0.91 0.347 1.257 0l8.889-8.889c0.347-0.347 0.347-0.91 0-1.257l-8.889-8.889c-0.347-0.347-0.91-0.347-1.257 0s-0.347 0.91 0 1.257l8.26 8.26-8.26 8.26z"></path>
<path d="M2.667 30.222v-12.444c0-3.436 2.786-6.222 6.222-6.222h21.333c0.491 0 0.889-0.398 0.889-0.889s-0.398-0.889-0.889-0.889h-21.333c-4.418 0-8 3.582-8 8v12.444c0 0.491 0.398 0.889 0.889 0.889s0.889-0.398 0.889-0.889z"></path>
</svg>
