<!-- Generated by IcoMoon.io -->
<svg version="1.1" xmlns="http://www.w3.org/2000/svg" width="32" height="32" viewBox="0 0 32 32">
<title>corner-right-down</title>
<path d="M13.073 20.705c-0.347-0.347-0.91-0.347-1.257 0s-0.347 0.91 0 1.257l8.889 8.889c0.347 0.347 0.91 0.347 1.257 0l8.889-8.889c0.347-0.347 0.347-0.91 0-1.257s-0.91-0.347-1.257 0l-8.26 8.26-8.26-8.26z"></path>
<path d="M1.778 2.667h12.444c3.436 0 6.222 2.786 6.222 6.222v21.333c0 0.491 0.398 0.889 0.889 0.889s0.889-0.398 0.889-0.889v-21.333c0-4.418-3.582-8-8-8h-12.444c-0.491 0-0.889 0.398-0.889 0.889s0.398 0.889 0.889 0.889z"></path>
</svg>
