<!-- Generated by IcoMoon.io -->
<svg version="1.1" xmlns="http://www.w3.org/2000/svg" width="32" height="32" viewBox="0 0 32 32">
<title>corner-down-left</title>
<path d="M3.035 21.333l8.26-8.26c0.347-0.347 0.347-0.91 0-1.257s-0.91-0.347-1.257 0l-8.889 8.889c-0.347 0.347-0.347 0.91 0 1.257l8.889 8.889c0.347 0.347 0.91 0.347 1.257 0s0.347-0.91 0-1.257l-8.26-8.26z"></path>
<path d="M29.333 1.778v12.444c0 3.436-2.786 6.222-6.222 6.222h-21.333c-0.491 0-0.889 0.398-0.889 0.889s0.398 0.889 0.889 0.889h21.333c4.418 0 8-3.582 8-8v-12.444c0-0.491-0.398-0.889-0.889-0.889s-0.889 0.398-0.889 0.889z"></path>
</svg>
