<!-- Generated by IcoMoon.io -->
<svg version="1.1" xmlns="http://www.w3.org/2000/svg" width="32" height="32" viewBox="0 0 32 32">
<title>corner-left-up</title>
<path d="M10.667 3.035l8.26 8.26c0.347 0.347 0.91 0.347 1.257 0s0.347-0.91 0-1.257l-8.889-8.889c-0.347-0.347-0.91-0.347-1.257 0l-8.889 8.889c-0.347 0.347-0.347 0.91 0 1.257s0.91 0.347 1.257 0l8.26-8.26z"></path>
<path d="M30.222 29.333h-12.444c-3.436 0-6.222-2.786-6.222-6.222v-21.333c0-0.491-0.398-0.889-0.889-0.889s-0.889 0.398-0.889 0.889v21.333c0 4.418 3.582 8 8 8h12.444c0.491 0 0.889-0.398 0.889-0.889s-0.398-0.889-0.889-0.889z"></path>
</svg>
