<!-- Generated by IcoMoon.io -->
<svg version="1.1" xmlns="http://www.w3.org/2000/svg" width="32" height="32" viewBox="0 0 32 32">
<title>cpu</title>
<path d="M8 4.667h16c1.841 0 3.333 1.492 3.333 3.333v16c0 1.841-1.492 3.333-3.333 3.333h-16c-1.841 0-3.333-1.492-3.333-3.333v-16c0-1.841 1.492-3.333 3.333-3.333zM8 6c-1.105 0-2 0.895-2 2v16c0 1.105 0.895 2 2 2h16c1.105 0 2-0.895 2-2v-16c0-1.105-0.895-2-2-2h-16z"></path>
<path d="M11.333 12c0-0.368 0.298-0.667 0.667-0.667h8c0.368 0 0.667 0.298 0.667 0.667v8c0 0.368-0.298 0.667-0.667 0.667h-8c-0.368 0-0.667-0.298-0.667-0.667v-8zM12.667 12.667v6.667h6.667v-6.667h-6.667z"></path>
<path d="M11.333 1.333v4c0 0.368 0.298 0.667 0.667 0.667s0.667-0.298 0.667-0.667v-4c0-0.368-0.298-0.667-0.667-0.667s-0.667 0.298-0.667 0.667z"></path>
<path d="M19.333 1.333v4c0 0.368 0.298 0.667 0.667 0.667s0.667-0.298 0.667-0.667v-4c0-0.368-0.298-0.667-0.667-0.667s-0.667 0.298-0.667 0.667z"></path>
<path d="M11.333 26.667v4c0 0.368 0.298 0.667 0.667 0.667s0.667-0.298 0.667-0.667v-4c0-0.368-0.298-0.667-0.667-0.667s-0.667 0.298-0.667 0.667z"></path>
<path d="M19.333 26.667v4c0 0.368 0.298 0.667 0.667 0.667s0.667-0.298 0.667-0.667v-4c0-0.368-0.298-0.667-0.667-0.667s-0.667 0.298-0.667 0.667z"></path>
<path d="M26.667 12.667h4c0.368 0 0.667-0.298 0.667-0.667s-0.298-0.667-0.667-0.667h-4c-0.368 0-0.667 0.298-0.667 0.667s0.298 0.667 0.667 0.667z"></path>
<path d="M26.667 19.333h4c0.368 0 0.667-0.298 0.667-0.667s-0.298-0.667-0.667-0.667h-4c-0.368 0-0.667 0.298-0.667 0.667s0.298 0.667 0.667 0.667z"></path>
<path d="M1.333 12.667h4c0.368 0 0.667-0.298 0.667-0.667s-0.298-0.667-0.667-0.667h-4c-0.368 0-0.667 0.298-0.667 0.667s0.298 0.667 0.667 0.667z"></path>
<path d="M1.333 19.333h4c0.368 0 0.667-0.298 0.667-0.667s-0.298-0.667-0.667-0.667h-4c-0.368 0-0.667 0.298-0.667 0.667s0.298 0.667 0.667 0.667z"></path>
</svg>
