<!-- Generated by IcoMoon.io -->
<svg version="1.1" xmlns="http://www.w3.org/2000/svg" width="32" height="32" viewBox="0 0 32 32">
<title>crop</title>
<path d="M7.507 1.328l-0.173 20c0 1.847 1.492 3.339 3.333 3.339h20c0.368 0 0.667-0.298 0.667-0.667s-0.298-0.667-0.667-0.667h-20c-1.105 0-2-0.895-2-2l0.173-19.994c0.003-0.368-0.293-0.669-0.661-0.672s-0.669 0.293-0.672 0.661z"></path>
<path d="M1.339 8.84l20-0.173c1.099 0 1.994 0.895 1.994 2v20c0 0.368 0.298 0.667 0.667 0.667s0.667-0.298 0.667-0.667v-20c0-1.841-1.492-3.333-3.333-3.333l-20.006 0.173c-0.368 0.003-0.664 0.304-0.661 0.672s0.304 0.664 0.672 0.661z"></path>
</svg>
