<!-- Generated by IcoMoon.io -->
<svg version="1.1" xmlns="http://www.w3.org/2000/svg" width="32" height="32" viewBox="0 0 32 32">
<title>crosshair</title>
<path d="M16 31.273c8.435 0 15.273-6.838 15.273-15.273s-6.838-15.273-15.273-15.273c-8.435 0-15.273 6.838-15.273 15.273s6.838 15.273 15.273 15.273zM16 29.818c-7.632 0-13.818-6.187-13.818-13.818s6.187-13.818 13.818-13.818c7.632 0 13.818 6.187 13.818 13.818s-6.187 13.818-13.818 13.818z"></path>
<path d="M30.545 15.273h-5.818c-0.402 0-0.727 0.326-0.727 0.727s0.326 0.727 0.727 0.727h5.818c0.402 0 0.727-0.326 0.727-0.727s-0.326-0.727-0.727-0.727z"></path>
<path d="M7.273 15.273h-5.818c-0.402 0-0.727 0.326-0.727 0.727s0.326 0.727 0.727 0.727h5.818c0.402 0 0.727-0.326 0.727-0.727s-0.326-0.727-0.727-0.727z"></path>
<path d="M16.727 7.273v-5.818c0-0.402-0.326-0.727-0.727-0.727s-0.727 0.326-0.727 0.727v5.818c0 0.402 0.326 0.727 0.727 0.727s0.727-0.326 0.727-0.727z"></path>
<path d="M16.727 30.545v-5.818c0-0.402-0.326-0.727-0.727-0.727s-0.727 0.326-0.727 0.727v5.818c0 0.402 0.326 0.727 0.727 0.727s0.727-0.326 0.727-0.727z"></path>
</svg>
