<!-- Generated by IcoMoon.io -->
<svg version="1.1" xmlns="http://www.w3.org/2000/svg" width="32" height="32" viewBox="0 0 32 32">
<title>database</title>
<path d="M16 10.909c7.63 0 13.818-2.063 13.818-5.091s-6.189-5.091-13.818-5.091c-7.63 0-13.818 2.063-13.818 5.091s6.189 5.091 13.818 5.091zM16 9.455c-6.83 0-12.364-1.845-12.364-3.636s5.534-3.636 12.364-3.636c6.83 0 12.364 1.845 12.364 3.636s-5.534 3.636-12.364 3.636z"></path>
<path d="M28.364 16c0 1.8-5.5 3.636-12.364 3.636s-12.364-1.836-12.364-3.636c0-0.402-0.326-0.727-0.727-0.727s-0.727 0.326-0.727 0.727c0 3.036 6.156 5.091 13.818 5.091s13.818-2.055 13.818-5.091c0-0.402-0.326-0.727-0.727-0.727s-0.727 0.326-0.727 0.727z"></path>
<path d="M2.182 5.818v20.364c0 3.036 6.156 5.091 13.818 5.091s13.818-2.055 13.818-5.091v-20.364c0-0.402-0.326-0.727-0.727-0.727s-0.727 0.326-0.727 0.727v20.364c0 1.8-5.5 3.636-12.364 3.636s-12.364-1.836-12.364-3.636v-20.364c0-0.402-0.326-0.727-0.727-0.727s-0.727 0.326-0.727 0.727z"></path>
</svg>
