<!-- Generated by IcoMoon.io -->
<svg version="1.1" xmlns="http://www.w3.org/2000/svg" width="32" height="32" viewBox="0 0 32 32">
<title>delete</title>
<path d="M28 4.667h-17.333c-0.192 0-0.375 0.083-0.502 0.228l-9.333 10.667c-0.22 0.251-0.22 0.627 0 0.878l9.333 10.667c0.127 0.145 0.309 0.228 0.502 0.228h17.333c1.841 0 3.333-1.492 3.333-3.333v-16c0-1.841-1.492-3.333-3.333-3.333zM10.969 26l-8.75-10 8.75-10h17.031c1.105 0 2 0.895 2 2v16c0 1.105-0.895 2-2 2h-17.031z"></path>
<path d="M23.529 11.529l-8 8c-0.26 0.26-0.26 0.682 0 0.943s0.682 0.26 0.943 0l8-8c0.26-0.26 0.26-0.682 0-0.943s-0.682-0.26-0.943 0z"></path>
<path d="M15.529 12.471l8 8c0.26 0.26 0.682 0.26 0.943 0s0.26-0.682 0-0.943l-8-8c-0.26-0.26-0.682-0.26-0.943 0s-0.26 0.682 0 0.943z"></path>
</svg>
