<!-- Generated by IcoMoon.io -->
<svg version="1.1" xmlns="http://www.w3.org/2000/svg" width="32" height="32" viewBox="0 0 32 32">
<title>disc</title>
<path d="M16 31.273c8.435 0 15.273-6.838 15.273-15.273s-6.838-15.273-15.273-15.273c-8.435 0-15.273 6.838-15.273 15.273s6.838 15.273 15.273 15.273zM16 29.818c-7.632 0-13.818-6.187-13.818-13.818s6.187-13.818 13.818-13.818c7.632 0 13.818 6.187 13.818 13.818s-6.187 13.818-13.818 13.818z"></path>
<path d="M16 21.091c2.812 0 5.091-2.279 5.091-5.091s-2.279-5.091-5.091-5.091c-2.812 0-5.091 2.279-5.091 5.091s2.279 5.091 5.091 5.091zM16 19.636c-2.008 0-3.636-1.628-3.636-3.636s1.628-3.636 3.636-3.636c2.008 0 3.636 1.628 3.636 3.636s-1.628 3.636-3.636 3.636z"></path>
</svg>
