<!-- Generated by IcoMoon.io -->
<svg version="1.1" xmlns="http://www.w3.org/2000/svg" width="19" height="32" viewBox="0 0 19 32">
<title>dollar-sign</title>
<path d="M8.667 1.333v29.333c0 0.368 0.298 0.667 0.667 0.667s0.667-0.298 0.667-0.667v-29.333c0-0.368-0.298-0.667-0.667-0.667s-0.667 0.298-0.667 0.667z"></path>
<path d="M16 6h-10c-2.946 0-5.333 2.388-5.333 5.333s2.388 5.333 5.333 5.333h6.667c2.209 0 4 1.791 4 4s-1.791 4-4 4h-11.333c-0.368 0-0.667 0.298-0.667 0.667s0.298 0.667 0.667 0.667h11.333c2.946 0 5.333-2.388 5.333-5.333s-2.388-5.333-5.333-5.333h-6.667c-2.209 0-4-1.791-4-4s1.791-4 4-4h10c0.368 0 0.667-0.298 0.667-0.667s-0.298-0.667-0.667-0.667z"></path>
</svg>
