<!-- Generated by IcoMoon.io -->
<svg version="1.1" xmlns="http://www.w3.org/2000/svg" width="32" height="32" viewBox="0 0 32 32">
<title>download-cloud</title>
<path d="M16 27.057l-4.862-4.862c-0.26-0.26-0.682-0.26-0.943 0s-0.26 0.682 0 0.943l5.333 5.333c0.26 0.26 0.682 0.26 0.943 0l5.333-5.333c0.26-0.26 0.26-0.682 0-0.943s-0.682-0.26-0.943 0l-4.862 4.862z"></path>
<path d="M15.333 16v12c0 0.368 0.298 0.667 0.667 0.667s0.667-0.298 0.667-0.667v-12c0-0.368-0.298-0.667-0.667-0.667s-0.667 0.298-0.667 0.667z"></path>
<path d="M13.285 3.392c-4.664-0.537-9.176 1.857-11.347 6.020s-1.549 9.233 1.563 12.749c0.244 0.276 0.665 0.301 0.941 0.057s0.301-0.665 0.057-0.941c-2.745-3.102-3.294-7.576-1.379-11.249s5.896-5.786 10.012-5.312c4.115 0.474 7.512 3.436 8.542 7.449 0.076 0.295 0.341 0.501 0.646 0.501h1.68c2.618-0.002 4.934 1.693 5.725 4.188s-0.128 5.215-2.268 6.72c-0.301 0.212-0.374 0.628-0.162 0.929s0.628 0.374 0.929 0.162c2.617-1.84 3.739-5.164 2.773-8.214s-3.798-5.121-6.997-5.118h-1.175c-1.313-4.292-5.049-7.424-9.54-7.941z"></path>
</svg>
