<!-- Generated by IcoMoon.io -->
<svg version="1.1" xmlns="http://www.w3.org/2000/svg" width="32" height="32" viewBox="0 0 32 32">
<title>droplet</title>
<path d="M15.461 0.513c0.297-0.298 0.78-0.298 1.078-0l8.625 8.625c3.706 3.704 4.816 9.275 2.812 14.116s-6.728 7.998-11.967 7.998c-5.24 0-9.963-3.157-11.967-7.998s-0.895-10.413 2.811-14.116l8.61-8.625zM16 2.129l-8.071 8.086c-3.27 3.268-4.249 8.184-2.481 12.456s5.936 7.057 10.559 7.057c4.623 0 8.791-2.785 10.559-7.057s0.789-9.188-2.481-12.456l-8.086-8.086z"></path>
</svg>
