<!-- Generated by IcoMoon.io -->
<svg version="1.1" xmlns="http://www.w3.org/2000/svg" width="32" height="32" viewBox="0 0 32 32">
<title>edit-2</title>
<path d="M27.435 1.142c1.671 0.448 2.976 1.753 3.423 3.423s-0.030 3.453-1.253 4.676l-19.636 19.636c-0.089 0.090-0.201 0.154-0.323 0.187l-8 2.182c-0.543 0.148-1.041-0.35-0.893-0.893l2.182-8c0.033-0.122 0.098-0.233 0.187-0.323l19.636-19.636c1.223-1.223 3.006-1.701 4.676-1.253zM9.077 27.713l19.5-19.5c0.856-0.856 1.19-2.103 0.877-3.271s-1.226-2.082-2.395-2.395c-1.169-0.313-2.416 0.021-3.271 0.877l-19.5 19.5-1.796 6.586 6.586-1.796z"></path>
</svg>
