<!-- Generated by IcoMoon.io -->
<svg version="1.1" xmlns="http://www.w3.org/2000/svg" width="32" height="32" viewBox="0 0 32 32">
<title>edit</title>
<path d="M14.545 3.636h-10.182c-2.008 0-3.636 1.628-3.636 3.636v20.364c0 2.008 1.628 3.636 3.636 3.636h20.364c2.008 0 3.636-1.628 3.636-3.636v-10.182c0-0.402-0.326-0.727-0.727-0.727s-0.727 0.326-0.727 0.727v10.182c0 1.205-0.977 2.182-2.182 2.182h-20.364c-1.205 0-2.182-0.977-2.182-2.182v-20.364c0-1.205 0.977-2.182 2.182-2.182h10.182c0.402 0 0.727-0.326 0.727-0.727s-0.326-0.727-0.727-0.727z"></path>
<path d="M30.332 1.668c1.489 1.489 1.489 3.903 0 5.392l-13.818 13.818c-0.093 0.093-0.21 0.159-0.338 0.191l-5.818 1.455c-0.533 0.133-1.015-0.349-0.882-0.882l1.455-5.818c0.032-0.128 0.098-0.245 0.191-0.338l13.818-13.818c1.489-1.489 3.903-1.489 5.392 0zM15.628 19.707l13.676-13.676c0.921-0.921 0.921-2.414 0-3.335s-2.414-0.921-3.335 0l-13.676 13.676-1.112 4.447 4.447-1.112z"></path>
</svg>
