<!-- Generated by IcoMoon.io -->
<svg version="1.1" xmlns="http://www.w3.org/2000/svg" width="32" height="32" viewBox="0 0 32 32">
<title>edit-3</title>
<path d="M16 30.4h14.4c0.442 0 0.8-0.358 0.8-0.8s-0.358-0.8-0.8-0.8h-14.4c-0.442 0-0.8 0.358-0.8 0.8s0.358 0.8 0.8 0.8z"></path>
<path d="M22.634 2.634c1.060-1.060 2.604-1.473 4.051-1.086s2.578 1.518 2.966 2.966c0.388 1.447-0.026 2.992-1.086 4.051l-20 20c-0.103 0.103-0.231 0.175-0.372 0.21l-6.4 1.6c-0.586 0.146-1.117-0.384-0.97-0.97l1.6-6.4c0.035-0.141 0.108-0.269 0.21-0.372l20-20zM7.591 27.278l19.843-19.843c0.655-0.655 0.911-1.611 0.671-2.506s-0.939-1.594-1.834-1.834c-0.895-0.24-1.85 0.016-2.506 0.671l-19.843 19.843-1.223 4.892 4.891-1.223z"></path>
</svg>
