<!-- Generated by IcoMoon.io -->
<svg version="1.1" xmlns="http://www.w3.org/2000/svg" width="32" height="32" viewBox="0 0 32 32">
<title>external-link</title>
<path d="M24.8 17.6v9.6c0 1.325-1.075 2.4-2.4 2.4h-17.6c-1.325 0-2.4-1.075-2.4-2.4v-17.6c0-1.325 1.075-2.4 2.4-2.4h9.6c0.442 0 0.8-0.358 0.8-0.8s-0.358-0.8-0.8-0.8h-9.6c-2.209 0-4 1.791-4 4v17.6c0 2.209 1.791 4 4 4h17.6c2.209 0 4-1.791 4-4v-9.6c0-0.442-0.358-0.8-0.8-0.8s-0.8 0.358-0.8 0.8z"></path>
<path d="M29.6 2.4v8.8c0 0.442 0.358 0.8 0.8 0.8s0.8-0.358 0.8-0.8v-9.6c0-0.442-0.358-0.8-0.8-0.8h-9.6c-0.442 0-0.8 0.358-0.8 0.8s0.358 0.8 0.8 0.8h8.8z"></path>
<path d="M13.366 19.766l17.6-17.6c0.312-0.312 0.312-0.819 0-1.131s-0.819-0.312-1.131 0l-17.6 17.6c-0.312 0.312-0.312 0.819 0 1.131s0.819 0.312 1.131 0z"></path>
</svg>
