<!-- Generated by IcoMoon.io -->
<svg version="1.1" xmlns="http://www.w3.org/2000/svg" width="32" height="32" viewBox="0 0 32 32">
<title>eye-off</title>
<path d="M2.091 16.004c0.022 0.039 0.045 0.082 0.071 0.127 0.199 0.353 0.436 0.748 0.711 1.174 0.787 1.218 1.716 2.437 2.78 3.572 3.010 3.211 6.475 5.123 10.336 5.123 2.723-0.045 5.361-0.959 7.527-2.61 0.293-0.223 0.711-0.167 0.934 0.126s0.167 0.711-0.126 0.934c-2.392 1.824-5.306 2.834-8.324 2.883-4.295 0-8.080-2.088-11.32-5.544-1.123-1.198-2.1-2.479-2.928-3.761-0.29-0.449-0.541-0.867-0.753-1.243-0.129-0.228-0.216-0.394-0.263-0.487-0.097-0.194-0.094-0.422 0.009-0.613 1.703-3.175 4.066-5.948 6.929-8.135 0.293-0.223 0.711-0.167 0.934 0.125s0.167 0.711-0.125 0.934c-2.618 1.999-4.795 4.517-6.394 7.394zM29.838 15.868c-0.199-0.353-0.436-0.748-0.711-1.174-0.787-1.218-1.716-2.437-2.78-3.572-3.010-3.211-6.475-5.123-10.349-5.123-0.891-0.002-1.779 0.099-2.646 0.303-0.358 0.084-0.717-0.139-0.801-0.497s0.139-0.717 0.497-0.801c0.968-0.227 1.959-0.34 2.952-0.338 4.295 0 8.080 2.088 11.32 5.544 1.123 1.198 2.1 2.479 2.928 3.761 0.29 0.449 0.541 0.867 0.753 1.243 0.128 0.228 0.216 0.394 0.263 0.487 0.097 0.193 0.094 0.422-0.008 0.612-0.831 1.555-1.823 3.019-2.958 4.368-0.237 0.282-0.658 0.318-0.939 0.081s-0.318-0.658-0.081-0.939c1-1.188 1.881-2.47 2.633-3.828-0.022-0.040-0.046-0.082-0.071-0.128zM18.339 18.372c0.251-0.269 0.673-0.284 0.942-0.033s0.284 0.673 0.033 0.942c-1.163 1.248-2.915 1.762-4.569 1.34s-2.945-1.713-3.367-3.367c-0.422-1.653 0.092-3.406 1.34-4.569 0.269-0.251 0.691-0.236 0.942 0.033s0.236 0.691-0.033 0.942c-0.892 0.831-1.259 2.082-0.957 3.264s1.224 2.103 2.405 2.405c1.181 0.302 2.433-0.065 3.263-0.957z"></path>
<path d="M0.862 1.805l29.333 29.333c0.26 0.26 0.682 0.26 0.943 0s0.26-0.682 0-0.943l-29.333-29.333c-0.26-0.26-0.682-0.26-0.943 0s-0.26 0.682 0 0.943z"></path>
</svg>
