<!-- Generated by IcoMoon.io -->
<svg version="1.1" xmlns="http://www.w3.org/2000/svg" width="32" height="32" viewBox="0 0 32 32">
<title>eye</title>
<path d="M0.737 16.298c-0.094-0.188-0.094-0.409 0-0.596 0.046-0.093 0.134-0.259 0.263-0.487 0.212-0.376 0.463-0.794 0.753-1.243 0.828-1.282 1.805-2.563 2.928-3.761 3.24-3.456 7.025-5.544 11.32-5.544s8.080 2.088 11.32 5.544c1.123 1.198 2.1 2.479 2.928 3.761 0.29 0.449 0.541 0.867 0.753 1.243 0.128 0.228 0.216 0.394 0.263 0.487 0.094 0.188 0.094 0.409 0 0.596-0.046 0.093-0.134 0.259-0.263 0.487-0.212 0.376-0.463 0.794-0.753 1.243-0.828 1.282-1.805 2.563-2.928 3.761-3.24 3.456-7.025 5.544-11.32 5.544s-8.080-2.088-11.32-5.544c-1.123-1.198-2.1-2.479-2.928-3.761-0.29-0.449-0.541-0.867-0.753-1.243-0.129-0.228-0.216-0.394-0.263-0.487zM2.162 16.131c0.199 0.353 0.436 0.748 0.711 1.174 0.787 1.218 1.716 2.437 2.78 3.572 3.010 3.211 6.475 5.123 10.347 5.123s7.337-1.912 10.347-5.123c1.064-1.135 1.994-2.354 2.78-3.572 0.275-0.426 0.512-0.82 0.711-1.174 0.026-0.047 0.051-0.091 0.073-0.132-0.022-0.041-0.047-0.084-0.073-0.132-0.199-0.353-0.436-0.748-0.711-1.174-0.787-1.218-1.716-2.437-2.78-3.572-3.010-3.211-6.475-5.123-10.347-5.123s-7.337 1.912-10.347 5.123c-1.064 1.135-1.994 2.354-2.78 3.572-0.275 0.426-0.512 0.82-0.711 1.174-0.026 0.047-0.051 0.091-0.073 0.132 0.022 0.041 0.047 0.084 0.073 0.132z"></path>
<path d="M16 20.667c2.577 0 4.667-2.089 4.667-4.667s-2.089-4.667-4.667-4.667c-2.577 0-4.667 2.089-4.667 4.667s2.089 4.667 4.667 4.667zM16 19.333c-1.841 0-3.333-1.492-3.333-3.333s1.492-3.333 3.333-3.333c1.841 0 3.333 1.492 3.333 3.333s-1.492 3.333-3.333 3.333z"></path>
</svg>
