<!-- Generated by IcoMoon.io -->
<svg version="1.1" xmlns="http://www.w3.org/2000/svg" width="32" height="32" viewBox="0 0 32 32">
<title>facebook</title>
<path d="M11.636 12.364h-3.636c-0.402 0-0.727 0.326-0.727 0.727v5.818c0 0.402 0.326 0.727 0.727 0.727h3.636v10.909c0 0.402 0.326 0.727 0.727 0.727h5.818c0.402 0 0.727-0.326 0.727-0.727v-10.909h3.636c0.334 0 0.625-0.227 0.706-0.551l1.455-5.818c0.115-0.459-0.232-0.904-0.706-0.904h-5.091v-3.636c0-0.402 0.326-0.727 0.727-0.727h4.364c0.402 0 0.727-0.326 0.727-0.727v-5.818c0-0.402-0.326-0.727-0.727-0.727h-4.364c-4.418 0-8 3.582-8 8v3.636zM23.273 2.182v4.364h-3.636c-1.205 0-2.182 0.977-2.182 2.182v4.364c0 0.402 0.326 0.727 0.727 0.727h4.887l-1.091 4.364h-3.796c-0.402 0-0.727 0.326-0.727 0.727v10.909h-4.364v-10.909c0-0.402-0.326-0.727-0.727-0.727h-3.636v-4.364h3.636c0.402 0 0.727-0.326 0.727-0.727v-4.364c0-3.615 2.93-6.545 6.545-6.545h3.636z"></path>
</svg>
