<!-- Generated by IcoMoon.io -->
<svg version="1.1" xmlns="http://www.w3.org/2000/svg" width="32" height="32" viewBox="0 0 32 32">
<title>fast-forward</title>
<path d="M17.901 26.756l13.091-10.182c0.374-0.291 0.374-0.857 0-1.148l-13.091-10.182c-0.478-0.372-1.174-0.031-1.174 0.574v20.364c0 0.605 0.696 0.946 1.174 0.574zM18.182 7.305l11.179 8.695-11.179 8.695v-17.39z"></path>
<path d="M1.901 26.756l13.091-10.182c0.374-0.291 0.374-0.857 0-1.148l-13.091-10.182c-0.478-0.372-1.174-0.031-1.174 0.574v20.364c0 0.605 0.696 0.946 1.174 0.574zM2.182 24.695v-17.39l11.179 8.695-11.179 8.695z"></path>
</svg>
