<!-- Generated by IcoMoon.io -->
<svg version="1.1" xmlns="http://www.w3.org/2000/svg" width="32" height="32" viewBox="0 0 32 32">
<title>feather</title>
<path d="M28.5 3.486c-3.694-3.694-9.684-3.694-13.378 0l-9.818 9.818c-0.136 0.136-0.213 0.321-0.213 0.514v12.364c0 0.402 0.326 0.727 0.727 0.727h12.364c0.193 0 0.379-0.077 0.515-0.214l9.804-9.833c3.693-3.693 3.693-9.683-0.001-13.377zM17.88 25.455h-11.335v-11.335l9.605-9.605c3.126-3.126 8.194-3.126 11.321 0s3.126 8.194 0 11.321l-0.001 0.001-9.591 9.619z"></path>
<path d="M21.304 9.668l-20.364 20.364c-0.284 0.284-0.284 0.744 0 1.029s0.744 0.284 1.029 0l20.364-20.364c0.284-0.284 0.284-0.745 0-1.029s-0.744-0.284-1.029 0z"></path>
<path d="M24 19.636h-12.364c-0.402 0-0.727 0.326-0.727 0.727s0.326 0.727 0.727 0.727h12.364c0.402 0 0.727-0.326 0.727-0.727s-0.326-0.727-0.727-0.727z"></path>
</svg>
