<!-- Generated by IcoMoon.io -->
<svg version="1.1" xmlns="http://www.w3.org/2000/svg" width="32" height="32" viewBox="0 0 32 32">
<title>figma</title>
<path d="M5.565 6.261c0-3.074 2.492-5.565 5.565-5.565h4.87c0.384 0 0.696 0.311 0.696 0.696v9.739c0 0.384-0.311 0.696-0.696 0.696h-4.87c-3.074 0-5.565-2.492-5.565-5.565zM15.304 2.087h-4.174c-2.305 0-4.174 1.869-4.174 4.174s1.869 4.174 4.174 4.174h4.174v-8.348z"></path>
<path d="M15.304 1.391c0-0.384 0.311-0.696 0.696-0.696h4.87c1.988 0 3.825 1.061 4.82 2.783s0.994 3.843 0 5.565c-0.994 1.722-2.831 2.783-4.82 2.783h-4.87c-0.384 0-0.696-0.311-0.696-0.696v-9.739zM16.696 2.087v8.348h4.174c1.491 0 2.869-0.796 3.615-2.087s0.746-2.883 0-4.174c-0.746-1.291-2.124-2.087-3.615-2.087h-4.174z"></path>
<path d="M15.304 16c0-1.988 1.061-3.825 2.783-4.82s3.843-0.994 5.565 0c1.722 0.994 2.783 2.831 2.783 4.82s-1.061 3.825-2.783 4.82c-1.722 0.994-3.843 0.994-5.565 0s-2.783-2.831-2.783-4.82zM16.696 16c0 1.491 0.796 2.869 2.087 3.615s2.883 0.746 4.174 0c1.291-0.746 2.087-2.124 2.087-3.615s-0.796-2.869-2.087-3.615c-1.291-0.746-2.883-0.746-4.174 0s-2.087 2.124-2.087 3.615z"></path>
<path d="M5.565 25.739c0-3.074 2.492-5.565 5.565-5.565h4.87c0.384 0 0.696 0.311 0.696 0.696v4.87c0 3.074-2.492 5.565-5.565 5.565s-5.565-2.492-5.565-5.565zM15.304 21.565h-4.174c-2.305 0-4.174 1.869-4.174 4.174s1.869 4.174 4.174 4.174c2.305 0 4.174-1.869 4.174-4.174v-4.174z"></path>
<path d="M5.565 16c0-3.074 2.492-5.565 5.565-5.565h4.87c0.384 0 0.696 0.311 0.696 0.696v9.739c0 0.384-0.311 0.696-0.696 0.696h-4.87c-3.074 0-5.565-2.492-5.565-5.565zM15.304 11.826h-4.174c-2.305 0-4.174 1.869-4.174 4.174s1.869 4.174 4.174 4.174h4.174v-8.348z"></path>
</svg>
