<!-- Generated by IcoMoon.io -->
<svg version="1.1" xmlns="http://www.w3.org/2000/svg" width="32" height="32" viewBox="0 0 32 32">
<title>file-text</title>
<path d="M18.909 0.727h-11.636c-2.008 0-3.636 1.628-3.636 3.636v23.273c0 2.008 1.628 3.636 3.636 3.636h17.455c2.008 0 3.636-1.628 3.636-3.636v-17.455c0-0.193-0.077-0.378-0.213-0.514l-8.727-8.727c-0.136-0.136-0.321-0.213-0.514-0.213zM18.608 2.182l8.301 8.301v17.153c0 1.205-0.977 2.182-2.182 2.182h-17.455c-1.205 0-2.182-0.977-2.182-2.182v-23.273c0-1.205 0.977-2.182 2.182-2.182h11.335z"></path>
<path d="M19.636 9.455v-8c0-0.402-0.326-0.727-0.727-0.727s-0.727 0.326-0.727 0.727v8.727c0 0.402 0.326 0.727 0.727 0.727h8.727c0.402 0 0.727-0.326 0.727-0.727s-0.326-0.727-0.727-0.727h-8z"></path>
<path d="M21.818 16.727h-11.636c-0.402 0-0.727 0.326-0.727 0.727s0.326 0.727 0.727 0.727h11.636c0.402 0 0.727-0.326 0.727-0.727s-0.326-0.727-0.727-0.727z"></path>
<path d="M21.818 22.545h-11.636c-0.402 0-0.727 0.326-0.727 0.727s0.326 0.727 0.727 0.727h11.636c0.402 0 0.727-0.326 0.727-0.727s-0.326-0.727-0.727-0.727z"></path>
<path d="M13.091 10.909h-2.909c-0.402 0-0.727 0.326-0.727 0.727s0.326 0.727 0.727 0.727h2.909c0.402 0 0.727-0.326 0.727-0.727s-0.326-0.727-0.727-0.727z"></path>
</svg>
