<!-- Generated by IcoMoon.io -->
<svg version="1.1" xmlns="http://www.w3.org/2000/svg" width="32" height="32" viewBox="0 0 32 32">
<title>file</title>
<path d="M17.455 0.727h-10.182c-2.008 0-3.636 1.628-3.636 3.636v23.273c0 2.008 1.628 3.636 3.636 3.636h17.455c2.008 0 3.636-1.628 3.636-3.636v-16c0-0.193-0.077-0.378-0.213-0.514l-10.182-10.182c-0.136-0.136-0.321-0.213-0.514-0.213zM17.153 2.182l9.756 9.756v15.699c0 1.205-0.977 2.182-2.182 2.182h-17.455c-1.205 0-2.182-0.977-2.182-2.182v-23.273c0-1.205 0.977-2.182 2.182-2.182h9.881z"></path>
<path d="M18.182 10.909v-9.455c0-0.402-0.326-0.727-0.727-0.727s-0.727 0.326-0.727 0.727v10.182c0 0.402 0.326 0.727 0.727 0.727h10.182c0.402 0 0.727-0.326 0.727-0.727s-0.326-0.727-0.727-0.727h-9.455z"></path>
</svg>
