<!-- Generated by IcoMoon.io -->
<svg version="1.1" xmlns="http://www.w3.org/2000/svg" width="32" height="32" viewBox="0 0 32 32">
<title>film</title>
<path d="M4.625 0.727h22.749c2.153 0 3.898 1.745 3.898 3.898v22.749c0 2.153-1.745 3.898-3.898 3.898h-22.749c-2.153 0-3.898-1.745-3.898-3.898v-22.749c0-2.153 1.745-3.898 3.898-3.898zM4.625 2.182c-1.35 0-2.444 1.094-2.444 2.444v22.749c0 1.35 1.094 2.444 2.444 2.444h22.749c1.35 0 2.444-1.094 2.444-2.444v-22.749c0-1.35-1.094-2.444-2.444-2.444h-22.749z"></path>
<path d="M8 1.455v29.091c0 0.402 0.326 0.727 0.727 0.727s0.727-0.326 0.727-0.727v-29.091c0-0.402-0.326-0.727-0.727-0.727s-0.727 0.326-0.727 0.727z"></path>
<path d="M22.545 1.455v29.091c0 0.402 0.326 0.727 0.727 0.727s0.727-0.326 0.727-0.727v-29.091c0-0.402-0.326-0.727-0.727-0.727s-0.727 0.326-0.727 0.727z"></path>
<path d="M1.455 16.727h29.091c0.402 0 0.727-0.326 0.727-0.727s-0.326-0.727-0.727-0.727h-29.091c-0.402 0-0.727 0.326-0.727 0.727s0.326 0.727 0.727 0.727z"></path>
<path d="M1.455 9.455h7.273c0.402 0 0.727-0.326 0.727-0.727s-0.326-0.727-0.727-0.727h-7.273c-0.402 0-0.727 0.326-0.727 0.727s0.326 0.727 0.727 0.727z"></path>
<path d="M1.455 24h7.273c0.402 0 0.727-0.326 0.727-0.727s-0.326-0.727-0.727-0.727h-7.273c-0.402 0-0.727 0.326-0.727 0.727s0.326 0.727 0.727 0.727z"></path>
<path d="M23.273 24h7.273c0.402 0 0.727-0.326 0.727-0.727s-0.326-0.727-0.727-0.727h-7.273c-0.402 0-0.727 0.326-0.727 0.727s0.326 0.727 0.727 0.727z"></path>
<path d="M23.273 9.455h7.273c0.402 0 0.727-0.326 0.727-0.727s-0.326-0.727-0.727-0.727h-7.273c-0.402 0-0.727 0.326-0.727 0.727s0.326 0.727 0.727 0.727z"></path>
</svg>
