<!-- Generated by IcoMoon.io -->
<svg version="1.1" xmlns="http://www.w3.org/2000/svg" width="32" height="32" viewBox="0 0 32 32">
<title>filter</title>
<path d="M12.364 16.935v9.246c0 0.275 0.156 0.527 0.402 0.651l5.818 2.909c0.484 0.242 1.053-0.11 1.053-0.651v-12.156l11.464-13.557c0.4-0.473 0.064-1.197-0.555-1.197h-29.091c-0.619 0-0.955 0.724-0.555 1.197l11.464 13.557zM28.978 3.636l-10.624 12.563c-0.111 0.131-0.172 0.298-0.172 0.47v11.245l-4.364-2.182v-9.063c0-0.172-0.061-0.338-0.172-0.47l-10.624-12.563h25.956z"></path>
</svg>
