<!-- Generated by IcoMoon.io -->
<svg version="1.1" xmlns="http://www.w3.org/2000/svg" width="32" height="32" viewBox="0 0 32 32">
<title>flag</title>
<path d="M4.878 20.878c0.113-0.113 0.439-0.331 1.029-0.566 1.048-0.419 2.456-0.675 4.275-0.675 1.697 0 2.904 0.345 5.548 1.403 2.81 1.124 4.149 1.507 6.088 1.507 1.999 0 3.591-0.289 4.816-0.779 0.774-0.31 1.266-0.638 1.517-0.888 0.136-0.136 0.213-0.321 0.213-0.514v-17.455c0-0.648-0.783-0.972-1.242-0.514-0.113 0.113-0.439 0.331-1.029 0.566-1.048 0.419-2.456 0.675-4.275 0.675-1.697 0-2.904-0.345-5.548-1.403-2.81-1.124-4.149-1.507-6.088-1.507-1.999 0-3.591 0.289-4.816 0.779-0.774 0.31-1.266 0.638-1.517 0.888-0.136 0.136-0.213 0.321-0.213 0.514v17.455c0 0.648 0.783 0.972 1.242 0.514zM5.091 3.261c0.175-0.113 0.443-0.255 0.816-0.404 1.048-0.419 2.456-0.675 4.275-0.675 1.697 0 2.904 0.345 5.548 1.403 2.81 1.124 4.149 1.507 6.088 1.507 1.999 0 3.591-0.289 4.816-0.779 0.096-0.038 0.188-0.077 0.275-0.116v15.816c-0.175 0.113-0.443 0.255-0.816 0.404-1.048 0.419-2.456 0.675-4.275 0.675-1.697 0-2.904-0.345-5.548-1.403-2.81-1.124-4.149-1.507-6.088-1.507-1.999 0-3.591 0.289-4.816 0.779-0.096 0.038-0.188 0.077-0.275 0.116v-15.816z"></path>
<path d="M5.091 30.545v-10.182c0-0.402-0.326-0.727-0.727-0.727s-0.727 0.326-0.727 0.727v10.182c0 0.402 0.326 0.727 0.727 0.727s0.727-0.326 0.727-0.727z"></path>
</svg>
