<!-- Generated by IcoMoon.io -->
<svg version="1.1" xmlns="http://www.w3.org/2000/svg" width="32" height="32" viewBox="0 0 32 32">
<title>folder</title>
<path d="M14.935 6.545h12.702c2.008 0 3.636 1.628 3.636 3.636v16c0 2.008-1.628 3.636-3.636 3.636h-23.273c-2.008 0-3.636-1.628-3.636-3.636v-20.364c0-2.008 1.628-3.636 3.636-3.636h7.273c0.243 0 0.47 0.122 0.605 0.324l2.693 4.040zM11.247 3.636h-6.883c-1.205 0-2.182 0.977-2.182 2.182v20.364c0 1.205 0.977 2.182 2.182 2.182h23.273c1.205 0 2.182-0.977 2.182-2.182v-16c0-1.205-0.977-2.182-2.182-2.182h-13.091c-0.243 0-0.47-0.122-0.605-0.324l-2.693-4.040z"></path>
</svg>
