<!-- Generated by IcoMoon.io -->
<svg version="1.1" xmlns="http://www.w3.org/2000/svg" width="32" height="32" viewBox="0 0 32 32">
<title>framer</title>
<path d="M24.060 20.174l-8.348-8.348h-8.755v8.348h17.103zM7.94 21.565l7.364 7.364v-7.364h-7.364zM16.696 21.565v9.043c0 0.62-0.749 0.93-1.188 0.492l-9.739-9.739c-0.136-0.136-0.204-0.314-0.204-0.492v-9.739c0-0.384 0.311-0.696 0.696-0.696h8.060l-8.552-8.552c-0.438-0.438-0.128-1.188 0.492-1.188h19.478c0.384 0 0.696 0.311 0.696 0.696v9.739c0 0.384-0.311 0.696-0.696 0.696h-8.060l8.552 8.552c0.438 0.438 0.128 1.188-0.492 1.188h-9.043zM25.043 10.435v-8.348h-17.103l8.348 8.348h8.755z"></path>
</svg>
