<!-- Generated by IcoMoon.io -->
<svg version="1.1" xmlns="http://www.w3.org/2000/svg" width="32" height="32" viewBox="0 0 32 32">
<title>gift</title>
<path d="M26.909 29.818h-21.818v-13.818c0-0.402-0.326-0.727-0.727-0.727s-0.727 0.326-0.727 0.727v14.545c0 0.402 0.326 0.727 0.727 0.727h23.273c0.402 0 0.727-0.326 0.727-0.727v-14.545c0-0.402-0.326-0.727-0.727-0.727s-0.727 0.326-0.727 0.727v13.818z"></path>
<path d="M0.727 8.727c0-0.402 0.326-0.727 0.727-0.727h29.091c0.402 0 0.727 0.326 0.727 0.727v7.273c0 0.402-0.326 0.727-0.727 0.727h-29.091c-0.402 0-0.727-0.326-0.727-0.727v-7.273zM2.182 9.455v5.818h27.636v-5.818h-27.636z"></path>
<path d="M16.727 30.545v-21.818c0-0.402-0.326-0.727-0.727-0.727s-0.727 0.326-0.727 0.727v21.818c0 0.402 0.326 0.727 0.727 0.727s0.727-0.326 0.727-0.727z"></path>
<path d="M16.713 8.585c0.090 0.45-0.254 0.87-0.713 0.87h-6.545c-2.41 0-4.364-1.954-4.364-4.364s1.954-4.364 4.364-4.364c2.54 0 4.454 1.532 5.819 4.013 0.463 0.841 0.83 1.736 1.113 2.631 0.171 0.538 0.276 0.961 0.327 1.213zM15 7.81c-0.256-0.81-0.588-1.619-1.001-2.369-1.135-2.064-2.63-3.26-4.545-3.26-1.607 0-2.909 1.302-2.909 2.909s1.302 2.909 2.909 2.909h5.604c-0.018-0.061-0.038-0.124-0.059-0.19z"></path>
<path d="M16 9.455h6.545c2.41 0 4.364-1.954 4.364-4.364s-1.954-4.364-4.364-4.364c-2.54 0-4.454 1.532-5.819 4.013-0.463 0.841-0.83 1.736-1.113 2.631-0.171 0.538-0.276 0.961-0.327 1.213-0.090 0.45 0.254 0.87 0.713 0.87zM16.941 8c0.018-0.061 0.038-0.124 0.059-0.19 0.256-0.81 0.588-1.619 1.001-2.369 1.135-2.064 2.63-3.26 4.545-3.26 1.607 0 2.909 1.302 2.909 2.909s-1.302 2.909-2.909 2.909h-5.604z"></path>
</svg>
