<!-- Generated by IcoMoon.io -->
<svg version="1.1" xmlns="http://www.w3.org/2000/svg" width="32" height="32" viewBox="0 0 32 32">
<title>git-merge</title>
<path d="M25.6 31.2c3.093 0 5.6-2.507 5.6-5.6s-2.507-5.6-5.6-5.6c-3.093 0-5.6 2.507-5.6 5.6s2.507 5.6 5.6 5.6zM25.6 29.6c-2.209 0-4-1.791-4-4s1.791-4 4-4c2.209 0 4 1.791 4 4s-1.791 4-4 4z"></path>
<path d="M6.4 12c3.093 0 5.6-2.507 5.6-5.6s-2.507-5.6-5.6-5.6c-3.093 0-5.6 2.507-5.6 5.6s2.507 5.6 5.6 5.6zM6.4 10.4c-2.209 0-4-1.791-4-4s1.791-4 4-4c2.209 0 4 1.791 4 4s-1.791 4-4 4z"></path>
<path d="M20.8 26.4c0.442 0 0.8-0.358 0.8-0.8s-0.358-0.8-0.8-0.8c-7.511 0-13.6-6.089-13.6-13.6 0-1.067-1.6-1.067-1.6 0v19.2c0 0.442 0.358 0.8 0.8 0.8s0.8-0.358 0.8-0.8v-12.404c2.495 4.983 7.648 8.404 13.6 8.404z"></path>
</svg>
