<!-- Generated by IcoMoon.io -->
<svg version="1.1" xmlns="http://www.w3.org/2000/svg" width="32" height="32" viewBox="0 0 32 32">
<title>git-branch</title>
<path d="M5.6 1.6v19.2c0 0.442 0.358 0.8 0.8 0.8s0.8-0.358 0.8-0.8v-19.2c0-0.442-0.358-0.8-0.8-0.8s-0.8 0.358-0.8 0.8z"></path>
<path d="M25.6 12c3.093 0 5.6-2.507 5.6-5.6s-2.507-5.6-5.6-5.6c-3.093 0-5.6 2.507-5.6 5.6s2.507 5.6 5.6 5.6zM25.6 10.4c-2.209 0-4-1.791-4-4s1.791-4 4-4c2.209 0 4 1.791 4 4s-1.791 4-4 4z"></path>
<path d="M6.4 31.2c3.093 0 5.6-2.507 5.6-5.6s-2.507-5.6-5.6-5.6c-3.093 0-5.6 2.507-5.6 5.6s2.507 5.6 5.6 5.6zM6.4 29.6c-2.209 0-4-1.791-4-4s1.791-4 4-4c2.209 0 4 1.791 4 4s-1.791 4-4 4z"></path>
<path d="M24.8 11.2c0 7.511-6.089 13.6-13.6 13.6-0.442 0-0.8 0.358-0.8 0.8s0.358 0.8 0.8 0.8c8.395 0 15.2-6.805 15.2-15.2 0-0.442-0.358-0.8-0.8-0.8s-0.8 0.358-0.8 0.8z"></path>
</svg>
