<!-- Generated by IcoMoon.io -->
<svg version="1.1" xmlns="http://www.w3.org/2000/svg" width="32" height="32" viewBox="0 0 32 32">
<title>git-commit</title>
<path d="M16 22c3.314 0 6-2.686 6-6s-2.686-6-6-6c-3.314 0-6 2.686-6 6s2.686 6 6 6zM16 20.667c-2.577 0-4.667-2.089-4.667-4.667s2.089-4.667 4.667-4.667c2.577 0 4.667 2.089 4.667 4.667s-2.089 4.667-4.667 4.667z"></path>
<path d="M1.4 16.667h7.933c0.368 0 0.667-0.298 0.667-0.667s-0.298-0.667-0.667-0.667h-7.933c-0.368 0-0.667 0.298-0.667 0.667s0.298 0.667 0.667 0.667z"></path>
<path d="M22.68 16.667h7.933c0.368 0 0.667-0.298 0.667-0.667s-0.298-0.667-0.667-0.667h-7.933c-0.368 0-0.667 0.298-0.667 0.667s0.298 0.667 0.667 0.667z"></path>
</svg>
