<!-- Generated by IcoMoon.io -->
<svg version="1.1" xmlns="http://www.w3.org/2000/svg" width="32" height="32" viewBox="0 0 32 32">
<title>github</title>
<path d="M13.217 26.451v4.158c0 0.384-0.311 0.696-0.696 0.696s-0.696-0.311-0.696-0.696l0.001-3.267c-3.305 0.78-5.193-0.086-7.029-2.36-0.11-0.136-0.525-0.664-0.625-0.787-0.632-0.781-1.052-1.133-1.559-1.259-0.373-0.093-0.599-0.471-0.506-0.844s0.471-0.599 0.844-0.506c0.878 0.22 1.496 0.737 2.303 1.734 0.108 0.133 0.523 0.661 0.626 0.788 1.578 1.953 3.001 2.582 5.947 1.8l0-0.635c-0.078-1.102 0.186-2.191 0.74-3.125-5.466-0.979-8.394-3.856-8.394-10.249-0.011-1.994 0.7-3.919 1.992-5.425-0.547-1.757-0.452-3.657 0.276-5.357 0.081-0.19 0.243-0.334 0.442-0.393 0.048-0.014 0.112-0.028 0.194-0.040 1.169-0.17 3.005 0.342 5.569 2.014 3.114-0.789 6.376-0.789 9.49 0 2.563-1.672 4.399-2.184 5.569-2.014 0.081 0.012 0.146 0.026 0.194 0.040 0.198 0.059 0.36 0.203 0.442 0.393 0.729 1.7 0.823 3.6 0.276 5.357 1.282 1.494 1.992 3.402 1.992 5.38 0 6.441-2.947 9.346-8.385 10.265 0.558 0.941 0.819 2.032 0.733 3.106v5.384c0 0.384-0.311 0.696-0.696 0.696s-0.696-0.311-0.696-0.696l0.002-5.439c0.090-1.143-0.316-2.269-1.114-3.093-0.402-0.415-0.152-1.112 0.422-1.176 5.562-0.62 8.341-2.957 8.341-9.048-0-1.764-0.679-3.46-1.895-4.738-0.184-0.193-0.241-0.473-0.148-0.723 0.524-1.405 0.534-2.946 0.035-4.351-0.891 0.009-2.389 0.529-4.561 1.986-0.167 0.112-0.375 0.146-0.569 0.094-3.070-0.832-6.306-0.832-9.375 0-0.194 0.053-0.402 0.019-0.569-0.094-2.172-1.456-3.67-1.977-4.561-1.986-0.499 1.405-0.489 2.946 0.035 4.351 0.093 0.249 0.036 0.53-0.148 0.723-1.225 1.287-1.905 2.999-1.895 4.779 0 6.036 2.757 8.354 8.35 9.049 0.569 0.071 0.813 0.762 0.414 1.174-0.788 0.815-1.193 1.926-1.112 3.106v1.195c0 0.011 0 0.021 0 0.032z"></path>
</svg>
