<!-- Generated by IcoMoon.io -->
<svg version="1.1" xmlns="http://www.w3.org/2000/svg" width="32" height="32" viewBox="0 0 32 32">
<title>gitlab</title>
<path d="M16.392 30.046c-0.234 0.17-0.55 0.17-0.784 0l-14.203-10.322c-0.623-0.458-0.88-1.265-0.639-1.995l1.627-5.041 3.266-10.048c0.069-0.179 0.179-0.339 0.319-0.465 0.474-0.433 1.199-0.433 1.686 0.013 0.15 0.145 0.261 0.326 0.317 0.513l3.103 9.527h9.832l3.116-9.587c0.069-0.179 0.179-0.339 0.319-0.465 0.474-0.433 1.199-0.433 1.686 0.013 0.15 0.145 0.261 0.326 0.317 0.513l3.251 10.006 1.702 5.040c0.219 0.751-0.077 1.557-0.728 1.988l-14.187 10.311zM29.808 18.647l0.030-0.020c0.168-0.109 0.245-0.315 0.197-0.48l-1.696-5.021-3.157-9.717-3.148 9.69c-0.089 0.275-0.345 0.461-0.634 0.461h-10.8c-0.289 0-0.544-0.186-0.634-0.46l-3.157-9.691-3.148 9.689-1.628 5.044c-0.062 0.186 0.004 0.391 0.159 0.505l13.808 10.035 13.808-10.035z"></path>
</svg>
