<!-- Generated by IcoMoon.io -->
<svg version="1.1" xmlns="http://www.w3.org/2000/svg" width="32" height="32" viewBox="0 0 32 32">
<title>globe</title>
<path d="M16 31.273c8.435 0 15.273-6.838 15.273-15.273s-6.838-15.273-15.273-15.273c-8.435 0-15.273 6.838-15.273 15.273s6.838 15.273 15.273 15.273zM16 29.818c-7.632 0-13.818-6.187-13.818-13.818s6.187-13.818 13.818-13.818c7.632 0 13.818 6.187 13.818 13.818s-6.187 13.818-13.818 13.818z"></path>
<path d="M1.455 16.727h29.091c0.402 0 0.727-0.326 0.727-0.727s-0.326-0.727-0.727-0.727h-29.091c-0.402 0-0.727 0.326-0.727 0.727s0.326 0.727 0.727 0.727z"></path>
<path d="M15.463 0.964c0.288-0.316 0.786-0.316 1.074 0 3.757 4.113 5.892 9.451 6.008 15.051-0.116 5.57-2.251 10.908-6.008 15.021-0.288 0.316-0.786 0.316-1.074 0-3.757-4.113-5.892-9.451-6.008-15.051 0.116-5.57 2.251-10.908 6.008-15.021zM10.909 15.985c0.103 4.946 1.906 9.696 5.091 13.46 3.185-3.763 4.988-8.512 5.091-13.429-0.103-4.946-1.906-9.696-5.091-13.46-3.185 3.763-4.988 8.512-5.091 13.429z"></path>
</svg>
