<!-- Generated by IcoMoon.io -->
<svg version="1.1" xmlns="http://www.w3.org/2000/svg" width="32" height="32" viewBox="0 0 32 32">
<title>grid</title>
<path d="M0.8 1.6c0-0.442 0.358-0.8 0.8-0.8h11.2c0.442 0 0.8 0.358 0.8 0.8v11.2c0 0.442-0.358 0.8-0.8 0.8h-11.2c-0.442 0-0.8-0.358-0.8-0.8v-11.2zM2.4 2.4v9.6h9.6v-9.6h-9.6z"></path>
<path d="M18.4 1.6c0-0.442 0.358-0.8 0.8-0.8h11.2c0.442 0 0.8 0.358 0.8 0.8v11.2c0 0.442-0.358 0.8-0.8 0.8h-11.2c-0.442 0-0.8-0.358-0.8-0.8v-11.2zM20 2.4v9.6h9.6v-9.6h-9.6z"></path>
<path d="M18.4 19.2c0-0.442 0.358-0.8 0.8-0.8h11.2c0.442 0 0.8 0.358 0.8 0.8v11.2c0 0.442-0.358 0.8-0.8 0.8h-11.2c-0.442 0-0.8-0.358-0.8-0.8v-11.2zM20 20v9.6h9.6v-9.6h-9.6z"></path>
<path d="M0.8 19.2c0-0.442 0.358-0.8 0.8-0.8h11.2c0.442 0 0.8 0.358 0.8 0.8v11.2c0 0.442-0.358 0.8-0.8 0.8h-11.2c-0.442 0-0.8-0.358-0.8-0.8v-11.2zM2.4 20v9.6h9.6v-9.6h-9.6z"></path>
</svg>
