<!-- Generated by IcoMoon.io -->
<svg version="1.1" xmlns="http://www.w3.org/2000/svg" width="32" height="32" viewBox="0 0 32 32">
<title>hash</title>
<path d="M3.2 12h25.6c0.442 0 0.8-0.358 0.8-0.8s-0.358-0.8-0.8-0.8h-25.6c-0.442 0-0.8 0.358-0.8 0.8s0.358 0.8 0.8 0.8z"></path>
<path d="M3.2 21.6h25.6c0.442 0 0.8-0.358 0.8-0.8s-0.358-0.8-0.8-0.8h-25.6c-0.442 0-0.8 0.358-0.8 0.8s0.358 0.8 0.8 0.8z"></path>
<path d="M12.005 1.512l-3.2 28.8c-0.049 0.439 0.268 0.835 0.707 0.883s0.835-0.268 0.883-0.707l3.2-28.8c0.049-0.439-0.268-0.835-0.707-0.883s-0.835 0.268-0.883 0.707z"></path>
<path d="M21.605 1.512l-3.2 28.8c-0.049 0.439 0.268 0.835 0.707 0.883s0.835-0.268 0.883-0.707l3.2-28.8c0.049-0.439-0.268-0.835-0.707-0.883s-0.835 0.268-0.883 0.707z"></path>
</svg>
