<!-- Generated by IcoMoon.io -->
<svg version="1.1" xmlns="http://www.w3.org/2000/svg" width="32" height="32" viewBox="0 0 32 32">
<title>headphones</title>
<path d="M2.4 25.6v-9.6c0-7.511 6.089-13.6 13.6-13.6s13.6 6.089 13.6 13.6v9.6c0 0.442 0.358 0.8 0.8 0.8s0.8-0.358 0.8-0.8v-9.6c0-8.395-6.805-15.2-15.2-15.2s-15.2 6.805-15.2 15.2v9.6c0 0.442 0.358 0.8 0.8 0.8s0.8-0.358 0.8-0.8z"></path>
<path d="M31.2 27.2c0 2.209-1.791 4-4 4h-1.6c-2.209 0-4-1.791-4-4v-4.8c0-2.209 1.791-4 4-4h4.8c0.442 0 0.8 0.358 0.8 0.8v8zM29.6 20h-4c-1.325 0-2.4 1.075-2.4 2.4v4.8c0 1.325 1.075 2.4 2.4 2.4h1.6c1.325 0 2.4-1.075 2.4-2.4v-7.2zM0.8 27.2v-8c0-0.442 0.358-0.8 0.8-0.8h4.8c2.209 0 4 1.791 4 4v4.8c0 2.209-1.791 4-4 4h-1.6c-2.209 0-4-1.791-4-4zM2.4 20v7.2c0 1.325 1.075 2.4 2.4 2.4h1.6c1.325 0 2.4-1.075 2.4-2.4v-4.8c0-1.325-1.075-2.4-2.4-2.4h-4z"></path>
</svg>
