<!-- Generated by IcoMoon.io -->
<svg version="1.1" xmlns="http://www.w3.org/2000/svg" width="32" height="32" viewBox="0 0 32 32">
<title>heart</title>
<path d="M23.2 2.179c-2.315 0-4.536 0.92-6.173 2.558l-1.027 1.027-1.028-1.028c-3.409-3.409-8.936-3.409-12.345 0s-3.409 8.936 0 12.345l12.858 12.858c0.284 0.284 0.745 0.284 1.029 0l12.858-12.858c1.637-1.637 2.558-3.857 2.558-6.172s-0.92-4.536-2.558-6.172c-1.637-1.638-3.857-2.558-6.172-2.558zM16 28.397l-12.344-12.344c-2.841-2.841-2.841-7.447 0-10.288s7.447-2.841 10.288 0l1.542 1.542c0.284 0.284 0.745 0.284 1.029 0l1.542-1.542c1.364-1.365 3.214-2.131 5.144-2.131s3.78 0.767 5.144 2.131c1.365 1.364 2.132 3.215 2.132 5.144s-0.767 3.78-2.131 5.144l-12.344 12.344z"></path>
</svg>
