<!-- Generated by IcoMoon.io -->
<svg version="1.1" xmlns="http://www.w3.org/2000/svg" width="32" height="32" viewBox="0 0 32 32">
<title>help-circle</title>
<path d="M16 31.273c8.435 0 15.273-6.838 15.273-15.273s-6.838-15.273-15.273-15.273c-8.435 0-15.273 6.838-15.273 15.273s6.838 15.273 15.273 15.273zM16 29.818c-7.632 0-13.818-6.187-13.818-13.818s6.187-13.818 13.818-13.818c7.632 0 13.818 6.187 13.818 13.818s-6.187 13.818-13.818 13.818z"></path>
<path d="M12.453 11.878c0.588-1.673 2.297-2.677 4.045-2.377s3.024 1.816 3.022 3.589c0 0.979-0.676 1.881-1.858 2.669-0.44 0.293-0.916 0.547-1.392 0.759-0.284 0.126-0.501 0.209-0.616 0.247-0.381 0.127-0.587 0.539-0.46 0.92s0.539 0.587 0.92 0.46c0.157-0.052 0.418-0.152 0.747-0.298 0.547-0.243 1.093-0.535 1.608-0.878 1.545-1.030 2.506-2.311 2.506-3.878 0.004-2.481-1.784-4.604-4.23-5.024s-4.839 0.986-5.663 3.328c-0.133 0.379 0.066 0.794 0.445 0.927s0.794-0.066 0.927-0.445z"></path>
<path d="M15.486 23.787c0.284 0.284 0.744 0.284 1.029 0s0.284-0.744 0-1.029c-0.284-0.284-0.745-0.284-1.029 0s-0.284 0.744 0 1.029z"></path>
</svg>
