<!-- Generated by IcoMoon.io -->
<svg version="1.1" xmlns="http://www.w3.org/2000/svg" width="32" height="32" viewBox="0 0 32 32">
<title>home</title>
<path d="M2.182 11.636c0-0.224 0.104-0.436 0.281-0.574l13.091-10.182c0.263-0.204 0.63-0.204 0.893 0l13.091 10.182c0.177 0.138 0.281 0.35 0.281 0.574v16c0 2.008-1.628 3.636-3.636 3.636h-20.364c-2.008 0-3.636-1.628-3.636-3.636v-16zM3.636 11.992v15.644c0 1.205 0.977 2.182 2.182 2.182h20.364c1.205 0 2.182-0.977 2.182-2.182v-15.644l-12.364-9.616-12.364 9.616z"></path>
<path d="M12.364 16.727h7.273v13.818c0 0.402 0.326 0.727 0.727 0.727s0.727-0.326 0.727-0.727v-14.545c0-0.402-0.326-0.727-0.727-0.727h-8.727c-0.402 0-0.727 0.326-0.727 0.727v14.545c0 0.402 0.326 0.727 0.727 0.727s0.727-0.326 0.727-0.727v-13.818z"></path>
</svg>
