<!-- Generated by IcoMoon.io -->
<svg version="1.1" xmlns="http://www.w3.org/2000/svg" width="32" height="32" viewBox="0 0 32 32">
<title>image</title>
<path d="M4.8 0.8h22.4c2.209 0 4 1.791 4 4v22.4c0 2.209-1.791 4-4 4h-22.4c-2.209 0-4-1.791-4-4v-22.4c0-2.209 1.791-4 4-4zM4.8 2.4c-1.325 0-2.4 1.075-2.4 2.4v22.4c0 1.325 1.075 2.4 2.4 2.4h22.4c1.325 0 2.4-1.075 2.4-2.4v-22.4c0-1.325-1.075-2.4-2.4-2.4h-22.4z"></path>
<path d="M10.4 13.6c1.767 0 3.2-1.433 3.2-3.2s-1.433-3.2-3.2-3.2c-1.767 0-3.2 1.433-3.2 3.2s1.433 3.2 3.2 3.2zM10.4 12c-0.884 0-1.6-0.716-1.6-1.6s0.716-1.6 1.6-1.6c0.884 0 1.6 0.716 1.6 1.6s-0.716 1.6-1.6 1.6z"></path>
<path d="M29.834 21.366c0.312 0.312 0.819 0.312 1.131 0s0.312-0.819 0-1.131l-8-8c-0.312-0.312-0.819-0.312-1.131 0l-17.6 17.6c-0.312 0.312-0.312 0.819 0 1.131s0.819 0.312 1.131 0l17.034-17.034 7.434 7.434z"></path>
</svg>
