<!-- Generated by IcoMoon.io -->
<svg version="1.1" xmlns="http://www.w3.org/2000/svg" width="32" height="32" viewBox="0 0 32 32">
<title>inbox</title>
<path d="M13.48 19.636l-2.693-4.040c-0.135-0.202-0.362-0.324-0.605-0.324h-8.727c-0.402 0-0.727 0.326-0.727 0.727s0.326 0.727 0.727 0.727h8.338l2.693 4.040c0.135 0.202 0.362 0.324 0.605 0.324h5.818c0.243 0 0.47-0.122 0.605-0.324l2.693-4.040h8.338c0.402 0 0.727-0.326 0.727-0.727s-0.326-0.727-0.727-0.727h-8.727c-0.243 0-0.47 0.122-0.605 0.324l-2.693 4.040h-5.040z"></path>
<path d="M0.804 15.674c-0.051 0.101-0.077 0.213-0.077 0.326v8.727c0 2.008 1.628 3.636 3.636 3.636h23.273c2.008 0 3.636-1.628 3.636-3.636v-8.727c0-0.113-0.026-0.225-0.077-0.326l-5.018-10.022c-0.613-1.234-1.874-2.015-3.254-2.016h-13.848c-1.38 0.001-2.641 0.782-3.255 2.018l-5.017 10.020zM29.818 16.172v8.555c0 1.205-0.977 2.182-2.182 2.182h-23.273c-1.205 0-2.182-0.977-2.182-2.182v-8.555l4.941-9.868c0.369-0.743 1.126-1.212 1.954-1.213h13.847c0.828 0 1.584 0.469 1.952 1.211l4.942 9.87z"></path>
</svg>
