<!-- Generated by IcoMoon.io -->
<svg version="1.1" xmlns="http://www.w3.org/2000/svg" width="32" height="32" viewBox="0 0 32 32">
<title>instagram</title>
<path d="M8.727 0.727h14.545c4.418 0 8 3.582 8 8v14.545c0 4.418-3.582 8-8 8h-14.545c-4.418 0-8-3.582-8-8v-14.545c0-4.418 3.582-8 8-8zM8.727 2.182c-3.615 0-6.545 2.93-6.545 6.545v14.545c0 3.615 2.93 6.545 6.545 6.545h14.545c3.615 0 6.545-2.93 6.545-6.545v-14.545c0-3.615-2.93-6.545-6.545-6.545h-14.545z"></path>
<path d="M22.538 14.977c0.414 2.793-1.010 5.537-3.532 6.807s-5.574 0.778-7.571-1.218c-1.997-1.997-2.488-5.049-1.218-7.571s4.014-3.946 6.807-3.532c2.852 0.423 5.092 2.662 5.515 5.515zM21.099 15.19c-0.329-2.218-2.071-3.96-4.289-4.289-2.172-0.322-4.307 0.785-5.294 2.747s-0.605 4.336 0.948 5.889c1.553 1.553 3.927 1.935 5.889 0.948s3.069-3.122 2.747-5.294z"></path>
<path d="M23.486 8.514c0.284 0.284 0.744 0.284 1.029 0s0.284-0.745 0-1.029c-0.284-0.284-0.744-0.284-1.029 0s-0.284 0.745 0 1.029z"></path>
</svg>
