<!-- Generated by IcoMoon.io -->
<svg version="1.1" xmlns="http://www.w3.org/2000/svg" width="32" height="32" viewBox="0 0 32 32">
<title>italic</title>
<path d="M28.444 0.889h-16c-0.491 0-0.889 0.398-0.889 0.889s0.398 0.889 0.889 0.889h16c0.491 0 0.889-0.398 0.889-0.889s-0.398-0.889-0.889-0.889z"></path>
<path d="M19.556 29.333h-16c-0.491 0-0.889 0.398-0.889 0.889s0.398 0.889 0.889 0.889h16c0.491 0 0.889-0.398 0.889-0.889s-0.398-0.889-0.889-0.889z"></path>
<path d="M20.501 1.466l-10.667 28.444c-0.172 0.46 0.061 0.972 0.52 1.144s0.972-0.061 1.144-0.52l10.667-28.444c0.172-0.46-0.061-0.972-0.52-1.144s-0.972 0.061-1.144 0.52z"></path>
</svg>
