<!-- Generated by IcoMoon.io -->
<svg version="1.1" xmlns="http://www.w3.org/2000/svg" width="32" height="32" viewBox="0 0 32 32">
<title>key</title>
<path d="M24.223 6.699l2.667-2.667-1.589 3.744c-0.718 0.718-1.796-0.359-1.078-1.077l1.078 1.077c0.718-0.718-0.359-1.796-1.078-1.077l-2.667 2.667c-0.718 0.718 0.359 1.796 1.078 1.078l1.603-1.603-0.014-2.141zM23.173 9.905v0zM24.223 6.699l-2.667 2.667c0.718-0.718 1.796 0.359 1.078 1.078l-3.131 3.131c-0.718 0.718-1.796-0.359-1.078-1.078l-2.625 2.625c0.176 0.145 0.349 0.297 0.516 0.457 0.017 0.014 0.034 0.030 0.051 0.046 0.183 0.181 0.358 0.368 0.523 0.561l4.666-6.821 2.667-2.667zM26.89 4.033c0.359-0.359 0.808-0.269 1.078 0l0.539 0.539-1.616-0.539zM27.429 5.649v0zM16.891 16.187c1.946 2.272 2.668 5.371 1.892 8.293-0.842 3.171-3.319 5.648-6.49 6.49s-6.55-0.080-8.86-2.421c-3.465-3.587-3.415-9.29 0.111-12.817 3.348-3.348 8.658-3.562 12.257-0.61l2.625-2.625-1.534 3.689zM29.491 3.586l1.524-1.524-1.078-1.077-1.524 1.524c0.718-0.718 1.796 0.359 1.078 1.077zM15.302 16.717c-2.99-2.887-7.742-2.846-10.681 0.093s-2.98 7.691-0.098 10.675c1.92 1.946 4.736 2.714 7.379 2.013s4.707-2.766 5.408-5.408c0.697-2.625-0.056-5.421-1.974-7.34-0.012-0.010-0.023-0.021-0.035-0.032zM28.414 2.509l1.524-1.524c0.718-0.718 1.796 0.359 1.078 1.078l-1.524 1.524c-0.718 0.718-1.796-0.359-1.078-1.077z"></path>
</svg>
