<!-- Generated by IcoMoon.io -->
<svg version="1.1" xmlns="http://www.w3.org/2000/svg" width="32" height="32" viewBox="0 0 32 32">
<title>layers</title>
<path d="M15.675 0.804l-14.545 7.273c-0.536 0.268-0.536 1.033 0 1.301l14.545 7.273c0.205 0.102 0.446 0.102 0.651 0l14.545-7.273c0.536-0.268 0.536-1.033 0-1.301l-14.545-7.273c-0.205-0.102-0.446-0.102-0.65 0zM16 2.268l12.919 6.46-12.919 6.46-12.919-6.46 12.919-6.46z"></path>
<path d="M1.78 22.622c-0.359-0.18-0.796-0.034-0.976 0.325s-0.034 0.796 0.325 0.976l14.545 7.273c0.205 0.102 0.446 0.102 0.651 0l14.545-7.273c0.359-0.18 0.505-0.616 0.325-0.976s-0.616-0.505-0.976-0.325l-14.22 7.11-14.22-7.11z"></path>
<path d="M1.78 15.35c-0.359-0.18-0.796-0.034-0.976 0.325s-0.034 0.796 0.325 0.976l14.545 7.273c0.205 0.102 0.446 0.102 0.651 0l14.545-7.273c0.359-0.18 0.505-0.616 0.325-0.976s-0.616-0.505-0.976-0.325l-14.22 7.11-14.22-7.11z"></path>
</svg>
