<!-- Generated by IcoMoon.io -->
<svg version="1.1" xmlns="http://www.w3.org/2000/svg" width="32" height="32" viewBox="0 0 32 32">
<title>life-buoy</title>
<path d="M16 31.273c8.435 0 15.273-6.838 15.273-15.273s-6.838-15.273-15.273-15.273c-8.435 0-15.273 6.838-15.273 15.273s6.838 15.273 15.273 15.273zM16 29.818c-7.632 0-13.818-6.187-13.818-13.818s6.187-13.818 13.818-13.818c7.632 0 13.818 6.187 13.818 13.818s-6.187 13.818-13.818 13.818z"></path>
<path d="M16 22.545c3.615 0 6.545-2.93 6.545-6.545s-2.93-6.545-6.545-6.545c-3.615 0-6.545 2.931-6.545 6.545s2.931 6.545 6.545 6.545zM16 21.091c-2.812 0-5.091-2.279-5.091-5.091s2.279-5.091 5.091-5.091c2.812 0 5.091 2.279 5.091 5.091s-2.279 5.091-5.091 5.091z"></path>
<path d="M5.202 6.231l6.167 6.167c0.284 0.284 0.745 0.284 1.029 0s0.284-0.745 0-1.029l-6.167-6.167c-0.284-0.284-0.745-0.284-1.029 0s-0.284 0.745 0 1.029z"></path>
<path d="M19.602 20.631l6.167 6.167c0.284 0.284 0.744 0.284 1.029 0s0.284-0.744 0-1.029l-6.167-6.167c-0.284-0.284-0.744-0.284-1.029 0s-0.284 0.744 0 1.029z"></path>
<path d="M20.631 12.398l6.167-6.167c0.284-0.284 0.284-0.745 0-1.029s-0.744-0.284-1.029 0l-6.167 6.167c-0.284 0.284-0.284 0.745 0 1.029s0.744 0.284 1.029 0z"></path>
<path d="M20.631 12.398l5.135-5.135c0.284-0.284 0.284-0.745 0-1.029s-0.744-0.284-1.029 0l-5.135 5.135c-0.284 0.284-0.284 0.745 0 1.029s0.744 0.284 1.029 0z"></path>
<path d="M6.231 26.798l6.167-6.167c0.284-0.284 0.284-0.744 0-1.029s-0.745-0.284-1.029 0l-6.167 6.167c-0.284 0.284-0.284 0.744 0 1.029s0.745 0.284 1.029 0z"></path>
</svg>
