<!-- Generated by IcoMoon.io -->
<svg version="1.1" xmlns="http://www.w3.org/2000/svg" width="32" height="32" viewBox="0 0 32 32">
<title>linkedin</title>
<path d="M21.818 10.182c5.222 0 9.455 4.233 9.455 9.455v10.182c0 0.402-0.326 0.727-0.727 0.727h-5.818c-0.402 0-0.727-0.326-0.727-0.727v-10.182c0-1.205-0.977-2.182-2.182-2.182s-2.182 0.977-2.182 2.182v10.182c0 0.402-0.326 0.727-0.727 0.727h-5.818c-0.402 0-0.727-0.326-0.727-0.727v-10.182c0-5.222 4.233-9.455 9.455-9.455zM29.818 29.091v-9.455c0-4.418-3.582-8-8-8s-8 3.582-8 8v9.455h4.364v-9.455c0-2.008 1.628-3.636 3.636-3.636s3.636 1.628 3.636 3.636v9.455h4.364z"></path>
<path d="M0.727 12.364c0-0.402 0.326-0.727 0.727-0.727h5.818c0.402 0 0.727 0.326 0.727 0.727v17.455c0 0.402-0.326 0.727-0.727 0.727h-5.818c-0.402 0-0.727-0.326-0.727-0.727v-17.455zM2.182 13.091v16h4.364v-16h-4.364z"></path>
<path d="M4.364 8.727c2.008 0 3.636-1.628 3.636-3.636s-1.628-3.636-3.636-3.636c-2.008 0-3.636 1.628-3.636 3.636s1.628 3.636 3.636 3.636zM4.364 7.273c-1.205 0-2.182-0.977-2.182-2.182s0.977-2.182 2.182-2.182c1.205 0 2.182 0.977 2.182 2.182s-0.977 2.182-2.182 2.182z"></path>
</svg>
