<!-- Generated by IcoMoon.io -->
<svg version="1.1" xmlns="http://www.w3.org/2000/svg" width="32" height="32" viewBox="0 0 32 32">
<title>link-2</title>
<path d="M20 10c-0.368 0-0.667-0.298-0.667-0.667s0.298-0.667 0.667-0.667h4c1.945 0 3.81 0.773 5.185 2.148s2.148 3.241 2.148 5.185c0 4.050-3.283 7.333-7.333 7.333h-4c-0.368 0-0.667-0.298-0.667-0.667s0.298-0.667 0.667-0.667h4c3.314 0 6-2.686 6-6 0-1.591-0.632-3.117-1.757-4.243s-2.651-1.757-4.243-1.757h-4zM12 22c0.368 0 0.667 0.298 0.667 0.667s-0.298 0.667-0.667 0.667h-4c-1.945 0-3.81-0.773-5.185-2.148s-2.148-3.241-2.148-5.185c0-4.050 3.283-7.333 7.333-7.333h4c0.368 0 0.667 0.298 0.667 0.667s-0.298 0.667-0.667 0.667h-4c-3.314 0-6 2.686-6 6 0 1.591 0.632 3.117 1.757 4.243s2.651 1.757 4.243 1.757h4z"></path>
<path d="M10.667 16.667h10.667c0.368 0 0.667-0.298 0.667-0.667s-0.298-0.667-0.667-0.667h-10.667c-0.368 0-0.667 0.298-0.667 0.667s0.298 0.667 0.667 0.667z"></path>
</svg>
