<!-- Generated by IcoMoon.io -->
<svg version="1.1" xmlns="http://www.w3.org/2000/svg" width="32" height="32" viewBox="0 0 32 32">
<title>link</title>
<path d="M12.509 17.89c1.39 1.859 3.519 3.022 5.835 3.188s4.588-0.682 6.229-2.324l4.364-4.364c3.041-3.148 2.997-8.138-0.089-11.224s-8.076-3.129-11.215-0.097l-2.509 2.495c-0.285 0.283-0.286 0.744-0.003 1.029s0.744 0.286 1.029 0.003l2.502-2.487c2.561-2.473 6.643-2.438 9.168 0.087s2.56 6.607 0.080 9.176l-4.355 4.355c-1.343 1.343-3.203 2.037-5.097 1.901s-3.636-1.087-4.774-2.608c-0.241-0.322-0.696-0.387-1.018-0.147s-0.387 0.696-0.147 1.018z"></path>
<path d="M19.491 14.11c-1.39-1.859-3.519-3.022-5.835-3.188s-4.588 0.682-6.229 2.324l-4.364 4.364c-3.041 3.148-2.997 8.138 0.089 11.224s8.076 3.129 11.215 0.097l2.496-2.496c0.284-0.284 0.284-0.744 0-1.029s-0.744-0.284-1.029 0l-2.487 2.487c-2.559 2.472-6.642 2.436-9.167-0.089s-2.56-6.607-0.080-9.176l4.355-4.355c1.343-1.343 3.203-2.037 5.097-1.901s3.636 1.087 4.774 2.608c0.241 0.322 0.696 0.387 1.018 0.147s0.387-0.696 0.147-1.018z"></path>
</svg>
