<!-- Generated by IcoMoon.io -->
<svg version="1.1" xmlns="http://www.w3.org/2000/svg" width="32" height="32" viewBox="0 0 32 32">
<title>list</title>
<path d="M9.6 7.2h20.8c0.442 0 0.8-0.358 0.8-0.8s-0.358-0.8-0.8-0.8h-20.8c-0.442 0-0.8 0.358-0.8 0.8s0.358 0.8 0.8 0.8z"></path>
<path d="M9.6 16.8h20.8c0.442 0 0.8-0.358 0.8-0.8s-0.358-0.8-0.8-0.8h-20.8c-0.442 0-0.8 0.358-0.8 0.8s0.358 0.8 0.8 0.8z"></path>
<path d="M9.6 26.4h20.8c0.442 0 0.8-0.358 0.8-0.8s-0.358-0.8-0.8-0.8h-20.8c-0.442 0-0.8 0.358-0.8 0.8s0.358 0.8 0.8 0.8z"></path>
<path d="M1.034 6.966c0.312 0.312 0.819 0.312 1.131 0s0.312-0.819 0-1.131c-0.312-0.312-0.819-0.312-1.131 0s-0.312 0.819 0 1.131z"></path>
<path d="M1.034 16.566c0.312 0.312 0.819 0.312 1.131 0s0.312-0.819 0-1.131c-0.312-0.312-0.819-0.312-1.131 0s-0.312 0.819 0 1.131z"></path>
<path d="M1.034 26.166c0.312 0.312 0.819 0.312 1.131 0s0.312-0.819 0-1.131c-0.312-0.312-0.819-0.312-1.131 0s-0.312 0.819 0 1.131z"></path>
</svg>
