<!-- Generated by IcoMoon.io -->
<svg version="1.1" xmlns="http://www.w3.org/2000/svg" width="32" height="32" viewBox="0 0 32 32">
<title>loader</title>
<path d="M15.273 1.455v5.818c0 0.402 0.326 0.727 0.727 0.727s0.727-0.326 0.727-0.727v-5.818c0-0.402-0.326-0.727-0.727-0.727s-0.727 0.326-0.727 0.727z"></path>
<path d="M15.273 24.727v5.818c0 0.402 0.326 0.727 0.727 0.727s0.727-0.326 0.727-0.727v-5.818c0-0.402-0.326-0.727-0.727-0.727s-0.727 0.326-0.727 0.727z"></path>
<path d="M5.202 6.231l4.116 4.116c0.284 0.284 0.745 0.284 1.029 0s0.284-0.745 0-1.029l-4.116-4.116c-0.284-0.284-0.745-0.284-1.029 0s-0.284 0.745 0 1.029z"></path>
<path d="M21.653 22.682l4.116 4.116c0.284 0.284 0.744 0.284 1.029 0s0.284-0.744 0-1.029l-4.116-4.116c-0.284-0.284-0.744-0.284-1.029 0s-0.284 0.744 0 1.029z"></path>
<path d="M1.455 16.727h5.818c0.402 0 0.727-0.326 0.727-0.727s-0.326-0.727-0.727-0.727h-5.818c-0.402 0-0.727 0.326-0.727 0.727s0.326 0.727 0.727 0.727z"></path>
<path d="M24.727 16.727h5.818c0.402 0 0.727-0.326 0.727-0.727s-0.326-0.727-0.727-0.727h-5.818c-0.402 0-0.727 0.326-0.727 0.727s0.326 0.727 0.727 0.727z"></path>
<path d="M6.231 26.798l4.116-4.116c0.284-0.284 0.284-0.744 0-1.029s-0.745-0.284-1.029 0l-4.116 4.116c-0.284 0.284-0.284 0.744 0 1.029s0.745 0.284 1.029 0z"></path>
<path d="M22.682 10.347l4.116-4.116c0.284-0.284 0.284-0.745 0-1.029s-0.744-0.284-1.029 0l-4.116 4.116c-0.284 0.284-0.284 0.745 0 1.029s0.744 0.284 1.029 0z"></path>
</svg>
