<!-- Generated by IcoMoon.io -->
<svg version="1.1" xmlns="http://www.w3.org/2000/svg" width="32" height="32" viewBox="0 0 32 32">
<title>lock</title>
<path d="M5.818 13.818h20.364c2.008 0 3.636 1.628 3.636 3.636v10.182c0 2.008-1.628 3.636-3.636 3.636h-20.364c-2.008 0-3.636-1.628-3.636-3.636v-10.182c0-2.008 1.628-3.636 3.636-3.636zM5.818 15.273c-1.205 0-2.182 0.977-2.182 2.182v10.182c0 1.205 0.977 2.182 2.182 2.182h20.364c1.205 0 2.182-0.977 2.182-2.182v-10.182c0-1.205-0.977-2.182-2.182-2.182h-20.364z"></path>
<path d="M9.455 14.545v-5.818c0-3.615 2.931-6.545 6.545-6.545s6.545 2.93 6.545 6.545v5.818c0 0.402 0.326 0.727 0.727 0.727s0.727-0.326 0.727-0.727v-5.818c0-4.418-3.582-8-8-8s-8 3.582-8 8v5.818c0 0.402 0.326 0.727 0.727 0.727s0.727-0.326 0.727-0.727z"></path>
</svg>
