<!-- Generated by IcoMoon.io -->
<svg version="1.1" xmlns="http://www.w3.org/2000/svg" width="32" height="32" viewBox="0 0 32 32">
<title>log-in</title>
<path d="M20.8 2.4h6.4c1.325 0 2.4 1.075 2.4 2.4v22.4c0 1.325-1.075 2.4-2.4 2.4h-6.4c-0.442 0-0.8 0.358-0.8 0.8s0.358 0.8 0.8 0.8h6.4c2.209 0 4-1.791 4-4v-22.4c0-2.209-1.791-4-4-4h-6.4c-0.442 0-0.8 0.358-0.8 0.8s0.358 0.8 0.8 0.8z"></path>
<path d="M12.234 23.434c-0.312 0.312-0.312 0.819 0 1.131s0.819 0.312 1.131 0l8-8c0.312-0.312 0.312-0.819 0-1.131l-8-8c-0.312-0.312-0.819-0.312-1.131 0s-0.312 0.819 0 1.131l7.434 7.434-7.434 7.434z"></path>
<path d="M20.8 15.2h-19.2c-0.442 0-0.8 0.358-0.8 0.8s0.358 0.8 0.8 0.8h19.2c0.442 0 0.8-0.358 0.8-0.8s-0.358-0.8-0.8-0.8z"></path>
</svg>
