<!-- Generated by IcoMoon.io -->
<svg version="1.1" xmlns="http://www.w3.org/2000/svg" width="27" height="32" viewBox="0 0 27 32">
<title>map-pin</title>
<path d="M26 13.333c0 4.289-2.327 8.555-6.183 12.625-1.336 1.41-2.764 2.696-4.194 3.834-0.501 0.399-0.966 0.751-1.384 1.053-0.253 0.183-0.436 0.309-0.536 0.376-0.224 0.149-0.516 0.149-0.74 0-0.101-0.067-0.283-0.193-0.536-0.376-0.418-0.302-0.884-0.654-1.384-1.053-1.429-1.138-2.858-2.424-4.194-3.834-3.856-4.070-6.183-8.336-6.183-12.625 0-6.996 5.671-12.667 12.667-12.667s12.667 5.671 12.667 12.667zM13.459 29.764c0.402-0.29 0.851-0.63 1.334-1.015 1.383-1.102 2.767-2.347 4.056-3.708 3.644-3.846 5.817-7.831 5.817-11.708 0-6.259-5.074-11.333-11.333-11.333s-11.333 5.074-11.333 11.333c0 3.877 2.173 7.862 5.817 11.708 1.289 1.361 2.673 2.606 4.056 3.708 0.484 0.385 0.932 0.725 1.334 1.015 0.044 0.032 0.086 0.062 0.125 0.090 0.039-0.028 0.081-0.058 0.125-0.090z"></path>
<path d="M13.333 18c2.577 0 4.667-2.089 4.667-4.667s-2.089-4.667-4.667-4.667c-2.577 0-4.667 2.089-4.667 4.667s2.089 4.667 4.667 4.667zM13.333 16.667c-1.841 0-3.333-1.492-3.333-3.333s1.492-3.333 3.333-3.333c1.841 0 3.333 1.492 3.333 3.333s-1.492 3.333-3.333 3.333z"></path>
</svg>
