<!-- Generated by IcoMoon.io -->
<svg version="1.1" xmlns="http://www.w3.org/2000/svg" width="32" height="32" viewBox="0 0 32 32">
<title>maximize</title>
<path d="M9.6 0.8c0.442 0 0.8 0.358 0.8 0.8s-0.358 0.8-0.8 0.8h-4.8c-1.325 0-2.4 1.075-2.4 2.4v4.8c0 0.442-0.358 0.8-0.8 0.8s-0.8-0.358-0.8-0.8v-4.8c0-2.209 1.791-4 4-4h4.8zM31.2 9.6c0 0.442-0.358 0.8-0.8 0.8s-0.8-0.358-0.8-0.8v-4.8c0-1.325-1.075-2.4-2.4-2.4h-4.8c-0.442 0-0.8-0.358-0.8-0.8s0.358-0.8 0.8-0.8h4.8c2.209 0 4 1.791 4 4v4.8zM22.4 31.2c-0.442 0-0.8-0.358-0.8-0.8s0.358-0.8 0.8-0.8h4.8c1.325 0 2.4-1.075 2.4-2.4v-4.8c0-0.442 0.358-0.8 0.8-0.8s0.8 0.358 0.8 0.8v4.8c0 2.209-1.791 4-4 4h-4.8zM0.8 22.4c0-0.442 0.358-0.8 0.8-0.8s0.8 0.358 0.8 0.8v4.8c0 1.325 1.075 2.4 2.4 2.4h4.8c0.442 0 0.8 0.358 0.8 0.8s-0.358 0.8-0.8 0.8h-4.8c-2.209 0-4-1.791-4-4v-4.8z"></path>
</svg>
