<!-- Generated by IcoMoon.io -->
<svg version="1.1" xmlns="http://www.w3.org/2000/svg" width="32" height="32" viewBox="0 0 32 32">
<title>maximize-2</title>
<path d="M29.6 2.4v8.8c0 0.442 0.358 0.8 0.8 0.8s0.8-0.358 0.8-0.8v-9.6c0-0.442-0.358-0.8-0.8-0.8h-9.6c-0.442 0-0.8 0.358-0.8 0.8s0.358 0.8 0.8 0.8h8.8z"></path>
<path d="M2.4 29.6v-8.8c0-0.442-0.358-0.8-0.8-0.8s-0.8 0.358-0.8 0.8v9.6c0 0.442 0.358 0.8 0.8 0.8h9.6c0.442 0 0.8-0.358 0.8-0.8s-0.358-0.8-0.8-0.8h-8.8z"></path>
<path d="M29.834 1.034l-11.2 11.2c-0.312 0.312-0.312 0.819 0 1.131s0.819 0.312 1.131 0l11.2-11.2c0.312-0.312 0.312-0.819 0-1.131s-0.819-0.312-1.131 0z"></path>
<path d="M2.166 30.966l11.2-11.2c0.312-0.312 0.312-0.819 0-1.131s-0.819-0.312-1.131 0l-11.2 11.2c-0.312 0.312-0.312 0.819 0 1.131s0.819 0.312 1.131 0z"></path>
</svg>
