<!-- Generated by IcoMoon.io -->
<svg version="1.1" xmlns="http://www.w3.org/2000/svg" width="32" height="32" viewBox="0 0 32 32">
<title>menu</title>
<path d="M1.6 16.8h28.8c0.442 0 0.8-0.358 0.8-0.8s-0.358-0.8-0.8-0.8h-28.8c-0.442 0-0.8 0.358-0.8 0.8s0.358 0.8 0.8 0.8z"></path>
<path d="M1.6 7.2h28.8c0.442 0 0.8-0.358 0.8-0.8s-0.358-0.8-0.8-0.8h-28.8c-0.442 0-0.8 0.358-0.8 0.8s0.358 0.8 0.8 0.8z"></path>
<path d="M1.6 26.4h28.8c0.442 0 0.8-0.358 0.8-0.8s-0.358-0.8-0.8-0.8h-28.8c-0.442 0-0.8 0.358-0.8 0.8s0.358 0.8 0.8 0.8z"></path>
</svg>
