<!-- Generated by IcoMoon.io -->
<svg version="1.1" xmlns="http://www.w3.org/2000/svg" width="32" height="32" viewBox="0 0 32 32">
<title>message-circle</title>
<path d="M2.4 15.2c0.002-5.453 3.084-10.437 7.959-12.874 1.997-1.009 4.205-1.532 6.441-1.526l0.844 0.001c7.312 0.403 13.151 6.242 13.556 13.599v0.8c0.006 2.236-0.517 4.443-1.525 6.438-2.438 4.878-7.422 7.96-12.874 7.962-2.125 0.006-4.223-0.466-6.14-1.377l-8.809 2.936c-0.625 0.208-1.22-0.387-1.012-1.012l2.936-8.809c-0.912-1.917-1.383-4.015-1.377-6.138zM2.865 29.135l7.602-2.534c0.202-0.067 0.423-0.051 0.614 0.045 1.773 0.895 3.731 1.359 5.719 1.354 4.847-0.002 9.278-2.742 11.446-7.081 0.895-1.773 1.359-3.731 1.354-5.717l0.001-0.758c-0.359-6.498-5.547-11.687-12.001-12.044h-0.802c-1.986-0.005-3.945 0.459-5.72 1.356-4.336 2.167-7.076 6.597-7.078 11.446-0.005 1.986 0.459 3.945 1.354 5.717 0.096 0.19 0.112 0.411 0.045 0.614l-2.534 7.602z"></path>
</svg>
