<!-- Generated by IcoMoon.io -->
<svg version="1.1" xmlns="http://www.w3.org/2000/svg" width="32" height="32" viewBox="0 0 32 32">
<title>mic-off</title>
<path d="M0.862 1.805l29.333 29.333c0.26 0.26 0.682 0.26 0.943 0s0.26-0.682 0-0.943l-29.333-29.333c-0.26-0.26-0.682-0.26-0.943 0s-0.26 0.682 0 0.943z"></path>
<path d="M11.333 12c0-0.368 0.298-0.667 0.667-0.667s0.667 0.298 0.667 0.667v3.999c0.001 1.347 0.813 2.561 2.058 3.077s2.678 0.231 3.631-0.721c0.261-0.26 0.683-0.26 0.943 0.001s0.26 0.683-0.001 0.943c-1.335 1.333-3.34 1.731-5.083 1.010s-2.88-2.421-2.881-4.308v-4zM20.667 12.453c0 0.368-0.298 0.667-0.667 0.667s-0.667-0.298-0.667-0.667v-7.121c0.002-1.712-1.294-3.148-2.998-3.32s-3.261 0.975-3.602 2.653c-0.073 0.361-0.425 0.594-0.786 0.521s-0.594-0.425-0.521-0.786c0.477-2.35 2.657-3.955 5.042-3.714s4.2 2.25 4.198 4.647v7.12z"></path>
<path d="M22.19 22.133c0.258-0.263 0.68-0.267 0.943-0.010s0.267 0.68 0.010 0.943c-2.853 2.912-7.188 3.801-10.956 2.246s-6.216-5.241-6.186-9.313v-2.667c0-0.368 0.298-0.667 0.667-0.667s0.667 0.298 0.667 0.667l-0 2.672c-0.026 3.533 2.095 6.728 5.362 8.075s7.023 0.577 9.496-1.947zM24.667 13.333c0-0.368 0.298-0.667 0.667-0.667s0.667 0.298 0.667 0.667v2.667c-0 0.589-0.053 1.177-0.157 1.757-0.065 0.362-0.412 0.603-0.774 0.538s-0.603-0.412-0.538-0.774c0.090-0.503 0.136-1.012 0.136-1.522v-2.667z"></path>
<path d="M15.333 25.333v5.333c0 0.368 0.298 0.667 0.667 0.667s0.667-0.298 0.667-0.667v-5.333c0-0.368-0.298-0.667-0.667-0.667s-0.667 0.298-0.667 0.667z"></path>
<path d="M10.667 31.333h10.667c0.368 0 0.667-0.298 0.667-0.667s-0.298-0.667-0.667-0.667h-10.667c-0.368 0-0.667 0.298-0.667 0.667s0.298 0.667 0.667 0.667z"></path>
</svg>
