<!-- Generated by IcoMoon.io -->
<svg version="1.1" xmlns="http://www.w3.org/2000/svg" width="21" height="32" viewBox="0 0 21 32">
<title>mic</title>
<path d="M10.667 0.667c-2.577 0-4.667 2.089-4.667 4.667v10.667c0 2.577 2.089 4.667 4.667 4.667s4.667-2.089 4.667-4.667v-10.667c0-2.577-2.089-4.667-4.667-4.667zM10.667 2c1.841 0 3.333 1.492 3.333 3.333v10.667c0 1.841-1.492 3.333-3.333 3.333s-3.333-1.492-3.333-3.333v-10.667c0-1.841 1.492-3.333 3.333-3.333z"></path>
<path d="M19.333 13.333v2.667c0 4.786-3.88 8.667-8.667 8.667s-8.667-3.88-8.667-8.667v-2.667c0-0.368-0.298-0.667-0.667-0.667s-0.667 0.298-0.667 0.667v2.667c0 5.523 4.477 10 10 10s10-4.477 10-10v-2.667c0-0.368-0.298-0.667-0.667-0.667s-0.667 0.298-0.667 0.667z"></path>
<path d="M10 25.333v5.333c0 0.368 0.298 0.667 0.667 0.667s0.667-0.298 0.667-0.667v-5.333c0-0.368-0.298-0.667-0.667-0.667s-0.667 0.298-0.667 0.667z"></path>
<path d="M5.333 31.333h10.667c0.368 0 0.667-0.298 0.667-0.667s-0.298-0.667-0.667-0.667h-10.667c-0.368 0-0.667 0.298-0.667 0.667s0.298 0.667 0.667 0.667z"></path>
</svg>
