<!-- Generated by IcoMoon.io -->
<svg version="1.1" xmlns="http://www.w3.org/2000/svg" width="32" height="32" viewBox="0 0 32 32">
<title>minimize</title>
<path d="M9.274 2.547c0-0.413 0.335-0.747 0.747-0.747s0.747 0.335 0.747 0.747v4.484c0 2.064-1.673 3.737-3.737 3.737h-4.484c-0.413 0-0.747-0.335-0.747-0.747s0.335-0.747 0.747-0.747h4.484c1.238 0 2.242-1.004 2.242-2.242v-4.484zM29.453 9.274c0.413 0 0.747 0.335 0.747 0.747s-0.335 0.747-0.747 0.747h-4.484c-2.064 0-3.737-1.673-3.737-3.737v-4.484c0-0.413 0.335-0.747 0.747-0.747s0.747 0.335 0.747 0.747v4.484c0 1.238 1.004 2.242 2.242 2.242h4.484zM22.726 29.453c0 0.413-0.335 0.747-0.747 0.747s-0.747-0.335-0.747-0.747v-4.484c0-2.064 1.673-3.737 3.737-3.737h4.484c0.413 0 0.747 0.335 0.747 0.747s-0.335 0.747-0.747 0.747h-4.484c-1.238 0-2.242 1.004-2.242 2.242v4.484zM2.547 22.726c-0.413 0-0.747-0.335-0.747-0.747s0.335-0.747 0.747-0.747h4.484c2.064 0 3.737 1.673 3.737 3.737v4.484c0 0.413-0.335 0.747-0.747 0.747s-0.747-0.335-0.747-0.747v-4.484c0-1.238-1.004-2.242-2.242-2.242h-4.484z"></path>
</svg>
