<!-- Generated by IcoMoon.io -->
<svg version="1.1" xmlns="http://www.w3.org/2000/svg" width="32" height="32" viewBox="0 0 32 32">
<title>moon</title>
<path d="M29.924 16.621c0.556-0.411 1.336 0.029 1.272 0.717-0.739 7.998-7.574 14.041-15.602 13.794s-14.479-6.697-14.726-14.726c-0.247-8.029 5.796-14.863 13.794-15.602 0.688-0.064 1.128 0.716 0.717 1.272-3.060 4.14-2.631 9.896 1.009 13.536s9.396 4.069 13.536 1.009zM15.257 16.743c-3.767-3.767-4.554-9.497-2.129-14.085-6.304 1.385-10.864 7.090-10.661 13.699 0.221 7.183 5.992 12.955 13.176 13.176 6.609 0.203 12.314-4.357 13.699-10.661-4.588 2.425-10.318 1.638-14.085-2.129z"></path>
</svg>
