<!-- Generated by IcoMoon.io -->
<svg version="1.1" xmlns="http://www.w3.org/2000/svg" width="32" height="32" viewBox="0 0 32 32">
<title>more-horizontal</title>
<path d="M16 18.323c1.283 0 2.323-1.040 2.323-2.323s-1.040-2.323-2.323-2.323c-1.283 0-2.323 1.040-2.323 2.323s1.040 2.323 2.323 2.323z"></path>
<path d="M26.843 18.323c1.283 0 2.323-1.040 2.323-2.323s-1.040-2.323-2.323-2.323c-1.283 0-2.323 1.040-2.323 2.323s1.040 2.323 2.323 2.323z"></path>
<path d="M5.157 18.323c1.283 0 2.324-1.040 2.324-2.323s-1.040-2.323-2.324-2.323c-1.283 0-2.324 1.040-2.324 2.323s1.040 2.323 2.324 2.323z"></path>
</svg>
