<!-- Generated by IcoMoon.io -->
<svg version="1.1" xmlns="http://www.w3.org/2000/svg" width="7" height="32" viewBox="0 0 7 32">
<title>more-vertical</title>
<path d="M3.557 18.181c1.205 0 2.181-0.977 2.181-2.181s-0.977-2.181-2.181-2.181c-1.205 0-2.181 0.977-2.181 2.181s0.977 2.181 2.181 2.181z"></path>
<path d="M3.557 8.002c1.205 0 2.181-0.977 2.181-2.181s-0.977-2.181-2.181-2.181c-1.205 0-2.181 0.977-2.181 2.181s0.977 2.181 2.181 2.181z"></path>
<path d="M3.557 28.361c1.205 0 2.181-0.977 2.181-2.181s-0.977-2.181-2.181-2.181c-1.205 0-2.181 0.977-2.181 2.181s0.977 2.181 2.181 2.181z"></path>
</svg>
