<!-- Generated by IcoMoon.io -->
<svg version="1.1" xmlns="http://www.w3.org/2000/svg" width="32" height="32" viewBox="0 0 32 32">
<title>mouse-pointer</title>
<path d="M18.483 18.483l12.053-4.094c0.735-0.25 0.77-1.276 0.053-1.575l-28.581-11.907c-0.694-0.289-1.39 0.407-1.101 1.101l11.907 28.581c0.299 0.716 1.325 0.682 1.575-0.053l4.094-12.053zM3.248 3.248l24.635 10.263-10.335 3.51c-0.248 0.084-0.442 0.279-0.527 0.527l-3.51 10.335-10.263-24.635z"></path>
<path d="M17.931 19.122l10.105 10.105c0.329 0.329 0.862 0.329 1.191 0s0.329-0.862 0-1.191l-10.105-10.105c-0.329-0.329-0.862-0.329-1.191 0s-0.329 0.862 0 1.191z"></path>
</svg>
