<!-- Generated by IcoMoon.io -->
<svg version="1.1" xmlns="http://www.w3.org/2000/svg" width="32" height="32" viewBox="0 0 32 32">
<title>move</title>
<path d="M6.332 12.151c0.284-0.284 0.284-0.745 0-1.029s-0.745-0.284-1.029 0l-4.364 4.364c-0.284 0.284-0.284 0.744 0 1.029l4.364 4.364c0.284 0.284 0.745 0.284 1.029 0s0.284-0.744 0-1.029l-3.849-3.849 3.849-3.849z"></path>
<path d="M19.849 6.332c0.284 0.284 0.744 0.284 1.029 0s0.284-0.745 0-1.029l-4.364-4.364c-0.284-0.284-0.745-0.284-1.029 0l-4.364 4.364c-0.284 0.284-0.284 0.745 0 1.029s0.745 0.284 1.029 0l3.849-3.849 3.849 3.849z"></path>
<path d="M16 29.517l-3.849-3.849c-0.284-0.284-0.745-0.284-1.029 0s-0.284 0.744 0 1.029l4.364 4.364c0.284 0.284 0.744 0.284 1.029 0l4.364-4.364c0.284-0.284 0.284-0.744 0-1.029s-0.744-0.284-1.029 0l-3.849 3.849z"></path>
<path d="M25.668 19.849c-0.284 0.284-0.284 0.744 0 1.029s0.744 0.284 1.029 0l4.364-4.364c0.284-0.284 0.284-0.745 0-1.029l-4.364-4.364c-0.284-0.284-0.744-0.284-1.029 0s-0.284 0.745 0 1.029l3.849 3.849-3.849 3.849z"></path>
<path d="M1.455 16.727h29.091c0.402 0 0.727-0.326 0.727-0.727s-0.326-0.727-0.727-0.727h-29.091c-0.402 0-0.727 0.326-0.727 0.727s0.326 0.727 0.727 0.727z"></path>
<path d="M15.273 1.455v29.091c0 0.402 0.326 0.727 0.727 0.727s0.727-0.326 0.727-0.727v-29.091c0-0.402-0.326-0.727-0.727-0.727s-0.727 0.326-0.727 0.727z"></path>
</svg>
