<!-- Generated by IcoMoon.io -->
<svg version="1.1" xmlns="http://www.w3.org/2000/svg" width="32" height="32" viewBox="0 0 32 32">
<title>music</title>
<path d="M12 5.478l17.6-2.933v19.856c0 0.442 0.358 0.8 0.8 0.8s0.8-0.358 0.8-0.8v-20.8c0-0.494-0.444-0.87-0.932-0.789l-19.2 3.2c-0.386 0.064-0.668 0.398-0.668 0.789v20.8c0 0.442 0.358 0.8 0.8 0.8s0.8-0.358 0.8-0.8v-20.122z"></path>
<path d="M6.4 31.2c3.093 0 5.6-2.507 5.6-5.6s-2.507-5.6-5.6-5.6c-3.093 0-5.6 2.507-5.6 5.6s2.507 5.6 5.6 5.6zM6.4 29.6c-2.209 0-4-1.791-4-4s1.791-4 4-4c2.209 0 4 1.791 4 4s-1.791 4-4 4z"></path>
<path d="M25.6 28c3.093 0 5.6-2.507 5.6-5.6s-2.507-5.6-5.6-5.6c-3.093 0-5.6 2.507-5.6 5.6s2.507 5.6 5.6 5.6zM25.6 26.4c-2.209 0-4-1.791-4-4s1.791-4 4-4c2.209 0 4 1.791 4 4s-1.791 4-4 4z"></path>
</svg>
