<!-- Generated by IcoMoon.io -->
<svg version="1.1" xmlns="http://www.w3.org/2000/svg" width="32" height="32" viewBox="0 0 32 32">
<title>octagon</title>
<path d="M9.464 0.94c0.136-0.136 0.321-0.213 0.514-0.213h12.044c0.193 0 0.378 0.077 0.514 0.213l8.524 8.524c0.136 0.136 0.213 0.321 0.213 0.514v12.044c0 0.193-0.077 0.378-0.213 0.514l-8.524 8.524c-0.136 0.136-0.321 0.213-0.514 0.213h-12.044c-0.193 0-0.378-0.077-0.514-0.213l-8.524-8.524c-0.136-0.136-0.213-0.321-0.213-0.514v-12.044c0-0.193 0.077-0.378 0.213-0.514l8.524-8.524zM10.279 2.182l-8.098 8.098v11.441l8.098 8.098h11.441l8.098-8.098v-11.441l-8.098-8.098h-11.441z"></path>
</svg>
