<!-- Generated by IcoMoon.io -->
<svg version="1.1" xmlns="http://www.w3.org/2000/svg" width="32" height="32" viewBox="0 0 32 32">
<title>paperclip</title>
<path d="M29.338 14.882l-12.786 12.786c-2.99 2.99-7.838 2.99-10.828 0s-2.99-7.838 0-10.828l12.786-12.786c1.903-1.903 4.988-1.903 6.891 0s1.903 4.988 0 6.891l-12.8 12.786c-0.816 0.816-2.138 0.816-2.954 0s-0.816-2.138 0-2.954l11.812-11.798c0.272-0.271 0.272-0.712 0.001-0.984s-0.712-0.272-0.984-0.001l-11.812 11.798c-1.359 1.359-1.359 3.563-0 4.921s3.562 1.359 4.921 0l12.8-12.786c2.447-2.447 2.447-6.413 0-8.859s-6.412-2.446-8.859 0l-12.786 12.786c-3.534 3.534-3.534 9.262 0 12.796s9.262 3.533 12.796 0l12.786-12.786c0.272-0.272 0.272-0.712 0-0.984s-0.712-0.272-0.984 0z"></path>
</svg>
