<!-- Generated by IcoMoon.io -->
<svg version="1.1" xmlns="http://www.w3.org/2000/svg" width="32" height="32" viewBox="0 0 32 32">
<title>pause</title>
<path d="M5.592 3.189c0-0.442 0.358-0.801 0.801-0.801h6.405c0.442 0 0.801 0.358 0.801 0.801v25.621c0 0.442-0.358 0.801-0.801 0.801h-6.405c-0.442 0-0.801-0.358-0.801-0.801v-25.621zM7.193 3.99v24.020h4.804v-24.020h-4.804z"></path>
<path d="M18.402 3.189c0-0.442 0.358-0.801 0.801-0.801h6.405c0.442 0 0.801 0.358 0.801 0.801v25.621c0 0.442-0.358 0.801-0.801 0.801h-6.405c-0.442 0-0.801-0.358-0.801-0.801v-25.621zM20.003 3.99v24.020h4.804v-24.020h-4.804z"></path>
</svg>
