<!-- Generated by IcoMoon.io -->
<svg version="1.1" xmlns="http://www.w3.org/2000/svg" width="32" height="32" viewBox="0 0 32 32">
<title>pen-tool</title>
<path d="M15.486 26.696c-0.284-0.284-0.284-0.744 0-1.029l10.182-10.182c0.284-0.284 0.744-0.284 1.029 0l4.364 4.364c0.284 0.284 0.284 0.744 0 1.029l-10.182 10.182c-0.284 0.284-0.744 0.284-1.029 0l-4.364-4.364zM20.364 29.517l9.153-9.153-3.335-3.335-9.153 9.153 3.335 3.335z"></path>
<path d="M25.44 17.312l-2.182-10.909c-0.056-0.278-0.267-0.498-0.543-0.564l-21.091-5.091c-0.529-0.128-1.005 0.349-0.878 0.878l5.091 21.091c0.066 0.275 0.287 0.487 0.564 0.543l10.909 2.182c0.238 0.048 0.485-0.027 0.657-0.199l7.273-7.273c0.172-0.172 0.247-0.418 0.199-0.657zM17.215 23.938l-10.072-2.014-4.703-19.483 19.483 4.703 2.014 10.072-6.722 6.722z"></path>
<path d="M0.94 1.969l11.034 11.034c0.284 0.284 0.745 0.284 1.029 0s0.284-0.745 0-1.029l-11.034-11.034c-0.284-0.284-0.744-0.284-1.029 0s-0.284 0.744 0 1.029z"></path>
<path d="M14.545 18.182c2.008 0 3.636-1.628 3.636-3.636s-1.628-3.636-3.636-3.636c-2.008 0-3.636 1.628-3.636 3.636s1.628 3.636 3.636 3.636zM14.545 16.727c-1.205 0-2.182-0.977-2.182-2.182s0.977-2.182 2.182-2.182c1.205 0 2.182 0.977 2.182 2.182s-0.977 2.182-2.182 2.182z"></path>
</svg>
