<!-- Generated by IcoMoon.io -->
<svg version="1.1" xmlns="http://www.w3.org/2000/svg" width="32" height="32" viewBox="0 0 32 32">
<title>percent</title>
<path d="M27.229 3.576l-23.654 23.654c-0.33 0.33-0.33 0.865 0 1.195s0.865 0.33 1.195 0l23.654-23.654c0.33-0.33 0.33-0.865 0-1.195s-0.865-0.33-1.195 0z"></path>
<path d="M6.707 11.776c2.799 0 5.069-2.269 5.069-5.069s-2.269-5.069-5.069-5.069c-2.799 0-5.069 2.269-5.069 5.069s2.269 5.069 5.069 5.069zM6.707 10.087c-1.866 0-3.379-1.513-3.379-3.379s1.513-3.379 3.379-3.379c1.866 0 3.379 1.513 3.379 3.379s-1.513 3.379-3.379 3.379z"></path>
<path d="M25.293 30.361c2.799 0 5.069-2.269 5.069-5.069s-2.269-5.069-5.069-5.069c-2.799 0-5.069 2.269-5.069 5.069s2.269 5.069 5.069 5.069zM25.293 28.672c-1.866 0-3.379-1.513-3.379-3.379s1.513-3.379 3.379-3.379c1.866 0 3.379 1.513 3.379 3.379s-1.513 3.379-3.379 3.379z"></path>
</svg>
