<!-- Generated by IcoMoon.io -->
<svg version="1.1" xmlns="http://www.w3.org/2000/svg" width="32" height="32" viewBox="0 0 32 32">
<title>phone-off</title>
<path d="M20.011 19.046c0.925-0.915 2.299-1.208 3.515-0.751 1.163 0.434 2.371 0.735 3.607 0.898 1.657 0.234 2.883 1.66 2.867 3.327v3.997c0.004 0.939-0.388 1.835-1.080 2.47s-1.619 0.948-2.565 0.862c-4.207-0.457-8.247-1.895-11.792-4.193-1.648-1.046-3.175-2.271-4.554-3.652-0.26-0.261-0.26-0.683 0.001-0.943s0.683-0.26 0.943 0.001c1.31 1.312 2.761 2.475 4.331 3.472 3.375 2.189 7.217 3.555 11.204 3.989 0.561 0.051 1.117-0.137 1.532-0.518s0.65-0.919 0.648-1.485l0-4.006c0.010-1.004-0.726-1.86-1.714-1.999-1.33-0.175-2.636-0.501-3.894-0.97-0.731-0.275-1.555-0.099-2.107 0.447l-1.693 1.693c-0.212 0.212-0.54 0.256-0.801 0.108-1.716-0.976-3.293-2.178-4.689-3.575-0.26-0.26-0.26-0.683 0-0.943s0.683-0.26 0.943 0c1.191 1.193 2.524 2.234 3.967 3.103l1.332-1.332zM7.479 16.717c0.2 0.309 0.112 0.722-0.197 0.922s-0.722 0.112-0.922-0.197c-2.302-3.55-3.74-7.591-4.198-11.809-0.084-0.932 0.227-1.856 0.858-2.547s1.523-1.085 2.459-1.086l3.993 0c1.673-0.016 3.099 1.21 3.334 2.873 0.162 1.23 0.463 2.438 0.896 3.599 0.458 1.218 0.165 2.591-0.753 3.519l-1.693 1.693c-0.26 0.26-0.682 0.26-0.943 0s-0.26-0.682 0-0.943l1.691-1.691c0.549-0.555 0.725-1.379 0.449-2.111-0.469-1.257-0.794-2.563-0.969-3.886-0.14-0.994-0.996-1.73-2.007-1.72h-3.999c-0.561 0.001-1.097 0.237-1.475 0.652s-0.565 0.969-0.516 1.516c0.435 3.999 1.801 7.841 3.99 11.216z"></path>
<path d="M30.195 0.862l-29.333 29.333c-0.26 0.26-0.26 0.682 0 0.943s0.682 0.26 0.943 0l29.333-29.333c0.26-0.26 0.26-0.682 0-0.943s-0.682-0.26-0.943 0z"></path>
</svg>
