<!-- Generated by IcoMoon.io -->
<svg version="1.1" xmlns="http://www.w3.org/2000/svg" width="32" height="32" viewBox="0 0 32 32">
<title>phone-call</title>
<path d="M19.056 7.448c-0.485-0.486-0.049-1.306 0.625-1.175 3.058 0.597 5.449 2.987 6.045 6.045 0.131 0.674-0.689 1.111-1.175 0.625l-5.496-5.496zM20.040 6.465l-0.625 1.175c2.502 0.488 4.458 2.444 4.946 4.946l1.175-0.625-5.496-5.496zM19.056 1.883c-0.465-0.465-0.085-1.256 0.568-1.184 6.138 0.682 10.986 5.523 11.675 11.661 0.073 0.654-0.717 1.035-1.183 0.57l-11.061-11.047zM29.451 10.299c-1.157-3.695-4.066-6.6-7.762-7.752l7.762 7.752zM29.913 27.712c0.004 0.979-0.405 1.915-1.127 2.577s-1.689 0.989-2.677 0.9c-4.389-0.477-8.606-1.977-12.305-4.376-3.448-2.191-6.371-5.114-8.559-8.557-2.411-3.721-3.911-7.958-4.38-12.378-0.088-0.972 0.237-1.937 0.895-2.658s1.589-1.132 2.566-1.133l4.167 0c1.746-0.017 3.234 1.263 3.479 2.998 0.169 1.284 0.483 2.544 0.935 3.756 0.478 1.271 0.172 2.704-0.785 3.672l-1.387 1.387c1.816 3.019 4.345 5.548 7.364 7.364l1.39-1.39c0.966-0.955 2.398-1.26 3.668-0.783 1.213 0.453 2.474 0.767 3.764 0.937 1.746 0.246 3.031 1.76 2.992 3.521v4.163zM28.522 23.541l0-0.017c0.026-1.059-0.745-1.97-1.789-2.117-1.388-0.183-2.75-0.522-4.063-1.012-0.763-0.287-1.622-0.103-2.199 0.467l-1.767 1.767c-0.221 0.221-0.564 0.268-0.836 0.113-3.592-2.043-6.566-5.017-8.609-8.609-0.155-0.272-0.109-0.614 0.113-0.836l1.764-1.764c0.573-0.579 0.756-1.439 0.469-2.203-0.489-1.311-0.829-2.674-1.011-4.055-0.147-1.037-1.039-1.805-2.094-1.795h-4.173c-0.586 0.001-1.145 0.248-1.54 0.68s-0.59 1.011-0.538 1.584c0.445 4.192 1.871 8.22 4.167 11.763 2.081 3.275 4.858 6.052 8.139 8.137 3.522 2.284 7.53 3.71 11.691 4.162 0.585 0.053 1.166-0.143 1.599-0.541s0.678-0.959 0.676-1.549v-4.174z"></path>
</svg>
