<!-- Generated by IcoMoon.io -->
<svg version="1.1" xmlns="http://www.w3.org/2000/svg" width="32" height="32" viewBox="0 0 32 32">
<title>phone</title>
<path d="M31.273 27.517c0.004 1.024-0.424 2.002-1.178 2.694s-1.766 1.034-2.799 0.941c-4.589-0.499-8.997-2.067-12.864-4.575-3.605-2.29-6.661-5.346-8.948-8.946-2.52-3.89-4.089-8.32-4.579-12.941-0.092-1.017 0.248-2.025 0.936-2.779s1.661-1.184 2.683-1.185h4.357c1.825-0.018 3.381 1.32 3.637 3.134 0.177 1.342 0.505 2.66 0.978 3.926 0.5 1.329 0.18 2.827-0.821 3.839l-1.45 1.45c1.899 3.157 4.542 5.8 7.699 7.699l1.453-1.453c1.009-0.998 2.508-1.318 3.835-0.819 1.268 0.473 2.586 0.802 3.935 0.979 1.825 0.258 3.168 1.84 3.128 3.681v4.352zM29.818 23.156l0-0.018c0.027-1.107-0.779-2.060-1.87-2.214-1.451-0.191-2.875-0.546-4.248-1.058-0.797-0.3-1.696-0.108-2.299 0.488l-1.847 1.847c-0.232 0.232-0.589 0.28-0.874 0.118-3.755-2.135-6.865-5.245-9-9-0.162-0.285-0.114-0.642 0.118-0.874l1.844-1.844c0.599-0.606 0.791-1.505 0.49-2.303-0.512-1.371-0.866-2.796-1.057-4.24-0.153-1.084-1.087-1.887-2.189-1.877h-4.363c-0.613 0.001-1.197 0.259-1.609 0.711s-0.617 1.057-0.563 1.656c0.465 4.382 1.957 8.594 4.356 12.298 2.176 3.424 5.079 6.328 8.509 8.507 3.682 2.388 7.873 3.879 12.222 4.351 0.612 0.055 1.219-0.15 1.671-0.565s0.709-1.002 0.707-1.62v-4.364z"></path>
</svg>
