<!-- Generated by IcoMoon.io -->
<svg version="1.1" xmlns="http://www.w3.org/2000/svg" width="32" height="32" viewBox="0 0 32 32">
<title>pie-chart</title>
<path d="M28.727 21.375c-2.418 5.719-8.355 9.123-14.512 8.321s-11.024-5.613-11.896-11.761c-0.872-6.148 2.463-12.123 8.154-14.606 0.368-0.161 0.536-0.589 0.376-0.957s-0.589-0.536-0.957-0.376c-6.29 2.745-9.977 9.349-9.013 16.144s6.343 12.112 13.148 12.999c6.806 0.887 13.367-2.875 16.040-9.197 0.156-0.37-0.017-0.797-0.387-0.953s-0.797 0.017-0.953 0.387z"></path>
<path d="M31.273 16c0-4.051-1.609-7.935-4.473-10.799s-6.749-4.473-10.799-4.473c-0.402 0-0.727 0.326-0.727 0.727v14.545c0 0.402 0.326 0.727 0.727 0.727h14.545c0.402 0 0.727-0.326 0.727-0.727zM16.727 15.273v-13.072c3.4 0.179 6.624 1.609 9.044 4.028s3.849 5.644 4.028 9.044h-13.072z"></path>
</svg>
