<!-- Generated by IcoMoon.io -->
<svg version="1.1" xmlns="http://www.w3.org/2000/svg" width="32" height="32" viewBox="0 0 32 32">
<title>play-circle</title>
<path d="M16 31.273c8.435 0 15.273-6.838 15.273-15.273s-6.838-15.273-15.273-15.273c-8.435 0-15.273 6.838-15.273 15.273s6.838 15.273 15.273 15.273zM16 29.818c-7.632 0-13.818-6.187-13.818-13.818s6.187-13.818 13.818-13.818c7.632 0 13.818 6.187 13.818 13.818s-6.187 13.818-13.818 13.818z"></path>
<path d="M12.364 10.182c0-0.581 0.647-0.927 1.131-0.605l8.727 5.818c0.432 0.288 0.432 0.922 0 1.21l-8.727 5.818c-0.483 0.322-1.131-0.024-1.131-0.605v-11.636zM13.818 11.541v8.919l6.689-4.459-6.689-4.459z"></path>
</svg>
