<!-- Generated by IcoMoon.io -->
<svg version="1.1" xmlns="http://www.w3.org/2000/svg" width="32" height="32" viewBox="0 0 32 32">
<title>plus-square</title>
<path d="M4.8 0.8h22.4c2.209 0 4 1.791 4 4v22.4c0 2.209-1.791 4-4 4h-22.4c-2.209 0-4-1.791-4-4v-22.4c0-2.209 1.791-4 4-4zM4.8 2.4c-1.325 0-2.4 1.075-2.4 2.4v22.4c0 1.325 1.075 2.4 2.4 2.4h22.4c1.325 0 2.4-1.075 2.4-2.4v-22.4c0-1.325-1.075-2.4-2.4-2.4h-22.4z"></path>
<path d="M15.2 9.6v12.8c0 0.442 0.358 0.8 0.8 0.8s0.8-0.358 0.8-0.8v-12.8c0-0.442-0.358-0.8-0.8-0.8s-0.8 0.358-0.8 0.8z"></path>
<path d="M9.6 16.8h12.8c0.442 0 0.8-0.358 0.8-0.8s-0.358-0.8-0.8-0.8h-12.8c-0.442 0-0.8 0.358-0.8 0.8s0.358 0.8 0.8 0.8z"></path>
</svg>
