<!-- Generated by IcoMoon.io -->
<svg version="1.1" xmlns="http://www.w3.org/2000/svg" width="32" height="32" viewBox="0 0 32 32">
<title>pocket</title>
<path d="M4.364 2.182h23.273c2.008 0 3.636 1.628 3.636 3.636v8.727c0 8.435-6.838 15.273-15.273 15.273-4.051 0-7.935-1.609-10.799-4.473s-4.473-6.749-4.473-10.799v-8.727c0-2.008 1.628-3.636 3.636-3.636zM4.364 3.636c-1.205 0-2.182 0.977-2.182 2.182v8.727c0 3.665 1.456 7.18 4.047 9.771s6.106 4.047 9.771 4.047c7.632 0 13.818-6.187 13.818-13.818v-8.727c0-1.205-0.977-2.182-2.182-2.182h-23.273z"></path>
<path d="M10.696 12.577c-0.284-0.284-0.745-0.284-1.029 0s-0.284 0.745 0 1.029l5.818 5.818c0.284 0.284 0.744 0.284 1.029 0l5.818-5.818c0.284-0.284 0.284-0.745 0-1.029s-0.744-0.284-1.029 0l-5.304 5.304-5.304-5.304z"></path>
</svg>
