<!-- Generated by IcoMoon.io -->
<svg version="1.1" xmlns="http://www.w3.org/2000/svg" width="32" height="32" viewBox="0 0 32 32">
<title>power</title>
<path d="M24.737 8.718c4.827 4.829 4.826 12.656-0.002 17.484s-12.656 4.828-17.484 0c-4.828-4.828-4.829-12.655-0.002-17.484 0.284-0.284 0.284-0.745-0-1.029s-0.745-0.284-1.029 0c-5.395 5.397-5.394 14.145 0.002 19.541s14.145 5.396 19.541 0c5.396-5.396 5.397-14.144 0.002-19.541-0.284-0.284-0.744-0.284-1.029-0s-0.284 0.744-0 1.029z"></path>
<path d="M15.273 1.455v14.545c0 0.402 0.326 0.727 0.727 0.727s0.727-0.326 0.727-0.727v-14.545c0-0.402-0.326-0.727-0.727-0.727s-0.727 0.326-0.727 0.727z"></path>
</svg>
