<!-- Generated by IcoMoon.io -->
<svg version="1.1" xmlns="http://www.w3.org/2000/svg" width="32" height="32" viewBox="0 0 32 32">
<title>printer</title>
<path d="M8 2.182h16v9.455c0 0.402 0.326 0.727 0.727 0.727s0.727-0.326 0.727-0.727v-10.182c0-0.402-0.326-0.727-0.727-0.727h-17.455c-0.402 0-0.727 0.326-0.727 0.727v10.182c0 0.402 0.326 0.727 0.727 0.727s0.727-0.326 0.727-0.727v-9.455z"></path>
<path d="M7.273 24h-2.909c-1.205 0-2.182-0.977-2.182-2.182v-7.273c0-1.205 0.977-2.182 2.182-2.182h23.273c1.205 0 2.182 0.977 2.182 2.182v7.273c0 1.205-0.977 2.182-2.182 2.182h-2.909c-0.402 0-0.727 0.326-0.727 0.727s0.326 0.727 0.727 0.727h2.909c2.008 0 3.636-1.628 3.636-3.636v-7.273c0-2.008-1.628-3.636-3.636-3.636h-23.273c-2.008 0-3.636 1.628-3.636 3.636v7.273c0 2.008 1.628 3.636 3.636 3.636h2.909c0.402 0 0.727-0.326 0.727-0.727s-0.326-0.727-0.727-0.727z"></path>
<path d="M6.545 18.909c0-0.402 0.326-0.727 0.727-0.727h17.455c0.402 0 0.727 0.326 0.727 0.727v11.636c0 0.402-0.326 0.727-0.727 0.727h-17.455c-0.402 0-0.727-0.326-0.727-0.727v-11.636zM8 19.636v10.182h16v-10.182h-16z"></path>
</svg>
