<!-- Generated by IcoMoon.io -->
<svg version="1.1" xmlns="http://www.w3.org/2000/svg" width="32" height="32" viewBox="0 0 32 32">
<title>radio</title>
<path d="M16 19.636c2.008 0 3.636-1.628 3.636-3.636s-1.628-3.636-3.636-3.636c-2.008 0-3.636 1.628-3.636 3.636s1.628 3.636 3.636 3.636zM16 18.182c-1.205 0-2.182-0.977-2.182-2.182s0.977-2.182 2.182-2.182c1.205 0 2.182 0.977 2.182 2.182s-0.977 2.182-2.182 2.182z"></path>
<path d="M21.653 10.347c-0.284-0.284-0.284-0.744-0.001-1.029s0.744-0.284 1.029-0.001c1.775 1.773 2.773 4.18 2.773 6.689s-0.998 4.916-2.773 6.689c-0.284 0.284-0.745 0.284-1.029-0.001s-0.284-0.745 0.001-1.029c1.502-1.501 2.346-3.537 2.346-5.66s-0.844-4.159-2.346-5.66zM10.347 21.653c0.284 0.284 0.284 0.744 0.001 1.029s-0.744 0.284-1.029 0.001c-1.775-1.773-2.773-4.18-2.773-6.689s0.998-4.916 2.773-6.689c0.284-0.284 0.745-0.284 1.029 0.001s0.284 0.745-0.001 1.029c-1.502 1.501-2.346 3.537-2.346 5.66s0.844 4.159 2.346 5.66zM25.769 6.231c-0.284-0.284-0.284-0.745 0-1.029s0.745-0.284 1.029 0c5.962 5.964 5.962 15.632 0 21.596-0.284 0.284-0.744 0.284-1.029 0s-0.284-0.744-0-1.029c5.394-5.396 5.394-14.143 0-19.539zM6.231 25.769c0.284 0.284 0.284 0.745-0 1.029s-0.745 0.284-1.029-0c-5.962-5.964-5.962-15.632 0-21.596 0.284-0.284 0.744-0.284 1.029-0s0.284 0.744 0 1.029c-5.394 5.396-5.394 14.143 0 19.539z"></path>
</svg>
