<!-- Generated by IcoMoon.io -->
<svg version="1.1" xmlns="http://www.w3.org/2000/svg" width="32" height="32" viewBox="0 0 32 32">
<title>refresh-cw</title>
<path d="M30 12.667h-7.333c-0.368 0-0.667 0.298-0.667 0.667s0.298 0.667 0.667 0.667h8c0.368 0 0.667-0.298 0.667-0.667v-8c0-0.368-0.298-0.667-0.667-0.667s-0.667 0.298-0.667 0.667v7.333z"></path>
<path d="M2 19.333h7.333c0.368 0 0.667-0.298 0.667-0.667s-0.298-0.667-0.667-0.667h-8c-0.368 0-0.667 0.298-0.667 0.667v8c0 0.368 0.298 0.667 0.667 0.667s0.667-0.298 0.667-0.667v-7.333z"></path>
<path d="M5.308 12.222c-0.123 0.347-0.504 0.529-0.851 0.406s-0.529-0.504-0.406-0.851c1.451-4.1 4.904-7.169 9.146-8.129s8.68 0.324 11.739 3.385l6.187 5.813c0.268 0.252 0.281 0.674 0.029 0.942s-0.674 0.281-0.942 0.029l-6.202-5.828c-2.751-2.752-6.722-3.901-10.517-3.042s-6.885 3.605-8.183 7.273zM0.877 19.152c-0.268-0.252-0.281-0.674-0.029-0.942s0.674-0.281 0.942-0.029l6.202 5.828c2.751 2.752 6.722 3.901 10.517 3.042s6.885-3.605 8.183-7.273c0.123-0.347 0.504-0.529 0.851-0.406s0.529 0.504 0.406 0.851c-1.451 4.1-4.904 7.169-9.146 8.129s-8.68-0.324-11.739-3.385l-6.187-5.813z"></path>
</svg>
