<!-- Generated by IcoMoon.io -->
<svg version="1.1" xmlns="http://www.w3.org/2000/svg" width="27" height="32" viewBox="0 0 27 32">
<title>repeat</title>
<path d="M24.391 6.667l-4.862 4.862c-0.26 0.26-0.26 0.682 0 0.943s0.682 0.26 0.943 0l5.333-5.333c0.26-0.26 0.26-0.682 0-0.943l-5.333-5.333c-0.26-0.26-0.682-0.26-0.943 0s-0.26 0.682 0 0.943l4.862 4.862z"></path>
<path d="M2 14.667v-2.667c0-2.577 2.089-4.667 4.667-4.667h18.667c0.368 0 0.667-0.298 0.667-0.667s-0.298-0.667-0.667-0.667h-18.667c-3.314 0-6 2.686-6 6v2.667c0 0.368 0.298 0.667 0.667 0.667s0.667-0.298 0.667-0.667z"></path>
<path d="M7.138 20.471c0.26-0.26 0.26-0.682 0-0.943s-0.682-0.26-0.943 0l-5.333 5.333c-0.26 0.26-0.26 0.682 0 0.943l5.333 5.333c0.26 0.26 0.682 0.26 0.943 0s0.26-0.682 0-0.943l-4.862-4.862 4.862-4.862z"></path>
<path d="M24.667 17.333v2.667c0 2.577-2.089 4.667-4.667 4.667h-18.667c-0.368 0-0.667 0.298-0.667 0.667s0.298 0.667 0.667 0.667h18.667c3.314 0 6-2.686 6-6v-2.667c0-0.368-0.298-0.667-0.667-0.667s-0.667 0.298-0.667 0.667z"></path>
</svg>
