<!-- Generated by IcoMoon.io -->
<svg version="1.1" xmlns="http://www.w3.org/2000/svg" width="32" height="32" viewBox="0 0 32 32">
<title>rewind</title>
<path d="M15.273 26.182c0 0.605-0.696 0.946-1.174 0.574l-13.091-10.182c-0.374-0.291-0.374-0.857 0-1.148l13.091-10.182c0.478-0.372 1.174-0.031 1.174 0.574v20.364zM13.818 7.305l-11.179 8.695 11.179 8.695v-17.39z"></path>
<path d="M31.273 26.182c0 0.605-0.696 0.946-1.174 0.574l-13.091-10.182c-0.374-0.291-0.374-0.857 0-1.148l13.091-10.182c0.478-0.372 1.174-0.031 1.174 0.574v20.364zM29.818 7.305l-11.179 8.695 11.179 8.695v-17.39z"></path>
</svg>
