<!-- Generated by IcoMoon.io -->
<svg version="1.1" xmlns="http://www.w3.org/2000/svg" width="32" height="32" viewBox="0 0 32 32">
<title>rotate-cw</title>
<path d="M29.818 12.364h-8c-0.402 0-0.727 0.326-0.727 0.727s0.326 0.727 0.727 0.727h8.727c0.402 0 0.727-0.326 0.727-0.727v-8.727c0-0.402-0.326-0.727-0.727-0.727s-0.727 0.326-0.727 0.727v8z"></path>
<path d="M26.209 20.121c-1.834 5.192-6.882 8.546-12.38 8.224s-10.12-4.241-11.336-9.611c-1.216-5.371 1.266-10.899 6.088-13.558s10.822-1.808 14.715 2.087l6.75 6.357c0.292 0.275 0.753 0.262 1.028-0.031s0.262-0.753-0.031-1.028l-6.735-6.342c-4.335-4.338-11.041-5.289-16.43-2.317s-8.164 9.15-6.805 15.153c1.36 6.003 6.526 10.383 12.67 10.742s11.786-3.388 13.836-9.192c0.134-0.379-0.065-0.794-0.443-0.928s-0.794 0.065-0.928 0.443z"></path>
</svg>
