<!-- Generated by IcoMoon.io -->
<svg version="1.1" xmlns="http://www.w3.org/2000/svg" width="32" height="32" viewBox="0 0 32 32">
<title>rotate-ccw</title>
<path d="M2.182 12.364v-8c0-0.402-0.326-0.727-0.727-0.727s-0.727 0.326-0.727 0.727v8.727c0 0.402 0.326 0.727 0.727 0.727h8.727c0.402 0 0.727-0.326 0.727-0.727s-0.326-0.727-0.727-0.727h-8z"></path>
<path d="M4.42 20.605c2.045 5.805 7.683 9.557 13.827 9.204s11.314-4.728 12.68-10.729c1.366-6.001-1.402-12.182-6.788-15.159s-12.092-2.034-16.448 2.314l-6.733 6.327c-0.293 0.275-0.307 0.735-0.032 1.028s0.735 0.307 1.028 0.032l6.749-6.342c3.913-3.906 9.913-4.75 14.732-2.086s7.296 8.194 6.074 13.564c-1.222 5.369-5.848 9.283-11.345 9.6s-10.542-3.041-12.371-8.235c-0.133-0.379-0.549-0.578-0.928-0.444s-0.578 0.549-0.444 0.928z"></path>
</svg>
