<!-- Generated by IcoMoon.io -->
<svg version="1.1" xmlns="http://www.w3.org/2000/svg" width="32" height="32" viewBox="0 0 32 32">
<title>rss</title>
<path d="M2.248 15.141c8.069 0 14.611 6.542 14.611 14.611 0 0.475 0.385 0.859 0.859 0.859s0.859-0.385 0.859-0.859c0-9.019-7.311-16.33-16.33-16.33-0.475 0-0.859 0.385-0.859 0.859s0.385 0.859 0.859 0.859z"></path>
<path d="M2.248 3.108c14.715 0 26.644 11.929 26.644 26.644 0 0.475 0.385 0.859 0.859 0.859s0.859-0.385 0.859-0.859c0-15.664-12.698-28.363-28.363-28.363-0.475 0-0.859 0.385-0.859 0.859s0.385 0.859 0.859 0.859z"></path>
<path d="M3.967 30.611c1.424 0 2.578-1.154 2.578-2.578s-1.154-2.578-2.578-2.578c-1.424 0-2.578 1.154-2.578 2.578s1.154 2.578 2.578 2.578zM3.967 28.892c-0.475 0-0.859-0.385-0.859-0.859s0.385-0.859 0.859-0.859c0.475 0 0.859 0.385 0.859 0.859s-0.385 0.859-0.859 0.859z"></path>
</svg>
