<!-- Generated by IcoMoon.io -->
<svg version="1.1" xmlns="http://www.w3.org/2000/svg" width="32" height="32" viewBox="0 0 32 32">
<title>save</title>
<path d="M27.2 31.2h-22.4c-2.209 0-4-1.791-4-4v-22.4c0-2.209 1.791-4 4-4h17.6c0.212 0 0.416 0.084 0.566 0.234l8 8c0.15 0.15 0.234 0.354 0.234 0.566v17.6c0 2.209-1.791 4-4 4zM22.069 2.4h-17.269c-1.325 0-2.4 1.075-2.4 2.4v22.4c0 1.325 1.075 2.4 2.4 2.4h22.4c1.325 0 2.4-1.075 2.4-2.4v-17.269l-7.531-7.531z"></path>
<path d="M8.8 18.4h14.4v12c0 0.442 0.358 0.8 0.8 0.8s0.8-0.358 0.8-0.8v-12.8c0-0.442-0.358-0.8-0.8-0.8h-16c-0.442 0-0.8 0.358-0.8 0.8v12.8c0 0.442 0.358 0.8 0.8 0.8s0.8-0.358 0.8-0.8v-12z"></path>
<path d="M8.8 8.8v-7.2c0-0.442-0.358-0.8-0.8-0.8s-0.8 0.358-0.8 0.8v8c0 0.442 0.358 0.8 0.8 0.8h12.8c0.442 0 0.8-0.358 0.8-0.8s-0.358-0.8-0.8-0.8h-12z"></path>
</svg>
