<!-- Generated by IcoMoon.io -->
<svg version="1.1" xmlns="http://www.w3.org/2000/svg" width="32" height="32" viewBox="0 0 32 32">
<title>scissors</title>
<path d="M7.2 12c3.093 0 5.6-2.507 5.6-5.6s-2.507-5.6-5.6-5.6c-3.093 0-5.6 2.507-5.6 5.6s2.507 5.6 5.6 5.6zM7.2 10.4c-2.209 0-4-1.791-4-4s1.791-4 4-4c2.209 0 4 1.791 4 4s-1.791 4-4 4z"></path>
<path d="M7.2 31.2c3.093 0 5.6-2.507 5.6-5.6s-2.507-5.6-5.6-5.6c-3.093 0-5.6 2.507-5.6 5.6s2.507 5.6 5.6 5.6zM7.2 29.6c-2.209 0-4-1.791-4-4s1.791-4 4-4c2.209 0 4 1.791 4 4s-1.791 4-4 4z"></path>
<path d="M29.034 2.634l-19.008 19.008c-0.312 0.312-0.312 0.819 0 1.131s0.819 0.312 1.131 0l19.008-19.008c0.312-0.312 0.312-0.819 0-1.131s-0.819-0.312-1.131 0z"></path>
<path d="M20.187 20.534l8.848 8.832c0.313 0.312 0.819 0.312 1.131-0.001s0.312-0.819-0.001-1.131l-8.848-8.832c-0.313-0.312-0.819-0.312-1.131 0.001s-0.312 0.819 0.001 1.131z"></path>
<path d="M10.026 10.358l6.208 6.208c0.312 0.312 0.819 0.312 1.131 0s0.312-0.819 0-1.131l-6.208-6.208c-0.312-0.312-0.819-0.312-1.131 0s-0.312 0.819 0 1.131z"></path>
</svg>
