<!-- Generated by IcoMoon.io -->
<svg version="1.1" xmlns="http://www.w3.org/2000/svg" width="32" height="32" viewBox="0 0 32 32">
<title>send</title>
<path d="M30.031 0.94l-16 16c-0.284 0.284-0.284 0.744 0 1.029s0.745 0.284 1.029 0l16-16c0.284-0.284 0.284-0.744 0-1.029s-0.744-0.284-1.029 0z"></path>
<path d="M13.994 18.006l-12.835-5.705c-0.602-0.268-0.567-1.133 0.055-1.351l29.091-10.182c0.575-0.201 1.128 0.352 0.927 0.927l-10.182 29.091c-0.218 0.622-1.084 0.657-1.351 0.055l-5.705-12.835zM3.426 11.717l11.415 5.073c0.165 0.073 0.296 0.205 0.369 0.369l5.073 11.415 9.077-25.934-25.934 9.077z"></path>
</svg>
