<!-- Generated by IcoMoon.io -->
<svg version="1.1" xmlns="http://www.w3.org/2000/svg" width="32" height="32" viewBox="0 0 32 32">
<title>settings</title>
<path d="M16 20.667c2.577 0 4.667-2.089 4.667-4.667s-2.089-4.667-4.667-4.667c-2.577 0-4.667 2.089-4.667 4.667s2.089 4.667 4.667 4.667zM16 19.333c-1.841 0-3.333-1.492-3.333-3.333s1.492-3.333 3.333-3.333c1.841 0 3.333 1.492 3.333 3.333s-1.492 3.333-3.333 3.333z"></path>
<path d="M27.773 12.667h0.227c1.841 0 3.333 1.492 3.333 3.333s-1.492 3.333-3.333 3.333h-0.117c-0.611 0.002-1.162 0.368-1.403 0.929-0.256 0.58-0.134 1.25 0.299 1.693l0.080 0.080c0.626 0.625 0.978 1.474 0.978 2.358s-0.352 1.733-0.977 2.358c-0.625 0.626-1.474 0.978-2.358 0.978s-1.733-0.352-2.358-0.977l-0.075-0.075c-0.448-0.438-1.118-0.56-1.698-0.304-0.562 0.241-0.927 0.792-0.929 1.401v0.227c0 1.841-1.492 3.333-3.333 3.333s-3.333-1.492-3.333-3.333l0-0.104c-0.015-0.629-0.413-1.186-1.043-1.419-0.573-0.253-1.243-0.132-1.686 0.302l-0.080 0.080c-0.625 0.626-1.474 0.978-2.358 0.978s-1.733-0.352-2.358-0.977c-0.626-0.625-0.978-1.474-0.978-2.358s0.352-1.733 0.977-2.358l0.075-0.075c0.438-0.448 0.56-1.118 0.304-1.698-0.241-0.562-0.792-0.927-1.401-0.929h-0.227c-1.841 0-3.333-1.492-3.333-3.333s1.492-3.333 3.333-3.333l0.104 0c0.629-0.015 1.186-0.413 1.419-1.043 0.253-0.573 0.132-1.243-0.301-1.686l-0.080-0.080c-0.626-0.625-0.978-1.474-0.978-2.358s0.352-1.733 0.977-2.358c0.625-0.626 1.474-0.978 2.358-0.978s1.733 0.352 2.358 0.977l0.075 0.075c0.448 0.438 1.118 0.56 1.691 0.307l0.196-0.041c0.514-0.258 0.844-0.784 0.846-1.362v-0.227c0-1.841 1.492-3.333 3.333-3.333s3.333 1.492 3.333 3.333v0.117c0.002 0.611 0.368 1.162 0.936 1.406 0.573 0.253 1.243 0.132 1.686-0.301l0.080-0.080c0.625-0.626 1.474-0.978 2.358-0.978s1.733 0.352 2.358 0.977c0.626 0.625 0.978 1.474 0.978 2.358s-0.352 1.733-0.977 2.358l-0.075 0.075c-0.438 0.448-0.56 1.118-0.307 1.691l0.041 0.196c0.258 0.514 0.784 0.844 1.362 0.846zM27.88 18h0.12c1.105 0 2-0.895 2-2s-0.895-2-2-2h-0.229c-1.143-0.005-2.173-0.687-2.623-1.737l-0.043-0.211c-0.411-1.047-0.172-2.242 0.625-3.057l0.080-0.080c0.376-0.375 0.587-0.884 0.587-1.415s-0.211-1.040-0.587-1.416c-0.375-0.376-0.884-0.587-1.415-0.587s-1.040 0.211-1.415 0.587l-0.085 0.085c-0.838 0.819-2.090 1.046-3.155 0.576-1.050-0.45-1.733-1.481-1.737-2.626v-0.12c0-1.105-0.895-2-2-2s-2 0.895-2 2v0.229c-0.005 1.143-0.687 2.173-1.737 2.623l-0.211 0.043c-1.047 0.411-2.242 0.172-3.057-0.625l-0.080-0.080c-0.375-0.376-0.884-0.587-1.415-0.587s-1.040 0.211-1.416 0.587c-0.376 0.375-0.587 0.884-0.587 1.415s0.211 1.040 0.587 1.415l0.085 0.085c0.819 0.838 1.046 2.090 0.589 3.123-0.406 1.105-1.447 1.849-2.639 1.877h-0.12c-1.105 0-2 0.895-2 2s0.895 2 2 2h0.229c1.143 0.005 2.173 0.687 2.621 1.731 0.473 1.072 0.246 2.324-0.579 3.167l-0.080 0.080c-0.376 0.375-0.587 0.884-0.587 1.415s0.211 1.040 0.587 1.416c0.375 0.376 0.884 0.587 1.415 0.587s1.040-0.211 1.415-0.587l0.085-0.085c0.838-0.819 2.090-1.047 3.123-0.589 1.105 0.406 1.849 1.447 1.877 2.639v0.12c0 1.105 0.895 2 2 2s2-0.895 2-2v-0.229c0.005-1.143 0.687-2.173 1.731-2.621 1.072-0.473 2.324-0.246 3.167 0.578l0.080 0.080c0.375 0.376 0.884 0.587 1.415 0.587s1.040-0.211 1.416-0.587c0.376-0.375 0.587-0.884 0.587-1.415s-0.211-1.040-0.587-1.415l-0.085-0.085c-0.819-0.837-1.046-2.087-0.575-3.159 0.451-1.048 1.481-1.73 2.625-1.734z"></path>
</svg>
