<!-- Generated by IcoMoon.io -->
<svg version="1.1" xmlns="http://www.w3.org/2000/svg" width="32" height="32" viewBox="0 0 32 32">
<title>share-2</title>
<path d="M24.727 10.909c2.812 0 5.091-2.279 5.091-5.091s-2.279-5.091-5.091-5.091c-2.812 0-5.091 2.279-5.091 5.091s2.279 5.091 5.091 5.091zM24.727 9.455c-2.008 0-3.636-1.628-3.636-3.636s1.628-3.636 3.636-3.636c2.008 0 3.636 1.628 3.636 3.636s-1.628 3.636-3.636 3.636z"></path>
<path d="M7.273 21.091c2.812 0 5.091-2.279 5.091-5.091s-2.279-5.091-5.091-5.091c-2.812 0-5.091 2.279-5.091 5.091s2.279 5.091 5.091 5.091zM7.273 19.636c-2.008 0-3.636-1.628-3.636-3.636s1.628-3.636 3.636-3.636c2.008 0 3.636 1.628 3.636 3.636s-1.628 3.636-3.636 3.636z"></path>
<path d="M24.727 31.273c2.812 0 5.091-2.279 5.091-5.091s-2.279-5.091-5.091-5.091c-2.812 0-5.091 2.279-5.091 5.091s2.279 5.091 5.091 5.091zM24.727 29.818c-2.008 0-3.636-1.628-3.636-3.636s1.628-3.636 3.636-3.636c2.008 0 3.636 1.628 3.636 3.636s-1.628 3.636-3.636 3.636z"></path>
<path d="M10.674 18.825l9.935 5.789c0.347 0.202 0.792 0.085 0.995-0.262s0.085-0.792-0.262-0.995l-9.935-5.789c-0.347-0.202-0.792-0.085-0.995 0.262s-0.085 0.792 0.262 0.995z"></path>
<path d="M20.593 7.386l-9.92 5.789c-0.347 0.202-0.464 0.648-0.262 0.995s0.648 0.464 0.995 0.262l9.92-5.789c0.347-0.202 0.464-0.648 0.262-0.995s-0.648-0.464-0.995-0.262z"></path>
</svg>
