<!-- Generated by IcoMoon.io -->
<svg version="1.1" xmlns="http://www.w3.org/2000/svg" width="32" height="32" viewBox="0 0 32 32">
<title>share</title>
<path d="M3.636 16v11.636c0 2.008 1.628 3.636 3.636 3.636h17.455c2.008 0 3.636-1.628 3.636-3.636v-11.636c0-0.402-0.326-0.727-0.727-0.727s-0.727 0.326-0.727 0.727v11.636c0 1.205-0.977 2.182-2.182 2.182h-17.455c-1.205 0-2.182-0.977-2.182-2.182v-11.636c0-0.402-0.326-0.727-0.727-0.727s-0.727 0.326-0.727 0.727z"></path>
<path d="M16 2.483l5.304 5.304c0.284 0.284 0.744 0.284 1.029 0s0.284-0.745 0-1.029l-5.818-5.818c-0.284-0.284-0.745-0.284-1.029 0l-5.818 5.818c-0.284 0.284-0.284 0.745 0 1.029s0.745 0.284 1.029 0l5.304-5.304z"></path>
<path d="M15.273 1.455v18.909c0 0.402 0.326 0.727 0.727 0.727s0.727-0.326 0.727-0.727v-18.909c0-0.402-0.326-0.727-0.727-0.727s-0.727 0.326-0.727 0.727z"></path>
</svg>
