<!-- Generated by IcoMoon.io -->
<svg version="1.1" xmlns="http://www.w3.org/2000/svg" width="32" height="32" viewBox="0 0 32 32">
<title>shield</title>
<path d="M16.325 31.196c0.1-0.050 0.279-0.144 0.527-0.281 0.409-0.226 0.863-0.493 1.351-0.798 1.395-0.872 2.789-1.883 4.093-3.024 3.779-3.306 6.067-7.024 6.067-11.093v-10.182c0-0.303-0.188-0.575-0.472-0.681l-11.636-4.364c-0.165-0.062-0.346-0.062-0.511 0l-11.636 4.364c-0.284 0.106-0.472 0.378-0.472 0.681v10.182c0 4.069 2.288 7.786 6.067 11.093 1.304 1.141 2.699 2.152 4.093 3.024 0.489 0.305 0.943 0.572 1.351 0.798 0.248 0.137 0.427 0.231 0.527 0.281 0.205 0.102 0.446 0.102 0.65 0zM16 29.723c-0.046-0.025-0.095-0.052-0.148-0.081-0.387-0.214-0.819-0.468-1.285-0.759-1.333-0.833-2.665-1.799-3.907-2.885-3.494-3.057-5.57-6.43-5.57-9.998v-9.678l10.909-4.091 10.909 4.091v9.678c0 3.568-2.076 6.941-5.57 9.998-1.241 1.086-2.574 2.052-3.907 2.885-0.466 0.291-0.898 0.545-1.285 0.759-0.053 0.029-0.102 0.056-0.148 0.081z"></path>
</svg>
