<!-- Generated by IcoMoon.io -->
<svg version="1.1" xmlns="http://www.w3.org/2000/svg" width="32" height="32" viewBox="0 0 32 32">
<title>shield-off</title>
<path d="M15.999 3.378l10.001 3.75v8.871c-0.006 0.834-0.135 1.668-0.383 2.469-0.109 0.352 0.087 0.725 0.439 0.834s0.725-0.087 0.834-0.439c0.288-0.926 0.437-1.89 0.443-2.86v-9.338c0-0.278-0.172-0.527-0.433-0.624l-10.667-4c-0.151-0.056-0.317-0.057-0.467-0l-4.213 1.573c-0.345 0.129-0.52 0.513-0.391 0.858s0.513 0.52 0.858 0.391l3.98-1.486z"></path>
<path d="M15.865 28.505c-0.355-0.196-0.751-0.429-1.178-0.696-1.222-0.764-2.443-1.649-3.581-2.645-3.203-2.803-5.106-5.895-5.106-9.165v-8.869l0.538-0.199c0.345-0.128 0.522-0.511 0.394-0.857s-0.511-0.522-0.857-0.394l-0.973 0.36c-0.262 0.097-0.435 0.346-0.435 0.625v9.333c0 3.73 2.097 7.138 5.561 10.168 1.196 1.046 2.474 1.973 3.752 2.772 0.448 0.28 0.864 0.524 1.239 0.731 0.227 0.126 0.392 0.212 0.483 0.258 0.192 0.096 0.419 0.094 0.609-0.007 2.892-1.526 5.492-3.552 7.678-5.984 0.246-0.274 0.224-0.695-0.050-0.941s-0.695-0.224-0.941 0.050c-2.003 2.228-4.37 4.098-7 5.531-0.041-0.022-0.085-0.047-0.133-0.073z"></path>
<path d="M0.862 1.805l29.333 29.333c0.26 0.26 0.682 0.26 0.943 0s0.26-0.682 0-0.943l-29.333-29.333c-0.26-0.26-0.682-0.26-0.943 0s-0.26 0.682 0 0.943z"></path>
</svg>
