<!-- Generated by IcoMoon.io -->
<svg version="1.1" xmlns="http://www.w3.org/2000/svg" width="32" height="32" viewBox="0 0 32 32">
<title>shopping-cart</title>
<path d="M12 30.667c1.105 0 2-0.895 2-2s-0.895-2-2-2c-1.105 0-2 0.895-2 2s0.895 2 2 2zM12 29.333c-0.368 0-0.667-0.298-0.667-0.667s0.298-0.667 0.667-0.667c0.368 0 0.667 0.298 0.667 0.667s-0.298 0.667-0.667 0.667z"></path>
<path d="M26.667 30.667c1.105 0 2-0.895 2-2s-0.895-2-2-2c-1.105 0-2 0.895-2 2s0.895 2 2 2zM26.667 29.333c-0.368 0-0.667-0.298-0.667-0.667s0.298-0.667 0.667-0.667c0.368 0 0.667 0.298 0.667 0.667s-0.298 0.667-0.667 0.667z"></path>
<path d="M6.12 2.667l1.22 6.094c0.004 0.025 0.009 0.051 0.015 0.075l2.231 11.149c0.314 1.583 1.719 2.713 3.333 2.682l12.947 0c1.602 0.031 3.006-1.1 3.321-2.683l2.134-11.192c0.078-0.411-0.237-0.792-0.655-0.792h-22.119l-1.227-6.131c-0.062-0.312-0.336-0.536-0.654-0.536h-5.333c-0.368 0-0.667 0.298-0.667 0.667s0.298 0.667 0.667 0.667h4.787zM8.814 9.333h21.047l-1.982 10.395c-0.188 0.945-1.030 1.624-1.999 1.605l-12.973-0c-0.981 0.019-1.824-0.66-2.013-1.61l-2.080-10.39z"></path>
</svg>
