<!-- Generated by IcoMoon.io -->
<svg version="1.1" xmlns="http://www.w3.org/2000/svg" width="32" height="32" viewBox="0 0 32 32">
<title>shopping-bag</title>
<path d="M6.691 1.018l-4.364 5.818c-0.094 0.126-0.145 0.279-0.145 0.436v20.364c0 2.008 1.628 3.636 3.636 3.636h20.364c2.008 0 3.636-1.628 3.636-3.636v-20.364c0-0.157-0.051-0.31-0.145-0.436l-4.364-5.818c-0.137-0.183-0.353-0.291-0.582-0.291h-17.455c-0.229 0-0.444 0.108-0.582 0.291zM7.636 2.182h16.727l4 5.333v20.121c0 1.205-0.977 2.182-2.182 2.182h-20.364c-1.205 0-2.182-0.977-2.182-2.182v-20.121l4-5.333z"></path>
<path d="M2.909 8h26.182c0.402 0 0.727-0.326 0.727-0.727s-0.326-0.727-0.727-0.727h-26.182c-0.402 0-0.727 0.326-0.727 0.727s0.326 0.727 0.727 0.727z"></path>
<path d="M21.091 13.091c0 2.812-2.279 5.091-5.091 5.091s-5.091-2.279-5.091-5.091c0-0.402-0.326-0.727-0.727-0.727s-0.727 0.326-0.727 0.727c0 3.615 2.931 6.545 6.545 6.545s6.545-2.93 6.545-6.545c0-0.402-0.326-0.727-0.727-0.727s-0.727 0.326-0.727 0.727z"></path>
</svg>
