<!-- Generated by IcoMoon.io -->
<svg version="1.1" xmlns="http://www.w3.org/2000/svg" width="32" height="32" viewBox="0 0 32 32">
<title>shuffle</title>
<path d="M27.537 3.742v6.49c0 0.398 0.323 0.721 0.721 0.721s0.721-0.323 0.721-0.721v-7.211c0-0.398-0.323-0.721-0.721-0.721h-7.211c-0.398 0-0.721 0.323-0.721 0.721s0.323 0.721 0.721 0.721h6.49z"></path>
<path d="M4.252 28.047l24.516-24.516c0.282-0.282 0.282-0.738 0-1.020s-0.738-0.282-1.020 0l-24.516 24.516c-0.282 0.282-0.282 0.738 0 1.020s0.738 0.282 1.020 0z"></path>
<path d="M27.537 28.258h-6.49c-0.398 0-0.721 0.323-0.721 0.721s0.323 0.721 0.721 0.721h7.211c0.398 0 0.721-0.323 0.721-0.721v-7.211c0-0.398-0.323-0.721-0.721-0.721s-0.721 0.323-0.721 0.721v6.49z"></path>
<path d="M19.095 20.836l8.653 8.653c0.282 0.282 0.738 0.282 1.020 0s0.282-0.738 0-1.020l-8.653-8.653c-0.282-0.282-0.738-0.282-1.020 0s-0.282 0.738 0 1.020z"></path>
<path d="M3.232 4.973l7.211 7.211c0.282 0.282 0.738 0.282 1.020 0s0.282-0.738 0-1.020l-7.211-7.211c-0.282-0.282-0.738-0.282-1.020 0s-0.282 0.738 0 1.020z"></path>
</svg>
