<!-- Generated by IcoMoon.io -->
<svg version="1.1" xmlns="http://www.w3.org/2000/svg" width="32" height="32" viewBox="0 0 32 32">
<title>sidebar</title>
<path d="M5.168 1.3h21.663c2.136 0 3.868 1.732 3.868 3.868v21.663c0 2.136-1.732 3.868-3.868 3.868h-21.663c-2.136 0-3.868-1.732-3.868-3.868v-21.663c0-2.136 1.732-3.868 3.868-3.868zM5.168 2.847c-1.282 0-2.321 1.039-2.321 2.321v21.663c0 1.282 1.039 2.321 2.321 2.321h21.663c1.282 0 2.321-1.039 2.321-2.321v-21.663c0-1.282-1.039-2.321-2.321-2.321h-21.663z"></path>
<path d="M10.584 2.074v27.853c0 0.427 0.346 0.774 0.774 0.774s0.774-0.346 0.774-0.774v-27.853c0-0.427-0.346-0.774-0.774-0.774s-0.774 0.346-0.774 0.774z"></path>
</svg>
