<!-- Generated by IcoMoon.io -->
<svg version="1.1" xmlns="http://www.w3.org/2000/svg" width="32" height="32" viewBox="0 0 32 32">
<title>slack</title>
<path d="M19.636 13.818c-1.609 0-2.909-1.3-2.909-2.909v-7.273c0-1.609 1.3-2.909 2.909-2.909s2.909 1.3 2.909 2.909v7.273c0 1.609-1.3 2.909-2.909 2.909zM19.636 12.364c0.806 0 1.455-0.649 1.455-1.455v-7.273c0-0.806-0.649-1.455-1.455-1.455s-1.455 0.649-1.455 1.455v7.273c0 0.806 0.649 1.455 1.455 1.455z"></path>
<path d="M28.364 13.818h-2.182c-0.402 0-0.727-0.326-0.727-0.727v-2.182c0-1.609 1.3-2.909 2.909-2.909s2.909 1.3 2.909 2.909c0 1.609-1.3 2.909-2.909 2.909zM26.909 12.364h1.455c0.806 0 1.455-0.649 1.455-1.455s-0.649-1.455-1.455-1.455c-0.806 0-1.455 0.649-1.455 1.455v1.455z"></path>
<path d="M12.364 18.182c1.609 0 2.909 1.3 2.909 2.909v7.273c0 1.609-1.3 2.909-2.909 2.909s-2.909-1.3-2.909-2.909v-7.273c0-1.609 1.3-2.909 2.909-2.909zM12.364 19.636c-0.806 0-1.455 0.649-1.455 1.455v7.273c0 0.806 0.649 1.455 1.455 1.455s1.455-0.649 1.455-1.455v-7.273c0-0.806-0.649-1.455-1.455-1.455z"></path>
<path d="M3.636 18.182h2.182c0.402 0 0.727 0.326 0.727 0.727v2.182c0 1.609-1.3 2.909-2.909 2.909s-2.909-1.3-2.909-2.909c0-1.609 1.3-2.909 2.909-2.909zM5.091 19.636h-1.455c-0.806 0-1.455 0.649-1.455 1.455s0.649 1.455 1.455 1.455c0.806 0 1.455-0.649 1.455-1.455v-1.455z"></path>
<path d="M18.182 19.636c0-1.609 1.3-2.909 2.909-2.909h7.273c1.609 0 2.909 1.3 2.909 2.909s-1.3 2.909-2.909 2.909h-7.273c-1.609 0-2.909-1.3-2.909-2.909zM19.636 19.636c0 0.806 0.649 1.455 1.455 1.455h7.273c0.806 0 1.455-0.649 1.455-1.455s-0.649-1.455-1.455-1.455h-7.273c-0.806 0-1.455 0.649-1.455 1.455z"></path>
<path d="M21.091 25.455h-2.182c-0.402 0-0.727 0.326-0.727 0.727v2.182c0 1.609 1.3 2.909 2.909 2.909s2.909-1.3 2.909-2.909c0-1.609-1.3-2.909-2.909-2.909zM19.636 26.909h1.455c0.806 0 1.455 0.649 1.455 1.455s-0.649 1.455-1.455 1.455c-0.806 0-1.455-0.649-1.455-1.455v-1.455z"></path>
<path d="M13.818 12.364c0-1.609-1.3-2.909-2.909-2.909h-7.273c-1.609 0-2.909 1.3-2.909 2.909s1.3 2.909 2.909 2.909h7.273c1.609 0 2.909-1.3 2.909-2.909zM12.364 12.364c0 0.806-0.649 1.455-1.455 1.455h-7.273c-0.806 0-1.455-0.649-1.455-1.455s0.649-1.455 1.455-1.455h7.273c0.806 0 1.455 0.649 1.455 1.455z"></path>
<path d="M10.909 6.545h2.182c0.402 0 0.727-0.326 0.727-0.727v-2.182c0-1.609-1.3-2.909-2.909-2.909s-2.909 1.3-2.909 2.909c0 1.609 1.3 2.909 2.909 2.909zM12.364 5.091h-1.455c-0.806 0-1.455-0.649-1.455-1.455s0.649-1.455 1.455-1.455c0.806 0 1.455 0.649 1.455 1.455v1.455z"></path>
</svg>
