<!-- Generated by IcoMoon.io -->
<svg version="1.1" xmlns="http://www.w3.org/2000/svg" width="32" height="32" viewBox="0 0 32 32">
<title>sliders</title>
<path d="M6 28v-9.333c0-0.368-0.298-0.667-0.667-0.667s-0.667 0.298-0.667 0.667v9.333c0 0.368 0.298 0.667 0.667 0.667s0.667-0.298 0.667-0.667z"></path>
<path d="M6 13.333v-9.333c0-0.368-0.298-0.667-0.667-0.667s-0.667 0.298-0.667 0.667v9.333c0 0.368 0.298 0.667 0.667 0.667s0.667-0.298 0.667-0.667z"></path>
<path d="M16.667 28v-12c0-0.368-0.298-0.667-0.667-0.667s-0.667 0.298-0.667 0.667v12c0 0.368 0.298 0.667 0.667 0.667s0.667-0.298 0.667-0.667z"></path>
<path d="M16.667 10.667v-6.667c0-0.368-0.298-0.667-0.667-0.667s-0.667 0.298-0.667 0.667v6.667c0 0.368 0.298 0.667 0.667 0.667s0.667-0.298 0.667-0.667z"></path>
<path d="M27.333 28v-6.667c0-0.368-0.298-0.667-0.667-0.667s-0.667 0.298-0.667 0.667v6.667c0 0.368 0.298 0.667 0.667 0.667s0.667-0.298 0.667-0.667z"></path>
<path d="M27.333 16v-12c0-0.368-0.298-0.667-0.667-0.667s-0.667 0.298-0.667 0.667v12c0 0.368 0.298 0.667 0.667 0.667s0.667-0.298 0.667-0.667z"></path>
<path d="M1.333 19.333h8c0.368 0 0.667-0.298 0.667-0.667s-0.298-0.667-0.667-0.667h-8c-0.368 0-0.667 0.298-0.667 0.667s0.298 0.667 0.667 0.667z"></path>
<path d="M12 11.333h8c0.368 0 0.667-0.298 0.667-0.667s-0.298-0.667-0.667-0.667h-8c-0.368 0-0.667 0.298-0.667 0.667s0.298 0.667 0.667 0.667z"></path>
<path d="M22.667 22h8c0.368 0 0.667-0.298 0.667-0.667s-0.298-0.667-0.667-0.667h-8c-0.368 0-0.667 0.298-0.667 0.667s0.298 0.667 0.667 0.667z"></path>
</svg>
