<!-- Generated by IcoMoon.io -->
<svg version="1.1" xmlns="http://www.w3.org/2000/svg" width="32" height="32" viewBox="0 0 32 32">
<title>smile</title>
<path d="M16 31.273c8.435 0 15.273-6.838 15.273-15.273s-6.838-15.273-15.273-15.273c-8.435 0-15.273 6.838-15.273 15.273s6.838 15.273 15.273 15.273zM16 29.818c-7.632 0-13.818-6.187-13.818-13.818s6.187-13.818 13.818-13.818c7.632 0 13.818 6.187 13.818 13.818s-6.187 13.818-13.818 13.818z"></path>
<path d="M9.6 19.345c0.313 0.417 0.884 1.013 1.7 1.606 1.366 0.993 2.942 1.594 4.7 1.594s3.335-0.6 4.7-1.594c0.815-0.593 1.387-1.189 1.7-1.606 0.241-0.321 0.176-0.777-0.145-1.018s-0.777-0.176-1.018 0.145c-0.051 0.068-0.166 0.205-0.341 0.388-0.298 0.311-0.65 0.624-1.050 0.915-1.134 0.825-2.422 1.315-3.845 1.315s-2.711-0.491-3.845-1.315c-0.401-0.291-0.752-0.604-1.050-0.915-0.175-0.182-0.29-0.319-0.341-0.388-0.241-0.321-0.697-0.386-1.018-0.145s-0.386 0.697-0.145 1.018z"></path>
<path d="M11.636 12.364h0.015c0.402 0 0.727-0.326 0.727-0.727s-0.326-0.727-0.727-0.727h-0.015c-0.402 0-0.727 0.326-0.727 0.727s0.326 0.727 0.727 0.727z"></path>
<path d="M20.364 12.364h0.015c0.402 0 0.727-0.326 0.727-0.727s-0.326-0.727-0.727-0.727h-0.015c-0.402 0-0.727 0.326-0.727 0.727s0.326 0.727 0.727 0.727z"></path>
</svg>
