<!-- Generated by IcoMoon.io -->
<svg version="1.1" xmlns="http://www.w3.org/2000/svg" width="32" height="32" viewBox="0 0 32 32">
<title>speaker</title>
<path d="M7.273 0.727h17.455c2.008 0 3.636 1.628 3.636 3.636v23.273c0 2.008-1.628 3.636-3.636 3.636h-17.455c-2.008 0-3.636-1.628-3.636-3.636v-23.273c0-2.008 1.628-3.636 3.636-3.636zM7.273 2.182c-1.205 0-2.182 0.977-2.182 2.182v23.273c0 1.205 0.977 2.182 2.182 2.182h17.455c1.205 0 2.182-0.977 2.182-2.182v-23.273c0-1.205-0.977-2.182-2.182-2.182h-17.455z"></path>
<path d="M16 25.455c3.615 0 6.545-2.93 6.545-6.545s-2.93-6.545-6.545-6.545c-3.615 0-6.545 2.931-6.545 6.545s2.931 6.545 6.545 6.545zM16 24c-2.812 0-5.091-2.279-5.091-5.091s2.279-5.091 5.091-5.091c2.812 0 5.091 2.279 5.091 5.091s-2.279 5.091-5.091 5.091z"></path>
<path d="M15.486 7.787c0.284 0.284 0.744 0.284 1.029 0s0.284-0.745 0-1.029c-0.284-0.284-0.745-0.284-1.029 0s-0.284 0.745 0 1.029z"></path>
</svg>
