<!-- Generated by IcoMoon.io -->
<svg version="1.1" xmlns="http://www.w3.org/2000/svg" width="32" height="32" viewBox="0 0 32 32">
<title>star</title>
<path d="M11.022 10.623l4.325-8.763c0.267-0.54 1.038-0.54 1.304 0l4.325 8.763 9.673 1.414c0.596 0.087 0.834 0.82 0.402 1.241l-6.999 6.817 1.652 9.63c0.102 0.594-0.522 1.047-1.055 0.767l-8.651-4.549-8.651 4.549c-0.534 0.281-1.157-0.172-1.055-0.767l1.652-9.63-6.999-6.817c-0.432-0.42-0.194-1.153 0.402-1.241l9.673-1.414zM16 3.825l-3.842 7.784c-0.106 0.214-0.31 0.363-0.547 0.398l-8.594 1.256 6.218 6.056c0.172 0.167 0.25 0.408 0.209 0.644l-1.467 8.555 7.685-4.041c0.212-0.111 0.465-0.111 0.677 0l7.685 4.041-1.467-8.555c-0.040-0.236 0.038-0.477 0.209-0.644l6.218-6.056-8.594-1.256c-0.237-0.035-0.441-0.183-0.547-0.398l-3.842-7.784z"></path>
</svg>
