<!-- Generated by IcoMoon.io -->
<svg version="1.1" xmlns="http://www.w3.org/2000/svg" width="32" height="32" viewBox="0 0 32 32">
<title>stop-circle</title>
<path d="M16 31.273c8.435 0 15.273-6.838 15.273-15.273s-6.838-15.273-15.273-15.273c-8.435 0-15.273 6.838-15.273 15.273s6.838 15.273 15.273 15.273zM16 29.818c-7.632 0-13.818-6.187-13.818-13.818s6.187-13.818 13.818-13.818c7.632 0 13.818 6.187 13.818 13.818s-6.187 13.818-13.818 13.818z"></path>
<path d="M10.909 11.636c0-0.402 0.326-0.727 0.727-0.727h8.727c0.402 0 0.727 0.326 0.727 0.727v8.727c0 0.402-0.326 0.727-0.727 0.727h-8.727c-0.402 0-0.727-0.326-0.727-0.727v-8.727zM12.364 12.364v7.273h7.273v-7.273h-7.273z"></path>
</svg>
