<!-- Generated by IcoMoon.io -->
<svg version="1.1" xmlns="http://www.w3.org/2000/svg" width="32" height="32" viewBox="0 0 32 32">
<title>sun</title>
<path d="M16 23.333c4.050 0 7.333-3.283 7.333-7.333s-3.283-7.333-7.333-7.333c-4.050 0-7.333 3.283-7.333 7.333s3.283 7.333 7.333 7.333zM16 22c-3.314 0-6-2.686-6-6s2.686-6 6-6c3.314 0 6 2.686 6 6s-2.686 6-6 6z"></path>
<path d="M15.333 1.333v2.667c0 0.368 0.298 0.667 0.667 0.667s0.667-0.298 0.667-0.667v-2.667c0-0.368-0.298-0.667-0.667-0.667s-0.667 0.298-0.667 0.667z"></path>
<path d="M15.333 28v2.667c0 0.368 0.298 0.667 0.667 0.667s0.667-0.298 0.667-0.667v-2.667c0-0.368-0.298-0.667-0.667-0.667s-0.667 0.298-0.667 0.667z"></path>
<path d="M5.155 6.098l1.893 1.893c0.26 0.26 0.682 0.26 0.943 0s0.26-0.682 0-0.943l-1.893-1.893c-0.26-0.26-0.682-0.26-0.943 0s-0.26 0.682 0 0.943z"></path>
<path d="M24.009 24.951l1.893 1.893c0.26 0.26 0.682 0.26 0.943 0s0.26-0.682 0-0.943l-1.893-1.893c-0.26-0.26-0.682-0.26-0.943 0s-0.26 0.682 0 0.943z"></path>
<path d="M1.333 16.667h2.667c0.368 0 0.667-0.298 0.667-0.667s-0.298-0.667-0.667-0.667h-2.667c-0.368 0-0.667 0.298-0.667 0.667s0.298 0.667 0.667 0.667z"></path>
<path d="M28 16.667h2.667c0.368 0 0.667-0.298 0.667-0.667s-0.298-0.667-0.667-0.667h-2.667c-0.368 0-0.667 0.298-0.667 0.667s0.298 0.667 0.667 0.667z"></path>
<path d="M6.098 26.845l1.893-1.893c0.26-0.26 0.26-0.682 0-0.943s-0.682-0.26-0.943 0l-1.893 1.893c-0.26 0.26-0.26 0.682 0 0.943s0.682 0.26 0.943 0z"></path>
<path d="M24.951 7.991l1.893-1.893c0.26-0.26 0.26-0.682 0-0.943s-0.682-0.26-0.943 0l-1.893 1.893c-0.26 0.26-0.26 0.682 0 0.943s0.682 0.26 0.943 0z"></path>
</svg>
