<!-- Generated by IcoMoon.io -->
<svg version="1.1" xmlns="http://www.w3.org/2000/svg" width="32" height="32" viewBox="0 0 32 32">
<title>sunrise</title>
<path d="M23.333 24c0-4.050-3.283-7.333-7.333-7.333s-7.333 3.283-7.333 7.333c0 0.368 0.298 0.667 0.667 0.667s0.667-0.298 0.667-0.667c0-3.314 2.686-6 6-6s6 2.686 6 6c0 0.368 0.298 0.667 0.667 0.667s0.667-0.298 0.667-0.667z"></path>
<path d="M15.333 2.667v9.333c0 0.368 0.298 0.667 0.667 0.667s0.667-0.298 0.667-0.667v-9.333c0-0.368-0.298-0.667-0.667-0.667s-0.667 0.298-0.667 0.667z"></path>
<path d="M5.155 14.098l1.893 1.893c0.26 0.26 0.682 0.26 0.943 0s0.26-0.682 0-0.943l-1.893-1.893c-0.26-0.26-0.682-0.26-0.943 0s-0.26 0.682 0 0.943z"></path>
<path d="M1.333 24.667h2.667c0.368 0 0.667-0.298 0.667-0.667s-0.298-0.667-0.667-0.667h-2.667c-0.368 0-0.667 0.298-0.667 0.667s0.298 0.667 0.667 0.667z"></path>
<path d="M28 24.667h2.667c0.368 0 0.667-0.298 0.667-0.667s-0.298-0.667-0.667-0.667h-2.667c-0.368 0-0.667 0.298-0.667 0.667s0.298 0.667 0.667 0.667z"></path>
<path d="M24.951 15.991l1.893-1.893c0.26-0.26 0.26-0.682 0-0.943s-0.682-0.26-0.943 0l-1.893 1.893c-0.26 0.26-0.26 0.682 0 0.943s0.682 0.26 0.943 0z"></path>
<path d="M30.667 28.667h-29.333c-0.368 0-0.667 0.298-0.667 0.667s0.298 0.667 0.667 0.667h29.333c0.368 0 0.667-0.298 0.667-0.667s-0.298-0.667-0.667-0.667z"></path>
<path d="M20.862 8.471c0.26 0.26 0.682 0.26 0.943 0s0.26-0.682 0-0.943l-5.333-5.333c-0.26-0.26-0.682-0.26-0.943 0l-5.333 5.333c-0.26 0.26-0.26 0.682 0 0.943s0.682 0.26 0.943 0l4.862-4.862 4.862 4.862z"></path>
</svg>
