<!-- Generated by IcoMoon.io -->
<svg version="1.1" xmlns="http://www.w3.org/2000/svg" width="32" height="32" viewBox="0 0 32 32">
<title>tablet</title>
<path d="M24.727 31.273h-17.455c-2.008 0-3.636-1.628-3.636-3.636v-23.273c0-2.008 1.628-3.636 3.636-3.636h17.455c2.008 0 3.636 1.628 3.636 3.636v23.273c0 2.008-1.628 3.636-3.636 3.636zM24.727 29.818c1.205 0 2.182-0.977 2.182-2.182v-23.273c0-1.205-0.977-2.182-2.182-2.182h-17.455c-1.205 0-2.182 0.977-2.182 2.182v23.273c0 1.205 0.977 2.182 2.182 2.182h17.455z"></path>
<path d="M15.486 25.242c0.284 0.284 0.744 0.284 1.029 0s0.284-0.744 0-1.029c-0.284-0.284-0.745-0.284-1.029 0s-0.284 0.744 0 1.029z"></path>
</svg>
