<!-- Generated by IcoMoon.io -->
<svg version="1.1" xmlns="http://www.w3.org/2000/svg" width="32" height="32" viewBox="0 0 32 32">
<title>tag</title>
<path d="M30.392 19.448l-10.927 10.927c-0.715 0.715-1.684 1.117-2.695 1.117s-1.981-0.402-2.695-1.117l-13.090-13.074c-0.143-0.143-0.223-0.337-0.223-0.539v-15.238c0-0.421 0.341-0.762 0.762-0.762h15.238c0.202 0 0.396 0.080 0.539 0.223l13.091 13.091c1.477 1.486 1.477 3.886 0 5.371zM2.286 16.446l12.867 12.852c0.429 0.429 1.011 0.67 1.617 0.67s1.188-0.241 1.617-0.671l10.926-10.926c0.885-0.89 0.885-2.33 0-3.22l-12.866-12.866h-14.161v14.16z"></path>
<path d="M8.604 9.682c0.298 0.298 0.78 0.298 1.078 0s0.298-0.78 0-1.078c-0.298-0.298-0.78-0.298-1.078 0s-0.298 0.78 0 1.078z"></path>
</svg>
