<!-- Generated by IcoMoon.io -->
<svg version="1.1" xmlns="http://www.w3.org/2000/svg" width="32" height="32" viewBox="0 0 32 32">
<title>target</title>
<path d="M16 31.273c8.435 0 15.273-6.838 15.273-15.273s-6.838-15.273-15.273-15.273c-8.435 0-15.273 6.838-15.273 15.273s6.838 15.273 15.273 15.273zM16 29.818c-7.632 0-13.818-6.187-13.818-13.818s6.187-13.818 13.818-13.818c7.632 0 13.818 6.187 13.818 13.818s-6.187 13.818-13.818 13.818z"></path>
<path d="M16 25.455c5.222 0 9.455-4.233 9.455-9.455s-4.233-9.455-9.455-9.455c-5.222 0-9.455 4.233-9.455 9.455s4.233 9.455 9.455 9.455zM16 24c-4.418 0-8-3.582-8-8s3.582-8 8-8c4.418 0 8 3.582 8 8s-3.582 8-8 8z"></path>
<path d="M16 19.636c2.008 0 3.636-1.628 3.636-3.636s-1.628-3.636-3.636-3.636c-2.008 0-3.636 1.628-3.636 3.636s1.628 3.636 3.636 3.636zM16 18.182c-1.205 0-2.182-0.977-2.182-2.182s0.977-2.182 2.182-2.182c1.205 0 2.182 0.977 2.182 2.182s-0.977 2.182-2.182 2.182z"></path>
</svg>
