<!-- Generated by IcoMoon.io -->
<svg version="1.1" xmlns="http://www.w3.org/2000/svg" width="32" height="32" viewBox="0 0 32 32">
<title>terminal</title>
<path d="M11.548 14.356l-9.285 9.285c-0.321 0.321-0.321 0.842 0 1.163s0.842 0.321 1.163 0l9.867-9.867c0.321-0.321 0.321-0.842 0-1.163l-9.867-9.867c-0.321-0.321-0.842-0.321-1.163 0s-0.321 0.842 0 1.163l9.285 9.285z"></path>
<path d="M16 28.333h13.156c0.454 0 0.822-0.368 0.822-0.822s-0.368-0.822-0.822-0.822h-13.156c-0.454 0-0.822 0.368-0.822 0.822s0.368 0.822 0.822 0.822z"></path>
</svg>
