<!-- Generated by IcoMoon.io -->
<svg version="1.1" xmlns="http://www.w3.org/2000/svg" width="15" height="32" viewBox="0 0 15 32">
<title>thermometer</title>
<path d="M11.333 4.667c0-2.209-1.791-4-4-4s-4 1.791-4 4v14.669c-2.232 1.673-3.197 4.575-2.38 7.269 0.852 2.81 3.443 4.732 6.38 4.732s5.527-1.921 6.38-4.732c0.817-2.694-0.148-5.596-2.38-7.269v-14.669zM10 19.68c0 0.223 0.111 0.431 0.296 0.554 1.953 1.305 2.823 3.735 2.141 5.983s-2.754 3.785-5.104 3.785c-2.349 0-4.422-1.537-5.104-3.785s0.187-4.678 2.141-5.983c0.185-0.124 0.296-0.332 0.296-0.554v-15.013c0-1.473 1.194-2.667 2.667-2.667s2.667 1.194 2.667 2.667v15.013z"></path>
</svg>
