<!-- Generated by IcoMoon.io -->
<svg version="1.1" xmlns="http://www.w3.org/2000/svg" width="32" height="32" viewBox="0 0 32 32">
<title>thumbs-up</title>
<path d="M8.255 13.818l5.626-12.659c0.117-0.263 0.377-0.432 0.665-0.432 2.812 0 5.091 2.279 5.091 5.091v5.091l7.497 0c1.067-0.012 2.085 0.445 2.785 1.25s1.011 1.877 0.851 2.933l-2.007 13.090c-0.272 1.793-1.823 3.111-3.628 3.091h-16.407c-0.006 0-0.011 0-0.017-0h-4.347c-2.008 0-3.636-1.628-3.636-3.636v-10.182c0-2.008 1.628-3.636 3.636-3.636h3.891zM8 15.273h-3.636c-1.205 0-2.182 0.977-2.182 2.182v10.182c0 1.205 0.977 2.182 2.182 2.182h3.636v-14.545zM9.455 29.819h15.688c1.088 0.012 2.019-0.779 2.182-1.856l2.007-13.090c0.096-0.633-0.091-1.276-0.511-1.759s-1.031-0.757-1.679-0.75h-8.233c-0.402 0-0.727-0.326-0.727-0.727v-5.818c0-1.853-1.385-3.382-3.177-3.608l-5.551 12.489v15.119z"></path>
</svg>
