<!-- Generated by IcoMoon.io -->
<svg version="1.1" xmlns="http://www.w3.org/2000/svg" width="32" height="32" viewBox="0 0 32 32">
<title>thumbs-down</title>
<path d="M23.745 18.182l-5.626 12.659c-0.117 0.263-0.377 0.432-0.665 0.432-2.812 0-5.091-2.279-5.091-5.091v-5.091l-7.497-0c-1.067 0.012-2.085-0.445-2.785-1.25s-1.011-1.877-0.851-2.933l2.007-13.090c0.272-1.793 1.823-3.111 3.628-3.091h16.407c0.006 0 0.011 0 0.017 0l3.854 0c2.073-0.037 3.845 1.484 4.129 3.636l-0.007 10.279c-0.278 2.054-2.050 3.575-4.11 3.539h-3.411zM24 16.727l3.169 0c1.335 0.024 2.477-0.956 2.649-2.182l0.007-10.084c-0.179-1.323-1.32-2.303-2.668-2.279h-3.156v14.545zM22.545 2.181h-15.688c-1.088-0.012-2.019 0.779-2.182 1.856l-2.007 13.090c-0.096 0.633 0.091 1.276 0.511 1.759s1.031 0.757 1.679 0.75h8.233c0.402 0 0.727 0.326 0.727 0.727v5.818c0 1.853 1.385 3.382 3.177 3.608l5.551-12.489v-15.119z"></path>
</svg>
