<!-- Generated by IcoMoon.io -->
<svg version="1.1" xmlns="http://www.w3.org/2000/svg" width="32" height="32" viewBox="0 0 32 32">
<title>toggle-left</title>
<path d="M10.667 6h10.667c5.523 0 10 4.477 10 10s-4.477 10-10 10h-10.667c-5.523 0-10-4.477-10-10s4.477-10 10-10zM10.667 7.333c-4.786 0-8.667 3.88-8.667 8.667s3.88 8.667 8.667 8.667h10.667c4.786 0 8.667-3.88 8.667-8.667s-3.88-8.667-8.667-8.667h-10.667z"></path>
<path d="M10.667 20.667c2.577 0 4.667-2.089 4.667-4.667s-2.089-4.667-4.667-4.667c-2.577 0-4.667 2.089-4.667 4.667s2.089 4.667 4.667 4.667zM10.667 19.333c-1.841 0-3.333-1.492-3.333-3.333s1.492-3.333 3.333-3.333c1.841 0 3.333 1.492 3.333 3.333s-1.492 3.333-3.333 3.333z"></path>
</svg>
