<!-- Generated by IcoMoon.io -->
<svg version="1.1" xmlns="http://www.w3.org/2000/svg" width="32" height="32" viewBox="0 0 32 32">
<title>trash-2</title>
<path d="M2.909 8h26.182c0.402 0 0.727-0.326 0.727-0.727s-0.326-0.727-0.727-0.727h-26.182c-0.402 0-0.727 0.326-0.727 0.727s0.326 0.727 0.727 0.727z"></path>
<path d="M25.455 7.273c0-0.402 0.326-0.727 0.727-0.727s0.727 0.326 0.727 0.727v20.364c0 2.008-1.628 3.636-3.636 3.636h-14.545c-2.008 0-3.636-1.628-3.636-3.636v-20.364c0-0.402 0.326-0.727 0.727-0.727s0.727 0.326 0.727 0.727v20.364c0 1.205 0.977 2.182 2.182 2.182h14.545c1.205 0 2.182-0.977 2.182-2.182v-20.364zM10.909 7.273c0 0.402-0.326 0.727-0.727 0.727s-0.727-0.326-0.727-0.727v-2.909c0-2.008 1.628-3.636 3.636-3.636h5.818c2.008 0 3.636 1.628 3.636 3.636v2.909c0 0.402-0.326 0.727-0.727 0.727s-0.727-0.326-0.727-0.727v-2.909c0-1.205-0.977-2.182-2.182-2.182h-5.818c-1.205 0-2.182 0.977-2.182 2.182v2.909z"></path>
<path d="M12.364 14.545v8.727c0 0.402 0.326 0.727 0.727 0.727s0.727-0.326 0.727-0.727v-8.727c0-0.402-0.326-0.727-0.727-0.727s-0.727 0.326-0.727 0.727z"></path>
<path d="M18.182 14.545v8.727c0 0.402 0.326 0.727 0.727 0.727s0.727-0.326 0.727-0.727v-8.727c0-0.402-0.326-0.727-0.727-0.727s-0.727 0.326-0.727 0.727z"></path>
</svg>
