<!-- Generated by IcoMoon.io -->
<svg version="1.1" xmlns="http://www.w3.org/2000/svg" width="32" height="32" viewBox="0 0 32 32">
<title>trello</title>
<path d="M4.8 0.8h22.4c2.209 0 4 1.791 4 4v22.4c0 2.209-1.791 4-4 4h-22.4c-2.209 0-4-1.791-4-4v-22.4c0-2.209 1.791-4 4-4zM4.8 2.4c-1.325 0-2.4 1.075-2.4 2.4v22.4c0 1.325 1.075 2.4 2.4 2.4h22.4c1.325 0 2.4-1.075 2.4-2.4v-22.4c0-1.325-1.075-2.4-2.4-2.4h-22.4z"></path>
<path d="M7.2 8c0-0.442 0.358-0.8 0.8-0.8h4.8c0.442 0 0.8 0.358 0.8 0.8v14.4c0 0.442-0.358 0.8-0.8 0.8h-4.8c-0.442 0-0.8-0.358-0.8-0.8v-14.4zM8.8 8.8v12.8h3.2v-12.8h-3.2z"></path>
<path d="M18.4 8c0-0.442 0.358-0.8 0.8-0.8h4.8c0.442 0 0.8 0.358 0.8 0.8v8c0 0.442-0.358 0.8-0.8 0.8h-4.8c-0.442 0-0.8-0.358-0.8-0.8v-8zM20 8.8v6.4h3.2v-6.4h-3.2z"></path>
</svg>
