<!-- Generated by IcoMoon.io -->
<svg version="1.1" xmlns="http://www.w3.org/2000/svg" width="32" height="32" viewBox="0 0 32 32">
<title>trending-down</title>
<path d="M11.333 17.057l-9.529-9.529c-0.26-0.26-0.682-0.26-0.943 0s-0.26 0.682 0 0.943l10 10c0.26 0.26 0.682 0.26 0.943 0l6.195-6.195 12.195 12.195c0.26 0.26 0.682 0.26 0.943 0s0.26-0.682 0-0.943l-12.667-12.667c-0.26-0.26-0.682-0.26-0.943 0l-6.195 6.195z"></path>
<path d="M30 23.333h-7.333c-0.368 0-0.667 0.298-0.667 0.667s0.298 0.667 0.667 0.667h8c0.368 0 0.667-0.298 0.667-0.667v-8c0-0.368-0.298-0.667-0.667-0.667s-0.667 0.298-0.667 0.667v7.333z"></path>
</svg>
