<!-- Generated by IcoMoon.io -->
<svg version="1.1" xmlns="http://www.w3.org/2000/svg" width="32" height="32" viewBox="0 0 32 32">
<title>trending-up</title>
<path d="M11.805 13.529c-0.26-0.26-0.682-0.26-0.943 0l-10 10c-0.26 0.26-0.26 0.682 0 0.943s0.682 0.26 0.943 0l9.529-9.529 6.195 6.195c0.26 0.26 0.682 0.26 0.943 0l12.667-12.667c0.26-0.26 0.26-0.682 0-0.943s-0.682-0.26-0.943 0l-12.195 12.195-6.195-6.195z"></path>
<path d="M30 8.667v7.333c0 0.368 0.298 0.667 0.667 0.667s0.667-0.298 0.667-0.667v-8c0-0.368-0.298-0.667-0.667-0.667h-8c-0.368 0-0.667 0.298-0.667 0.667s0.298 0.667 0.667 0.667h7.333z"></path>
</svg>
