<!-- Generated by IcoMoon.io -->
<svg version="1.1" xmlns="http://www.w3.org/2000/svg" width="32" height="32" viewBox="0 0 32 32">
<title>truck</title>
<path d="M0.667 4c0-0.368 0.298-0.667 0.667-0.667h20c0.368 0 0.667 0.298 0.667 0.667v17.333c0 0.368-0.298 0.667-0.667 0.667h-20c-0.368 0-0.667-0.298-0.667-0.667v-17.333zM2 4.667v16h18.667v-16h-18.667z"></path>
<path d="M20.667 10.667c0-0.368 0.298-0.667 0.667-0.667h5.333c0.177 0 0.346 0.070 0.471 0.195l4 4c0.125 0.125 0.195 0.295 0.195 0.471v6.667c0 0.368-0.298 0.667-0.667 0.667h-9.333c-0.368 0-0.667-0.298-0.667-0.667v-10.667zM22 11.333v9.333h8v-5.724l-3.609-3.609h-4.391z"></path>
<path d="M7.333 28.667c2.209 0 4-1.791 4-4s-1.791-4-4-4c-2.209 0-4 1.791-4 4s1.791 4 4 4zM7.333 27.333c-1.473 0-2.667-1.194-2.667-2.667s1.194-2.667 2.667-2.667c1.473 0 2.667 1.194 2.667 2.667s-1.194 2.667-2.667 2.667z"></path>
<path d="M24.667 28.667c2.209 0 4-1.791 4-4s-1.791-4-4-4c-2.209 0-4 1.791-4 4s1.791 4 4 4zM24.667 27.333c-1.473 0-2.667-1.194-2.667-2.667s1.194-2.667 2.667-2.667c1.473 0 2.667 1.194 2.667 2.667s-1.194 2.667-2.667 2.667z"></path>
</svg>
