<!-- Generated by IcoMoon.io -->
<svg version="1.1" xmlns="http://www.w3.org/2000/svg" width="32" height="32" viewBox="0 0 32 32">
<title>tv</title>
<path d="M4.364 8h23.273c2.008 0 3.636 1.628 3.636 3.636v16c0 2.008-1.628 3.636-3.636 3.636h-23.273c-2.008 0-3.636-1.628-3.636-3.636v-16c0-2.008 1.628-3.636 3.636-3.636zM4.364 9.455c-1.205 0-2.182 0.977-2.182 2.182v16c0 1.205 0.977 2.182 2.182 2.182h23.273c1.205 0 2.182-0.977 2.182-2.182v-16c0-1.205-0.977-2.182-2.182-2.182h-23.273z"></path>
<path d="M9.242 0.94c-0.284-0.284-0.745-0.284-1.029 0s-0.284 0.744 0 1.029l7.273 7.273c0.284 0.284 0.744 0.284 1.029 0l7.273-7.273c0.284-0.284 0.284-0.744 0-1.029s-0.744-0.284-1.029 0l-6.758 6.758-6.758-6.758z"></path>
</svg>
