<!-- Generated by IcoMoon.io -->
<svg version="1.1" xmlns="http://www.w3.org/2000/svg" width="32" height="32" viewBox="0 0 32 32">
<title>twitter</title>
<path d="M19.605 3.756c-2.603 0.994-4.309 3.507-4.272 6.293l-0 0.659c-4.294-0.094-8.305-2.222-10.788-5.758-0.298-0.424-0.944-0.361-1.155 0.112-0.043 0.096-0.113 0.268-0.201 0.509-0.145 0.395-0.289 0.843-0.423 1.337-0.764 2.809-0.898 5.762 0.010 8.55 0.978 3.007 3.094 5.495 6.511 7.283-2.404 1.366-5.149 2.037-7.927 1.927-0.702-0.028-0.964 0.908-0.35 1.249 12.955 7.197 27.657-0.628 27.657-15.916-0.001-0.296-0.021-0.589-0.061-0.881 1.32-1.387 2.255-3.097 2.709-4.962 0.146-0.599-0.529-1.058-1.032-0.703-1.106 0.78-2.32 1.394-3.602 1.822-1.84-1.851-4.611-2.461-7.075-1.521zM27.425 8.419c-0.158 0.156-0.228 0.381-0.187 0.6 0.062 0.324 0.094 0.654 0.095 0.984 0 13.317-11.885 20.503-23.318 15.878 2.506-0.322 4.914-1.229 7.025-2.662 0.433-0.294 0.374-0.948-0.104-1.161-3.732-1.659-5.932-4.056-6.894-7.012-0.815-2.504-0.693-5.207 0.009-7.787 0.052-0.192 0.106-0.376 0.161-0.552 2.898 3.469 7.24 5.452 11.804 5.333 0.361-0.009 0.649-0.305 0.649-0.666v-1.333c-0.030-2.236 1.333-4.244 3.414-5.038s4.435-0.205 5.896 1.475c0.172 0.198 0.444 0.276 0.695 0.201 0.957-0.288 1.881-0.669 2.76-1.137-0.485 1.070-1.164 2.046-2.007 2.878z"></path>
</svg>
