<!-- Generated by IcoMoon.io -->
<svg version="1.1" xmlns="http://www.w3.org/2000/svg" width="32" height="32" viewBox="0 0 32 32">
<title>type</title>
<path d="M4.652 4.652h22.696v3.783c0 0.418 0.339 0.756 0.756 0.756s0.756-0.339 0.756-0.756v-4.539c0-0.418-0.339-0.756-0.756-0.756h-24.209c-0.418 0-0.756 0.339-0.756 0.756v4.539c0 0.418 0.339 0.756 0.756 0.756s0.756-0.339 0.756-0.756v-3.783z"></path>
<path d="M11.461 28.861h9.078c0.418 0 0.756-0.339 0.756-0.756s-0.339-0.756-0.756-0.756h-9.078c-0.418 0-0.756 0.339-0.756 0.756s0.339 0.756 0.756 0.756z"></path>
<path d="M15.244 3.895v24.209c0 0.418 0.339 0.756 0.756 0.756s0.756-0.339 0.756-0.756v-24.209c0-0.418-0.339-0.756-0.756-0.756s-0.756 0.339-0.756 0.756z"></path>
</svg>
