<!-- Generated by IcoMoon.io -->
<svg version="1.1" xmlns="http://www.w3.org/2000/svg" width="32" height="32" viewBox="0 0 32 32">
<title>umbrella</title>
<path d="M15.333 16.667h-14c-0.393 0-0.701-0.339-0.664-0.73 0.754-7.902 7.392-13.937 15.33-13.937s14.576 6.034 15.33 13.937c0.037 0.391-0.27 0.73-0.664 0.73h-13.217l7.057 8.233c0.104 0.121 0.16 0.275 0.16 0.434 0 2.577-2.089 4.667-4.667 4.667s-4.667-2.089-4.667-4.667v-8.667zM29.914 15.333c-1.014-6.857-6.91-12-13.914-12s-12.9 5.143-13.914 12h13.878c0.028-0.002 0.056-0.002 0.084 0h13.866zM16.667 17.802v7.531c0 1.841 1.492 3.333 3.333 3.333 1.761 0 3.204-1.366 3.325-3.096l-6.658-7.768z"></path>
</svg>
