<!-- Generated by IcoMoon.io -->
<svg version="1.1" xmlns="http://www.w3.org/2000/svg" width="32" height="32" viewBox="0 0 32 32">
<title>underline</title>
<path d="M5.6 1.6v11.2c0 5.744 4.656 10.4 10.4 10.4s10.4-4.656 10.4-10.4v-11.2c0-0.442-0.358-0.8-0.8-0.8s-0.8 0.358-0.8 0.8v11.2c0 4.86-3.94 8.8-8.8 8.8s-8.8-3.94-8.8-8.8v-11.2c0-0.442-0.358-0.8-0.8-0.8s-0.8 0.358-0.8 0.8z"></path>
<path d="M3.2 31.2h25.6c0.442 0 0.8-0.358 0.8-0.8s-0.358-0.8-0.8-0.8h-25.6c-0.442 0-0.8 0.358-0.8 0.8s0.358 0.8 0.8 0.8z"></path>
</svg>
