<!-- Generated by IcoMoon.io -->
<svg version="1.1" xmlns="http://www.w3.org/2000/svg" width="32" height="32" viewBox="0 0 32 32">
<title>unlock</title>
<path d="M5.818 13.818h20.364c2.008 0 3.636 1.628 3.636 3.636v10.182c0 2.008-1.628 3.636-3.636 3.636h-20.364c-2.008 0-3.636-1.628-3.636-3.636v-10.182c0-2.008 1.628-3.636 3.636-3.636zM5.818 15.273c-1.205 0-2.182 0.977-2.182 2.182v10.182c0 1.205 0.977 2.182 2.182 2.182h20.364c1.205 0 2.182-0.977 2.182-2.182v-10.182c0-1.205-0.977-2.182-2.182-2.182h-20.364z"></path>
<path d="M9.455 14.545v-5.818c-0.003-3.363 2.542-6.182 5.888-6.52s6.403 1.914 7.072 5.21c0.080 0.394 0.464 0.648 0.857 0.568s0.648-0.464 0.568-0.857c-0.818-4.028-4.555-6.781-8.644-6.368s-7.2 3.857-7.196 7.968v5.817c0 0.402 0.326 0.727 0.727 0.727s0.727-0.326 0.727-0.727z"></path>
</svg>
