<!-- Generated by IcoMoon.io -->
<svg version="1.1" xmlns="http://www.w3.org/2000/svg" width="32" height="32" viewBox="0 0 32 32">
<title>upload-cloud</title>
<path d="M15.333 16v12c0 0.368 0.298 0.667 0.667 0.667s0.667-0.298 0.667-0.667v-12c0-0.368-0.298-0.667-0.667-0.667s-0.667 0.298-0.667 0.667z"></path>
<path d="M13.279 3.41c-4.661-0.532-9.168 1.862-11.336 6.023s-1.548 9.227 1.558 12.742c0.244 0.276 0.665 0.302 0.941 0.058s0.302-0.665 0.058-0.941c-2.741-3.102-3.288-7.572-1.375-11.243s5.89-5.784 10.003-5.314c4.113 0.47 7.511 3.425 8.547 7.432 0.076 0.294 0.342 0.5 0.645 0.5h1.68c2.742 0.002 5.134 1.863 5.81 4.52s-0.535 5.435-2.943 6.748c-0.323 0.176-0.442 0.581-0.266 0.904s0.581 0.442 0.904 0.266c2.943-1.604 4.423-4.999 3.597-8.248s-3.75-5.522-7.102-5.524h-1.176c-1.319-4.287-5.057-7.411-9.545-7.924z"></path>
<path d="M16 16.943l4.862 4.862c0.26 0.26 0.682 0.26 0.943 0s0.26-0.682 0-0.943l-5.333-5.333c-0.26-0.26-0.682-0.26-0.943 0l-5.333 5.333c-0.26 0.26-0.26 0.682 0 0.943s0.682 0.26 0.943 0l4.862-4.862z"></path>
</svg>
