<!-- Generated by IcoMoon.io -->
<svg version="1.1" xmlns="http://www.w3.org/2000/svg" width="32" height="32" viewBox="0 0 32 32">
<title>upload</title>
<path d="M29.6 20.8v6.4c0 1.325-1.075 2.4-2.4 2.4h-22.4c-1.325 0-2.4-1.075-2.4-2.4v-6.4c0-0.442-0.358-0.8-0.8-0.8s-0.8 0.358-0.8 0.8v6.4c0 2.209 1.791 4 4 4h22.4c2.209 0 4-1.791 4-4v-6.4c0-0.442-0.358-0.8-0.8-0.8s-0.8 0.358-0.8 0.8z"></path>
<path d="M23.434 10.166c0.312 0.312 0.819 0.312 1.131 0s0.312-0.819 0-1.131l-8-8c-0.312-0.312-0.819-0.312-1.131 0l-8 8c-0.312 0.312-0.312 0.819 0 1.131s0.819 0.312 1.131 0l7.434-7.434 7.434 7.434z"></path>
<path d="M15.2 1.6v19.2c0 0.442 0.358 0.8 0.8 0.8s0.8-0.358 0.8-0.8v-19.2c0-0.442-0.358-0.8-0.8-0.8s-0.8 0.358-0.8 0.8z"></path>
</svg>
