<!-- Generated by IcoMoon.io -->
<svg version="1.1" xmlns="http://www.w3.org/2000/svg" width="32" height="32" viewBox="0 0 32 32">
<title>user-check</title>
<path d="M22 28v-2.667c0-3.314-2.686-6-6-6h-9.333c-3.314 0-6 2.686-6 6v2.667c0 0.368 0.298 0.667 0.667 0.667s0.667-0.298 0.667-0.667v-2.667c0-2.577 2.089-4.667 4.667-4.667h9.333c2.577 0 4.667 2.089 4.667 4.667v2.667c0 0.368 0.298 0.667 0.667 0.667s0.667-0.298 0.667-0.667z"></path>
<path d="M11.333 15.333c3.314 0 6-2.686 6-6s-2.686-6-6-6c-3.314 0-6 2.686-6 6s2.686 6 6 6zM11.333 14c-2.577 0-4.667-2.089-4.667-4.667s2.089-4.667 4.667-4.667c2.577 0 4.667 2.089 4.667 4.667s-2.089 4.667-4.667 4.667z"></path>
<path d="M23.138 14.195c-0.26-0.26-0.682-0.26-0.943 0s-0.26 0.682 0 0.943l2.667 2.667c0.26 0.26 0.682 0.26 0.943 0l5.333-5.333c0.26-0.26 0.26-0.682 0-0.943s-0.682-0.26-0.943 0l-4.862 4.862-2.195-2.195z"></path>
</svg>
