<!-- Generated by IcoMoon.io -->
<svg version="1.1" xmlns="http://www.w3.org/2000/svg" width="32" height="32" viewBox="0 0 32 32">
<title>user</title>
<path d="M29.6 30.4v-3.2c0-3.976-3.224-7.2-7.2-7.2h-12.8c-3.976 0-7.2 3.224-7.2 7.2v3.2c0 0.442 0.358 0.8 0.8 0.8s0.8-0.358 0.8-0.8v-3.2c0-3.093 2.507-5.6 5.6-5.6h12.8c3.093 0 5.6 2.507 5.6 5.6v3.2c0 0.442 0.358 0.8 0.8 0.8s0.8-0.358 0.8-0.8z"></path>
<path d="M16 15.2c3.976 0 7.2-3.224 7.2-7.2s-3.224-7.2-7.2-7.2c-3.976 0-7.2 3.224-7.2 7.2s3.224 7.2 7.2 7.2zM16 13.6c-3.093 0-5.6-2.507-5.6-5.6s2.507-5.6 5.6-5.6c3.093 0 5.6 2.507 5.6 5.6s-2.507 5.6-5.6 5.6z"></path>
</svg>
