<!-- Generated by IcoMoon.io -->
<svg version="1.1" xmlns="http://www.w3.org/2000/svg" width="32" height="32" viewBox="0 0 32 32">
<title>users</title>
<path d="M23.333 28v-2.667c0-3.314-2.686-6-6-6h-10.667c-3.314 0-6 2.686-6 6v2.667c0 0.368 0.298 0.667 0.667 0.667s0.667-0.298 0.667-0.667v-2.667c0-2.577 2.089-4.667 4.667-4.667h10.667c2.577 0 4.667 2.089 4.667 4.667v2.667c0 0.368 0.298 0.667 0.667 0.667s0.667-0.298 0.667-0.667z"></path>
<path d="M12 15.333c3.314 0 6-2.686 6-6s-2.686-6-6-6c-3.314 0-6 2.686-6 6s2.686 6 6 6zM12 14c-2.577 0-4.667-2.089-4.667-4.667s2.089-4.667 4.667-4.667c2.577 0 4.667 2.089 4.667 4.667s-2.089 4.667-4.667 4.667z"></path>
<path d="M31.333 28v-2.667c-0.002-2.735-1.852-5.122-4.5-5.805-0.357-0.092-0.72 0.122-0.812 0.479s0.122 0.72 0.479 0.812c2.059 0.532 3.498 2.388 3.5 4.515v2.666c0 0.368 0.298 0.667 0.667 0.667s0.667-0.298 0.667-0.667z"></path>
<path d="M21.168 4.819c2.065 0.529 3.509 2.389 3.509 4.521s-1.444 3.992-3.509 4.521c-0.357 0.091-0.572 0.454-0.48 0.811s0.454 0.572 0.811 0.48c2.655-0.68 4.512-3.072 4.512-5.813s-1.857-5.133-4.512-5.813c-0.357-0.091-0.72 0.124-0.811 0.48s0.124 0.72 0.48 0.811z"></path>
</svg>
