<!-- Generated by IcoMoon.io -->
<svg version="1.1" xmlns="http://www.w3.org/2000/svg" width="32" height="32" viewBox="0 0 32 32">
<title>video-off</title>
<path d="M20.667 21.333c0-0.368 0.298-0.667 0.667-0.667s0.667 0.298 0.667 0.667v1.333c0 1.841-1.492 3.333-3.333 3.333h-14.667c-1.841 0-3.333-1.492-3.333-3.333v-13.333c0-1.841 1.492-3.333 3.333-3.333h2.667c0.368 0 0.667 0.298 0.667 0.667s-0.298 0.667-0.667 0.667h-2.667c-1.105 0-2 0.895-2 2v13.333c0 1.105 0.895 2 2 2h14.667c1.105 0 2-0.895 2-2v-1.333zM30 10.638l-6.943 5.022c-0.265 0.192-0.631 0.163-0.862-0.069l-1.333-1.333c-0.125-0.125-0.195-0.295-0.195-0.471v-4.453c0-1.105-0.895-2-2-2h-4.453c-0.368 0-0.667-0.298-0.667-0.667s0.298-0.667 0.667-0.667h4.453c1.841 0 3.333 1.492 3.333 3.333v4.177l0.736 0.736 7.54-5.454c0.441-0.319 1.057-0.004 1.057 0.54v13.333c0 0.368-0.298 0.667-0.667 0.667s-0.667-0.298-0.667-0.667v-12.028z"></path>
<path d="M0.862 1.805l29.333 29.333c0.26 0.26 0.682 0.26 0.943 0s0.26-0.682 0-0.943l-29.333-29.333c-0.26-0.26-0.682-0.26-0.943 0s-0.26 0.682 0 0.943z"></path>
</svg>
