<!-- Generated by IcoMoon.io -->
<svg version="1.1" xmlns="http://www.w3.org/2000/svg" width="32" height="32" viewBox="0 0 32 32">
<title>video</title>
<path d="M30.279 8.791l-9.333 6.667c-0.372 0.266-0.372 0.819 0 1.085l9.333 6.667c0.441 0.315 1.054-0 1.054-0.543v-13.333c0-0.542-0.613-0.858-1.054-0.543zM30 21.371l-7.52-5.371 7.52-5.371v10.742z"></path>
<path d="M4 6h14.667c1.841 0 3.333 1.492 3.333 3.333v13.333c0 1.841-1.492 3.333-3.333 3.333h-14.667c-1.841 0-3.333-1.492-3.333-3.333v-13.333c0-1.841 1.492-3.333 3.333-3.333zM4 7.333c-1.105 0-2 0.895-2 2v13.333c0 1.105 0.895 2 2 2h14.667c1.105 0 2-0.895 2-2v-13.333c0-1.105-0.895-2-2-2h-14.667z"></path>
</svg>
