<!-- Generated by IcoMoon.io -->
<svg version="1.1" xmlns="http://www.w3.org/2000/svg" width="32" height="32" viewBox="0 0 32 32">
<title>volume-2</title>
<path d="M7.426 11.14h-5.31c-0.383 0-0.694 0.311-0.694 0.694v8.331c0 0.383 0.311 0.694 0.694 0.694h5.31l6.752 5.402c0.455 0.364 1.128 0.040 1.128-0.542v-19.439c0-0.582-0.673-0.906-1.128-0.542l-6.752 5.402zM13.917 7.725v16.55l-5.814-4.652c-0.123-0.098-0.276-0.152-0.434-0.152h-4.86v-6.942h4.86c0.158 0 0.311-0.054 0.434-0.152l5.814-4.652z"></path>
<path d="M25.326 6.674c-0.271-0.271-0.271-0.711 0-0.982s0.711-0.271 0.982 0c5.691 5.693 5.691 14.922 0 20.615-0.271 0.271-0.711 0.271-0.982 0s-0.271-0.711-0-0.982c5.149-5.151 5.149-13.501 0-18.652zM20.424 11.576c-0.271-0.271-0.271-0.711 0-0.982s0.711-0.271 0.982 0c2.981 2.982 2.981 7.816 0 10.798-0.271 0.271-0.711 0.271-0.982 0s-0.271-0.711-0-0.982c2.439-2.44 2.439-6.395 0-8.835z"></path>
</svg>
