<!-- Generated by IcoMoon.io -->
<svg version="1.1" xmlns="http://www.w3.org/2000/svg" width="32" height="32" viewBox="0 0 32 32">
<title>volume-x</title>
<path d="M6.49 11.014h-5.449c-0.393 0-0.712 0.319-0.712 0.712v8.548c0 0.393 0.319 0.712 0.712 0.712h5.449l6.928 5.542c0.466 0.373 1.157 0.041 1.157-0.556v-19.945c0-0.597-0.691-0.929-1.157-0.556l-6.928 5.542zM13.151 7.51v16.981l-5.966-4.773c-0.126-0.101-0.283-0.156-0.445-0.156h-4.986v-7.123h4.986c0.162 0 0.319-0.055 0.445-0.156l5.966-4.773z"></path>
<path d="M30.455 11.222l-8.548 8.548c-0.278 0.278-0.278 0.729 0 1.007s0.729 0.278 1.007 0l8.548-8.548c0.278-0.278 0.278-0.729 0-1.007s-0.729-0.278-1.007 0z"></path>
<path d="M21.907 12.23l8.548 8.548c0.278 0.278 0.729 0.278 1.007 0s0.278-0.729 0-1.007l-8.548-8.548c-0.278-0.278-0.729-0.278-1.007 0s-0.278 0.729 0 1.007z"></path>
</svg>
