<!-- Generated by IcoMoon.io -->
<svg version="1.1" xmlns="http://www.w3.org/2000/svg" width="32" height="32" viewBox="0 0 32 32">
<title>volume-1</title>
<path d="M10.552 10.812h-5.67c-0.409 0-0.741 0.332-0.741 0.741v8.895c0 0.409 0.332 0.741 0.741 0.741h5.67l7.209 5.767c0.485 0.388 1.204 0.043 1.204-0.579v-20.754c0-0.622-0.719-0.967-1.204-0.579l-7.209 5.767zM17.482 7.165v17.669l-6.208-4.966c-0.131-0.105-0.295-0.162-0.463-0.162h-5.188v-7.412h5.188c0.168 0 0.331-0.057 0.463-0.162l6.208-4.966z"></path>
<path d="M24.429 11.276c2.604 2.605 2.604 6.828 0 9.433-0.29 0.29-0.289 0.759 0 1.048s0.759 0.289 1.048-0c3.183-3.184 3.183-8.345 0-11.529-0.29-0.29-0.759-0.29-1.048-0s-0.29 0.759-0 1.048z"></path>
</svg>
