<!-- Generated by IcoMoon.io -->
<svg version="1.1" xmlns="http://www.w3.org/2000/svg" width="21" height="32" viewBox="0 0 21 32">
<title>watch</title>
<path d="M10.667 26c5.523 0 10-4.477 10-10s-4.477-10-10-10c-5.523 0-10 4.477-10 10s4.477 10 10 10zM10.667 24.667c-4.786 0-8.667-3.88-8.667-8.667s3.88-8.667 8.667-8.667c4.786 0 8.667 3.88 8.667 8.667s-3.88 8.667-8.667 8.667z"></path>
<path d="M11.333 15.724v-3.724c0-0.368-0.298-0.667-0.667-0.667s-0.667 0.298-0.667 0.667v4c0 0.177 0.070 0.346 0.195 0.471l2 2c0.26 0.26 0.682 0.26 0.943 0s0.26-0.682 0-0.943l-1.805-1.805z"></path>
<path d="M16.016 23.073c0.034-0.367 0.358-0.637 0.725-0.603s0.637 0.358 0.603 0.725l-0.467 5.106c-0.156 1.723-1.603 3.040-3.331 3.033h-5.771c-1.73 0.007-3.178-1.311-3.333-3.033l-0.467-5.107c-0.034-0.367 0.237-0.691 0.603-0.725s0.691 0.237 0.725 0.603l0.467 5.107c0.093 1.034 0.962 1.824 2.003 1.82h5.776c1.038 0.004 1.907-0.786 2-1.821l0.467-5.107zM5.317 8.927c-0.034 0.367-0.358 0.637-0.725 0.603s-0.637-0.358-0.603-0.725l0.467-5.106c0.155-1.716 1.593-3.032 3.317-3.033h5.797c1.73-0.007 3.178 1.31 3.333 3.033l0.467 5.107c0.034 0.367-0.237 0.691-0.603 0.725s-0.691-0.237-0.725-0.603l-0.467-5.107c-0.093-1.034-0.962-1.824-2.003-1.82h-5.799c-1.034 0.001-1.897 0.79-1.99 1.821l-0.467 5.107z"></path>
</svg>
