<!-- Generated by IcoMoon.io -->
<svg version="1.1" xmlns="http://www.w3.org/2000/svg" width="32" height="32" viewBox="0 0 32 32">
<title>wifi-off</title>
<path d="M0.862 1.805l29.333 29.333c0.26 0.26 0.682 0.26 0.943 0s0.26-0.682 0-0.943l-29.333-29.333c-0.26-0.26-0.682-0.26-0.943 0s-0.26 0.682 0 0.943z"></path>
<path d="M22.001 15.346c1.042 0.509 2.017 1.146 2.901 1.896 0.281 0.238 0.701 0.204 0.94-0.077s0.204-0.701-0.077-0.94c-0.969-0.822-2.037-1.52-3.179-2.077-0.331-0.162-0.73-0.024-0.892 0.307s-0.024 0.73 0.307 0.892z"></path>
<path d="M7.094 17.245c1.886-1.577 4.155-2.626 6.578-3.041 0.363-0.062 0.607-0.407 0.545-0.77s-0.407-0.607-0.77-0.545c-2.655 0.455-5.142 1.605-7.208 3.332-0.282 0.236-0.32 0.657-0.084 0.939s0.657 0.32 0.939 0.084z"></path>
<path d="M14.334 7.398c5.591-0.451 11.126 1.391 15.332 5.102 0.276 0.244 0.697 0.217 0.941-0.059s0.217-0.697-0.059-0.941c-4.478-3.95-10.369-5.911-16.321-5.431-0.367 0.030-0.641 0.351-0.611 0.718s0.351 0.641 0.718 0.611z"></path>
<path d="M2.335 12.499c1.791-1.583 3.846-2.842 6.070-3.719 0.343-0.135 0.511-0.522 0.376-0.865s-0.522-0.511-0.865-0.376c-2.369 0.934-4.556 2.274-6.464 3.961-0.276 0.244-0.302 0.665-0.058 0.941s0.665 0.302 0.941 0.058z"></path>
<path d="M11.759 22.023c2.543-1.807 5.951-1.807 8.494 0 0.3 0.213 0.716 0.143 0.93-0.157s0.143-0.716-0.157-0.93c-3.006-2.135-7.033-2.135-10.039 0-0.3 0.213-0.371 0.629-0.157 0.93s0.629 0.371 0.93 0.157z"></path>
<path d="M15.529 27.138c0.26 0.26 0.682 0.26 0.943 0s0.26-0.682 0-0.943c-0.26-0.26-0.682-0.26-0.943 0s-0.26 0.682 0 0.943z"></path>
</svg>
