<!-- Generated by IcoMoon.io -->
<svg version="1.1" xmlns="http://www.w3.org/2000/svg" width="32" height="32" viewBox="0 0 32 32">
<title>wind</title>
<path d="M13.010 5.735c-0.283 0.285-0.744 0.286-1.028 0.003s-0.286-0.744-0.003-1.029c1.163-1.17 2.967-1.41 4.395-0.587s2.124 2.506 1.694 4.098c-0.43 1.592-1.877 2.696-3.523 2.689h-13.091c-0.402 0-0.727-0.326-0.727-0.727s0.326-0.727 0.727-0.727h13.094c0.989 0.004 1.858-0.658 2.116-1.613s-0.159-1.964-1.017-2.459c-0.857-0.494-1.94-0.35-2.637 0.352zM16.342 27.291c-0.283-0.285-0.282-0.745 0.003-1.029s0.745-0.282 1.029 0.003c0.698 0.702 1.78 0.846 2.637 0.352s1.274-1.503 1.017-2.459c-0.258-0.955-1.126-1.617-2.119-1.613h-17.455c-0.402 0-0.727-0.326-0.727-0.727s0.326-0.727 0.727-0.727h17.451c1.649-0.007 3.096 1.097 3.526 2.689s-0.266 3.274-1.694 4.098c-1.429 0.824-3.233 0.583-4.395-0.587zM24.848 10.304c-0.284 0.284-0.745 0.283-1.029-0.001s-0.283-0.745 0.001-1.029c1.397-1.394 3.556-1.676 5.264-0.689s2.542 2.998 2.033 4.905c-0.509 1.906-2.235 3.234-4.209 3.238h-25.455c-0.402 0-0.727-0.326-0.727-0.727s0.326-0.727 0.727-0.727h25.453c1.316-0.002 2.466-0.887 2.805-2.158s-0.216-2.612-1.355-3.27c-1.139-0.658-2.578-0.47-3.51 0.459z"></path>
</svg>
