<!-- Generated by IcoMoon.io -->
<svg version="1.1" xmlns="http://www.w3.org/2000/svg" width="32" height="32" viewBox="0 0 32 32">
<title>x-circle</title>
<path d="M16 31.273c8.435 0 15.273-6.838 15.273-15.273s-6.838-15.273-15.273-15.273c-8.435 0-15.273 6.838-15.273 15.273s6.838 15.273 15.273 15.273zM16 29.818c-7.632 0-13.818-6.187-13.818-13.818s6.187-13.818 13.818-13.818c7.632 0 13.818 6.187 13.818 13.818s-6.187 13.818-13.818 13.818z"></path>
<path d="M19.849 11.122l-8.727 8.727c-0.284 0.284-0.284 0.744 0 1.029s0.745 0.284 1.029 0l8.727-8.727c0.284-0.284 0.284-0.745 0-1.029s-0.744-0.284-1.029 0z"></path>
<path d="M11.122 12.151l8.727 8.727c0.284 0.284 0.744 0.284 1.029 0s0.284-0.744 0-1.029l-8.727-8.727c-0.284-0.284-0.745-0.284-1.029 0s-0.284 0.745 0 1.029z"></path>
</svg>
