<!-- Generated by IcoMoon.io -->
<svg version="1.1" xmlns="http://www.w3.org/2000/svg" width="32" height="32" viewBox="0 0 32 32">
<title>youtube</title>
<path d="M30.7 9.065c-0.38-1.52-1.544-2.72-3.052-3.146-0.963-0.236-2.915-0.385-5.634-0.48-1.316-0.046-2.725-0.075-4.134-0.092-0.493-0.006-0.951-0.009-1.362-0.011-0.247-0.001-0.423-0.002-0.518-0.002s-0.271 0-0.518 0.002c-0.411 0.002-0.869 0.006-1.362 0.013-1.409 0.018-2.819 0.050-4.136 0.101-2.724 0.104-4.678 0.268-5.623 0.521-1.517 0.429-2.681 1.629-3.061 3.149-0.436 2.411-0.645 4.813-0.633 7.218-0.015 2.416 0.194 4.836 0.624 7.222 0.434 1.536 1.591 2.681 3.067 3.085 0.949 0.254 2.903 0.418 5.626 0.522 1.317 0.050 2.726 0.083 4.136 0.101 0.493 0.006 0.951 0.010 1.362 0.013 0.247 0.001 0.424 0.002 0.518 0.002s0.271-0 0.518-0.002c0.411-0.002 0.869-0.006 1.362-0.013 1.409-0.018 2.819-0.050 4.136-0.101 2.724-0.104 4.678-0.268 5.623-0.521 1.517-0.429 2.681-1.629 3.061-3.149 0.433-2.393 0.642-4.777 0.633-7.164 0.015-2.417-0.194-4.837-0.624-7.223l-0.009-0.044zM30 16.329c0.008 2.313-0.193 4.616-0.603 6.886-0.255 1.013-1.064 1.847-2.112 2.143-0.801 0.214-2.708 0.374-5.32 0.474-1.304 0.050-2.703 0.082-4.102 0.1-0.49 0.006-0.944 0.010-1.352 0.012-0.244 0.001-0.419 0.002-0.511 0.002s-0.267-0-0.511-0.002c-0.408-0.002-0.863-0.006-1.352-0.012-1.399-0.018-2.797-0.050-4.102-0.1-2.612-0.1-4.519-0.26-5.329-0.477-1.022-0.28-1.826-1.076-2.118-2.099-0.401-2.24-0.603-4.578-0.588-6.92-0.011-2.332 0.19-4.652 0.603-6.939 0.255-1.013 1.064-1.847 2.112-2.143 0.801-0.214 2.708-0.374 5.32-0.474 1.304-0.050 2.703-0.082 4.102-0.1 0.49-0.006 0.944-0.010 1.352-0.012 0.244-0.001 0.419-0.002 0.511-0.002s0.267 0 0.511 0.002c0.408 0.002 0.863 0.006 1.353 0.011 1.399 0.016 2.798 0.046 4.103 0.091 2.616 0.091 4.526 0.238 5.341 0.437 1.018 0.288 1.823 1.114 2.093 2.16 0.413 2.297 0.613 4.627 0.599 6.961z"></path>
<path d="M13.33 21.273l7.667-4.36c0.449-0.256 0.449-0.903 0-1.159l-7.667-4.36c-0.444-0.253-0.996 0.068-0.996 0.579v8.72c0 0.511 0.552 0.832 0.996 0.579zM13.667 19.547v-6.428l5.651 3.214-5.651 3.214z"></path>
</svg>
