<!-- Generated by IcoMoon.io -->
<svg version="1.1" xmlns="http://www.w3.org/2000/svg" width="32" height="32" viewBox="0 0 32 32">
<title>zap-off</title>
<path d="M15.885 8.918c-0.045 0.365 0.214 0.698 0.579 0.744s0.698-0.214 0.744-0.579l0.787-6.333c0.082-0.661-0.748-1.020-1.174-0.509l-3.24 3.893c-0.236 0.283-0.197 0.703 0.086 0.939s0.703 0.197 0.939-0.086l1.786-2.146-0.506 4.077z"></path>
<path d="M24.248 16.786c-0.236 0.283-0.198 0.703 0.084 0.939s0.703 0.198 0.939-0.084l3.24-3.88c0.363-0.434 0.054-1.094-0.512-1.094h-7.12c-0.368 0-0.667 0.298-0.667 0.667s0.298 0.667 0.667 0.667h5.695l-2.326 2.786z"></path>
<path d="M15.245 19.333l-1.24 9.917c-0.083 0.661 0.748 1.021 1.174 0.509l6.667-8c0.236-0.283 0.198-0.703-0.085-0.939s-0.703-0.198-0.939 0.085l-5.211 6.253 1.051-8.41c0.050-0.398-0.261-0.749-0.662-0.749h-10.577l5.755-6.907c0.236-0.283 0.197-0.703-0.085-0.939s-0.703-0.197-0.939 0.085l-6.667 8c-0.362 0.434-0.053 1.093 0.512 1.093h11.245z"></path>
<path d="M0.862 1.805l29.333 29.333c0.26 0.26 0.682 0.26 0.943 0s0.26-0.682 0-0.943l-29.333-29.333c-0.26-0.26-0.682-0.26-0.943 0s-0.26 0.682 0 0.943z"></path>
</svg>
