<!-- Generated by IcoMoon.io -->
<svg version="1.1" xmlns="http://www.w3.org/2000/svg" width="32" height="32" viewBox="0 0 32 32">
<title>zap</title>
<path d="M15.176 19.636l-1.352 10.819c-0.090 0.721 0.815 1.114 1.28 0.556l14.545-17.455c0.395-0.474 0.058-1.193-0.559-1.193h-12.267l1.352-10.819c0.090-0.721-0.815-1.114-1.28-0.556l-14.545 17.455c-0.395 0.474-0.058 1.193 0.559 1.193h12.267zM16.425 3.826l-1.147 9.175c-0.054 0.434 0.284 0.817 0.722 0.817h11.538l-11.963 14.356 1.147-9.175c0.054-0.434-0.284-0.817-0.722-0.817h-11.538l11.963-14.356z"></path>
</svg>
