<!-- Generated by IcoMoon.io -->
<svg version="1.1" xmlns="http://www.w3.org/2000/svg" width="32" height="32" viewBox="0 0 32 32">
<title>zoom-in</title>
<path d="M14.4 28c7.511 0 13.6-6.089 13.6-13.6s-6.089-13.6-13.6-13.6c-7.511 0-13.6 6.089-13.6 13.6s6.089 13.6 13.6 13.6zM14.4 26.4c-6.627 0-12-5.373-12-12s5.373-12 12-12c6.627 0 12 5.373 12 12s-5.373 12-12 12z"></path>
<path d="M30.966 29.834l-6.96-6.96c-0.312-0.312-0.819-0.312-1.131 0s-0.312 0.819 0 1.131l6.96 6.96c0.312 0.312 0.819 0.312 1.131 0s0.312-0.819 0-1.131z"></path>
<path d="M13.6 9.6v9.6c0 0.442 0.358 0.8 0.8 0.8s0.8-0.358 0.8-0.8v-9.6c0-0.442-0.358-0.8-0.8-0.8s-0.8 0.358-0.8 0.8z"></path>
<path d="M9.6 15.2h9.6c0.442 0 0.8-0.358 0.8-0.8s-0.358-0.8-0.8-0.8h-9.6c-0.442 0-0.8 0.358-0.8 0.8s0.358 0.8 0.8 0.8z"></path>
</svg>
